<svg xmlns="http://www.w3.org/2000/svg" xmlns:xlink="http://www.w3.org/1999/xlink" width="500" zoomAndPan="magnify" viewBox="0 0 375 374.999991" height="500" preserveAspectRatio="xMidYMid meet" version="1.0"><defs><g/><clipPath id="e137e3f103"><path d="M 33.507812 200.605469 L 350.742188 200.605469 L 350.742188 237.679688 L 33.507812 237.679688 Z M 33.507812 200.605469 " clip-rule="nonzero"/></clipPath></defs><rect x="-37.5" width="450" fill="#ffffff" y="-37.499999" height="449.999989" fill-opacity="1"/><rect x="-37.5" width="450" fill="#ffffff" y="-37.499999" height="449.999989" fill-opacity="1"/><rect x="-37.5" width="450" fill="#333333" y="-37.499999" height="449.999989" fill-opacity="1"/><g fill="#ffd700" fill-opacity="1"><g transform="translate(176.410085, 273.355588)"><g><path d="M 0.1875 0 L 0.1875 -1.8125 L 6 -1.8125 C 9.757812 -1.8125 12.726562 -2.84375 14.90625 -4.90625 C 17.082031 -6.96875 19.082031 -10.601562 20.90625 -15.8125 L 61.265625 -129.796875 L 72.90625 -129.796875 L 117.078125 -12.359375 C 118.648438 -8.359375 120.285156 -5.597656 121.984375 -4.078125 C 123.679688 -2.566406 125.925781 -1.8125 128.71875 -1.8125 L 130.53125 -1.8125 L 130.53125 0 L 77.8125 0 L 77.8125 -1.8125 L 83.625 -1.8125 C 87.75 -1.8125 90.71875 -2.328125 92.53125 -3.359375 C 94.351562 -4.390625 95.265625 -6.238281 95.265625 -8.90625 C 95.265625 -9.875 95.140625 -11.054688 94.890625 -12.453125 C 94.648438 -13.847656 94.226562 -15.394531 93.625 -17.09375 L 82.71875 -47.265625 L 34.171875 -47.265625 L 24 -18.71875 C 23.394531 -16.90625 22.910156 -15.300781 22.546875 -13.90625 C 22.179688 -12.507812 22 -11.207031 22 -10 C 22 -6.96875 23.238281 -4.84375 25.71875 -3.625 C 28.207031 -2.414062 32.238281 -1.8125 37.8125 -1.8125 L 44.359375 -1.8125 L 44.359375 0 Z M 34.71875 -49.078125 L 81.984375 -49.078125 L 69.265625 -83.984375 C 67.203125 -89.679688 65.203125 -95.410156 63.265625 -101.171875 C 61.328125 -106.929688 59.75 -112.234375 58.53125 -117.078125 C 56.84375 -111.984375 55.175781 -107.132812 53.53125 -102.53125 C 51.894531 -97.925781 50.050781 -92.65625 48 -86.71875 Z M 34.71875 -49.078125 "/></g></g></g><g fill="#ffd700" fill-opacity="1"><g transform="translate(68.067429, 216.929235)"><g><path d="M 0.1875 0 L 0.1875 -1.8125 L 6 -1.8125 C 9.757812 -1.8125 12.726562 -2.84375 14.90625 -4.90625 C 17.082031 -6.96875 19.082031 -10.601562 20.90625 -15.8125 L 61.265625 -129.796875 L 72.90625 -129.796875 L 117.078125 -12.359375 C 118.648438 -8.359375 120.285156 -5.597656 121.984375 -4.078125 C 123.679688 -2.566406 125.925781 -1.8125 128.71875 -1.8125 L 130.53125 -1.8125 L 130.53125 0 L 77.8125 0 L 77.8125 -1.8125 L 83.625 -1.8125 C 87.75 -1.8125 90.71875 -2.328125 92.53125 -3.359375 C 94.351562 -4.390625 95.265625 -6.238281 95.265625 -8.90625 C 95.265625 -9.875 95.140625 -11.054688 94.890625 -12.453125 C 94.648438 -13.847656 94.226562 -15.394531 93.625 -17.09375 L 82.71875 -47.265625 L 34.171875 -47.265625 L 24 -18.71875 C 23.394531 -16.90625 22.910156 -15.300781 22.546875 -13.90625 C 22.179688 -12.507812 22 -11.207031 22 -10 C 22 -6.96875 23.238281 -4.84375 25.71875 -3.625 C 28.207031 -2.414062 32.238281 -1.8125 37.8125 -1.8125 L 44.359375 -1.8125 L 44.359375 0 Z M 34.71875 -49.078125 L 81.984375 -49.078125 L 69.265625 -83.984375 C 67.203125 -89.679688 65.203125 -95.410156 63.265625 -101.171875 C 61.328125 -106.929688 59.75 -112.234375 58.53125 -117.078125 C 56.84375 -111.984375 55.175781 -107.132812 53.53125 -102.53125 C 51.894531 -97.925781 50.050781 -92.65625 48 -86.71875 Z M 34.71875 -49.078125 "/></g></g></g><g fill="#ffd700" fill-opacity="1"><g transform="translate(122.519836, 248.606489)"><g><path d="M 1.121094 0 L 1.648438 0 L 1.648438 -5.207031 L 0.378906 -5.070312 L 0.378906 -4.609375 L 1.121094 -4.609375 Z M 1.121094 0 "/></g></g></g><g fill="#ffd700" fill-opacity="1"><g transform="translate(130.503174, 248.606489)"><g><path d="M 1.921875 -2.339844 C 1.597656 -2.339844 1.316406 -2.453125 1.082031 -2.695312 C 0.855469 -2.929688 0.742188 -3.207031 0.742188 -3.535156 C 0.742188 -3.851562 0.855469 -4.125 1.089844 -4.359375 C 1.316406 -4.585938 1.597656 -4.699219 1.929688 -4.699219 C 2.246094 -4.699219 2.535156 -4.578125 2.777344 -4.34375 C 3.011719 -4.109375 3.132812 -3.835938 3.132812 -3.511719 C 3.132812 -3.191406 3.011719 -2.914062 2.769531 -2.6875 C 2.664062 -2.582031 2.535156 -2.488281 2.390625 -2.429688 C 2.238281 -2.367188 2.089844 -2.339844 1.921875 -2.339844 Z M 0.203125 -3.496094 C 0.203125 -2.996094 0.378906 -2.589844 0.734375 -2.269531 C 1.058594 -1.96875 1.476562 -1.808594 1.996094 -1.792969 L 2.148438 -1.890625 L 0.574219 0 L 1.269531 0 L 3.285156 -2.429688 C 3.542969 -2.730469 3.671875 -3.09375 3.671875 -3.511719 C 3.671875 -3.988281 3.496094 -4.390625 3.164062 -4.722656 C 2.816406 -5.054688 2.40625 -5.230469 1.9375 -5.230469 C 1.453125 -5.230469 1.042969 -5.0625 0.710938 -4.730469 C 0.550781 -4.570312 0.429688 -4.390625 0.339844 -4.183594 C 0.25 -3.972656 0.203125 -3.746094 0.203125 -3.496094 Z M 0.203125 -3.496094 "/></g></g></g><g fill="#ffd700" fill-opacity="1"><g transform="translate(140.189124, 248.606489)"><g><path d="M 1.921875 -2.339844 C 1.597656 -2.339844 1.316406 -2.453125 1.082031 -2.695312 C 0.855469 -2.929688 0.742188 -3.207031 0.742188 -3.535156 C 0.742188 -3.851562 0.855469 -4.125 1.089844 -4.359375 C 1.316406 -4.585938 1.597656 -4.699219 1.929688 -4.699219 C 2.246094 -4.699219 2.535156 -4.578125 2.777344 -4.34375 C 3.011719 -4.109375 3.132812 -3.835938 3.132812 -3.511719 C 3.132812 -3.191406 3.011719 -2.914062 2.769531 -2.6875 C 2.664062 -2.582031 2.535156 -2.488281 2.390625 -2.429688 C 2.238281 -2.367188 2.089844 -2.339844 1.921875 -2.339844 Z M 0.203125 -3.496094 C 0.203125 -2.996094 0.378906 -2.589844 0.734375 -2.269531 C 1.058594 -1.96875 1.476562 -1.808594 1.996094 -1.792969 L 2.148438 -1.890625 L 0.574219 0 L 1.269531 0 L 3.285156 -2.429688 C 3.542969 -2.730469 3.671875 -3.09375 3.671875 -3.511719 C 3.671875 -3.988281 3.496094 -4.390625 3.164062 -4.722656 C 2.816406 -5.054688 2.40625 -5.230469 1.9375 -5.230469 C 1.453125 -5.230469 1.042969 -5.0625 0.710938 -4.730469 C 0.550781 -4.570312 0.429688 -4.390625 0.339844 -4.183594 C 0.25 -3.972656 0.203125 -3.746094 0.203125 -3.496094 Z M 0.203125 -3.496094 "/></g></g></g><g fill="#ffd700" fill-opacity="1"><g transform="translate(149.875073, 248.606489)"><g><path d="M 1.921875 -2.339844 C 1.597656 -2.339844 1.316406 -2.453125 1.082031 -2.695312 C 0.855469 -2.929688 0.742188 -3.207031 0.742188 -3.535156 C 0.742188 -3.851562 0.855469 -4.125 1.089844 -4.359375 C 1.316406 -4.585938 1.597656 -4.699219 1.929688 -4.699219 C 2.246094 -4.699219 2.535156 -4.578125 2.777344 -4.34375 C 3.011719 -4.109375 3.132812 -3.835938 3.132812 -3.511719 C 3.132812 -3.191406 3.011719 -2.914062 2.769531 -2.6875 C 2.664062 -2.582031 2.535156 -2.488281 2.390625 -2.429688 C 2.238281 -2.367188 2.089844 -2.339844 1.921875 -2.339844 Z M 0.203125 -3.496094 C 0.203125 -2.996094 0.378906 -2.589844 0.734375 -2.269531 C 1.058594 -1.96875 1.476562 -1.808594 1.996094 -1.792969 L 2.148438 -1.890625 L 0.574219 0 L 1.269531 0 L 3.285156 -2.429688 C 3.542969 -2.730469 3.671875 -3.09375 3.671875 -3.511719 C 3.671875 -3.988281 3.496094 -4.390625 3.164062 -4.722656 C 2.816406 -5.054688 2.40625 -5.230469 1.9375 -5.230469 C 1.453125 -5.230469 1.042969 -5.0625 0.710938 -4.730469 C 0.550781 -4.570312 0.429688 -4.390625 0.339844 -4.183594 C 0.25 -3.972656 0.203125 -3.746094 0.203125 -3.496094 Z M 0.203125 -3.496094 "/></g></g></g><g clip-path="url(#e137e3f103)"><path fill="#333333" d="M 33.507812 200.605469 L 350.5 200.605469 L 350.5 237.519531 L 33.507812 237.519531 Z M 33.507812 200.605469 " fill-opacity="1" fill-rule="nonzero"/></g><g fill="#ffd700" fill-opacity="1"><g transform="translate(87.285416, 227.124491)"><g><path d="M 20.238281 -4.734375 C 20.957031 -5.957031 21.425781 -5.660156 22.445312 -5.421875 C 23.667969 -4.953125 24.8125 -4.515625 25.847656 -4.136719 C 26.175781 -4.011719 26.398438 -3.746094 26.445312 -3.402344 C 26.710938 -1.472656 27.117188 -0.453125 27.746094 -0.25 C 27.855469 -0.203125 27.964844 -0.21875 28.058594 -0.265625 C 28.152344 -0.3125 28.230469 -0.40625 28.261719 -0.5 C 28.324219 -0.722656 28.214844 -0.957031 27.996094 -1.035156 C 27.730469 -1.128906 27.523438 -1.753906 27.367188 -2.710938 C 27.320312 -2.914062 27.398438 -3.121094 27.558594 -3.246094 C 27.699219 -3.371094 27.917969 -3.417969 28.105469 -3.355469 C 29.171875 -2.960938 30.300781 -2.726562 31.445312 -2.664062 C 31.539062 -2.664062 31.648438 -2.710938 31.726562 -2.789062 C 31.804688 -2.867188 31.835938 -2.976562 31.835938 -3.089844 C 31.835938 -3.199219 31.789062 -3.308594 31.710938 -3.371094 C 31.632812 -3.449219 31.523438 -3.496094 31.414062 -3.496094 C 30.144531 -3.589844 28.90625 -3.886719 27.714844 -4.359375 C 27.367188 -4.46875 27.117188 -4.78125 27.085938 -5.140625 C 26.835938 -8.417969 26.804688 -12.820312 26.789062 -15.28125 C 26.773438 -18.714844 26.742188 -20.046875 26.585938 -20.425781 C 26.523438 -20.597656 26.367188 -20.707031 26.191406 -20.691406 C 26.003906 -20.675781 25.863281 -20.550781 25.816406 -20.378906 C 24.890625 -17.039062 23.746094 -13.761719 22.382812 -10.582031 C 21.929688 -9.546875 21.492188 -8.605469 21.035156 -7.726562 C 20.832031 -7.320312 20.332031 -7.132812 19.90625 -7.289062 C 14.765625 -9.265625 8.886719 -11.378906 4.390625 -11.726562 C 2.648438 -11.851562 1.519531 -11.535156 1.035156 -10.800781 C 0.628906 -10.171875 0.707031 -9.34375 1.253906 -8.324219 C 2.976562 -5.171875 9.625 -0.15625 14.28125 -0.15625 C 16.472656 -0.15625 18.496094 -2.085938 20.238281 -4.734375 Z M 3.621094 -10.925781 C 3.839844 -10.925781 4.074219 -10.925781 4.328125 -10.910156 C 8.605469 -10.582031 14.234375 -8.589844 19.21875 -6.675781 C 19.46875 -6.582031 19.671875 -6.363281 19.75 -6.113281 C 19.84375 -5.847656 19.796875 -5.566406 19.65625 -5.328125 C 17.824219 -2.460938 16.003906 -0.988281 14.28125 -0.988281 C 10.265625 -0.988281 3.746094 -5.46875 1.976562 -8.714844 C 1.707031 -9.21875 1.441406 -9.90625 1.722656 -10.34375 C 1.960938 -10.722656 2.632812 -10.925781 3.621094 -10.925781 Z M 25.644531 -16.945312 C 25.753906 -17.273438 25.957031 -17.210938 25.957031 -16.851562 C 25.957031 -16.347656 25.957031 -15.816406 25.972656 -15.28125 C 25.988281 -11.425781 26.050781 -8.355469 26.191406 -6.019531 C 26.222656 -5.753906 26.097656 -5.519531 25.894531 -5.359375 C 25.691406 -5.203125 25.425781 -5.171875 25.191406 -5.265625 C 24.203125 -5.644531 23.136719 -6.050781 22.039062 -6.472656 L 21.425781 -6.707031 C 23.136719 -9.984375 24.546875 -13.417969 25.644531 -16.945312 Z M 25.644531 -16.945312 "/></g></g></g><g fill="#ffd700" fill-opacity="1"><g transform="translate(119.937594, 227.124491)"><g><path d="M 14.828125 -3.589844 C 14.75 -3.667969 14.65625 -3.699219 14.546875 -3.714844 C 14.4375 -3.714844 14.328125 -3.667969 14.25 -3.589844 C 11.882812 -1.269531 8.433594 -0.46875 6.992188 -0.925781 C 5.769531 -1.316406 5.203125 -2.429688 4.953125 -3.605469 C 4.90625 -3.871094 4.953125 -4.121094 5.09375 -4.34375 C 6.976562 -7.539062 8.964844 -12.148438 8.277344 -13.261719 C 8.121094 -13.511719 7.835938 -13.636719 7.539062 -13.589844 C 5.800781 -13.371094 4.3125 -9.765625 4.011719 -6.550781 C 3.949219 -5.863281 3.949219 -5.1875 3.996094 -4.515625 C 4.011719 -4.296875 3.964844 -4.074219 3.839844 -3.886719 C 3.746094 -3.730469 3.636719 -3.558594 3.527344 -3.402344 C 2.148438 -1.363281 1.207031 -0.707031 0.816406 -0.753906 C 0.609375 -0.769531 0.4375 -0.910156 0.390625 -1.097656 C 0.234375 -1.898438 0.421875 -2.710938 0.878906 -3.371094 C 1.207031 -3.761719 1.691406 -4.199219 2.164062 -4.105469 C 2.429688 -4.027344 2.648438 -3.824219 2.757812 -3.574219 C 2.804688 -3.355469 3.007812 -3.199219 3.230469 -3.230469 C 3.449219 -3.261719 3.605469 -3.464844 3.574219 -3.699219 C 3.417969 -4.261719 2.992188 -4.703125 2.429688 -4.875 C 1.945312 -5.03125 1.160156 -4.96875 0.25 -3.902344 C -0.25 -3.324219 -0.753906 -1.785156 -0.375 -0.800781 C -0.21875 -0.328125 0.203125 0 0.691406 0.0625 C 0.738281 0.0625 0.800781 0.0625 0.847656 0.0625 C 1.675781 0.0625 2.726562 -0.832031 3.964844 -2.601562 C 4.011719 -2.664062 4.105469 -2.710938 4.199219 -2.695312 C 4.296875 -2.695312 4.375 -2.632812 4.40625 -2.554688 C 4.75 -1.410156 5.628906 -0.515625 6.742188 -0.140625 C 8.589844 0.4375 12.351562 -0.59375 14.828125 -3.007812 C 14.984375 -3.167969 14.984375 -3.417969 14.828125 -3.589844 Z M 4.84375 -6.472656 C 5.09375 -9.34375 6.238281 -11.867188 7.210938 -12.585938 C 7.289062 -12.632812 7.398438 -12.648438 7.492188 -12.585938 C 7.570312 -12.539062 7.617188 -12.445312 7.617188 -12.351562 C 7.476562 -11.160156 6.628906 -9.011719 5.0625 -6.222656 C 4.8125 -5.816406 4.8125 -6.191406 4.84375 -6.472656 Z M 4.84375 -6.472656 "/></g></g></g><g fill="#ffd700" fill-opacity="1"><g transform="translate(134.195501, 227.124491)"><g><path d="M 10.15625 -4.230469 C 9.984375 -4.390625 9.734375 -4.390625 9.578125 -4.214844 C 9.515625 -4.167969 4.4375 1.003906 1.066406 -1.457031 C 0.03125 -2.210938 1.035156 -4.167969 1.050781 -4.183594 C 1.144531 -4.390625 1.066406 -4.625 0.863281 -4.734375 C 0.660156 -4.828125 0.421875 -4.765625 0.3125 -4.5625 C 0.25 -4.46875 -1.019531 -1.976562 0.578125 -0.800781 C 1.316406 -0.25 2.226562 0.046875 3.152344 0.03125 C 6.535156 0.03125 9.96875 -3.464844 10.15625 -3.652344 C 10.234375 -3.730469 10.28125 -3.824219 10.28125 -3.933594 C 10.265625 -4.042969 10.234375 -4.152344 10.15625 -4.230469 Z M 0.140625 -5.46875 C 0.203125 -5.46875 0.265625 -5.484375 0.328125 -5.519531 C 0.707031 -5.707031 1.035156 -5.957031 1.332031 -6.253906 C 1.488281 -6.425781 1.472656 -6.675781 1.316406 -6.835938 C 1.144531 -6.992188 0.894531 -6.992188 0.738281 -6.820312 C 0.5 -6.582031 0.234375 -6.394531 -0.0625 -6.238281 C -0.21875 -6.160156 -0.3125 -5.957031 -0.265625 -5.785156 C -0.21875 -5.597656 -0.046875 -5.46875 0.140625 -5.46875 Z M 0.140625 -5.46875 "/></g></g></g><g fill="#ffd700" fill-opacity="1"><g transform="translate(143.815679, 227.124491)"><g><path d="M 10.753906 -4.261719 C 10.597656 -4.421875 10.328125 -4.421875 10.171875 -4.246094 C 10.140625 -4.214844 5.894531 0.0625 3.074219 -1.003906 C 1.816406 -1.488281 1.285156 -2.945312 1.082031 -4.390625 C 1.363281 -5.078125 1.832031 -6.222656 2.273438 -7.507812 C 2.320312 -7.664062 2.367188 -7.679688 2.554688 -7.695312 C 4.671875 -7.851562 6.773438 -7.929688 8.011719 -7.929688 C 8.246094 -7.929688 8.417969 -8.121094 8.417969 -8.339844 C 8.417969 -8.574219 8.246094 -8.746094 8.011719 -8.746094 C 6.820312 -8.746094 4.859375 -8.652344 2.851562 -8.542969 C 2.773438 -8.527344 2.632812 -8.574219 2.742188 -8.855469 C 3.496094 -11.003906 4.027344 -13.183594 3.699219 -13.839844 C 3.371094 -14.5 2.929688 -14.515625 2.710938 -14.46875 C 1.550781 -14.25 0.707031 -11.238281 0.328125 -8.777344 C 0.296875 -8.558594 0.1875 -8.371094 -0.015625 -8.355469 C -2.476562 -8.167969 -4.5 -8.027344 -4.53125 -8.027344 C -4.765625 -8.011719 -4.9375 -7.820312 -4.921875 -7.585938 C -4.921875 -7.367188 -4.734375 -7.179688 -4.5 -7.195312 L -4.46875 -7.195312 C -4.421875 -7.195312 -2.523438 -7.335938 -0.15625 -7.507812 C -0.078125 -7.523438 0 -7.507812 0.0625 -7.445312 C 0.125 -7.398438 0.171875 -7.320312 0.171875 -7.242188 C -0.0625 -3.511719 0.878906 -0.957031 2.773438 -0.234375 C 3.183594 -0.09375 3.605469 -0.015625 4.042969 -0.015625 C 7.148438 -0.015625 10.597656 -3.511719 10.769531 -3.667969 C 10.847656 -3.746094 10.878906 -3.855469 10.878906 -3.964844 C 10.878906 -4.074219 10.832031 -4.183594 10.753906 -4.261719 Z M 1.160156 -8.808594 C 1.519531 -11.191406 2.242188 -13.074219 2.664062 -13.558594 C 2.710938 -13.589844 2.773438 -13.605469 2.835938 -13.589844 C 2.882812 -13.574219 2.929688 -13.542969 2.960938 -13.480469 C 3.152344 -13.074219 2.617188 -11.082031 1.816406 -8.714844 C 1.785156 -8.574219 1.675781 -8.464844 1.519531 -8.449219 C 1.441406 -8.433594 1.363281 -8.433594 1.269531 -8.433594 C 1.113281 -8.433594 1.144531 -8.683594 1.160156 -8.792969 Z M 0.972656 -6.347656 C 0.816406 -6.347656 0.878906 -7.445312 1.019531 -7.601562 C 1.144531 -7.679688 1.300781 -7.695312 1.425781 -7.617188 C 1.566406 -7.492188 1.144531 -6.347656 0.972656 -6.347656 Z M 0.972656 -6.347656 "/></g></g></g><g fill="#ffd700" fill-opacity="1"><g transform="translate(153.827553, 227.124491)"><g><path d="M 12.398438 -4.3125 C 12.226562 -4.46875 11.976562 -4.46875 11.820312 -4.3125 C 11.726562 -4.214844 9.671875 -2.179688 6.898438 -4.214844 C 6.742188 -4.328125 6.535156 -4.328125 6.378906 -4.183594 C 6.128906 -3.964844 5.863281 -3.699219 5.582031 -3.417969 C 5.46875 -3.292969 5.28125 -3.246094 5.125 -3.308594 C 4.96875 -3.371094 4.859375 -3.511719 4.84375 -3.683594 C 4.84375 -4.011719 4.796875 -4.34375 4.6875 -4.65625 C 4.625 -4.828125 4.453125 -4.9375 4.261719 -4.90625 C 4.074219 -4.890625 3.933594 -4.75 3.902344 -4.578125 C 3.902344 -4.546875 3.402344 -1.769531 1.269531 -1.207031 C 1.082031 -1.144531 0.878906 -1.191406 0.738281 -1.332031 C 0.609375 -1.472656 0.25 -2.101562 1.066406 -4.089844 C 1.144531 -4.3125 1.050781 -4.546875 0.832031 -4.625 C 0.628906 -4.71875 0.375 -4.609375 0.296875 -4.40625 C -0.578125 -2.242188 -0.28125 -1.238281 0.109375 -0.785156 C 0.453125 -0.40625 0.988281 -0.265625 1.472656 -0.421875 C 2.570312 -0.722656 3.480469 -1.472656 3.996094 -2.476562 C 3.980469 -2.179688 3.933594 -1.882812 3.886719 -1.566406 C 3.871094 -1.503906 3.839844 -1.425781 3.792969 -1.363281 C 1.960938 0.941406 0.296875 3.761719 0.265625 5.535156 C 0.21875 6.003906 0.390625 6.472656 0.722656 6.835938 C 0.863281 6.976562 1.050781 7.070312 1.253906 7.070312 C 1.425781 7.054688 1.597656 7.007812 1.738281 6.914062 C 2.773438 6.222656 4.089844 2.210938 4.609375 -0.988281 C 4.625 -1.066406 4.65625 -1.128906 4.703125 -1.191406 C 5.1875 -1.785156 5.691406 -2.351562 6.191406 -2.851562 C 6.472656 -3.152344 6.898438 -3.214844 7.257812 -3.023438 C 8.949219 -2.132812 11.019531 -2.414062 12.398438 -3.730469 C 12.476562 -3.808594 12.523438 -3.917969 12.523438 -4.027344 C 12.523438 -4.136719 12.476562 -4.230469 12.398438 -4.3125 Z M 3.449219 0.722656 C 3.105469 2.289062 2.601562 3.792969 1.945312 5.25 C 1.582031 5.972656 1.425781 6.253906 1.269531 6.222656 C 1.128906 6.207031 1.082031 5.863281 1.097656 5.550781 C 1.113281 4.40625 2.054688 2.523438 3.308594 0.691406 C 3.386719 0.578125 3.480469 0.609375 3.449219 0.722656 Z M 3.449219 0.722656 "/></g></g></g><g fill="#ffd700" fill-opacity="1"><g transform="translate(165.468906, 227.124491)"><g><path d="M 13.105469 -3.792969 C 12.949219 -3.964844 12.679688 -3.980469 12.507812 -3.824219 C 12.460938 -3.777344 7.804688 0.40625 4.921875 -1.488281 C 3.777344 -2.242188 3.496094 -4.058594 3.496094 -4.074219 C 3.480469 -4.261719 3.339844 -4.40625 3.152344 -4.4375 C 2.976562 -4.453125 2.789062 -4.359375 2.710938 -4.199219 C 1.976562 -2.570312 0.675781 -0.5 0.3125 -0.738281 C 0.28125 -0.738281 0.21875 -0.800781 0.171875 -0.910156 C -0.015625 -1.425781 0.046875 -1.992188 0.3125 -2.476562 C 0.910156 -3.699219 2.007812 -4.578125 3.324219 -4.90625 C 3.464844 -4.9375 3.574219 -5.046875 3.621094 -5.1875 C 3.667969 -5.328125 3.621094 -5.484375 3.527344 -5.597656 C 3.417969 -5.691406 3.277344 -5.738281 3.136719 -5.707031 C 1.566406 -5.328125 0.265625 -4.261719 -0.4375 -2.820312 C -0.816406 -2.117188 -0.863281 -1.269531 -0.5625 -0.53125 C -0.421875 -0.171875 -0.078125 0.078125 0.3125 0.078125 L 0.328125 0.078125 C 1.097656 0.0625 2.054688 -0.894531 2.710938 -1.929688 C 2.789062 -2.054688 2.929688 -2.117188 3.074219 -2.101562 C 3.214844 -2.101562 3.339844 -2.023438 3.402344 -1.898438 C 3.667969 -1.457031 4.027344 -1.082031 4.46875 -0.816406 C 7.882812 1.457031 12.851562 -3.023438 13.074219 -3.214844 C 13.152344 -3.292969 13.199219 -3.402344 13.199219 -3.496094 C 13.214844 -3.605469 13.167969 -3.714844 13.105469 -3.792969 Z M 13.105469 -3.792969 "/></g></g></g><g fill="#ffd700" fill-opacity="1"><g transform="translate(178.12868, 227.124491)"><g/></g></g><g fill="#ffd700" fill-opacity="1"><g transform="translate(183.95719, 227.124491)"><g><path d="M 20.238281 -4.734375 C 20.957031 -5.957031 21.425781 -5.660156 22.445312 -5.421875 C 23.667969 -4.953125 24.8125 -4.515625 25.847656 -4.136719 C 26.175781 -4.011719 26.398438 -3.746094 26.445312 -3.402344 C 26.710938 -1.472656 27.117188 -0.453125 27.746094 -0.25 C 27.855469 -0.203125 27.964844 -0.21875 28.058594 -0.265625 C 28.152344 -0.3125 28.230469 -0.40625 28.261719 -0.5 C 28.324219 -0.722656 28.214844 -0.957031 27.996094 -1.035156 C 27.730469 -1.128906 27.523438 -1.753906 27.367188 -2.710938 C 27.320312 -2.914062 27.398438 -3.121094 27.558594 -3.246094 C 27.699219 -3.371094 27.917969 -3.417969 28.105469 -3.355469 C 29.171875 -2.960938 30.300781 -2.726562 31.445312 -2.664062 C 31.539062 -2.664062 31.648438 -2.710938 31.726562 -2.789062 C 31.804688 -2.867188 31.835938 -2.976562 31.835938 -3.089844 C 31.835938 -3.199219 31.789062 -3.308594 31.710938 -3.371094 C 31.632812 -3.449219 31.523438 -3.496094 31.414062 -3.496094 C 30.144531 -3.589844 28.90625 -3.886719 27.714844 -4.359375 C 27.367188 -4.46875 27.117188 -4.78125 27.085938 -5.140625 C 26.835938 -8.417969 26.804688 -12.820312 26.789062 -15.28125 C 26.773438 -18.714844 26.742188 -20.046875 26.585938 -20.425781 C 26.523438 -20.597656 26.367188 -20.707031 26.191406 -20.691406 C 26.003906 -20.675781 25.863281 -20.550781 25.816406 -20.378906 C 24.890625 -17.039062 23.746094 -13.761719 22.382812 -10.582031 C 21.929688 -9.546875 21.492188 -8.605469 21.035156 -7.726562 C 20.832031 -7.320312 20.332031 -7.132812 19.90625 -7.289062 C 14.765625 -9.265625 8.886719 -11.378906 4.390625 -11.726562 C 2.648438 -11.851562 1.519531 -11.535156 1.035156 -10.800781 C 0.628906 -10.171875 0.707031 -9.34375 1.253906 -8.324219 C 2.976562 -5.171875 9.625 -0.15625 14.28125 -0.15625 C 16.472656 -0.15625 18.496094 -2.085938 20.238281 -4.734375 Z M 3.621094 -10.925781 C 3.839844 -10.925781 4.074219 -10.925781 4.328125 -10.910156 C 8.605469 -10.582031 14.234375 -8.589844 19.21875 -6.675781 C 19.46875 -6.582031 19.671875 -6.363281 19.75 -6.113281 C 19.84375 -5.847656 19.796875 -5.566406 19.65625 -5.328125 C 17.824219 -2.460938 16.003906 -0.988281 14.28125 -0.988281 C 10.265625 -0.988281 3.746094 -5.46875 1.976562 -8.714844 C 1.707031 -9.21875 1.441406 -9.90625 1.722656 -10.34375 C 1.960938 -10.722656 2.632812 -10.925781 3.621094 -10.925781 Z M 25.644531 -16.945312 C 25.753906 -17.273438 25.957031 -17.210938 25.957031 -16.851562 C 25.957031 -16.347656 25.957031 -15.816406 25.972656 -15.28125 C 25.988281 -11.425781 26.050781 -8.355469 26.191406 -6.019531 C 26.222656 -5.753906 26.097656 -5.519531 25.894531 -5.359375 C 25.691406 -5.203125 25.425781 -5.171875 25.191406 -5.265625 C 24.203125 -5.644531 23.136719 -6.050781 22.039062 -6.472656 L 21.425781 -6.707031 C 23.136719 -9.984375 24.546875 -13.417969 25.644531 -16.945312 Z M 25.644531 -16.945312 "/></g></g></g><g fill="#ffd700" fill-opacity="1"><g transform="translate(216.609368, 227.124491)"><g><path d="M 14.828125 -3.589844 C 14.75 -3.667969 14.65625 -3.699219 14.546875 -3.714844 C 14.4375 -3.714844 14.328125 -3.667969 14.25 -3.589844 C 11.882812 -1.269531 8.433594 -0.46875 6.992188 -0.925781 C 5.769531 -1.316406 5.203125 -2.429688 4.953125 -3.605469 C 4.90625 -3.871094 4.953125 -4.121094 5.09375 -4.34375 C 6.976562 -7.539062 8.964844 -12.148438 8.277344 -13.261719 C 8.121094 -13.511719 7.835938 -13.636719 7.539062 -13.589844 C 5.800781 -13.371094 4.3125 -9.765625 4.011719 -6.550781 C 3.949219 -5.863281 3.949219 -5.1875 3.996094 -4.515625 C 4.011719 -4.296875 3.964844 -4.074219 3.839844 -3.886719 C 3.746094 -3.730469 3.636719 -3.558594 3.527344 -3.402344 C 2.148438 -1.363281 1.207031 -0.707031 0.816406 -0.753906 C 0.609375 -0.769531 0.4375 -0.910156 0.390625 -1.097656 C 0.234375 -1.898438 0.421875 -2.710938 0.878906 -3.371094 C 1.207031 -3.761719 1.691406 -4.199219 2.164062 -4.105469 C 2.429688 -4.027344 2.648438 -3.824219 2.757812 -3.574219 C 2.804688 -3.355469 3.007812 -3.199219 3.230469 -3.230469 C 3.449219 -3.261719 3.605469 -3.464844 3.574219 -3.699219 C 3.417969 -4.261719 2.992188 -4.703125 2.429688 -4.875 C 1.945312 -5.03125 1.160156 -4.96875 0.25 -3.902344 C -0.25 -3.324219 -0.753906 -1.785156 -0.375 -0.800781 C -0.21875 -0.328125 0.203125 0 0.691406 0.0625 C 0.738281 0.0625 0.800781 0.0625 0.847656 0.0625 C 1.675781 0.0625 2.726562 -0.832031 3.964844 -2.601562 C 4.011719 -2.664062 4.105469 -2.710938 4.199219 -2.695312 C 4.296875 -2.695312 4.375 -2.632812 4.40625 -2.554688 C 4.75 -1.410156 5.628906 -0.515625 6.742188 -0.140625 C 8.589844 0.4375 12.351562 -0.59375 14.828125 -3.007812 C 14.984375 -3.167969 14.984375 -3.417969 14.828125 -3.589844 Z M 4.84375 -6.472656 C 5.09375 -9.34375 6.238281 -11.867188 7.210938 -12.585938 C 7.289062 -12.632812 7.398438 -12.648438 7.492188 -12.585938 C 7.570312 -12.539062 7.617188 -12.445312 7.617188 -12.351562 C 7.476562 -11.160156 6.628906 -9.011719 5.0625 -6.222656 C 4.8125 -5.816406 4.8125 -6.191406 4.84375 -6.472656 Z M 4.84375 -6.472656 "/></g></g></g><g fill="#ffd700" fill-opacity="1"><g transform="translate(230.867275, 227.124491)"><g><path d="M 12.367188 -3.746094 C 12.210938 -3.917969 11.960938 -3.933594 11.789062 -3.777344 C 11.757812 -3.761719 8.527344 -0.941406 6.160156 -1.316406 C 5.453125 -1.425781 4.84375 -1.851562 4.5 -2.476562 C 4.199219 -3.023438 3.652344 -3.371094 3.039062 -3.433594 C 2.273438 -3.480469 1.425781 -3.023438 0.53125 -2.085938 C 0.484375 -2.039062 0.40625 -2.023438 0.34375 -2.054688 C 0.28125 -2.085938 0.25 -2.148438 0.265625 -2.226562 C 0.3125 -2.523438 0.453125 -3.277344 0.515625 -3.558594 C 0.515625 -3.511719 0.628906 -3.730469 0.628906 -3.746094 C 1.960938 -5.566406 5.941406 -11.332031 4.390625 -13.183594 C 4.183594 -13.464844 3.808594 -13.589844 3.464844 -13.496094 C 3.152344 -13.402344 2.195312 -13.105469 0.722656 -7.867188 C 0.359375 -6.597656 0.03125 -5.234375 -0.234375 -3.949219 L -0.34375 -3.808594 C -0.453125 -3.667969 -0.453125 -3.480469 -0.359375 -3.324219 C -0.59375 -2.164062 -0.753906 -1.097656 -0.832031 -0.28125 C -0.847656 -0.09375 -0.738281 0.078125 -0.5625 0.140625 C -0.390625 0.203125 -0.1875 0.140625 -0.078125 -0.015625 C 1.519531 -2.335938 2.539062 -2.632812 2.992188 -2.617188 C 3.324219 -2.585938 3.621094 -2.382812 3.777344 -2.085938 C 4.246094 -1.238281 5.078125 -0.644531 6.050781 -0.5 C 8.777344 -0.078125 12.179688 -3.039062 12.335938 -3.167969 C 12.492188 -3.324219 12.507812 -3.574219 12.367188 -3.746094 Z M 3.699219 -12.710938 C 3.730469 -12.710938 3.746094 -12.664062 3.761719 -12.648438 C 4.515625 -11.804688 1.394531 -5.5 1.003906 -5.753906 C 0.628906 -5.988281 3.039062 -12.710938 3.699219 -12.710938 Z M 3.699219 -12.710938 "/></g></g></g><g fill="#ffd700" fill-opacity="1"><g transform="translate(242.71231, 227.124491)"><g><path d="M 10.15625 -4.230469 C 9.984375 -4.390625 9.734375 -4.390625 9.578125 -4.214844 C 9.515625 -4.167969 4.4375 1.003906 1.066406 -1.457031 C 0.03125 -2.210938 1.035156 -4.167969 1.050781 -4.183594 C 1.144531 -4.390625 1.066406 -4.625 0.863281 -4.734375 C 0.660156 -4.828125 0.421875 -4.765625 0.3125 -4.5625 C 0.25 -4.46875 -1.019531 -1.976562 0.578125 -0.800781 C 1.316406 -0.25 2.226562 0.046875 3.152344 0.03125 C 6.535156 0.03125 9.96875 -3.464844 10.15625 -3.652344 C 10.234375 -3.730469 10.28125 -3.824219 10.28125 -3.933594 C 10.265625 -4.042969 10.234375 -4.152344 10.15625 -4.230469 Z M 0.140625 -5.46875 C 0.203125 -5.46875 0.265625 -5.484375 0.328125 -5.519531 C 0.707031 -5.707031 1.035156 -5.957031 1.332031 -6.253906 C 1.488281 -6.425781 1.472656 -6.675781 1.316406 -6.835938 C 1.144531 -6.992188 0.894531 -6.992188 0.738281 -6.820312 C 0.5 -6.582031 0.234375 -6.394531 -0.0625 -6.238281 C -0.21875 -6.160156 -0.3125 -5.957031 -0.265625 -5.785156 C -0.21875 -5.597656 -0.046875 -5.46875 0.140625 -5.46875 Z M 0.140625 -5.46875 "/></g></g></g><g fill="#ffd700" fill-opacity="1"><g transform="translate(252.332487, 227.124491)"><g><path d="M 12.949219 -3.714844 C 12.789062 -3.871094 12.523438 -3.886719 12.351562 -3.730469 C 9.765625 -1.222656 4.578125 -0.722656 2.867188 -1.425781 C 2.617188 -1.535156 2.460938 -1.660156 2.445312 -1.753906 C 2.445312 -1.976562 2.882812 -2.554688 4.578125 -3.355469 C 4.9375 -3.449219 5.328125 -3.574219 5.34375 -3.933594 C 5.328125 -4.121094 5.21875 -4.3125 5.03125 -4.375 C 4.515625 -4.546875 2.664062 -4.027344 0.785156 -2.132812 C 0.722656 -2.070312 0.609375 -2.054688 0.53125 -2.085938 C 0.4375 -2.132812 0.390625 -2.226562 0.40625 -2.320312 C 0.453125 -2.679688 0.484375 -3.023438 0.53125 -3.371094 C 0.53125 -3.386719 0.546875 -3.386719 0.546875 -3.402344 C 1.722656 -5.28125 5.453125 -11.566406 4.390625 -13.042969 C 4.089844 -13.402344 3.605469 -13.542969 3.167969 -13.371094 C 0.816406 -12.789062 -0.09375 -6.113281 -0.609375 -0.34375 C -0.628906 -0.15625 -0.515625 0.015625 -0.34375 0.078125 C -0.171875 0.140625 0.015625 0.078125 0.125 -0.078125 C 0.53125 -0.660156 0.988281 -1.207031 1.503906 -1.691406 C 1.566406 -1.769531 1.628906 -1.753906 1.628906 -1.738281 C 1.628906 -1.410156 1.800781 -0.972656 2.554688 -0.660156 C 4.484375 0.125 10.0625 -0.359375 12.933594 -3.136719 C 13.011719 -3.214844 13.058594 -3.308594 13.058594 -3.417969 C 13.058594 -3.527344 13.011719 -3.636719 12.949219 -3.714844 Z M 3.371094 -12.570312 C 3.433594 -12.585938 3.511719 -12.601562 3.589844 -12.601562 C 3.652344 -12.601562 3.699219 -12.585938 3.714844 -12.554688 C 4.042969 -12.117188 3.214844 -9.734375 1.347656 -6.363281 C 1.300781 -6.285156 1.191406 -6.253906 1.113281 -6.285156 C 1.019531 -6.316406 0.957031 -6.410156 0.972656 -6.503906 C 1.753906 -11.082031 2.664062 -12.398438 3.371094 -12.570312 Z M 3.371094 -12.570312 "/></g></g></g><g fill="#ffd700" fill-opacity="1"><g transform="translate(264.678899, 227.124491)"><g><path d="M 13.105469 -3.792969 C 12.949219 -3.964844 12.679688 -3.980469 12.507812 -3.824219 C 12.460938 -3.777344 7.804688 0.40625 4.921875 -1.488281 C 3.777344 -2.242188 3.496094 -4.058594 3.496094 -4.074219 C 3.480469 -4.261719 3.339844 -4.40625 3.152344 -4.4375 C 2.976562 -4.453125 2.789062 -4.359375 2.710938 -4.199219 C 1.976562 -2.570312 0.675781 -0.5 0.3125 -0.738281 C 0.28125 -0.738281 0.21875 -0.800781 0.171875 -0.910156 C -0.015625 -1.425781 0.046875 -1.992188 0.3125 -2.476562 C 0.910156 -3.699219 2.007812 -4.578125 3.324219 -4.90625 C 3.464844 -4.9375 3.574219 -5.046875 3.621094 -5.1875 C 3.667969 -5.328125 3.621094 -5.484375 3.527344 -5.597656 C 3.417969 -5.691406 3.277344 -5.738281 3.136719 -5.707031 C 1.566406 -5.328125 0.265625 -4.261719 -0.4375 -2.820312 C -0.816406 -2.117188 -0.863281 -1.269531 -0.5625 -0.53125 C -0.421875 -0.171875 -0.078125 0.078125 0.3125 0.078125 L 0.328125 0.078125 C 1.097656 0.0625 2.054688 -0.894531 2.710938 -1.929688 C 2.789062 -2.054688 2.929688 -2.117188 3.074219 -2.101562 C 3.214844 -2.101562 3.339844 -2.023438 3.402344 -1.898438 C 3.667969 -1.457031 4.027344 -1.082031 4.46875 -0.816406 C 7.882812 1.457031 12.851562 -3.023438 13.074219 -3.214844 C 13.152344 -3.292969 13.199219 -3.402344 13.199219 -3.496094 C 13.214844 -3.605469 13.167969 -3.714844 13.105469 -3.792969 Z M 13.105469 -3.792969 "/></g></g></g><g fill="#ffd700" fill-opacity="1"><g transform="translate(277.338673, 227.124491)"><g><path d="M 10.15625 -4.230469 C 9.984375 -4.390625 9.734375 -4.390625 9.578125 -4.214844 C 9.515625 -4.167969 4.4375 1.003906 1.066406 -1.457031 C 0.03125 -2.210938 1.035156 -4.167969 1.050781 -4.183594 C 1.144531 -4.390625 1.066406 -4.625 0.863281 -4.734375 C 0.660156 -4.828125 0.421875 -4.765625 0.3125 -4.5625 C 0.25 -4.46875 -1.019531 -1.976562 0.578125 -0.800781 C 1.316406 -0.25 2.226562 0.046875 3.152344 0.03125 C 6.535156 0.03125 9.96875 -3.464844 10.15625 -3.652344 C 10.234375 -3.730469 10.28125 -3.824219 10.28125 -3.933594 C 10.265625 -4.042969 10.234375 -4.152344 10.15625 -4.230469 Z M 0.140625 -5.46875 C 0.203125 -5.46875 0.265625 -5.484375 0.328125 -5.519531 C 0.707031 -5.707031 1.035156 -5.957031 1.332031 -6.253906 C 1.488281 -6.425781 1.472656 -6.675781 1.316406 -6.835938 C 1.144531 -6.992188 0.894531 -6.992188 0.738281 -6.820312 C 0.5 -6.582031 0.234375 -6.394531 -0.0625 -6.238281 C -0.21875 -6.160156 -0.3125 -5.957031 -0.265625 -5.785156 C -0.21875 -5.597656 -0.046875 -5.46875 0.140625 -5.46875 Z M 0.140625 -5.46875 "/></g></g></g></svg>