<svg xmlns="http://www.w3.org/2000/svg" xmlns:xlink="http://www.w3.org/1999/xlink" width="500" zoomAndPan="magnify" viewBox="0 0 375 374.999991" height="500" preserveAspectRatio="xMidYMid meet" version="1.0"><defs><g/><clipPath id="ffe20ee74e"><path d="M 129.535156 206 L 328.285156 206 L 328.285156 227 L 129.535156 227 Z M 129.535156 206 " clip-rule="nonzero"/></clipPath></defs><rect x="-37.5" width="450" fill="#ffffff" y="-37.499999" height="449.999989" fill-opacity="1"/><rect x="-37.5" width="450" fill="#ffffff" y="-37.499999" height="449.999989" fill-opacity="1"/><rect x="-37.5" width="450" fill="#333333" y="-37.499999" height="449.999989" fill-opacity="1"/><g clip-path="url(#ffe20ee74e)"><path fill="#ffd700" d="M 129.535156 206.085938 C 131.113281 207.171875 130.890625 207.785156 131.882812 208.109375 C 137.597656 209.882812 145.035156 214.984375 147.929688 216.828125 C 195.199219 246.484375 249.394531 196.5 326.453125 218.597656 C 327.113281 218.78125 329.09375 218.347656 327.921875 216.683594 C 317.183594 212.199219 305.53125 208.039062 281.566406 207.640625 C 255.148438 207.171875 203.078125 223.664062 180.398438 223.085938 C 150.972656 222.324219 140.785156 204.890625 129.574219 206.121094 Z M 129.535156 206.085938 " fill-opacity="1" fill-rule="evenodd"/></g><g fill="#ffd700" fill-opacity="1"><g transform="translate(14.779649, 248.999984)"><g><path d="M 133.242188 14.167969 C 132.886719 14.167969 132.707031 14.347656 132.527344 14.882812 C 132.347656 15.242188 131.988281 15.421875 131.628906 15.421875 C 131.449219 15.421875 131.449219 15.421875 131.269531 15.242188 L 131.269531 15.421875 C 130.914062 15.421875 130.734375 15.242188 130.734375 15.0625 C 130.734375 14.882812 130.734375 14.527344 130.914062 14.347656 C 130.914062 14.347656 130.734375 14.347656 130.554688 14.167969 L 130.375 14.167969 C 129.476562 14.347656 128.941406 15.0625 128.402344 15.960938 C 127.863281 16.855469 127.148438 17.394531 126.070312 17.394531 C 112.980469 17.394531 109.75 -19.90625 109.75 -29.410156 C 109.75 -31.203125 109.75 -32.996094 109.929688 -34.789062 L 109.929688 -39.992188 L 114.953125 -88.230469 C 114.953125 -93.789062 113.695312 -99.707031 108.136719 -99.707031 C 107.597656 -99.707031 107.0625 -99.53125 106.523438 -99.171875 C 105.984375 -98.632812 105.625 -98.453125 105.089844 -98.453125 C 109.214844 -105.804688 113.695312 -114.414062 113.695312 -123.023438 C 113.695312 -131.628906 105.625 -136.113281 97.199219 -136.113281 C 86.257812 -136.113281 75.320312 -131.09375 66.171875 -125.53125 L 65.636719 -125.53125 C 60.792969 -127.863281 56.847656 -129.476562 51.648438 -129.476562 C 29.589844 -129.476562 16.320312 -101.324219 16.320312 -80.699219 C 16.320312 -71.195312 18.472656 -63.664062 25.464844 -56.667969 L 23.3125 -41.964844 C 22.773438 -38.914062 22.773438 -35.6875 22.773438 -32.28125 C 22.773438 -18.828125 27.078125 0.179688 42.144531 0.179688 C 53.261719 0.179688 63.664062 -11.117188 69.042969 -20.445312 L 75.859375 -32.28125 L 96.121094 -77.113281 C 98.992188 -83.390625 103.117188 -91.101562 108.855469 -95.40625 C 109.214844 -95.40625 109.394531 -95.046875 109.394531 -94.328125 C 109.570312 -93.96875 109.570312 -93.613281 109.570312 -93.074219 L 109.570312 -86.796875 L 105.269531 -49.855469 C 105.449219 -46.804688 105.449219 -43.578125 105.089844 -40.351562 C 104.550781 -36.941406 104.371094 -33.714844 104.371094 -30.488281 C 104.371094 -28.871094 104.550781 -27.078125 104.730469 -25.464844 C 104.910156 -23.671875 104.910156 -21.878906 104.730469 -20.265625 C 105.984375 -7.710938 109.570312 20.800781 124.816406 20.800781 C 125.710938 20.800781 129.296875 20.625 129.296875 19.1875 C 131.449219 19.1875 133.601562 16.855469 133.601562 14.707031 C 133.601562 14.347656 133.421875 14.167969 133.242188 14.167969 Z M 67.070312 -120.332031 C 69.042969 -118.179688 71.015625 -105.089844 72.628906 -103.476562 L 72.808594 -103.296875 C 73.347656 -104.011719 73.527344 -104.730469 73.527344 -105.449219 C 73.347656 -106.164062 73.527344 -106.882812 74.0625 -107.597656 L 74.0625 -104.910156 C 73.886719 -104.371094 73.886719 -103.832031 73.886719 -103.296875 C 75.320312 -104.191406 75.140625 -107.421875 75.140625 -108.855469 C 75.140625 -113.695312 72.988281 -118.359375 69.941406 -122.125 C 72.988281 -126.25 77.832031 -125.890625 82.671875 -128.941406 C 88.230469 -131.09375 93.789062 -133.066406 100.066406 -133.066406 C 106.34375 -133.066406 110.46875 -130.015625 110.46875 -123.558594 C 110.46875 -96.300781 76.933594 -67.609375 52.722656 -58.820312 C 47.164062 -56.847656 41.964844 -55.773438 37.121094 -55.773438 C 35.507812 -55.773438 31.203125 -56.308594 31.203125 -57.566406 L 31.203125 -57.925781 L 33.894531 -68.683594 L 39.8125 -85.003906 C 42.859375 -93.613281 48.777344 -102.039062 54.515625 -109.035156 C 57.566406 -112.621094 63.484375 -120.332031 67.070312 -120.332031 Z M 106.164062 -132.707031 C 106.34375 -132.707031 106.34375 -132.707031 106.34375 -132.527344 C 106.34375 -132.347656 106.34375 -132.347656 106.164062 -132.347656 C 105.984375 -132.347656 105.984375 -132.347656 105.984375 -132.527344 C 105.984375 -132.707031 105.984375 -132.707031 106.164062 -132.707031 Z M 108.136719 -131.269531 C 107.597656 -131.269531 106.703125 -131.808594 106.523438 -132.347656 C 107.0625 -132.167969 107.597656 -131.808594 108.136719 -131.269531 Z M 108.675781 -130.554688 C 108.496094 -130.554688 108.496094 -130.554688 108.496094 -130.734375 Z M 112.082031 -125.710938 C 111.902344 -125.890625 111.902344 -126.25 111.902344 -126.609375 L 112.082031 -126.609375 Z M 21.519531 -79.625 C 21.519531 -98.273438 32.996094 -126.429688 53.621094 -126.429688 C 57.027344 -126.429688 60.433594 -125.351562 63.304688 -123.738281 C 61.691406 -121.765625 59.539062 -119.792969 57.207031 -118.179688 C 54.695312 -116.386719 52.542969 -114.59375 50.929688 -112.621094 C 41.785156 -103.117188 34.96875 -90.742188 31.382812 -78.007812 L 26.542969 -61.871094 C 22.417969 -65.097656 21.519531 -74.601562 21.519531 -79.625 Z M 59.71875 -126.25 C 59.898438 -126.25 59.898438 -126.25 59.898438 -126.070312 C 59.898438 -125.890625 59.898438 -125.890625 59.71875 -125.890625 C 59.539062 -125.890625 59.539062 -125.890625 59.539062 -126.070312 C 59.539062 -126.25 59.539062 -126.25 59.71875 -126.25 Z M 61.152344 -125.53125 C 61.332031 -125.53125 63.125 -124.636719 63.664062 -124.097656 L 60.972656 -125.53125 Z M 71.914062 -116.207031 C 71.734375 -116.207031 71.734375 -116.207031 71.734375 -116.386719 C 71.734375 -116.566406 71.734375 -116.566406 71.914062 -116.566406 C 72.089844 -116.566406 72.089844 -116.566406 72.089844 -116.386719 C 72.089844 -116.207031 72.089844 -116.207031 71.914062 -116.207031 Z M 108.136719 -107.777344 L 107.957031 -107.777344 C 107.777344 -106.523438 107.242188 -105.449219 106.34375 -104.191406 C 107.0625 -107.242188 109.214844 -112.082031 110.828125 -116.027344 C 109.929688 -112.082031 108.675781 -107.777344 108.136719 -107.777344 Z M 72.269531 -115.847656 C 72.449219 -115.847656 72.449219 -115.847656 72.449219 -115.667969 C 72.449219 -115.488281 72.449219 -115.488281 72.269531 -115.488281 C 72.089844 -115.488281 72.089844 -115.488281 72.089844 -115.667969 C 72.089844 -115.847656 72.089844 -115.847656 72.269531 -115.847656 Z M 72.808594 -114.054688 C 72.628906 -114.054688 72.628906 -114.054688 72.628906 -114.234375 C 72.628906 -114.414062 72.628906 -114.414062 72.808594 -114.414062 C 72.988281 -114.414062 72.988281 -114.414062 72.988281 -114.234375 C 72.988281 -114.054688 72.988281 -114.054688 72.808594 -114.054688 Z M 72.988281 -113.515625 C 72.808594 -113.515625 72.808594 -113.515625 72.808594 -113.695312 C 72.808594 -113.875 72.808594 -113.875 72.988281 -113.875 C 73.167969 -113.875 73.167969 -113.875 73.167969 -113.695312 C 73.167969 -113.515625 73.167969 -113.515625 72.988281 -113.515625 Z M 73.167969 -112.980469 C 73.347656 -112.800781 73.527344 -112.441406 73.527344 -112.082031 C 73.347656 -112.261719 73.167969 -112.621094 73.167969 -112.980469 Z M 73.707031 -111.007812 C 73.527344 -111.007812 73.527344 -111.007812 73.527344 -111.1875 L 73.707031 -111.1875 Z M 73.886719 -110.648438 L 73.707031 -110.648438 C 73.707031 -110.828125 73.707031 -110.828125 73.886719 -110.828125 Z M 73.886719 -109.929688 C 73.707031 -109.929688 73.707031 -109.929688 73.707031 -110.109375 C 73.707031 -110.289062 73.707031 -110.289062 73.886719 -110.289062 C 74.0625 -110.289062 74.0625 -110.289062 74.0625 -110.109375 C 74.0625 -109.929688 74.0625 -109.929688 73.886719 -109.929688 Z M 74.0625 -109.214844 L 74.0625 -107.957031 L 73.886719 -109.394531 Z M 48.0625 -104.011719 C 48.0625 -104.191406 48.0625 -104.191406 48.242188 -104.191406 C 48.417969 -104.191406 48.417969 -104.191406 48.417969 -104.011719 C 48.417969 -103.832031 48.417969 -103.832031 48.242188 -103.832031 C 48.0625 -103.832031 48.0625 -103.832031 48.0625 -104.011719 Z M 105.089844 -103.296875 C 105.089844 -103.476562 105.089844 -103.476562 105.269531 -103.476562 C 105.449219 -103.476562 105.449219 -103.476562 105.449219 -103.296875 C 105.449219 -103.117188 105.449219 -103.117188 105.269531 -103.117188 C 105.089844 -103.117188 105.089844 -103.117188 105.089844 -103.296875 Z M 73.707031 -102.9375 C 73.886719 -102.9375 73.886719 -102.9375 73.886719 -103.117188 C 73.886719 -103.296875 73.886719 -103.296875 73.707031 -103.296875 C 73.527344 -103.296875 73.527344 -103.296875 73.527344 -103.117188 C 73.527344 -102.9375 73.527344 -102.9375 73.707031 -102.9375 Z M 104.910156 -102.21875 C 104.730469 -102.21875 104.730469 -102.21875 104.730469 -102.398438 C 104.730469 -102.578125 104.730469 -102.578125 104.910156 -102.578125 C 105.089844 -102.578125 105.089844 -102.578125 105.089844 -102.398438 C 105.089844 -102.398438 105.089844 -102.21875 105.089844 -102.21875 Z M 46.269531 -101.503906 C 46.269531 -101.679688 46.269531 -101.679688 46.445312 -101.679688 C 46.625 -101.679688 46.625 -101.679688 46.625 -101.503906 C 46.625 -101.324219 46.625 -101.324219 46.445312 -101.324219 C 46.269531 -101.324219 46.269531 -101.324219 46.269531 -101.503906 Z M 103.117188 -97.558594 C 103.117188 -98.09375 103.296875 -98.453125 103.476562 -98.632812 C 103.652344 -98.8125 103.832031 -99.171875 103.832031 -99.351562 L 104.191406 -99.886719 L 104.371094 -99.886719 C 104.371094 -99.171875 103.652344 -98.09375 103.117188 -97.558594 Z M 44.832031 -99.171875 C 44.832031 -99.351562 44.832031 -99.351562 45.011719 -99.351562 C 45.191406 -99.351562 45.191406 -99.351562 45.191406 -99.171875 C 45.191406 -98.992188 45.191406 -98.992188 45.011719 -98.992188 C 44.832031 -98.992188 44.832031 -98.992188 44.832031 -99.171875 Z M 45.011719 -98.8125 C 45.011719 -98.632812 45.011719 -98.632812 44.832031 -98.632812 C 44.652344 -98.632812 44.652344 -98.632812 44.652344 -98.8125 C 44.652344 -98.992188 44.652344 -98.992188 44.832031 -98.992188 C 45.011719 -98.992188 45.011719 -98.992188 45.011719 -98.8125 Z M 44.117188 -98.09375 C 44.117188 -98.273438 44.117188 -98.273438 44.296875 -98.273438 C 44.472656 -98.273438 44.472656 -98.273438 44.472656 -98.09375 C 44.472656 -97.914062 44.472656 -97.914062 44.296875 -97.914062 C 44.117188 -97.914062 44.117188 -97.914062 44.117188 -98.09375 Z M 43.578125 -97.199219 C 43.578125 -97.378906 43.578125 -97.378906 43.757812 -97.378906 C 43.9375 -97.378906 43.9375 -97.378906 43.9375 -97.199219 C 43.9375 -97.019531 43.9375 -97.019531 43.757812 -97.019531 C 43.578125 -97.019531 43.578125 -97.019531 43.578125 -97.199219 Z M 102.757812 -96.839844 C 102.757812 -96.839844 102.578125 -96.660156 102.398438 -96.121094 L 102.039062 -95.761719 L 101.859375 -95.761719 C 101.859375 -95.941406 101.859375 -96.121094 102.039062 -96.300781 C 102.21875 -96.480469 102.398438 -96.839844 102.398438 -97.019531 L 102.757812 -97.378906 L 102.9375 -97.378906 C 102.757812 -97.019531 102.757812 -97.019531 102.757812 -96.839844 Z M 111.902344 -95.761719 C 112.082031 -95.761719 112.082031 -95.761719 112.082031 -95.585938 C 112.082031 -95.40625 112.082031 -95.40625 111.902344 -95.40625 C 111.722656 -95.40625 111.722656 -95.40625 111.722656 -95.585938 C 111.722656 -95.761719 111.722656 -95.761719 111.902344 -95.761719 Z M 101.503906 -95.046875 C 101.503906 -95.40625 101.503906 -95.585938 101.679688 -95.585938 L 101.859375 -95.40625 Z M 42.324219 -95.046875 C 42.324219 -95.226562 42.324219 -95.226562 42.5 -95.226562 C 42.679688 -95.226562 42.679688 -95.226562 42.679688 -95.046875 C 42.679688 -94.867188 42.679688 -94.867188 42.5 -94.867188 C 42.324219 -94.867188 42.324219 -94.867188 42.324219 -95.046875 Z M 111.902344 -95.226562 L 112.082031 -95.226562 L 112.082031 -95.046875 C 111.902344 -95.046875 111.902344 -95.046875 111.902344 -95.226562 Z M 100.964844 -94.507812 L 100.964844 -94.328125 L 100.785156 -94.328125 C 100.785156 -94.507812 100.785156 -94.507812 100.964844 -94.507812 Z M 112.621094 -93.789062 C 112.441406 -93.789062 112.261719 -93.96875 112.261719 -94.328125 C 112.441406 -94.328125 112.621094 -94.148438 112.621094 -93.789062 Z M 20.800781 -93.789062 C 20.625 -93.789062 20.625 -93.789062 20.625 -93.96875 C 20.625 -94.148438 20.625 -94.148438 20.800781 -94.148438 C 20.980469 -94.148438 20.980469 -94.148438 20.980469 -93.96875 C 20.980469 -93.789062 20.980469 -93.789062 20.800781 -93.789062 Z M 100.785156 -94.148438 L 100.785156 -93.96875 L 100.605469 -93.96875 C 100.605469 -94.148438 100.605469 -94.148438 100.785156 -94.148438 Z M 41.785156 -93.613281 C 41.785156 -93.789062 41.785156 -93.789062 41.964844 -93.789062 L 41.964844 -93.613281 Z M 112.621094 -93.433594 L 112.621094 -92.894531 C 112.441406 -93.074219 112.261719 -93.253906 112.261719 -93.433594 Z M 20.625 -92.894531 C 20.445312 -92.894531 20.445312 -92.894531 20.445312 -93.074219 C 20.445312 -93.253906 20.445312 -93.253906 20.625 -93.253906 C 20.800781 -93.253906 20.800781 -93.253906 20.800781 -93.074219 C 20.800781 -92.894531 20.800781 -92.894531 20.625 -92.894531 Z M 100.066406 -92.894531 C 99.886719 -92.894531 99.886719 -92.894531 99.886719 -93.074219 C 99.886719 -93.253906 99.886719 -93.253906 100.066406 -93.253906 C 100.246094 -93.253906 100.246094 -93.253906 100.246094 -93.074219 C 100.246094 -92.894531 100.246094 -92.894531 100.066406 -92.894531 Z M 99.886719 -92.714844 L 99.707031 -92.714844 L 99.886719 -92.894531 Z M 112.261719 -84.464844 C 112.261719 -85.003906 112.261719 -85.722656 112.441406 -86.257812 C 112.621094 -86.796875 112.621094 -87.335938 112.621094 -87.871094 L 112.621094 -88.949219 L 112.441406 -89.488281 C 112.441406 -89.667969 112.441406 -89.84375 112.621094 -90.023438 L 112.621094 -91.640625 C 112.441406 -91.816406 112.441406 -92.175781 112.441406 -92.714844 C 112.800781 -92.535156 112.980469 -91.816406 112.980469 -90.921875 L 112.980469 -89.128906 C 112.980469 -88.589844 112.980469 -87.515625 113.160156 -86.257812 C 113.160156 -84.824219 112.980469 -83.75 112.441406 -83.210938 C 112.261719 -83.390625 112.261719 -83.570312 112.261719 -83.925781 Z M 20.625 -92.535156 L 20.800781 -92.355469 C 20.625 -92.355469 20.625 -92.355469 20.625 -92.535156 Z M 41.066406 -92.355469 C 41.066406 -92.535156 41.066406 -92.535156 41.246094 -92.535156 L 41.246094 -92.355469 Z M 99.53125 -92.175781 C 99.53125 -91.996094 99.53125 -91.996094 99.351562 -91.996094 C 99.171875 -91.996094 99.171875 -91.996094 99.171875 -92.175781 C 99.171875 -92.355469 99.171875 -92.355469 99.351562 -92.355469 C 99.351562 -92.535156 99.351562 -92.535156 99.53125 -92.535156 C 99.707031 -92.535156 99.707031 -92.535156 99.707031 -92.355469 C 99.707031 -92.175781 99.707031 -92.175781 99.53125 -92.175781 Z M 20.625 -91.996094 C 20.445312 -91.996094 20.445312 -91.996094 20.445312 -92.175781 C 20.445312 -92.355469 20.445312 -92.355469 20.625 -92.355469 C 20.800781 -92.355469 20.800781 -92.355469 20.800781 -92.175781 C 20.800781 -91.996094 20.800781 -91.996094 20.625 -91.996094 Z M 99.351562 -92.355469 C 99.351562 -92.175781 99.351562 -92.175781 99.53125 -92.175781 C 99.53125 -92.355469 99.53125 -92.355469 99.351562 -92.355469 Z M 40.886719 -91.816406 L 40.886719 -91.996094 L 41.066406 -91.996094 Z M 98.992188 -91.460938 C 98.8125 -91.460938 98.8125 -91.460938 98.8125 -91.640625 C 98.8125 -91.816406 98.8125 -91.816406 98.992188 -91.816406 C 99.171875 -91.816406 99.171875 -91.816406 99.171875 -91.640625 C 99.171875 -91.460938 99.171875 -91.460938 98.992188 -91.460938 Z M 20.625 -91.28125 C 20.445312 -91.28125 20.445312 -91.28125 20.445312 -91.460938 C 20.445312 -91.640625 20.445312 -91.640625 20.625 -91.640625 C 20.800781 -91.640625 20.800781 -91.640625 20.800781 -91.460938 C 20.800781 -91.28125 20.800781 -91.28125 20.625 -91.28125 Z M 98.632812 -90.921875 C 98.632812 -90.742188 98.632812 -90.742188 98.453125 -90.742188 C 98.273438 -90.742188 98.273438 -90.742188 98.273438 -90.921875 C 98.273438 -91.101562 98.273438 -91.101562 98.453125 -91.101562 C 98.632812 -91.101562 98.632812 -91.101562 98.632812 -90.921875 Z M 20.265625 -90.023438 C 20.085938 -90.023438 20.085938 -90.023438 20.085938 -90.203125 C 20.085938 -90.382812 20.085938 -90.382812 20.265625 -90.382812 C 20.445312 -90.382812 20.445312 -90.382812 20.445312 -90.203125 C 20.445312 -90.023438 20.445312 -90.023438 20.265625 -90.023438 Z M 39.632812 -89.84375 C 39.632812 -90.023438 39.632812 -90.023438 39.8125 -90.023438 C 39.992188 -90.023438 39.992188 -90.023438 39.992188 -89.84375 C 39.992188 -89.667969 39.992188 -89.667969 39.8125 -89.667969 C 39.632812 -89.667969 39.632812 -89.667969 39.632812 -89.84375 Z M 20.265625 -89.488281 C 20.085938 -89.488281 20.085938 -89.488281 20.085938 -89.667969 C 20.085938 -89.84375 20.085938 -89.84375 20.265625 -89.84375 C 20.445312 -89.84375 20.445312 -89.84375 20.445312 -89.667969 C 20.445312 -89.488281 20.445312 -89.488281 20.265625 -89.488281 Z M 100.964844 -88.949219 C 100.785156 -88.949219 100.785156 -88.949219 100.785156 -89.128906 C 100.785156 -89.308594 100.785156 -89.308594 100.964844 -89.308594 C 101.144531 -89.308594 101.144531 -89.308594 101.144531 -89.128906 C 101.144531 -88.949219 101.144531 -88.949219 100.964844 -88.949219 Z M 97.019531 -88.949219 C 97.019531 -88.769531 97.019531 -88.589844 96.839844 -88.589844 C 96.839844 -88.769531 96.839844 -88.769531 97.019531 -88.949219 Z M 39.273438 -88.589844 C 39.273438 -88.769531 39.273438 -88.769531 39.453125 -88.769531 C 39.632812 -88.769531 39.632812 -88.769531 39.632812 -88.589844 C 39.632812 -88.410156 39.632812 -88.410156 39.453125 -88.410156 C 39.273438 -88.410156 39.273438 -88.410156 39.273438 -88.589844 Z M 20.085938 -88.230469 C 19.90625 -88.230469 19.90625 -88.230469 19.90625 -88.410156 C 19.90625 -88.589844 19.90625 -88.589844 20.085938 -88.589844 C 20.265625 -88.589844 20.265625 -88.589844 20.265625 -88.410156 C 20.265625 -88.230469 20.265625 -88.230469 20.085938 -88.230469 Z M 38.554688 -88.050781 C 38.554688 -88.230469 38.554688 -88.230469 38.734375 -88.230469 C 38.914062 -88.230469 38.914062 -88.230469 38.914062 -88.050781 C 38.914062 -87.871094 38.914062 -87.871094 38.734375 -87.871094 C 38.554688 -87.871094 38.554688 -87.871094 38.554688 -88.050781 Z M 96.480469 -88.050781 L 96.300781 -88.050781 C 96.300781 -88.230469 96.300781 -88.230469 96.480469 -88.230469 Z M 96.121094 -87.515625 C 95.941406 -87.515625 95.941406 -87.515625 95.941406 -87.695312 C 95.941406 -87.871094 95.941406 -87.871094 96.121094 -87.871094 C 96.300781 -87.871094 96.300781 -87.871094 96.300781 -87.695312 C 96.300781 -87.515625 96.300781 -87.515625 96.121094 -87.515625 Z M 38.734375 -87.695312 C 38.914062 -87.695312 38.914062 -87.695312 38.914062 -87.515625 C 38.914062 -87.335938 38.914062 -87.335938 38.734375 -87.335938 C 38.554688 -87.335938 38.554688 -87.335938 38.554688 -87.515625 C 38.554688 -87.695312 38.554688 -87.695312 38.734375 -87.695312 Z M 95.941406 -87.335938 C 95.941406 -87.15625 95.941406 -87.15625 95.761719 -87.15625 C 95.585938 -87.15625 95.585938 -87.15625 95.585938 -87.335938 C 95.585938 -87.515625 95.585938 -87.515625 95.761719 -87.515625 C 95.941406 -87.515625 95.941406 -87.515625 95.941406 -87.335938 Z M 99.53125 -86.257812 C 99.351562 -86.257812 99.351562 -86.257812 99.351562 -86.4375 C 99.351562 -86.617188 99.351562 -86.617188 99.53125 -86.617188 C 99.707031 -86.617188 99.707031 -86.617188 99.707031 -86.4375 C 99.707031 -86.257812 99.707031 -86.257812 99.53125 -86.257812 Z M 37.660156 -85.722656 C 37.660156 -85.898438 37.660156 -85.898438 37.839844 -85.898438 L 37.839844 -85.722656 Z M 98.632812 -85.183594 C 98.453125 -85.183594 98.453125 -85.183594 98.453125 -85.363281 C 98.453125 -85.542969 98.453125 -85.542969 98.632812 -85.542969 C 98.8125 -85.542969 98.8125 -85.542969 98.8125 -85.363281 C 98.8125 -85.183594 98.8125 -85.183594 98.632812 -85.183594 Z M 37.839844 -85.363281 C 38.019531 -85.363281 38.019531 -85.363281 38.019531 -85.183594 C 38.019531 -85.003906 38.019531 -85.003906 37.839844 -85.003906 C 37.660156 -85.003906 37.660156 -85.003906 37.660156 -85.183594 C 37.660156 -85.363281 37.660156 -85.363281 37.839844 -85.363281 Z M 19.546875 -85.183594 L 19.546875 -85.003906 C 19.367188 -85.003906 19.367188 -85.003906 19.367188 -85.183594 Z M 98.453125 -84.824219 C 98.273438 -84.824219 98.273438 -84.824219 98.273438 -85.003906 C 98.273438 -85.183594 98.273438 -85.183594 98.453125 -85.183594 C 98.632812 -85.183594 98.632812 -85.183594 98.632812 -85.003906 C 98.632812 -84.824219 98.632812 -84.824219 98.453125 -84.824219 Z M 37.839844 -84.824219 C 37.839844 -84.644531 37.839844 -84.644531 37.660156 -84.644531 C 37.480469 -84.644531 37.480469 -84.644531 37.480469 -84.824219 C 37.480469 -85.003906 37.480469 -85.003906 37.660156 -85.003906 C 37.839844 -85.003906 37.839844 -85.003906 37.839844 -84.824219 Z M 37.300781 -84.644531 L 37.480469 -84.644531 L 37.480469 -84.464844 C 37.300781 -84.464844 37.300781 -84.464844 37.300781 -84.644531 Z M 93.074219 -84.105469 C 92.894531 -84.105469 92.894531 -84.105469 92.894531 -84.285156 C 92.894531 -84.464844 92.894531 -84.464844 93.074219 -84.464844 C 93.253906 -84.464844 93.253906 -84.464844 93.253906 -84.285156 C 93.253906 -84.105469 93.253906 -84.105469 93.074219 -84.105469 Z M 97.914062 -83.75 C 97.914062 -83.570312 97.914062 -83.570312 97.734375 -83.570312 C 97.558594 -83.570312 97.558594 -83.570312 97.558594 -83.75 C 97.558594 -83.925781 97.558594 -83.925781 97.734375 -83.925781 C 97.558594 -83.925781 97.558594 -83.925781 97.558594 -84.105469 C 97.558594 -84.285156 97.558594 -84.285156 97.734375 -84.285156 C 97.914062 -84.285156 97.914062 -84.285156 97.914062 -84.105469 C 97.914062 -83.925781 97.914062 -83.925781 97.734375 -83.925781 C 97.914062 -83.925781 97.914062 -83.925781 97.914062 -83.75 Z M 92.894531 -84.105469 L 92.894531 -83.925781 C 92.714844 -83.925781 92.714844 -83.925781 92.714844 -84.105469 Z M 36.941406 -83.570312 L 36.941406 -83.75 L 37.121094 -83.75 L 37.121094 -83.570312 Z M 97.378906 -83.03125 L 97.378906 -83.390625 L 97.558594 -83.390625 Z M 36.582031 -82.671875 C 36.582031 -82.851562 36.582031 -82.851562 36.761719 -82.851562 C 36.941406 -82.851562 36.941406 -82.851562 36.941406 -82.671875 C 36.941406 -82.492188 36.941406 -82.492188 36.761719 -82.492188 C 36.582031 -82.492188 36.582031 -82.492188 36.582031 -82.671875 Z M 93.433594 -82.671875 C 93.433594 -82.851562 93.433594 -82.851562 93.613281 -82.851562 C 93.789062 -82.851562 93.789062 -82.851562 93.789062 -82.671875 C 93.789062 -82.492188 93.789062 -82.492188 93.613281 -82.492188 C 93.613281 -82.3125 93.613281 -82.3125 93.433594 -82.3125 C 93.253906 -82.3125 93.253906 -82.3125 93.253906 -82.492188 C 93.253906 -82.671875 93.253906 -82.671875 93.433594 -82.671875 Z M 112.261719 -82.3125 C 112.261719 -82.492188 112.261719 -82.492188 112.441406 -82.851562 C 112.441406 -82.851562 112.441406 -82.671875 112.621094 -82.492188 C 112.621094 -82.3125 112.621094 -82.3125 112.441406 -82.132812 C 112.261719 -81.953125 112.261719 -81.953125 112.261719 -81.777344 Z M 93.613281 -82.492188 C 93.613281 -82.671875 93.613281 -82.671875 93.433594 -82.671875 C 93.433594 -82.492188 93.433594 -82.492188 93.613281 -82.492188 Z M 97.019531 -82.3125 C 96.839844 -82.3125 96.839844 -82.3125 96.839844 -82.492188 C 96.839844 -82.671875 96.839844 -82.671875 97.019531 -82.671875 C 97.199219 -82.671875 97.199219 -82.671875 97.199219 -82.492188 C 97.199219 -82.3125 97.199219 -82.3125 97.019531 -82.3125 Z M 69.402344 -30.84375 L 61.691406 -18.472656 C 57.027344 -11.835938 49.675781 -3.40625 41.066406 -3.40625 C 30.664062 -3.40625 28.15625 -22.238281 28.15625 -31.203125 C 28.15625 -38.914062 29.050781 -45.730469 30.488281 -53.800781 C 33.175781 -53.082031 34.789062 -52.722656 37.121094 -52.722656 C 52.902344 -52.722656 71.195312 -62.585938 83.03125 -72.628906 C 84.285156 -74.242188 85.898438 -75.859375 88.230469 -77.832031 C 90.382812 -79.625 91.996094 -81.058594 93.253906 -82.3125 L 93.253906 -82.132812 Z M 36.40625 -81.953125 L 36.40625 -82.132812 L 36.582031 -81.953125 Z M 36.046875 -81.777344 L 36.226562 -81.777344 L 36.226562 -81.597656 C 36.046875 -81.597656 36.046875 -81.597656 36.046875 -81.777344 Z M 112.441406 -81.417969 C 112.441406 -80.878906 112.441406 -80.519531 112.261719 -80.160156 L 112.441406 -80.160156 C 112.621094 -80.160156 112.621094 -80.160156 112.621094 -79.980469 C 112.621094 -79.804688 112.621094 -79.804688 112.441406 -79.804688 L 112.261719 -79.804688 C 112.261719 -79.445312 112.082031 -79.085938 111.902344 -78.726562 L 111.902344 -80.519531 C 111.722656 -81.058594 111.902344 -81.238281 112.441406 -81.417969 Z M 96.121094 -80.878906 L 95.941406 -81.238281 L 96.300781 -81.238281 C 96.300781 -81.058594 96.300781 -81.058594 96.121094 -80.878906 Z M 95.761719 -79.980469 C 95.585938 -79.980469 95.585938 -79.980469 95.585938 -80.160156 C 95.585938 -80.339844 95.585938 -80.339844 95.761719 -80.339844 C 95.941406 -80.339844 95.941406 -80.339844 95.941406 -80.160156 C 95.941406 -79.980469 95.941406 -79.980469 95.761719 -79.980469 Z M 35.507812 -79.804688 C 35.507812 -79.804688 35.507812 -79.980469 35.6875 -80.160156 C 35.6875 -79.980469 35.6875 -79.980469 35.507812 -79.804688 Z M 112.261719 -79.980469 L 112.261719 -79.804688 C 112.261719 -79.980469 112.261719 -79.980469 112.261719 -80.160156 Z M 95.585938 -79.625 L 95.40625 -79.625 L 95.585938 -79.804688 Z M 35.6875 -79.625 C 35.867188 -79.625 35.867188 -79.625 35.867188 -79.445312 C 35.867188 -79.265625 35.867188 -79.265625 35.6875 -79.265625 C 35.507812 -79.265625 35.507812 -79.265625 35.507812 -79.445312 C 35.507812 -79.625 35.507812 -79.625 35.6875 -79.625 Z M 95.226562 -78.90625 C 95.046875 -78.90625 95.046875 -78.90625 95.046875 -79.085938 C 95.046875 -79.265625 95.046875 -79.265625 95.226562 -79.265625 C 95.40625 -79.265625 95.40625 -79.265625 95.40625 -79.085938 C 95.40625 -78.90625 95.40625 -78.90625 95.226562 -78.90625 Z M 94.507812 -78.367188 C 94.328125 -78.367188 94.328125 -78.367188 94.328125 -78.546875 C 94.328125 -78.726562 94.328125 -78.726562 94.507812 -78.726562 C 94.6875 -78.726562 94.6875 -78.726562 94.6875 -78.546875 C 94.6875 -78.367188 94.6875 -78.367188 94.507812 -78.367188 Z M 95.046875 -78.546875 C 94.867188 -78.546875 94.867188 -78.546875 94.867188 -78.726562 L 95.046875 -78.726562 Z M 19.367188 -78.1875 C 19.1875 -78.1875 19.1875 -78.1875 19.1875 -78.367188 C 19.1875 -78.546875 19.1875 -78.546875 19.367188 -78.546875 C 19.546875 -78.546875 19.546875 -78.546875 19.546875 -78.367188 C 19.546875 -78.1875 19.546875 -78.1875 19.367188 -78.1875 Z M 110.648438 -71.375 C 110.828125 -71.914062 111.007812 -72.628906 111.007812 -73.167969 L 111.007812 -74.78125 C 111.1875 -74.960938 111.367188 -75.5 111.367188 -76.214844 L 111.367188 -77.472656 C 111.542969 -77.652344 111.722656 -77.832031 111.722656 -78.007812 C 111.542969 -78.1875 111.722656 -78.1875 111.902344 -78.367188 C 111.902344 -76.035156 111.902344 -72.449219 110.648438 -70.476562 C 110.648438 -70.65625 110.648438 -70.65625 110.828125 -70.835938 L 110.828125 -71.015625 Z M 34.609375 -78.007812 L 34.789062 -78.007812 L 34.789062 -77.832031 C 34.609375 -77.832031 34.609375 -77.832031 34.609375 -78.007812 Z M 94.328125 -77.292969 L 94.148438 -77.292969 C 94.148438 -77.472656 94.148438 -77.472656 94.328125 -77.472656 Z M 34.433594 -77.292969 L 34.609375 -77.292969 L 34.609375 -77.113281 C 34.433594 -77.113281 34.433594 -77.113281 34.433594 -77.292969 Z M 34.609375 -76.933594 C 34.609375 -76.753906 34.609375 -76.753906 34.433594 -76.753906 C 34.253906 -76.753906 34.253906 -76.753906 34.253906 -76.933594 C 34.253906 -77.113281 34.253906 -77.113281 34.433594 -77.113281 C 34.609375 -77.113281 34.609375 -77.113281 34.609375 -76.933594 Z M 19.1875 -76.574219 C 19.007812 -76.574219 19.007812 -76.574219 19.007812 -76.753906 C 19.007812 -76.933594 19.007812 -76.933594 19.1875 -76.933594 C 19.367188 -76.933594 19.367188 -76.933594 19.367188 -76.753906 C 19.367188 -76.574219 19.367188 -76.574219 19.1875 -76.574219 Z M 93.789062 -76.035156 C 93.789062 -75.859375 93.789062 -75.859375 93.613281 -75.859375 C 93.433594 -75.859375 93.433594 -75.859375 93.433594 -76.035156 C 93.433594 -76.214844 93.433594 -76.214844 93.613281 -76.214844 C 93.613281 -76.394531 93.613281 -76.394531 93.789062 -76.394531 C 93.96875 -76.394531 93.96875 -76.394531 93.96875 -76.214844 C 93.96875 -76.035156 93.96875 -76.035156 93.789062 -76.035156 Z M 93.613281 -76.214844 C 93.613281 -76.035156 93.613281 -76.035156 93.789062 -76.035156 C 93.789062 -76.214844 93.789062 -76.214844 93.613281 -76.214844 Z M 93.253906 -75.5 C 93.074219 -75.5 93.074219 -75.5 93.074219 -75.679688 C 93.074219 -75.859375 93.074219 -75.859375 93.253906 -75.859375 C 93.433594 -75.859375 93.433594 -75.859375 93.433594 -75.679688 C 93.433594 -75.5 93.433594 -75.5 93.253906 -75.5 Z M 93.074219 -75.320312 L 93.074219 -75.5 L 93.253906 -75.320312 Z M 93.074219 -74.601562 C 92.894531 -74.601562 92.894531 -74.601562 92.894531 -74.78125 C 92.894531 -74.960938 92.894531 -74.960938 93.074219 -74.960938 C 93.253906 -74.960938 93.253906 -74.960938 93.253906 -74.78125 C 93.253906 -74.601562 93.253906 -74.601562 93.074219 -74.601562 Z M 33.355469 -74.601562 C 33.355469 -74.78125 33.355469 -74.78125 33.535156 -74.78125 C 33.714844 -74.78125 33.714844 -74.78125 33.714844 -74.601562 C 33.714844 -74.421875 33.714844 -74.421875 33.535156 -74.421875 C 33.355469 -74.421875 33.355469 -74.421875 33.355469 -74.601562 Z M 92.894531 -74.242188 C 92.714844 -74.242188 92.714844 -74.242188 92.714844 -74.421875 C 92.714844 -74.601562 92.714844 -74.601562 92.894531 -74.601562 C 93.074219 -74.601562 93.074219 -74.601562 93.074219 -74.421875 C 93.074219 -74.242188 93.074219 -74.242188 92.894531 -74.242188 Z M 92.535156 -73.707031 C 92.535156 -73.527344 92.535156 -73.527344 92.355469 -73.527344 C 92.535156 -73.527344 92.535156 -73.527344 92.535156 -73.347656 C 92.535156 -73.167969 92.535156 -73.167969 92.355469 -73.167969 C 92.175781 -73.167969 92.175781 -73.167969 92.175781 -73.347656 C 92.175781 -73.527344 92.175781 -73.527344 92.355469 -73.527344 C 92.175781 -73.527344 92.175781 -73.527344 92.175781 -73.707031 C 92.175781 -73.886719 92.175781 -73.886719 92.355469 -73.886719 C 92.175781 -73.886719 92.175781 -73.886719 92.175781 -74.0625 C 92.175781 -74.242188 92.175781 -74.242188 92.355469 -74.242188 C 92.535156 -74.242188 92.535156 -74.242188 92.535156 -74.0625 C 92.535156 -73.886719 92.535156 -73.886719 92.355469 -73.886719 C 92.535156 -73.886719 92.535156 -73.886719 92.535156 -73.707031 Z M 19.546875 -73.527344 C 19.546875 -73.707031 19.546875 -73.707031 19.726562 -73.707031 C 19.90625 -73.707031 19.90625 -73.707031 19.90625 -73.527344 C 19.90625 -73.347656 19.90625 -73.347656 19.726562 -73.347656 C 19.546875 -73.347656 19.546875 -73.347656 19.546875 -73.527344 Z M 33.535156 -73.527344 C 33.535156 -73.347656 33.535156 -73.347656 33.355469 -73.347656 C 33.175781 -73.347656 33.175781 -73.347656 33.175781 -73.527344 C 33.175781 -73.707031 33.175781 -73.707031 33.355469 -73.707031 C 33.535156 -73.707031 33.535156 -73.707031 33.535156 -73.527344 Z M 32.996094 -73.347656 L 33.175781 -73.347656 L 33.175781 -73.167969 C 32.996094 -73.167969 32.996094 -73.167969 32.996094 -73.347656 Z M 19.726562 -72.628906 C 19.726562 -72.808594 19.726562 -72.808594 19.90625 -72.808594 C 20.085938 -72.808594 20.085938 -72.808594 20.085938 -72.628906 C 20.085938 -72.449219 20.085938 -72.449219 19.90625 -72.449219 C 19.726562 -72.449219 19.726562 -72.449219 19.726562 -72.628906 Z M 32.816406 -72.628906 L 32.996094 -72.628906 L 32.996094 -72.449219 C 32.816406 -72.449219 32.816406 -72.449219 32.816406 -72.628906 Z M 32.636719 -72.269531 C 32.636719 -72.449219 32.636719 -72.449219 32.816406 -72.449219 C 32.996094 -72.449219 32.996094 -72.449219 32.996094 -72.269531 C 32.996094 -72.089844 32.996094 -72.089844 32.816406 -72.089844 C 32.996094 -72.089844 32.996094 -72.089844 32.996094 -71.914062 C 32.996094 -71.734375 32.996094 -71.734375 32.816406 -71.734375 C 32.636719 -71.734375 32.636719 -71.734375 32.636719 -71.914062 C 32.636719 -72.089844 32.636719 -72.089844 32.816406 -72.089844 C 32.636719 -72.089844 32.636719 -72.089844 32.636719 -72.269531 Z M 91.460938 -71.914062 C 91.28125 -71.914062 91.28125 -71.914062 91.28125 -72.089844 L 91.460938 -72.089844 Z M 32.460938 -71.554688 L 32.636719 -71.554688 L 32.636719 -71.375 C 32.460938 -71.375 32.460938 -71.375 32.460938 -71.554688 Z M 91.460938 -71.195312 L 91.28125 -71.015625 L 91.28125 -71.554688 L 91.460938 -71.554688 Z M 20.085938 -70.476562 C 19.90625 -70.476562 19.90625 -70.476562 19.90625 -70.65625 C 19.90625 -70.835938 19.90625 -70.835938 20.085938 -70.835938 C 20.265625 -70.835938 20.265625 -70.835938 20.265625 -70.65625 C 20.265625 -70.476562 20.265625 -70.476562 20.085938 -70.476562 Z M 91.101562 -70.476562 C 90.921875 -70.296875 90.921875 -70.296875 90.921875 -70.117188 C 90.921875 -70.117188 90.742188 -70.117188 90.742188 -70.476562 C 90.742188 -70.65625 90.921875 -70.65625 91.101562 -70.65625 Z M 90.5625 -69.582031 C 90.382812 -69.582031 90.382812 -69.582031 90.382812 -69.761719 C 90.382812 -69.941406 90.382812 -69.941406 90.5625 -69.941406 C 90.742188 -69.941406 90.742188 -69.941406 90.742188 -69.761719 C 90.742188 -69.582031 90.742188 -69.582031 90.5625 -69.582031 Z M 109.570312 -63.125 C 109.570312 -63.664062 109.75 -64.199219 109.929688 -64.738281 C 110.109375 -65.277344 110.289062 -65.996094 110.289062 -66.53125 L 110.109375 -66.890625 L 110.289062 -67.25 L 110.289062 -67.96875 C 110.289062 -67.96875 110.289062 -68.144531 110.289062 -68.144531 L 110.46875 -68.144531 C 110.648438 -68.144531 110.648438 -68.144531 110.648438 -68.324219 C 110.648438 -68.503906 110.648438 -68.503906 110.46875 -68.503906 L 110.289062 -68.503906 C 110.46875 -68.503906 110.46875 -68.683594 110.46875 -68.683594 C 110.46875 -68.863281 110.46875 -69.042969 110.648438 -69.402344 L 110.648438 -69.941406 L 110.828125 -69.941406 L 110.828125 -68.683594 C 110.648438 -68.324219 110.648438 -67.96875 110.648438 -67.429688 L 110.648438 -67.070312 L 110.828125 -66.710938 C 110.828125 -66.53125 110.828125 -66.53125 110.648438 -66.351562 C 110.648438 -65.996094 110.648438 -65.816406 110.46875 -65.816406 C 110.46875 -65.277344 110.46875 -64.738281 110.289062 -64.199219 C 110.289062 -64.199219 110.289062 -64.023438 110.289062 -64.023438 L 110.109375 -64.023438 C 109.929688 -64.023438 109.929688 -64.023438 109.929688 -63.84375 C 109.929688 -63.664062 109.929688 -63.664062 110.109375 -63.664062 L 110.109375 -62.585938 C 109.929688 -62.40625 109.929688 -62.226562 109.929688 -61.871094 L 109.929688 -61.152344 C 109.929688 -60.972656 109.75 -60.792969 109.570312 -60.792969 Z M 89.84375 -68.324219 C 89.84375 -68.503906 90.023438 -68.863281 90.203125 -69.402344 C 90.382812 -69.402344 90.382812 -69.222656 90.382812 -69.042969 C 90.382812 -68.503906 90.203125 -68.324219 89.84375 -68.324219 Z M 110.289062 -69.042969 L 110.289062 -68.863281 C 110.109375 -68.863281 110.109375 -68.863281 110.109375 -69.042969 Z M 31.5625 -68.503906 C 31.5625 -68.683594 31.5625 -68.683594 31.742188 -68.683594 C 31.921875 -68.683594 31.921875 -68.683594 31.921875 -68.503906 C 31.921875 -68.324219 31.921875 -68.324219 31.742188 -68.324219 C 31.5625 -68.324219 31.5625 -68.324219 31.5625 -68.503906 Z M 31.382812 -67.96875 L 31.5625 -67.96875 L 31.5625 -67.789062 C 31.382812 -67.789062 31.382812 -67.789062 31.382812 -67.96875 Z M 89.488281 -67.429688 C 89.488281 -66.890625 89.488281 -66.710938 89.308594 -66.710938 L 89.308594 -67.25 C 89.308594 -67.429688 89.308594 -67.429688 89.488281 -67.789062 Z M 31.742188 -67.429688 C 31.742188 -67.429688 31.5625 -67.429688 31.382812 -67.25 L 31.382812 -67.609375 Z M 30.84375 -66.53125 C 30.664062 -66.53125 30.664062 -66.53125 30.664062 -66.710938 C 30.664062 -66.890625 30.664062 -66.890625 30.84375 -66.890625 C 31.023438 -66.890625 31.023438 -66.890625 31.023438 -66.710938 C 31.023438 -66.53125 31.023438 -66.53125 30.84375 -66.53125 Z M 30.84375 -65.636719 C 30.84375 -66.171875 31.023438 -66.351562 31.203125 -66.53125 C 31.203125 -65.996094 31.023438 -65.636719 30.84375 -65.636719 Z M 31.5625 -66.351562 C 31.742188 -66.351562 31.742188 -66.351562 31.742188 -66.171875 C 31.742188 -65.996094 31.742188 -65.996094 31.5625 -65.996094 C 31.382812 -65.996094 31.382812 -65.996094 31.382812 -66.171875 C 31.382812 -66.351562 31.382812 -66.351562 31.5625 -66.351562 Z M 88.589844 -65.457031 L 88.589844 -65.636719 L 88.769531 -65.636719 Z M 31.023438 -65.277344 L 31.023438 -65.097656 C 30.84375 -65.097656 30.84375 -65.097656 30.84375 -65.277344 Z M 30.308594 -64.738281 L 30.664062 -64.738281 L 30.664062 -64.199219 Z M 88.410156 -64.378906 C 88.230469 -64.378906 88.230469 -64.378906 88.230469 -64.558594 C 88.230469 -64.738281 88.230469 -64.738281 88.410156 -64.738281 C 88.589844 -64.738281 88.589844 -64.738281 88.589844 -64.558594 C 88.589844 -64.378906 88.589844 -64.378906 88.410156 -64.378906 Z M 30.308594 -64.023438 L 30.488281 -64.023438 L 30.488281 -63.84375 C 30.308594 -63.84375 30.308594 -63.84375 30.308594 -64.023438 Z M 30.128906 -63.84375 L 30.488281 -63.484375 L 30.308594 -63.304688 L 30.308594 -63.484375 C 30.128906 -63.664062 30.128906 -63.664062 30.128906 -63.84375 Z M 87.695312 -63.125 C 87.515625 -63.125 87.515625 -63.125 87.515625 -63.304688 C 87.515625 -63.484375 87.515625 -63.484375 87.695312 -63.484375 C 87.871094 -63.484375 87.871094 -63.484375 87.871094 -63.304688 C 87.871094 -63.125 87.871094 -63.125 87.695312 -63.125 Z M 29.949219 -61.871094 L 29.769531 -61.871094 C 29.769531 -62.050781 29.949219 -62.40625 30.128906 -62.945312 C 30.128906 -62.945312 30.128906 -62.765625 30.308594 -62.585938 C 30.308594 -62.585938 30.308594 -62.40625 30.128906 -62.226562 Z M 87.515625 -62.585938 C 87.335938 -62.585938 87.335938 -62.585938 87.335938 -62.765625 C 87.335938 -62.945312 87.335938 -62.945312 87.515625 -62.945312 C 87.695312 -62.945312 87.695312 -62.945312 87.695312 -62.765625 C 87.695312 -62.585938 87.695312 -62.585938 87.515625 -62.585938 Z M 87.15625 -62.050781 L 86.976562 -62.050781 C 86.976562 -62.226562 86.976562 -62.226562 87.15625 -62.226562 Z M 86.796875 -60.613281 C 86.617188 -60.433594 86.617188 -60.613281 86.617188 -61.152344 C 86.617188 -61.511719 86.617188 -61.691406 86.796875 -61.511719 Z M 30.128906 -61.152344 C 30.128906 -60.972656 30.128906 -60.972656 29.949219 -60.972656 C 29.769531 -60.972656 29.769531 -60.972656 29.769531 -61.152344 C 29.769531 -61.332031 29.769531 -61.332031 29.949219 -61.332031 C 30.128906 -61.332031 30.128906 -61.332031 30.128906 -61.152344 Z M 29.769531 -60.792969 L 29.769531 -60.613281 C 29.589844 -60.613281 29.589844 -60.613281 29.589844 -60.792969 Z M 29.230469 -60.078125 C 29.230469 -60.253906 29.410156 -60.433594 29.589844 -60.433594 C 29.589844 -59.898438 29.589844 -59.71875 29.410156 -59.539062 L 29.410156 -59.898438 Z M 109.570312 -60.078125 C 109.75 -60.078125 109.75 -59.898438 109.75 -59.71875 C 109.570312 -59.71875 109.394531 -59.898438 109.394531 -60.433594 C 109.570312 -60.253906 109.570312 -60.253906 109.570312 -60.078125 Z M 109.929688 -60.078125 C 109.75 -60.078125 109.75 -60.078125 109.75 -60.253906 C 109.75 -60.433594 109.75 -60.433594 109.929688 -60.433594 C 110.109375 -60.433594 110.109375 -60.433594 110.109375 -60.253906 C 110.109375 -60.078125 110.109375 -60.078125 109.929688 -60.078125 Z M 85.898438 -59 L 85.898438 -59.71875 C 86.078125 -59.71875 86.257812 -59.71875 86.4375 -59.539062 Z M 109.394531 -59.179688 L 109.570312 -59 L 109.570312 -58.460938 C 109.570312 -57.925781 109.570312 -57.386719 109.394531 -57.027344 C 109.214844 -56.488281 109.214844 -55.953125 109.394531 -55.414062 L 109.035156 -55.234375 C 109.214844 -56.308594 109.214844 -57.566406 109.214844 -58.28125 L 109.035156 -58.640625 C 109.214844 -58.820312 109.394531 -59 109.394531 -59.179688 Z M 85.722656 -58.460938 C 85.542969 -58.460938 85.542969 -58.460938 85.542969 -58.640625 C 85.542969 -58.820312 85.542969 -58.820312 85.722656 -58.820312 C 85.898438 -58.820312 85.898438 -58.820312 85.898438 -58.640625 C 85.898438 -58.460938 85.898438 -58.460938 85.722656 -58.460938 Z M 85.542969 -58.28125 C 85.363281 -58.28125 85.363281 -58.28125 85.363281 -58.460938 L 85.542969 -58.460938 Z M 85.363281 -57.566406 C 85.183594 -57.566406 85.183594 -57.566406 85.183594 -57.746094 L 85.363281 -57.746094 Z M 85.003906 -56.488281 L 84.644531 -56.667969 L 85.003906 -57.027344 Z M 84.824219 -56.132812 C 84.644531 -56.132812 84.644531 -56.132812 84.644531 -56.308594 C 84.644531 -56.488281 84.644531 -56.488281 84.824219 -56.488281 C 85.003906 -56.488281 85.003906 -56.488281 85.003906 -56.308594 C 85.003906 -56.132812 85.003906 -56.132812 84.824219 -56.132812 Z M 84.464844 -56.132812 C 84.464844 -55.953125 84.464844 -55.953125 84.285156 -55.953125 C 84.105469 -55.953125 84.105469 -55.953125 84.105469 -56.132812 C 84.105469 -56.308594 84.105469 -56.308594 84.285156 -56.308594 C 84.464844 -56.308594 84.464844 -56.308594 84.464844 -56.132812 Z M 84.644531 -55.773438 C 84.464844 -55.773438 84.464844 -55.773438 84.464844 -55.953125 C 84.464844 -56.132812 84.464844 -56.132812 84.644531 -56.132812 C 84.824219 -56.132812 84.824219 -56.132812 84.824219 -55.953125 C 84.824219 -55.773438 84.824219 -55.773438 84.644531 -55.773438 Z M 84.464844 -55.234375 C 84.464844 -55.054688 84.464844 -55.054688 84.285156 -55.054688 C 84.464844 -55.054688 84.464844 -55.054688 84.464844 -54.875 C 84.464844 -54.695312 84.464844 -54.695312 84.285156 -54.695312 C 84.105469 -54.695312 84.105469 -54.695312 84.105469 -54.875 C 84.105469 -55.054688 84.105469 -55.054688 84.285156 -55.054688 C 84.105469 -55.054688 84.105469 -55.054688 84.105469 -55.234375 C 84.105469 -55.414062 84.105469 -55.414062 84.285156 -55.414062 C 84.285156 -55.59375 84.285156 -55.59375 84.464844 -55.59375 C 84.644531 -55.59375 84.644531 -55.59375 84.644531 -55.414062 C 84.644531 -55.234375 84.644531 -55.234375 84.464844 -55.234375 Z M 84.285156 -55.414062 C 84.285156 -55.234375 84.285156 -55.234375 84.464844 -55.234375 C 84.464844 -55.414062 84.464844 -55.414062 84.285156 -55.414062 Z M 108.136719 -48.777344 L 108.136719 -49.855469 L 108.316406 -49.496094 L 108.316406 -51.109375 C 108.496094 -51.109375 108.496094 -51.289062 108.496094 -51.46875 L 108.496094 -52.007812 C 108.316406 -52.1875 108.316406 -52.363281 108.316406 -52.542969 L 108.496094 -52.1875 L 109.035156 -55.054688 L 109.035156 -52.722656 L 108.855469 -52.542969 L 108.855469 -52.363281 L 109.035156 -52.1875 C 108.316406 -52.1875 108.496094 -47.703125 108.496094 -47.164062 L 107.957031 -47.34375 C 108.136719 -47.703125 108.136719 -48.242188 108.136719 -48.777344 Z M 28.15625 -54.515625 C 28.15625 -54.695312 28.15625 -54.875 28.335938 -54.695312 L 28.335938 -54.160156 C 28.15625 -54.160156 28.15625 -54.335938 28.15625 -54.515625 Z M 83.75 -54.515625 L 83.75 -54.695312 L 84.105469 -54.695312 Z M 31.382812 -54.335938 C 31.023438 -54.335938 30.84375 -54.335938 30.664062 -54.515625 C 31.023438 -54.515625 31.203125 -54.515625 31.382812 -54.335938 Z M 108.496094 -54.515625 C 108.675781 -54.515625 108.675781 -54.515625 108.675781 -54.335938 C 108.675781 -54.160156 108.675781 -54.160156 108.496094 -54.160156 C 108.316406 -54.160156 108.316406 -54.160156 108.316406 -54.335938 C 108.316406 -54.515625 108.316406 -54.515625 108.496094 -54.515625 Z M 83.75 -53.621094 C 83.570312 -53.621094 83.570312 -53.621094 83.570312 -53.800781 C 83.570312 -53.980469 83.570312 -53.980469 83.75 -53.980469 Z M 27.976562 -52.542969 L 27.976562 -52.902344 C 27.976562 -53.082031 27.976562 -53.441406 28.335938 -53.441406 L 28.335938 -53.261719 C 28.335938 -52.902344 28.15625 -52.722656 27.976562 -52.542969 Z M 83.570312 -53.082031 C 83.390625 -53.082031 83.390625 -53.082031 83.390625 -53.261719 L 83.570312 -53.261719 Z M 83.390625 -52.542969 L 83.210938 -52.542969 L 83.210938 -52.722656 L 83.390625 -52.722656 Z M 27.796875 -52.1875 C 27.796875 -52.363281 27.796875 -52.363281 27.976562 -52.363281 C 28.15625 -52.363281 28.15625 -52.363281 28.15625 -52.1875 C 28.15625 -52.007812 28.15625 -52.007812 27.976562 -52.007812 C 27.796875 -52.007812 27.796875 -52.007812 27.796875 -52.1875 Z M 83.03125 -52.007812 C 82.851562 -52.007812 82.851562 -52.007812 82.851562 -52.1875 L 83.03125 -52.1875 Z M 28.15625 -52.007812 C 28.335938 -52.007812 28.335938 -52.007812 28.335938 -51.828125 C 28.335938 -51.648438 28.335938 -51.648438 28.15625 -51.648438 C 27.976562 -51.648438 27.976562 -51.648438 27.976562 -51.828125 C 27.976562 -52.007812 27.976562 -52.007812 28.15625 -52.007812 Z M 82.851562 -51.648438 C 82.671875 -51.648438 82.671875 -51.648438 82.671875 -51.828125 C 82.671875 -52.007812 82.671875 -52.007812 82.851562 -52.007812 C 83.03125 -52.007812 83.03125 -52.007812 83.03125 -51.828125 C 83.03125 -51.648438 83.03125 -51.648438 82.851562 -51.648438 Z M 27.796875 -51.46875 C 27.796875 -51.648438 27.796875 -51.648438 27.976562 -51.648438 L 27.976562 -51.46875 Z M 82.492188 -51.289062 C 82.3125 -51.289062 82.3125 -51.289062 82.3125 -51.46875 C 82.3125 -51.648438 82.3125 -51.648438 82.492188 -51.648438 C 82.671875 -51.648438 82.671875 -51.648438 82.671875 -51.46875 C 82.671875 -51.289062 82.671875 -51.289062 82.492188 -51.289062 Z M 27.976562 -51.109375 C 27.976562 -50.929688 27.976562 -50.929688 27.796875 -50.929688 C 27.617188 -50.929688 27.617188 -50.929688 27.617188 -51.109375 C 27.617188 -51.289062 27.617188 -51.289062 27.796875 -51.289062 C 27.976562 -51.289062 27.976562 -51.289062 27.976562 -51.109375 Z M 27.617188 -50.929688 C 27.617188 -50.75 27.617188 -50.75 27.4375 -50.75 C 27.257812 -50.75 27.257812 -50.75 27.257812 -50.929688 C 27.257812 -51.109375 27.257812 -51.109375 27.4375 -51.109375 C 27.617188 -51.109375 27.617188 -51.109375 27.617188 -50.929688 Z M 82.492188 -50.75 C 82.3125 -50.75 82.3125 -50.75 82.3125 -50.929688 C 82.3125 -51.109375 82.3125 -51.109375 82.492188 -51.109375 C 82.671875 -51.109375 82.671875 -51.109375 82.671875 -50.929688 C 82.671875 -50.75 82.671875 -50.75 82.492188 -50.75 Z M 27.078125 -49.855469 C 27.078125 -50.214844 27.257812 -50.570312 27.796875 -50.75 L 27.976562 -50.570312 C 28.515625 -50.035156 27.257812 -49.855469 27.078125 -49.855469 Z M 82.3125 -50.214844 C 82.132812 -50.214844 82.132812 -50.214844 82.132812 -50.390625 L 82.3125 -50.390625 Z M 81.953125 -49.496094 C 81.777344 -49.496094 81.777344 -49.496094 81.777344 -49.675781 C 81.777344 -49.855469 81.777344 -49.855469 81.953125 -49.855469 C 82.132812 -49.855469 82.132812 -49.855469 82.132812 -49.675781 C 82.132812 -49.496094 82.132812 -49.496094 81.953125 -49.496094 Z M 81.597656 -49.316406 C 81.417969 -49.316406 81.417969 -49.316406 81.417969 -49.496094 C 81.417969 -49.675781 81.417969 -49.675781 81.597656 -49.675781 C 81.777344 -49.675781 81.777344 -49.675781 81.777344 -49.496094 C 81.777344 -49.316406 81.777344 -49.316406 81.597656 -49.316406 Z M 27.257812 -48.957031 C 27.257812 -49.136719 27.257812 -49.136719 27.4375 -49.136719 L 27.4375 -48.777344 C 27.257812 -48.777344 27.257812 -48.777344 27.257812 -48.957031 Z M 81.417969 -48.957031 C 81.417969 -48.777344 81.417969 -48.777344 81.238281 -48.777344 C 81.058594 -48.777344 81.058594 -48.777344 81.058594 -48.957031 C 81.058594 -49.136719 81.058594 -49.136719 81.238281 -49.136719 C 81.417969 -49.136719 81.417969 -49.136719 81.417969 -48.957031 Z M 81.597656 -48.417969 L 81.417969 -48.417969 C 81.417969 -48.597656 81.417969 -48.597656 81.597656 -48.597656 Z M 81.238281 -47.523438 C 81.058594 -47.523438 81.058594 -47.523438 81.058594 -47.703125 C 81.058594 -47.882812 81.058594 -47.882812 81.238281 -47.882812 C 81.417969 -47.882812 81.417969 -47.882812 81.417969 -47.703125 C 81.417969 -47.523438 81.417969 -47.523438 81.238281 -47.523438 Z M 26.71875 -45.730469 C 26.71875 -45.910156 26.71875 -46.089844 26.898438 -46.269531 L 26.898438 -46.804688 C 26.898438 -46.984375 26.898438 -47.164062 27.078125 -47.164062 L 27.078125 -47.523438 L 27.257812 -47.523438 L 27.257812 -45.730469 Z M 108.136719 -47.164062 C 108.316406 -47.164062 108.316406 -47.164062 108.316406 -46.984375 C 108.316406 -46.804688 108.316406 -46.804688 108.136719 -46.804688 C 107.957031 -46.804688 107.957031 -46.804688 107.957031 -46.984375 C 107.957031 -47.164062 107.957031 -47.164062 108.136719 -47.164062 Z M 107.957031 -46.804688 C 108.136719 -46.625 108.316406 -46.445312 108.316406 -46.089844 L 108.316406 -45.191406 L 108.136719 -44.472656 L 107.957031 -44.472656 Z M 80.160156 -45.191406 C 79.980469 -45.191406 79.980469 -45.191406 79.980469 -45.371094 C 79.980469 -45.550781 79.980469 -45.550781 80.160156 -45.550781 C 80.339844 -45.550781 80.339844 -45.550781 80.339844 -45.371094 C 80.339844 -45.191406 80.339844 -45.191406 80.160156 -45.191406 Z M 26.898438 -45.191406 L 26.898438 -44.652344 C 26.71875 -44.652344 26.71875 -44.832031 26.71875 -45.011719 C 26.71875 -45.191406 26.71875 -45.371094 26.898438 -45.191406 Z M 26.71875 -44.472656 L 26.71875 -44.296875 C 26.542969 -44.296875 26.542969 -44.296875 26.542969 -44.472656 Z M 79.625 -44.296875 C 79.445312 -44.296875 79.445312 -44.296875 79.445312 -44.472656 L 79.625 -44.472656 Z M 26.898438 -44.117188 C 26.898438 -44.296875 26.898438 -44.296875 27.078125 -44.296875 C 27.257812 -44.296875 27.257812 -44.296875 27.257812 -44.117188 C 27.257812 -43.9375 27.257812 -43.9375 27.078125 -43.9375 C 26.898438 -43.9375 26.898438 -43.9375 26.898438 -44.117188 Z M 107.777344 -41.246094 L 107.777344 -43.9375 C 107.777344 -44.117188 107.957031 -44.117188 108.136719 -44.117188 L 108.136719 -39.632812 L 108.316406 -39.273438 L 107.957031 -39.453125 C 107.957031 -39.273438 107.957031 -38.914062 108.136719 -38.734375 L 108.136719 -38.019531 C 107.777344 -38.019531 107.597656 -38.199219 107.597656 -38.554688 C 107.597656 -39.453125 107.597656 -40.351562 107.777344 -41.246094 Z M 26.542969 -43.398438 L 26.542969 -43.757812 L 26.898438 -43.757812 Z M 26.542969 -41.246094 L 26.71875 -40.886719 C 26.71875 -40.707031 26.71875 -40.527344 26.542969 -40.171875 C 26.363281 -39.8125 26.363281 -39.632812 26.363281 -39.453125 L 26.183594 -39.632812 L 26.183594 -41.425781 C 26.363281 -41.605469 26.542969 -41.785156 26.363281 -42.324219 C 26.183594 -42.679688 26.363281 -42.859375 26.542969 -42.859375 C 26.71875 -42.859375 26.898438 -42.679688 26.898438 -42.5 C 26.898438 -41.964844 26.71875 -41.425781 26.542969 -41.246094 Z M 78.90625 -42.679688 C 78.726562 -42.679688 78.726562 -42.679688 78.726562 -42.859375 L 78.90625 -42.859375 Z M 78.007812 -41.246094 C 77.832031 -41.246094 77.832031 -41.246094 77.832031 -41.425781 L 78.007812 -41.425781 Z M 78.007812 -40.351562 C 77.832031 -40.351562 77.832031 -40.351562 77.832031 -40.527344 C 77.832031 -40.707031 77.832031 -40.707031 78.007812 -40.707031 Z M 77.652344 -39.632812 L 77.472656 -39.632812 C 77.472656 -39.8125 77.472656 -39.8125 77.652344 -39.8125 Z M 26.363281 -37.300781 C 26.183594 -37.300781 26.003906 -37.480469 26.003906 -37.660156 C 26.003906 -37.839844 26.003906 -38.199219 26.003906 -38.378906 L 26.003906 -38.914062 C 25.824219 -39.09375 26.003906 -39.09375 26.183594 -39.273438 L 26.363281 -38.914062 Z M 76.753906 -38.378906 C 76.574219 -38.378906 76.574219 -38.378906 76.574219 -38.554688 L 76.753906 -38.554688 Z M 107.421875 -35.148438 C 107.421875 -35.507812 107.421875 -35.867188 107.597656 -36.226562 L 107.597656 -37.121094 C 107.597656 -37.480469 107.597656 -37.660156 107.421875 -37.839844 C 107.957031 -37.839844 108.136719 -37.660156 108.136719 -37.300781 C 108.136719 -37.121094 108.136719 -36.941406 107.957031 -36.40625 C 107.777344 -35.867188 107.777344 -35.6875 107.777344 -35.507812 C 107.777344 -35.507812 107.777344 -35.328125 107.957031 -35.148438 L 107.957031 -34.789062 L 107.777344 -34.609375 L 107.777344 -31.742188 L 107.597656 -31.742188 C 107.421875 -32.460938 107.421875 -32.996094 107.421875 -33.535156 Z M 26.183594 -36.582031 C 26.183594 -36.40625 26.183594 -36.40625 26.003906 -36.40625 C 25.824219 -36.40625 25.824219 -36.40625 25.824219 -36.582031 C 25.824219 -36.761719 25.824219 -36.761719 26.003906 -36.761719 C 26.003906 -36.941406 26.003906 -36.941406 26.183594 -36.941406 C 26.363281 -36.941406 26.363281 -36.941406 26.363281 -36.761719 C 26.363281 -36.582031 26.363281 -36.582031 26.183594 -36.582031 Z M 26.003906 -36.761719 C 26.003906 -36.582031 26.003906 -36.582031 26.183594 -36.582031 C 26.183594 -36.761719 26.183594 -36.761719 26.003906 -36.761719 Z M 26.183594 -35.507812 C 26.183594 -34.96875 26.183594 -34.433594 26.003906 -33.894531 C 26.003906 -33.894531 26.003906 -34.074219 25.824219 -34.253906 L 25.644531 -34.433594 L 25.824219 -34.96875 C 25.824219 -35.148438 25.824219 -35.507812 26.183594 -35.867188 Z M 25.824219 -32.101562 L 25.824219 -33.535156 L 26.003906 -33.355469 C 26.183594 -33.175781 26.183594 -33.175781 26.183594 -32.816406 C 26.003906 -32.636719 26.003906 -32.636719 26.003906 -32.460938 L 26.003906 -32.101562 Z M 26.003906 -31.742188 L 26.003906 -31.023438 L 25.824219 -31.203125 L 25.824219 -31.382812 C 25.824219 -31.742188 25.824219 -31.742188 26.003906 -31.742188 Z M 25.824219 -30.84375 L 25.824219 -30.128906 L 25.644531 -30.308594 L 25.644531 -30.488281 C 25.644531 -30.84375 25.644531 -30.84375 25.824219 -30.84375 Z M 107.0625 -30.308594 C 107.0625 -30.488281 107.0625 -30.488281 107.242188 -30.488281 C 107.421875 -30.488281 107.421875 -30.488281 107.421875 -30.308594 L 107.421875 -30.664062 L 107.597656 -30.84375 C 107.597656 -30.488281 107.597656 -30.128906 107.777344 -29.949219 L 107.777344 -28.871094 L 107.421875 -29.050781 L 107.421875 -30.308594 C 107.421875 -30.128906 107.421875 -30.128906 107.242188 -30.128906 C 107.0625 -30.128906 107.0625 -30.128906 107.0625 -30.308594 Z M 26.003906 -29.769531 L 26.183594 -29.769531 L 26.183594 -29.230469 C 26.003906 -29.050781 26.003906 -29.050781 26.003906 -28.871094 Z M 107.597656 -28.691406 L 107.597656 -28.15625 L 107.242188 -28.335938 Z M 25.644531 -26.542969 C 25.464844 -26.542969 25.464844 -26.542969 25.464844 -26.71875 C 25.464844 -26.898438 25.464844 -26.898438 25.644531 -26.898438 L 25.824219 -26.898438 C 25.644531 -27.078125 25.644531 -27.078125 25.644531 -27.257812 C 25.464844 -27.257812 25.464844 -27.257812 25.464844 -27.4375 C 25.464844 -27.617188 25.464844 -27.617188 25.644531 -27.617188 L 25.644531 -28.515625 C 26.003906 -28.515625 26.183594 -28.335938 26.183594 -27.976562 L 26.183594 -27.257812 C 26.003906 -26.898438 26.003906 -26.71875 26.003906 -26.542969 C 26.003906 -26.542969 25.824219 -26.71875 25.824219 -26.71875 C 25.824219 -26.542969 25.824219 -26.542969 25.644531 -26.542969 Z M 108.136719 -24.390625 C 107.957031 -24.390625 107.957031 -24.390625 107.597656 -24.746094 L 107.421875 -27.257812 C 107.421875 -27.617188 107.421875 -27.796875 107.597656 -27.796875 C 107.597656 -27.257812 107.777344 -26.71875 107.957031 -26.183594 C 108.136719 -25.644531 108.136719 -24.925781 108.136719 -24.390625 Z M 25.824219 -27.4375 C 25.824219 -27.617188 25.824219 -27.617188 25.644531 -27.617188 L 25.644531 -27.257812 C 25.824219 -27.257812 25.824219 -27.257812 25.824219 -27.4375 Z M 25.824219 -26.898438 C 25.824219 -26.898438 25.824219 -26.898438 25.824219 -26.71875 Z M 25.824219 -26.183594 L 26.003906 -26.183594 L 26.003906 -26.003906 C 25.824219 -26.003906 25.824219 -26.003906 25.824219 -26.183594 Z M 26.183594 -25.105469 C 26.003906 -25.105469 26.003906 -25.105469 26.003906 -25.285156 C 26.003906 -25.464844 26.003906 -25.464844 26.183594 -25.464844 Z M 26.003906 -24.570312 L 26.183594 -24.570312 L 26.183594 -24.390625 C 26.003906 -24.390625 26.003906 -24.390625 26.003906 -24.570312 Z M 107.777344 -23.671875 L 107.957031 -23.3125 L 107.957031 -22.953125 L 108.136719 -22.597656 L 108.136719 -22.058594 L 107.957031 -21.699219 L 107.957031 -21.519531 C 107.777344 -21.339844 107.777344 -21.339844 107.777344 -21.160156 L 107.777344 -21.878906 C 107.597656 -22.238281 107.597656 -22.417969 107.597656 -22.597656 L 107.421875 -22.953125 C 107.421875 -23.492188 107.597656 -23.671875 107.777344 -23.671875 Z M 26.363281 -22.953125 C 26.183594 -22.953125 26.183594 -22.953125 26.183594 -23.132812 L 26.363281 -23.132812 Z M 26.71875 -20.625 C 26.542969 -20.625 26.542969 -20.625 26.542969 -20.800781 C 26.542969 -20.980469 26.542969 -20.980469 26.71875 -20.980469 C 26.898438 -20.980469 26.898438 -20.980469 26.898438 -20.800781 C 26.898438 -20.625 26.898438 -20.625 26.71875 -20.625 Z M 107.957031 -20.625 L 107.957031 -19.546875 C 107.777344 -19.726562 107.777344 -20.085938 107.777344 -20.265625 Z M 108.496094 -19.726562 C 108.496094 -19.546875 108.496094 -19.546875 108.316406 -19.546875 C 108.136719 -19.546875 108.136719 -19.546875 108.136719 -19.726562 C 108.136719 -19.90625 108.136719 -19.90625 108.316406 -19.90625 C 108.496094 -19.90625 108.496094 -19.90625 108.496094 -19.726562 Z M 26.898438 -19.367188 C 26.71875 -19.367188 26.71875 -19.367188 26.71875 -19.546875 L 26.898438 -19.546875 Z M 27.078125 -18.828125 C 27.257812 -18.828125 27.257812 -18.652344 27.257812 -18.472656 C 27.078125 -18.472656 27.078125 -18.652344 27.078125 -18.828125 Z M 108.496094 -17.035156 C 108.496094 -16.679688 108.496094 -16.5 108.316406 -16.320312 L 108.136719 -16.5 L 107.957031 -18.652344 C 108.496094 -18.652344 108.496094 -17.574219 108.496094 -17.035156 Z M 27.257812 -17.214844 C 27.257812 -17.394531 27.257812 -17.394531 27.4375 -17.394531 L 27.4375 -17.035156 C 27.257812 -17.035156 27.257812 -17.035156 27.257812 -17.214844 Z M 27.617188 -16.5 C 27.4375 -16.5 27.4375 -16.5 27.4375 -16.679688 C 27.4375 -16.855469 27.4375 -16.855469 27.617188 -16.855469 C 27.796875 -16.855469 27.796875 -16.855469 27.796875 -16.679688 C 27.796875 -16.5 27.796875 -16.5 27.617188 -16.5 Z M 108.316406 -15.960938 L 108.316406 -15.601562 C 108.136719 -15.601562 108.136719 -15.601562 108.136719 -15.78125 C 108.136719 -15.960938 108.136719 -15.960938 108.316406 -15.960938 Z M 108.496094 -15.242188 L 108.675781 -15.421875 C 108.496094 -14.882812 108.496094 -14.527344 108.675781 -14.347656 C 108.855469 -14.167969 108.855469 -13.808594 108.855469 -13.269531 L 108.855469 -12.910156 C 108.855469 -12.734375 108.855469 -12.554688 108.675781 -12.554688 C 108.136719 -13.089844 108.136719 -14.527344 108.136719 -15.0625 C 108.136719 -15.242188 108.316406 -15.242188 108.496094 -15.242188 Z M 28.515625 -14.707031 C 28.335938 -14.707031 28.335938 -14.707031 28.335938 -14.882812 L 28.335938 -14.527344 C 28.15625 -14.527344 28.15625 -14.707031 28.15625 -15.0625 L 28.335938 -14.882812 C 28.335938 -15.0625 28.335938 -15.0625 28.515625 -15.0625 C 28.691406 -15.0625 28.691406 -15.0625 28.691406 -14.882812 C 28.691406 -14.707031 28.691406 -14.707031 28.515625 -14.707031 Z M 28.515625 -13.988281 C 28.335938 -13.988281 28.335938 -13.988281 28.335938 -14.167969 L 28.515625 -14.167969 Z M 107.777344 -13.628906 C 107.597656 -13.628906 107.597656 -13.628906 107.597656 -13.808594 L 107.777344 -13.808594 Z M 28.871094 -12.910156 C 28.691406 -12.910156 28.691406 -12.910156 28.691406 -13.089844 C 28.691406 -13.269531 28.691406 -13.269531 28.871094 -13.269531 C 29.050781 -13.269531 29.050781 -13.269531 29.050781 -13.089844 C 29.050781 -12.910156 29.050781 -12.910156 28.871094 -12.910156 Z M 29.230469 -12.015625 C 29.050781 -12.015625 29.050781 -12.015625 29.050781 -12.195312 L 29.230469 -12.195312 Z M 108.496094 -12.195312 L 108.855469 -12.195312 L 108.855469 -11.835938 C 108.675781 -11.835938 108.496094 -12.015625 108.496094 -12.195312 Z M 29.589844 -11.65625 L 29.949219 -10.9375 C 29.769531 -11.117188 29.589844 -11.296875 29.589844 -11.65625 Z M 109.214844 -7.351562 C 109.214844 -7.890625 109.214844 -10.9375 108.675781 -11.476562 C 109.394531 -11.476562 110.828125 -2.511719 110.828125 -1.972656 C 109.75 -1.972656 110.109375 -6.816406 109.214844 -7.351562 Z M 36.40625 -1.613281 C 36.226562 -1.613281 36.226562 -1.613281 36.226562 -1.792969 C 36.226562 -1.972656 36.226562 -1.972656 36.40625 -1.972656 C 36.582031 -1.972656 36.582031 -1.972656 36.582031 -1.792969 C 36.582031 -1.613281 36.582031 -1.613281 36.40625 -1.613281 Z M 36.761719 -1.433594 C 36.582031 -1.433594 36.582031 -1.433594 36.582031 -1.613281 C 36.582031 -1.792969 36.582031 -1.792969 36.761719 -1.792969 C 36.941406 -1.792969 36.941406 -1.792969 36.941406 -1.613281 C 36.941406 -1.433594 36.941406 -1.433594 36.761719 -1.433594 Z M 111.007812 -1.792969 C 111.1875 -1.792969 111.1875 -1.792969 111.1875 -1.613281 C 111.1875 -1.433594 111.1875 -1.433594 111.007812 -1.433594 C 110.828125 -1.433594 110.828125 -1.433594 110.828125 -1.613281 C 110.828125 -1.792969 110.828125 -1.792969 111.007812 -1.792969 Z M 37.121094 -1.433594 C 37.839844 -1.433594 39.632812 -0.898438 40.171875 -0.71875 C 38.914062 -0.71875 38.019531 -0.71875 37.121094 -1.433594 Z M 111.007812 -0.898438 L 111.007812 -1.253906 L 111.367188 -1.074219 C 111.367188 -0.539062 111.367188 0 111.367188 0.539062 C 111.1875 0 111.007812 -0.359375 111.007812 -0.898438 Z M 110.828125 0.359375 C 110.828125 0.179688 110.828125 0.179688 111.007812 0.179688 C 111.1875 0.179688 111.1875 0.179688 111.1875 0.359375 C 111.1875 0.539062 111.1875 0.539062 111.007812 0.539062 C 110.828125 0.539062 110.828125 0.539062 110.828125 0.359375 Z M 111.1875 1.253906 C 111.007812 1.253906 111.007812 1.253906 111.007812 1.074219 C 111.007812 0.898438 111.007812 0.898438 111.1875 0.898438 C 111.367188 0.898438 111.367188 0.898438 111.367188 1.074219 C 111.367188 1.253906 111.367188 1.253906 111.1875 1.253906 Z M 113.339844 6.457031 C 112.800781 5.738281 111.542969 3.046875 111.542969 2.332031 L 111.722656 1.972656 C 111.722656 1.792969 111.722656 1.613281 111.722656 1.433594 L 112.261719 2.511719 C 112.980469 3.765625 113.339844 4.84375 113.339844 6.097656 Z M 113.695312 6.992188 C 113.875 7.53125 114.234375 7.890625 114.234375 8.429688 C 113.875 8.070312 113.695312 7.53125 113.695312 6.992188 Z M 114.414062 8.789062 C 115.3125 9.324219 115.667969 10.222656 115.667969 11.117188 C 115.132812 10.582031 114.59375 9.863281 114.414062 8.789062 Z M 115.847656 11.476562 L 116.027344 11.476562 L 115.847656 11.65625 Z M 116.207031 12.015625 C 116.027344 12.015625 116.027344 12.015625 116.027344 11.835938 C 116.027344 11.65625 116.027344 11.65625 116.207031 11.65625 C 116.386719 11.65625 116.386719 11.65625 116.386719 11.835938 C 116.386719 12.015625 116.386719 12.015625 116.207031 12.015625 Z M 116.925781 12.734375 C 116.925781 12.554688 116.925781 12.554688 117.105469 12.554688 C 117.285156 12.554688 117.285156 12.554688 117.285156 12.734375 C 117.285156 12.910156 117.285156 12.910156 117.105469 12.910156 C 116.925781 12.910156 116.925781 12.910156 116.925781 12.734375 Z M 116.925781 13.089844 L 116.746094 13.089844 C 116.746094 12.910156 116.746094 12.910156 116.925781 12.910156 Z M 117.460938 13.988281 L 117.285156 13.808594 L 117.105469 13.628906 C 117.105469 13.449219 117.105469 13.269531 117.285156 13.269531 C 117.285156 13.449219 117.285156 13.449219 117.460938 13.449219 Z M 118.179688 14.707031 C 118 14.707031 118 14.707031 118 14.527344 C 118 14.347656 118 14.347656 118.179688 14.347656 C 118.359375 14.347656 118.359375 14.347656 118.359375 14.527344 C 118.359375 14.707031 118.359375 14.707031 118.179688 14.707031 Z M 118.359375 15.0625 L 118.359375 14.882812 L 118.539062 15.0625 Z M 130.554688 15.601562 L 130.375 15.601562 C 130.375 15.421875 130.375 15.421875 130.554688 15.421875 Z M 130.375 16.140625 C 130.195312 16.140625 130.195312 16.140625 130.195312 15.960938 C 130.195312 15.78125 130.195312 15.78125 130.375 15.78125 C 130.554688 15.78125 130.554688 15.78125 130.554688 15.960938 C 130.554688 16.140625 130.554688 16.140625 130.375 16.140625 Z M 124.277344 20.085938 C 124.816406 19.90625 125.175781 19.90625 125.351562 19.90625 L 125.53125 20.085938 Z M 126.25 20.265625 C 126.070312 20.265625 126.070312 20.265625 126.070312 20.085938 C 126.070312 19.90625 126.070312 19.90625 126.25 19.90625 C 126.429688 19.90625 126.429688 19.90625 126.429688 20.085938 C 126.429688 20.265625 126.429688 20.265625 126.25 20.265625 Z M 126.25 20.265625 "/></g></g></g><g fill="#ffd700" fill-opacity="1"><g transform="translate(135.535894, 249.863787)"><g><path d="M 9.316406 0.0195312 L 10.6875 0.0195312 L 5.789062 -11.382812 L 5.699219 -11.382812 L 0.625 0.0195312 L 1.015625 0.0195312 L 3.027344 -4.472656 L 7.375 -4.472656 Z M 3.152344 -4.773438 L 5.238281 -9.457031 L 7.25 -4.773438 Z M 3.152344 -4.773438 "/></g></g></g><g fill="#ffd700" fill-opacity="1"><g transform="translate(154.061227, 249.863787)"><g><path d="M 5.46875 -11.167969 L 0.855469 -11.167969 L 0.855469 0.0195312 L 4.632812 0.0195312 C 5.164062 0.0195312 11.132812 0.285156 11.132812 -5.753906 C 11.132812 -10.632812 7.535156 -11.167969 5.46875 -11.167969 Z M 4.59375 -0.265625 L 2.121094 -0.265625 L 2.121094 -10.867188 L 4.792969 -10.867188 C 6.820312 -10.867188 9.816406 -10.117188 9.816406 -5.753906 C 9.816406 -1.40625 7.035156 -0.265625 4.59375 -0.265625 Z M 4.59375 -0.265625 "/></g></g></g><g fill="#ffd700" fill-opacity="1"><g transform="translate(173.209999, 249.863787)"><g><path d="M 1.03125 0.0195312 L 2.296875 0.0195312 L 2.296875 -11.167969 L 1.03125 -11.167969 Z M 1.03125 0.0195312 "/></g></g></g><g fill="#ffd700" fill-opacity="1"><g transform="translate(183.826559, 249.863787)"><g><path d="M 8.746094 -11.167969 L 0.585938 -11.167969 L 0.585938 -10.882812 L 4.027344 -10.882812 L 4.027344 0.0195312 L 5.308594 0.0195312 L 5.308594 -10.882812 L 8.746094 -10.882812 Z M 8.746094 -11.167969 "/></g></g></g><g fill="#ffd700" fill-opacity="1"><g transform="translate(200.374697, 249.863787)"><g><path d="M 8.675781 -11.167969 L 5.289062 -5.484375 L 2.03125 -11.167969 L 0.570312 -11.167969 L 4.167969 -4.863281 L 4.167969 0.0195312 L 5.449219 0.0195312 L 5.449219 -5.203125 L 9.03125 -11.167969 Z M 8.675781 -11.167969 "/></g></g></g><g fill="#ffd700" fill-opacity="1"><g transform="translate(217.190032, 249.863787)"><g><path d="M 9.316406 0.0195312 L 10.6875 0.0195312 L 5.789062 -11.382812 L 5.699219 -11.382812 L 0.625 0.0195312 L 1.015625 0.0195312 L 3.027344 -4.472656 L 7.375 -4.472656 Z M 3.152344 -4.773438 L 5.238281 -9.457031 L 7.25 -4.773438 Z M 3.152344 -4.773438 "/></g></g></g><g fill="#ffd700" fill-opacity="1"><g transform="translate(235.707762, 249.863787)"><g/></g></g><g fill="#ffd700" fill-opacity="1"><g transform="translate(192.863235, 272.066015)"><g><path d="M 2.28125 -3.328125 L 0.890625 0 L 0.21875 0 L 4.25 -9.640625 L 4.625 -9.640625 L 8.65625 0 L 7.9375 0 L 6.5625 -3.328125 Z M 4.390625 -8.5625 C 4.378906 -8.5625 4.363281 -8.507812 4.34375 -8.40625 C 4.21875 -8.019531 4.097656 -7.695312 3.984375 -7.4375 L 2.5 -3.875 L 6.328125 -3.875 L 4.859375 -7.421875 C 4.546875 -8.097656 4.390625 -8.476562 4.390625 -8.5625 Z M 4.390625 -8.5625 "/></g></g></g><g fill="#ffd700" fill-opacity="1"><g transform="translate(208.221254, 272.066015)"><g><path d="M 4.390625 -0.453125 C 5.535156 -0.453125 6.453125 -0.757812 7.140625 -1.375 C 7.835938 -1.988281 8.1875 -2.914062 8.1875 -4.15625 C 8.1875 -5.40625 7.796875 -6.394531 7.015625 -7.125 C 6.234375 -7.851562 5.269531 -8.21875 4.125 -8.21875 C 3.3125 -8.21875 2.6875 -8.203125 2.25 -8.171875 L 2.25 -0.546875 C 2.78125 -0.484375 3.492188 -0.453125 4.390625 -0.453125 Z M 4.125 -8.765625 C 5.46875 -8.765625 6.585938 -8.351562 7.484375 -7.53125 C 8.378906 -6.707031 8.828125 -5.582031 8.828125 -4.15625 C 8.828125 -2.738281 8.410156 -1.671875 7.578125 -0.953125 C 6.753906 -0.242188 5.691406 0.109375 4.390625 0.109375 C 3.492188 0.109375 2.566406 0.0625 1.609375 -0.03125 L 1.609375 -8.6875 C 2.316406 -8.738281 3.15625 -8.765625 4.125 -8.765625 Z M 4.125 -8.765625 "/></g></g></g><g fill="#ffd700" fill-opacity="1"><g transform="translate(224.596788, 272.066015)"><g><path d="M 8.265625 0 L 8.265625 -4.390625 L 2.21875 -4.390625 L 2.21875 0 L 1.609375 0 L 1.609375 -8.6875 L 2.21875 -8.6875 L 2.21875 -4.9375 L 8.265625 -4.9375 L 8.265625 -8.6875 L 8.875 -8.6875 L 8.875 0 Z M 8.265625 0 "/></g></g></g><g fill="#ffd700" fill-opacity="1"><g transform="translate(241.561404, 272.066015)"><g><path d="M 1.609375 0 L 1.609375 -8.6875 L 2.21875 -8.6875 L 2.21875 0 Z M 1.609375 0 "/></g></g></g><g fill="#ffd700" fill-opacity="1"><g transform="translate(251.872001, 272.066015)"><g><path d="M 6.875 -8.6875 L 3.171875 -4.5 C 4.640625 -2.71875 5.640625 -1.59375 6.171875 -1.125 C 6.710938 -0.65625 7.253906 -0.390625 7.796875 -0.328125 L 7.78125 0.09375 C 7.28125 0.0820312 6.875 0.0078125 6.5625 -0.125 C 6.25 -0.257812 5.972656 -0.441406 5.734375 -0.671875 C 5.492188 -0.910156 4.976562 -1.484375 4.1875 -2.390625 C 3.394531 -3.296875 2.800781 -3.988281 2.40625 -4.46875 L 6.140625 -8.6875 Z M 2.21875 -8.6875 L 2.21875 0 L 1.609375 0 L 1.609375 -8.6875 Z M 2.21875 -8.6875 "/></g></g></g><g fill="#ffd700" fill-opacity="1"><g transform="translate(265.93134, 272.066015)"><g><path d="M 2.03125 -3.015625 L 0.796875 0 L 0.15625 0 L 3.796875 -8.75 L 4.171875 -8.75 L 7.828125 0 L 7.15625 0 L 5.890625 -3.015625 Z M 3.953125 -7.75 C 3.816406 -7.351562 3.695312 -7.019531 3.59375 -6.75 L 2.25 -3.53125 L 5.671875 -3.53125 L 4.359375 -6.734375 C 4.148438 -7.234375 4.015625 -7.570312 3.953125 -7.75 Z M 3.953125 -7.75 "/></g></g></g><g fill="#ffd700" fill-opacity="1"><g transform="translate(280.405722, 272.066015)"><g><path d="M 1.609375 0 L 1.609375 -8.65625 C 2.378906 -8.71875 3.03125 -8.75 3.5625 -8.75 C 4.382812 -8.75 5.0625 -8.535156 5.59375 -8.109375 C 6.132812 -7.679688 6.40625 -7.078125 6.40625 -6.296875 C 6.40625 -5.765625 6.25 -5.273438 5.9375 -4.828125 C 5.632812 -4.390625 5.296875 -4.03125 4.921875 -3.75 C 5.972656 -2.34375 6.625 -1.5 6.875 -1.21875 C 7.382812 -0.6875 7.941406 -0.390625 8.546875 -0.328125 L 8.53125 0.09375 C 8.03125 0.0820312 7.625 0.0078125 7.3125 -0.125 C 7 -0.257812 6.6875 -0.492188 6.375 -0.828125 C 6.070312 -1.160156 5.398438 -2.050781 4.359375 -3.5 C 3.628906 -3.5 2.914062 -3.519531 2.21875 -3.5625 L 2.21875 0 Z M 4.015625 -4 C 4.367188 -4 4.742188 -4.226562 5.140625 -4.6875 C 5.546875 -5.15625 5.75 -5.695312 5.75 -6.3125 C 5.75 -6.9375 5.535156 -7.40625 5.109375 -7.71875 C 4.691406 -8.039062 4.148438 -8.203125 3.484375 -8.203125 C 3.128906 -8.203125 2.707031 -8.1875 2.21875 -8.15625 L 2.21875 -4.078125 C 2.863281 -4.023438 3.460938 -4 4.015625 -4 Z M 4.015625 -4 "/></g></g></g><g fill="#ffd700" fill-opacity="1"><g transform="translate(295.027381, 272.066015)"><g><path d="M 1.609375 0 L 1.609375 -8.6875 L 2.21875 -8.6875 L 2.21875 0 Z M 1.609375 0 "/></g></g></g></svg>