<svg xmlns="http://www.w3.org/2000/svg" xmlns:xlink="http://www.w3.org/1999/xlink" width="500" zoomAndPan="magnify" viewBox="0 0 375 374.999991" height="500" preserveAspectRatio="xMidYMid meet" version="1.0"><defs><g/></defs><g fill="#eddede" fill-opacity="1"><g transform="translate(117.120935, 187.017992)"><g><path d="M 7.917969 -0.304688 C 7.765625 -0.304688 7.613281 -0.152344 7.613281 0 C 7.613281 0.304688 7.765625 0.457031 7.917969 0.457031 L 28.171875 0.457031 C 28.476562 0.457031 28.628906 0.304688 28.628906 0 C 28.628906 -0.152344 28.476562 -0.304688 28.171875 -0.304688 C 25.734375 -0.304688 23.753906 -1.21875 22.382812 -2.894531 C 21.011719 -4.71875 20.859375 -7.308594 21.621094 -9.898438 L 44.769531 -84.054688 L 67.761719 -9.898438 C 68.523438 -7.308594 68.371094 -4.71875 67 -2.894531 C 65.78125 -1.21875 63.648438 -0.304688 61.214844 -0.304688 C 60.910156 -0.304688 60.757812 -0.152344 60.757812 0 C 60.757812 0.304688 60.910156 0.457031 61.214844 0.457031 L 94.410156 0.457031 C 94.5625 0.457031 94.714844 0.304688 94.714844 0 C 94.714844 -0.152344 94.5625 -0.304688 94.410156 -0.304688 C 88.925781 -0.304688 83.140625 -4.71875 81.464844 -10.203125 L 51.621094 -106.285156 C 51.621094 -106.285156 51.46875 -106.285156 51.46875 -106.285156 C 51.46875 -106.4375 51.46875 -106.4375 51.46875 -106.4375 C 51.316406 -106.4375 51.316406 -106.4375 51.316406 -106.4375 C 51.316406 -106.4375 51.164062 -106.4375 51.164062 -106.4375 C 51.164062 -106.4375 51.164062 -106.589844 51.164062 -106.589844 C 51.164062 -106.589844 51.164062 -106.4375 51.164062 -106.4375 C 51.164062 -106.4375 51.011719 -106.4375 51.011719 -106.4375 C 50.859375 -106.4375 50.859375 -106.4375 50.859375 -106.4375 C 50.859375 -106.4375 50.859375 -106.4375 50.859375 -106.285156 C 50.859375 -106.285156 50.859375 -106.285156 50.707031 -106.285156 L 44.3125 -85.425781 L 20.859375 -10.203125 C 19.1875 -4.71875 13.398438 -0.304688 7.917969 -0.304688 Z M 7.917969 -0.304688 "/></g></g></g><g fill="#eddede" fill-opacity="1"><g transform="translate(114.477344, 313.859795)"><g><path d="M 124.457031 -79.644531 C 138.195312 -88.371094 141.019531 -100.746094 140.539062 -101.601562 C 140.332031 -101.964844 139.949219 -102.074219 139.582031 -101.867188 C 138.972656 -101.519531 138.738281 -96.238281 133.546875 -89.765625 C 130.46875 -86.097656 127.535156 -83.3125 124.121094 -81.382812 C 123.195312 -102.101562 121.136719 -121.699219 121.976562 -143.574219 C 122.917969 -169.535156 126.558594 -181.890625 126.214844 -182.5 C 125.941406 -182.988281 125.609375 -183.285156 125.125 -183.007812 C 119.632812 -179.90625 106.835938 -157.550781 97.054688 -115.335938 C 87.113281 -122.109375 73.046875 -124.785156 61.824219 -118.445312 C 53.164062 -113.550781 47.058594 -101.574219 54.363281 -88.644531 C 60.703125 -77.417969 72.234375 -72.671875 84.566406 -70.785156 C 77.679688 -51.929688 67.414062 -39.050781 51.066406 -29.8125 C 37.28125 -22.027344 18.273438 -23.199219 11.519531 -35.152344 C 2.976562 -50.28125 13.273438 -69.9375 27.179688 -77.792969 C 39.5 -84.753906 49.152344 -82.480469 53.769531 -74.308594 C 60.25 -62.839844 52.96875 -49.234375 40.40625 -42.136719 C 38.332031 -40.964844 37.148438 -40.777344 36.539062 -40.433594 C 35.929688 -40.089844 35.945312 -39.777344 36.21875 -39.289062 C 36.703125 -38.433594 37.449219 -38.535156 42.453125 -41.363281 C 53.917969 -47.839844 62.820312 -62.84375 55.585938 -75.65625 C 50.140625 -85.292969 37.125 -89.527344 22.242188 -81.117188 C 9.558594 -73.953125 -2.953125 -53.367188 7.109375 -35.558594 C 15.378906 -20.917969 35.425781 -19.046875 52.257812 -28.558594 C 70.3125 -38.757812 80.925781 -54.726562 86.457031 -70.566406 C 96.375 -69.25 106.660156 -71.839844 116.132812 -75.582031 L 116.988281 -66.089844 L 125.773438 -71.050781 Z M 108.738281 -98.925781 C 112.527344 -92.214844 114.472656 -84.785156 115.792969 -77.324219 C 107.433594 -73.886719 96.851562 -70.96875 87.058594 -72.355469 C 91.796875 -85.332031 94.3125 -98.820312 98.097656 -112.0625 C 101.558594 -109.351562 105.980469 -103.804688 108.738281 -98.925781 Z M 115.085938 -88.832031 C 113.695312 -92.714844 111.925781 -96.703125 109.71875 -100.605469 C 106.964844 -105.484375 103.460938 -110.265625 98.628906 -113.972656 C 106.007812 -144.210938 117.480469 -172.898438 122.675781 -176.800781 L 123.058594 -176.695312 C 114.523438 -148.214844 112.414062 -118.058594 115.464844 -88.722656 Z M 60.238281 -89.066406 C 53.207031 -101.507812 58.890625 -111.960938 67.429688 -116.785156 C 77.433594 -122.433594 87.582031 -118.996094 96.59375 -113.304688 C 92.960938 -99.503906 89.957031 -85.738281 85.042969 -72.503906 C 75.875 -73.921875 66.441406 -78.085938 60.238281 -89.066406 Z M 60.238281 -89.066406 "/></g></g></g><g fill="#eddede" fill-opacity="1"><g transform="translate(219.593368, 105.310575)"><g><path d="M 5 0 L 4.515625 -1.375 L 1.734375 -1.375 L 1.234375 0 L 0.390625 0 L 2.671875 -6.265625 L 3.578125 -6.265625 L 5.859375 0 Z M 1.96875 -2.03125 L 4.28125 -2.03125 L 3.125 -5.265625 Z M 1.96875 -2.03125 "/></g></g></g><g fill="#eddede" fill-opacity="1"><g transform="translate(227.240104, 105.310575)"><g><path d="M 1.5 -0.640625 L 2.65625 -0.640625 C 3.445312 -0.640625 4.050781 -0.851562 4.46875 -1.28125 C 4.882812 -1.71875 5.09375 -2.320312 5.09375 -3.09375 C 5.09375 -3.875 4.882812 -4.484375 4.46875 -4.921875 C 4.050781 -5.359375 3.445312 -5.578125 2.65625 -5.578125 L 1.5 -5.578125 Z M 2.65625 -6.265625 C 3.664062 -6.265625 4.460938 -5.976562 5.046875 -5.40625 C 5.640625 -4.84375 5.9375 -4.070312 5.9375 -3.09375 C 5.9375 -2.125 5.640625 -1.363281 5.046875 -0.8125 C 4.460938 -0.269531 3.664062 0 2.65625 0 L 0.671875 0 L 0.671875 -6.265625 Z M 2.65625 -6.265625 "/></g></g></g><g fill="#eddede" fill-opacity="1"><g transform="translate(234.932097, 105.310575)"><g><path d="M 0.671875 0 L 0.671875 -6.265625 L 1.5 -6.265625 L 1.5 0 Z M 0.671875 0 "/></g></g></g><g fill="#eddede" fill-opacity="1"><g transform="translate(238.506598, 105.310575)"><g><path d="M 0.390625 -5.609375 L 0.390625 -6.265625 L 4.53125 -6.265625 L 4.53125 -5.609375 L 2.875 -5.609375 L 2.875 0 L 2.046875 0 L 2.046875 -5.609375 Z M 0.390625 -5.609375 "/></g></g></g><g fill="#eddede" fill-opacity="1"><g transform="translate(244.841174, 105.310575)"><g><path d="M 3 0 L 2.1875 0 L 2.1875 -2.375 L 0.140625 -6.265625 L 1.046875 -6.265625 L 2.59375 -3.125 L 4.125 -6.265625 L 5.046875 -6.265625 L 3 -2.375 Z M 3 0 "/></g></g></g><g fill="#eddede" fill-opacity="1"><g transform="translate(251.411031, 105.310575)"><g><path d="M 5 0 L 4.515625 -1.375 L 1.734375 -1.375 L 1.234375 0 L 0.390625 0 L 2.671875 -6.265625 L 3.578125 -6.265625 L 5.859375 0 Z M 1.96875 -2.03125 L 4.28125 -2.03125 L 3.125 -5.265625 Z M 1.96875 -2.03125 "/></g></g></g><g fill="#eddede" fill-opacity="1"><g transform="translate(219.593368, 115.868144)"><g><path d="M 5.078125 0 L 4.5625 -1.453125 L 1.640625 -1.453125 L 1.109375 0 L 0.484375 0 L 2.78125 -6.25 L 3.421875 -6.25 L 5.71875 0 Z M 1.828125 -1.96875 L 4.375 -1.96875 L 3.109375 -5.453125 Z M 1.828125 -1.96875 "/></g></g></g><g fill="#eddede" fill-opacity="1"><g transform="translate(227.185815, 115.868144)"><g><path d="M 1.3125 -0.484375 L 2.59375 -0.484375 C 3.4375 -0.484375 4.078125 -0.710938 4.515625 -1.171875 C 4.953125 -1.628906 5.171875 -2.265625 5.171875 -3.078125 C 5.171875 -3.898438 4.953125 -4.539062 4.515625 -5 C 4.078125 -5.457031 3.4375 -5.6875 2.59375 -5.6875 L 1.3125 -5.6875 Z M 2.59375 -6.25 C 3.601562 -6.25 4.390625 -5.96875 4.953125 -5.40625 C 5.523438 -4.84375 5.8125 -4.066406 5.8125 -3.078125 C 5.8125 -2.085938 5.523438 -1.328125 4.953125 -0.796875 C 4.390625 -0.265625 3.601562 0 2.59375 0 L 0.671875 0 L 0.671875 -6.25 Z M 2.59375 -6.25 "/></g></g></g><g fill="#eddede" fill-opacity="1"><g transform="translate(234.778262, 115.868144)"><g><path d="M 4.65625 -6.25 L 5.296875 -6.25 L 5.296875 0 L 4.65625 0 L 4.65625 -2.890625 L 1.3125 -2.890625 L 1.3125 0 L 0.671875 0 L 0.671875 -6.25 L 1.3125 -6.25 L 1.3125 -3.390625 L 4.65625 -3.390625 Z M 4.65625 -6.25 "/></g></g></g><g fill="#eddede" fill-opacity="1"><g transform="translate(242.144472, 115.868144)"><g><path d="M 0.671875 0 L 0.671875 -6.25 L 1.3125 -6.25 L 1.3125 0 Z M 0.671875 0 "/></g></g></g><g fill="#eddede" fill-opacity="1"><g transform="translate(245.528938, 115.868144)"><g><path d="M 1.3125 0 L 0.671875 0 L 0.671875 -6.25 L 1.3125 -6.25 L 1.3125 -3.3125 L 4.015625 -6.25 L 4.84375 -6.25 L 1.8125 -3.078125 L 4.84375 0 L 3.984375 0 L 1.3125 -2.796875 Z M 1.3125 0 "/></g></g></g><g fill="#eddede" fill-opacity="1"><g transform="translate(252.03545, 115.868144)"><g><path d="M 5.078125 0 L 4.5625 -1.453125 L 1.640625 -1.453125 L 1.109375 0 L 0.484375 0 L 2.78125 -6.25 L 3.421875 -6.25 L 5.71875 0 Z M 1.828125 -1.96875 L 4.375 -1.96875 L 3.109375 -5.453125 Z M 1.828125 -1.96875 "/></g></g></g><g fill="#eddede" fill-opacity="1"><g transform="translate(259.627896, 115.868144)"><g><path d="M 1.3125 -2.609375 L 1.3125 0 L 0.671875 0 L 0.671875 -6.25 L 2.59375 -6.25 C 3.289062 -6.25 3.816406 -6.078125 4.171875 -5.734375 C 4.535156 -5.398438 4.71875 -4.976562 4.71875 -4.46875 C 4.71875 -3.957031 4.578125 -3.539062 4.296875 -3.21875 C 4.015625 -2.90625 3.59375 -2.710938 3.03125 -2.640625 L 4.796875 0 L 3.984375 0 L 2.28125 -2.609375 Z M 1.3125 -5.734375 L 1.3125 -3.125 L 2.59375 -3.125 C 3.582031 -3.125 4.078125 -3.554688 4.078125 -4.421875 C 4.078125 -5.296875 3.582031 -5.734375 2.59375 -5.734375 Z M 1.3125 -5.734375 "/></g></g></g><g fill="#eddede" fill-opacity="1"><g transform="translate(266.47829, 115.868144)"><g><path d="M 0.671875 0 L 0.671875 -6.25 L 1.3125 -6.25 L 1.3125 0 Z M 0.671875 0 "/></g></g></g><g fill="#eddede" fill-opacity="1"><g transform="translate(97.398661, 208.390668)"><g><path d="M 1.21875 0 L 1.21875 -5.6875 L 0.46875 -5.6875 L 0.46875 -6.421875 L 2.015625 -6.421875 L 2.015625 0 Z M 1.21875 0 "/></g></g></g><g fill="#eddede" fill-opacity="1"><g transform="translate(101.697103, 208.390668)"><g><path d="M 1.53125 -4.609375 C 1.53125 -4.179688 1.648438 -3.832031 1.890625 -3.5625 C 2.140625 -3.300781 2.488281 -3.171875 2.9375 -3.171875 C 3.382812 -3.171875 3.722656 -3.296875 3.953125 -3.546875 C 4.179688 -3.804688 4.296875 -4.160156 4.296875 -4.609375 C 4.296875 -5.054688 4.171875 -5.410156 3.921875 -5.671875 C 3.679688 -5.929688 3.347656 -6.0625 2.921875 -6.0625 C 2.492188 -6.0625 2.15625 -5.925781 1.90625 -5.65625 C 1.65625 -5.394531 1.53125 -5.046875 1.53125 -4.609375 Z M 3.015625 -0.703125 C 3.503906 -0.703125 3.859375 -0.882812 4.078125 -1.25 C 4.304688 -1.625 4.421875 -2.28125 4.421875 -3.21875 C 4.253906 -2.96875 4.03125 -2.78125 3.75 -2.65625 C 3.476562 -2.53125 3.175781 -2.46875 2.84375 -2.46875 C 2.25 -2.46875 1.75 -2.65625 1.34375 -3.03125 C 0.945312 -3.40625 0.75 -3.921875 0.75 -4.578125 C 0.75 -5.242188 0.9375 -5.773438 1.3125 -6.171875 C 1.695312 -6.566406 2.226562 -6.765625 2.90625 -6.765625 C 3.695312 -6.765625 4.265625 -6.492188 4.609375 -5.953125 C 4.953125 -5.410156 5.125 -4.5625 5.125 -3.40625 C 5.125 -2.25 4.960938 -1.394531 4.640625 -0.84375 C 4.328125 -0.289062 3.769531 -0.015625 2.96875 -0.015625 C 2.363281 -0.015625 1.890625 -0.171875 1.546875 -0.484375 C 1.203125 -0.804688 1 -1.207031 0.9375 -1.6875 L 1.6875 -1.6875 C 1.820312 -1.03125 2.265625 -0.703125 3.015625 -0.703125 Z M 3.015625 -0.703125 "/></g></g></g><g fill="#eddede" fill-opacity="1"><g transform="translate(108.837059, 208.390668)"><g><path d="M 1.53125 -4.609375 C 1.53125 -4.179688 1.648438 -3.832031 1.890625 -3.5625 C 2.140625 -3.300781 2.488281 -3.171875 2.9375 -3.171875 C 3.382812 -3.171875 3.722656 -3.296875 3.953125 -3.546875 C 4.179688 -3.804688 4.296875 -4.160156 4.296875 -4.609375 C 4.296875 -5.054688 4.171875 -5.410156 3.921875 -5.671875 C 3.679688 -5.929688 3.347656 -6.0625 2.921875 -6.0625 C 2.492188 -6.0625 2.15625 -5.925781 1.90625 -5.65625 C 1.65625 -5.394531 1.53125 -5.046875 1.53125 -4.609375 Z M 3.015625 -0.703125 C 3.503906 -0.703125 3.859375 -0.882812 4.078125 -1.25 C 4.304688 -1.625 4.421875 -2.28125 4.421875 -3.21875 C 4.253906 -2.96875 4.03125 -2.78125 3.75 -2.65625 C 3.476562 -2.53125 3.175781 -2.46875 2.84375 -2.46875 C 2.25 -2.46875 1.75 -2.65625 1.34375 -3.03125 C 0.945312 -3.40625 0.75 -3.921875 0.75 -4.578125 C 0.75 -5.242188 0.9375 -5.773438 1.3125 -6.171875 C 1.695312 -6.566406 2.226562 -6.765625 2.90625 -6.765625 C 3.695312 -6.765625 4.265625 -6.492188 4.609375 -5.953125 C 4.953125 -5.410156 5.125 -4.5625 5.125 -3.40625 C 5.125 -2.25 4.960938 -1.394531 4.640625 -0.84375 C 4.328125 -0.289062 3.769531 -0.015625 2.96875 -0.015625 C 2.363281 -0.015625 1.890625 -0.171875 1.546875 -0.484375 C 1.203125 -0.804688 1 -1.207031 0.9375 -1.6875 L 1.6875 -1.6875 C 1.820312 -1.03125 2.265625 -0.703125 3.015625 -0.703125 Z M 3.015625 -0.703125 "/></g></g></g><g fill="#eddede" fill-opacity="1"><g transform="translate(115.977014, 208.390668)"><g><path d="M 1.53125 -4.609375 C 1.53125 -4.179688 1.648438 -3.832031 1.890625 -3.5625 C 2.140625 -3.300781 2.488281 -3.171875 2.9375 -3.171875 C 3.382812 -3.171875 3.722656 -3.296875 3.953125 -3.546875 C 4.179688 -3.804688 4.296875 -4.160156 4.296875 -4.609375 C 4.296875 -5.054688 4.171875 -5.410156 3.921875 -5.671875 C 3.679688 -5.929688 3.347656 -6.0625 2.921875 -6.0625 C 2.492188 -6.0625 2.15625 -5.925781 1.90625 -5.65625 C 1.65625 -5.394531 1.53125 -5.046875 1.53125 -4.609375 Z M 3.015625 -0.703125 C 3.503906 -0.703125 3.859375 -0.882812 4.078125 -1.25 C 4.304688 -1.625 4.421875 -2.28125 4.421875 -3.21875 C 4.253906 -2.96875 4.03125 -2.78125 3.75 -2.65625 C 3.476562 -2.53125 3.175781 -2.46875 2.84375 -2.46875 C 2.25 -2.46875 1.75 -2.65625 1.34375 -3.03125 C 0.945312 -3.40625 0.75 -3.921875 0.75 -4.578125 C 0.75 -5.242188 0.9375 -5.773438 1.3125 -6.171875 C 1.695312 -6.566406 2.226562 -6.765625 2.90625 -6.765625 C 3.695312 -6.765625 4.265625 -6.492188 4.609375 -5.953125 C 4.953125 -5.410156 5.125 -4.5625 5.125 -3.40625 C 5.125 -2.25 4.960938 -1.394531 4.640625 -0.84375 C 4.328125 -0.289062 3.769531 -0.015625 2.96875 -0.015625 C 2.363281 -0.015625 1.890625 -0.171875 1.546875 -0.484375 C 1.203125 -0.804688 1 -1.207031 0.9375 -1.6875 L 1.6875 -1.6875 C 1.820312 -1.03125 2.265625 -0.703125 3.015625 -0.703125 Z M 3.015625 -0.703125 "/></g></g></g><g fill="#eddede" fill-opacity="1"><g transform="translate(123.109098, 208.390668)"><g/></g></g></svg>