<svg xmlns="http://www.w3.org/2000/svg" xmlns:xlink="http://www.w3.org/1999/xlink" width="500" zoomAndPan="magnify" viewBox="0 0 375 374.999991" height="500" preserveAspectRatio="xMidYMid meet" version="1.0"><defs><g/><clipPath id="d3b54fe76a"><path d="M 143.34375 59.558594 L 231.84375 59.558594 L 231.84375 109.808594 L 143.34375 109.808594 Z M 143.34375 59.558594 " clip-rule="nonzero"/></clipPath><clipPath id="6196c5bd01"><path d="M 111 103 L 260 103 L 260 224 L 111 224 Z M 111 103 " clip-rule="nonzero"/></clipPath><clipPath id="4141ec181e"><path d="M 96.679688 186.296875 L 163.546875 75.976562 L 278.355469 145.5625 L 211.488281 255.882812 Z M 96.679688 186.296875 " clip-rule="nonzero"/></clipPath><clipPath id="d7f3685e99"><path d="M 96.679688 186.296875 L 163.546875 75.976562 L 278.355469 145.5625 L 211.488281 255.882812 Z M 96.679688 186.296875 " clip-rule="nonzero"/></clipPath><clipPath id="a989fb9658"><path d="M 175.023438 121.066406 L 199.773438 121.066406 L 199.773438 148.066406 L 175.023438 148.066406 Z M 175.023438 121.066406 " clip-rule="nonzero"/></clipPath></defs><g clip-path="url(#d3b54fe76a)"><path fill="#eddede" d="M 231.84375 76.957031 L 229.421875 79.230469 L 229.777344 80.789062 C 218.15625 93.738281 210.480469 99.859375 208.238281 96.597656 C 206.449219 90.402344 207.34375 84.277344 210.160156 78.199219 L 212.550781 77.074219 L 213.015625 71.746094 L 209.339844 75.613281 L 210.089844 78.207031 C 207.050781 83.332031 203.785156 87.871094 200.054688 91.1875 C 196.121094 94.679688 194.921875 95.171875 192.378906 89.675781 C 190.496094 85.609375 189.851562 80.15625 188.582031 75.394531 L 191.804688 71.617188 L 187.597656 59.570312 L 183.386719 71.617188 L 186.605469 75.394531 C 185.339844 80.152344 184.695312 85.609375 182.8125 89.675781 C 180.269531 95.171875 179.070312 94.679688 175.136719 91.1875 C 171.402344 87.871094 168.136719 83.332031 165.101562 78.207031 L 165.851562 75.617188 L 162.175781 71.746094 L 162.636719 77.074219 L 165.03125 78.203125 C 167.847656 84.277344 168.742188 90.402344 166.953125 96.597656 C 164.710938 99.859375 157.035156 93.738281 145.410156 80.789062 L 145.769531 79.230469 L 143.34375 76.957031 L 143.824219 80.253906 L 145.261719 80.832031 L 161.820312 109.808594 L 156.734375 95.730469 C 156.835938 95.816406 156.941406 95.898438 157.042969 95.984375 C 159.636719 98.070312 164.179688 101.449219 167.621094 99.4375 C 168.207031 99.09375 168.695312 98.628906 169.078125 98.070312 L 169.3125 97.722656 L 169.429688 97.320312 C 170.125 94.917969 170.449219 92.527344 170.453125 90.164062 C 171.398438 91.214844 172.390625 92.207031 173.429688 93.132812 C 175.179688 94.6875 177.398438 96.734375 179.925781 96.359375 C 182.660156 95.957031 184.109375 93.023438 185.152344 90.769531 C 186.308594 88.273438 187 85.488281 187.597656 82.757812 C 188.191406 85.488281 188.882812 88.273438 190.039062 90.769531 C 191.082031 93.023438 192.53125 95.957031 195.265625 96.359375 C 197.796875 96.734375 200.011719 94.6875 201.761719 93.132812 C 202.800781 92.207031 203.792969 91.214844 204.738281 90.164062 C 204.742188 92.527344 205.066406 94.917969 205.761719 97.320312 L 205.878906 97.722656 L 206.113281 98.070312 C 206.5 98.628906 206.984375 99.09375 207.570312 99.4375 C 211.015625 101.449219 215.554688 98.070312 218.148438 95.984375 C 218.25 95.898438 218.355469 95.816406 218.457031 95.730469 L 213.996094 108.765625 L 229.933594 80.832031 L 231.367188 80.253906 Z M 231.84375 76.957031 " fill-opacity="1" fill-rule="evenodd"/></g><path fill="#eddede" d="M 178.902344 87.710938 C 179.199219 89.070312 179.535156 90.449219 179.988281 91.765625 C 180.289062 91.367188 180.699219 90.699219 181.242188 89.582031 C 180.417969 86.523438 179.964844 83.050781 178.902344 80.253906 C 177.757812 83.273438 177.320312 87.089844 176.359375 90.3125 C 176.785156 90.691406 177.347656 91.175781 177.882812 91.582031 C 178.304688 90.320312 178.621094 89.007812 178.902344 87.710938 Z M 178.902344 87.710938 " fill-opacity="1" fill-rule="evenodd"/><path fill="#eddede" d="M 196.261719 87.710938 C 196.546875 89.011719 196.863281 90.332031 197.289062 91.597656 C 197.820312 91.195312 198.382812 90.710938 198.8125 90.332031 C 197.847656 87.105469 197.410156 83.28125 196.261719 80.253906 C 195.203125 83.039062 194.753906 86.496094 193.933594 89.546875 C 194.472656 90.664062 194.882812 91.335938 195.1875 91.742188 C 195.636719 90.433594 195.964844 89.0625 196.261719 87.710938 Z M 196.261719 87.710938 " fill-opacity="1" fill-rule="evenodd"/><path fill="#eddede" d="M 211.605469 95.523438 C 211.917969 93.453125 212.457031 91.277344 212.507812 89.332031 C 211.292969 90.625 210.226562 92.34375 209.113281 93.921875 C 209.214844 94.496094 209.34375 95.066406 209.492188 95.640625 C 209.832031 95.195312 210.15625 94.738281 210.472656 94.285156 C 210.371094 94.84375 210.277344 95.410156 210.207031 95.980469 C 210.554688 95.933594 211.007812 95.804688 211.605469 95.523438 Z M 211.605469 95.523438 " fill-opacity="1" fill-rule="evenodd"/><path fill="#eddede" d="M 166.078125 93.921875 C 164.960938 92.34375 163.898438 90.625 162.679688 89.332031 C 162.734375 91.273438 163.269531 93.453125 163.585938 95.523438 C 164.179688 95.800781 164.636719 95.933594 164.984375 95.976562 C 164.910156 95.410156 164.816406 94.84375 164.71875 94.28125 C 165.035156 94.738281 165.359375 95.195312 165.699219 95.636719 C 165.847656 95.070312 165.976562 94.496094 166.078125 93.921875 Z M 166.078125 93.921875 " fill-opacity="1" fill-rule="evenodd"/><g clip-path="url(#6196c5bd01)"><g clip-path="url(#4141ec181e)"><g clip-path="url(#d7f3685e99)"><path fill="#eddede" d="M 258.042969 178.488281 C 257.792969 178.660156 256.46875 179.40625 255.101562 180.144531 C 253.734375 180.882812 251.9375 181.910156 251.109375 182.429688 C 250.277344 182.949219 249.101562 183.550781 248.492188 183.769531 C 247.882812 183.984375 247.316406 184.273438 247.230469 184.414062 C 247.144531 184.554688 246.851562 185.324219 246.578125 186.125 C 245.382812 189.621094 244.089844 192.265625 241.351562 196.785156 C 238.511719 201.476562 237.332031 203.089844 234.195312 206.523438 C 228.085938 213.214844 220.492188 218.527344 212.421875 221.742188 C 210.246094 222.609375 209.773438 222.777344 208.476562 223.117188 C 207.742188 223.3125 207.421875 223.378906 207.773438 223.265625 C 209.175781 222.8125 214.1875 220.574219 216.378906 219.425781 C 229.472656 212.542969 239.578125 201.320312 244.910156 187.742188 C 245.210938 186.976562 245.453125 186.171875 245.445312 185.957031 C 245.433594 185.660156 244.980469 185.121094 243.535156 183.695312 C 242.496094 182.667969 241.59375 181.835938 241.53125 181.851562 C 241.472656 181.863281 241.144531 182.851562 240.800781 184.042969 C 240.058594 186.613281 238.871094 189.796875 237.601562 192.597656 C 236.460938 195.121094 232.789062 201.261719 231.132812 203.421875 C 227.625 207.988281 223.53125 212.058594 219.023438 215.464844 C 217.828125 216.363281 213.933594 218.847656 213.820312 218.777344 C 213.78125 218.753906 213.960938 218.585938 214.21875 218.398438 C 214.480469 218.214844 215.480469 217.507812 216.441406 216.824219 C 225.511719 210.398438 232.851562 201.382812 237.109375 191.4375 C 238.820312 187.449219 240.730469 181.273438 240.464844 180.601562 C 240.414062 180.46875 239.625 179.242188 238.714844 177.867188 C 236.957031 175.226562 236.707031 174.699219 237.066406 174.417969 C 237.414062 174.152344 238.242188 174.394531 239.800781 175.21875 C 240.582031 175.632812 241.28125 175.941406 241.351562 175.90625 C 241.421875 175.867188 241.546875 175.316406 241.625 174.679688 L 241.765625 173.519531 L 241.050781 172.855469 C 238.785156 170.753906 237.199219 167.761719 237.042969 165.292969 C 236.949219 163.789062 237.734375 163.828125 240.324219 165.46875 C 241.425781 166.167969 241.84375 166.371094 241.921875 166.242188 C 242.097656 165.949219 241.894531 163.015625 241.476562 159.777344 C 241.230469 157.894531 241.21875 157.867188 240.394531 156.953125 C 238.476562 154.828125 237.015625 152.003906 236.089844 148.628906 C 235.726562 147.304688 235.664062 146.777344 235.828125 146.507812 C 236.132812 146.011719 236.742188 145.929688 237.359375 146.304688 C 238.058594 146.726562 238.160156 146.457031 237.710938 145.371094 C 232.457031 132.621094 223.34375 122.238281 211.613281 115.640625 C 206.097656 112.535156 201.25 110.675781 195.019531 109.273438 C 184.089844 106.808594 172.441406 107.550781 161.871094 111.378906 C 159.011719 112.414062 158.007812 112.886719 155.972656 114.164062 C 149.679688 118.113281 143.875 123.542969 139.472656 129.597656 C 137.734375 131.992188 134.132812 138.199219 133.050781 140.667969 C 131.71875 143.707031 130.5625 147.074219 129.722656 150.355469 L 129.367188 151.746094 L 130.253906 152.152344 C 132.042969 152.980469 133.59375 154.492188 135.796875 157.554688 C 136.398438 158.390625 137.238281 159.480469 137.660156 159.972656 C 138.425781 160.867188 138.558594 161.320312 138.085938 161.433594 C 137.769531 161.511719 134.257812 160.007812 133.019531 159.265625 C 131.460938 158.335938 130.867188 157.507812 129.613281 154.519531 C 129.425781 154.082031 129.207031 153.707031 129.121094 153.6875 C 128.84375 153.632812 127.957031 159.8125 128.183594 160.25 C 128.234375 160.355469 128.84375 160.550781 129.53125 160.683594 C 131.101562 160.984375 133.128906 162.121094 134.011719 163.191406 C 135.789062 165.347656 140.054688 171.144531 140.019531 171.351562 C 139.933594 171.820312 139.394531 171.730469 136.996094 170.863281 C 131.960938 169.039062 130.074219 167.261719 128.382812 162.742188 C 128.273438 162.449219 128.121094 162.222656 128.042969 162.242188 C 127.765625 162.308594 127.886719 169.28125 128.203125 171.253906 L 128.3125 171.960938 L 129.628906 172.535156 C 130.597656 172.960938 131.253906 173.351562 132.101562 174.019531 C 134.757812 176.105469 135.578125 177.476562 138.371094 184.515625 C 140.058594 188.769531 140.128906 189.332031 138.933594 189.074219 C 138.03125 188.882812 135.050781 186.175781 133.570312 184.203125 C 131.507812 181.453125 130.183594 178.914062 129.242188 175.898438 C 129 175.121094 128.765625 174.542969 128.722656 174.609375 C 128.582031 174.84375 129.324219 178.570312 130.007812 181.070312 C 130.769531 183.855469 132.378906 188.375 132.667969 188.550781 C 132.773438 188.613281 133.457031 188.855469 134.195312 189.09375 C 135.800781 189.609375 137.121094 190.378906 138.074219 191.359375 C 139.445312 192.765625 142.296875 196.738281 142.226562 197.140625 C 142.101562 197.832031 141.4375 197.769531 139.394531 196.875 C 138.121094 196.316406 136.738281 195.355469 135.632812 194.261719 L 135.332031 193.964844 L 135.484375 194.449219 C 135.683594 195.074219 137.984375 198.757812 139.453125 200.796875 C 142.882812 205.5625 147.535156 210.261719 152.554688 214.035156 C 155.859375 216.519531 161.167969 219.515625 165.339844 221.253906 C 166.8125 221.867188 166.9375 221.941406 167.019531 222.289062 C 167.234375 223.195312 165.835938 222.765625 160.8125 220.371094 C 158.523438 219.285156 151.707031 214.964844 149.707031 213.34375 C 142.027344 207.097656 136.277344 199.789062 132.21875 191.117188 C 131.746094 190.113281 131.304688 189.253906 131.234375 189.210938 C 131.164062 189.167969 130.75 189.714844 130.3125 190.425781 C 129.875 191.132812 129.257812 191.988281 128.9375 192.320312 C 128.234375 193.050781 128.242188 193.085938 129.535156 195.515625 C 130.460938 197.253906 130.628906 197.453125 130.855469 197.074219 C 131.097656 196.667969 131.507812 195.121094 131.460938 194.796875 C 131.40625 194.445312 131.753906 194.125 132.015625 194.28125 C 132.386719 194.507812 133.4375 196.285156 133.6875 197.109375 C 134.007812 198.175781 133.902344 199.652344 133.449219 200.40625 C 133.261719 200.71875 133.109375 201.082031 133.113281 201.214844 C 133.121094 201.535156 135.027344 204.128906 136.726562 206.132812 C 141.144531 211.339844 145.691406 215.207031 151.835938 218.976562 C 154.261719 220.46875 155.058594 221.011719 154.753906 220.972656 C 154.015625 220.871094 146.742188 216.363281 144.65625 214.707031 C 140.714844 211.582031 136.960938 207.820312 134.011719 204.035156 C 133.289062 203.113281 132.636719 202.316406 132.558594 202.269531 C 132.476562 202.222656 132.3125 202.257812 132.191406 202.351562 C 131.886719 202.585938 131.15625 203.84375 130.867188 204.625 C 130.417969 205.847656 129.679688 205.78125 129.449219 204.5 C 129.242188 203.320312 129.445312 201.84375 130.144531 199.523438 C 130.332031 198.90625 130.292969 198.734375 129.71875 197.75 C 129.375 197.152344 128.789062 196.105469 128.421875 195.425781 C 128.054688 194.746094 127.675781 194.140625 127.578125 194.082031 C 127.46875 194.015625 127.070312 194.320312 126.566406 194.855469 C 125.28125 196.222656 125.132812 196.398438 124.136719 197.722656 C 123.621094 198.402344 123.113281 198.980469 123.003906 199.003906 C 122.542969 199.117188 122.476562 198.546875 122.800781 197.25 C 123.539062 194.3125 123.910156 193.269531 124.820312 191.59375 L 125.742188 189.898438 L 124.800781 187.203125 C 124.28125 185.71875 123.613281 183.625 123.320312 182.546875 C 122.980469 181.304688 122.703125 180.601562 122.566406 180.636719 C 122.21875 180.71875 119.734375 182.675781 117.480469 184.636719 C 116.332031 185.640625 115.253906 186.480469 115.085938 186.503906 C 113.890625 186.679688 114.320312 183.964844 115.882812 181.4375 C 116.730469 180.070312 118.246094 178.480469 120.503906 176.59375 C 121.046875 176.140625 121.558594 175.660156 121.644531 175.519531 C 121.726562 175.382812 121.691406 174.148438 121.5625 172.777344 C 121.433594 171.40625 121.316406 169.566406 121.300781 168.691406 C 121.285156 167.816406 121.210938 167.058594 121.128906 167.007812 C 120.824219 166.8125 114.8125 168.277344 113.4375 168.882812 C 112.648438 169.226562 111.933594 169.511719 111.84375 169.511719 C 111.753906 169.511719 111.636719 169.347656 111.589844 169.140625 C 111.519531 168.859375 111.601562 168.644531 111.9375 168.25 C 113.792969 166.054688 116.410156 164.367188 119.851562 163.144531 C 120.578125 162.886719 121.226562 162.582031 121.296875 162.46875 C 121.367188 162.351562 121.519531 161.335938 121.640625 160.207031 C 121.757812 159.078125 121.957031 157.59375 122.078125 156.902344 C 122.199219 156.210938 122.25 155.617188 122.1875 155.582031 C 122.046875 155.496094 120.292969 156.089844 118.488281 156.832031 C 116.59375 157.617188 116.117188 157.378906 116.925781 156.0625 C 117.589844 154.980469 119.453125 153.703125 121.652344 152.824219 C 122.289062 152.570312 122.867188 152.269531 122.9375 152.152344 C 123.007812 152.039062 123.417969 150.789062 123.84375 149.378906 C 128.660156 133.539062 139.550781 120.429688 154.089844 112.972656 C 155.03125 112.488281 157.140625 111.40625 158.773438 110.566406 C 166.816406 106.429688 174.128906 104.226562 182.410156 103.441406 C 197.820312 101.980469 213.429688 106.433594 225.742188 115.800781 C 232.226562 120.730469 237.988281 127.234375 241.882812 134.011719 C 242.402344 134.917969 242.886719 135.648438 242.957031 135.632812 C 243.023438 135.613281 243.148438 135.320312 243.230469 134.972656 C 244.179688 130.996094 244.617188 129.976562 245.261719 130.253906 C 245.746094 130.460938 246.394531 132.148438 246.660156 133.898438 C 246.960938 135.890625 247.160156 140.671875 247.042969 142.996094 C 246.949219 144.824219 246.992188 145.121094 247.695312 147.441406 C 248.109375 148.808594 248.574219 150.488281 248.726562 151.171875 C 248.878906 151.859375 249.046875 152.410156 249.101562 152.394531 C 249.15625 152.382812 249.390625 151.835938 249.621094 151.179688 C 249.953125 150.25 250.617188 149.042969 252.632812 145.71875 C 254.054688 143.371094 255.371094 141.332031 255.554688 141.1875 C 256.300781 140.609375 256.871094 141.238281 257.210938 143.019531 C 257.800781 146.113281 256.789062 148.523438 252.796875 153.523438 C 251.699219 154.898438 250.585938 156.378906 250.324219 156.8125 C 249.875 157.558594 249.851562 157.699219 249.996094 159.132812 C 250.179688 161.027344 250.332031 164.617188 250.285156 166.058594 C 250.265625 166.652344 250.292969 167.164062 250.34375 167.195312 C 250.398438 167.226562 250.726562 166.957031 251.078125 166.601562 C 251.429688 166.242188 252.679688 165.277344 253.863281 164.460938 C 255.042969 163.640625 256.574219 162.472656 257.269531 161.867188 C 259.113281 160.25 259.136719 160.234375 259.46875 160.503906 C 260.054688 160.984375 259.4375 163.449219 258.226562 165.460938 C 257.0625 167.394531 256.144531 168.148438 253.457031 169.371094 C 252.265625 169.914062 251.046875 170.425781 250.742188 170.511719 C 250.4375 170.59375 250.152344 170.726562 250.105469 170.800781 C 250.058594 170.875 249.90625 171.914062 249.761719 173.109375 C 249.617188 174.304688 249.25 176.425781 248.941406 177.824219 C 248.632812 179.222656 248.429688 180.394531 248.488281 180.429688 C 248.546875 180.464844 248.957031 180.203125 249.402344 179.847656 C 249.84375 179.496094 250.714844 178.96875 251.335938 178.679688 C 253.433594 177.703125 258.121094 176.773438 258.632812 177.230469 C 258.917969 177.488281 258.644531 178.066406 258.042969 178.488281 Z M 246.929688 181.578125 C 247.574219 179.195312 248.015625 177.109375 247.917969 176.917969 C 247.882812 176.84375 247.203125 176.519531 246.414062 176.203125 C 245.621094 175.882812 244.515625 175.34375 243.957031 175.003906 C 242.746094 174.269531 242.710938 174.296875 242.558594 176.070312 L 242.457031 177.253906 L 243.667969 179.253906 C 244.335938 180.355469 245.148438 181.816406 245.46875 182.5 C 245.792969 183.183594 246.09375 183.769531 246.144531 183.796875 C 246.289062 183.882812 246.367188 183.664062 246.929688 181.578125 Z M 248.871094 170.324219 C 249.148438 166.867188 249.15625 162.179688 248.890625 161.832031 C 248.824219 161.746094 248.460938 161.605469 248.085938 161.523438 C 247.035156 161.296875 245.570312 160.660156 244.222656 159.847656 C 243.554688 159.4375 242.945312 159.136719 242.871094 159.175781 C 242.796875 159.210938 242.8125 159.972656 242.902344 160.871094 C 243.058594 162.394531 243.207031 165.203125 243.230469 167.03125 C 243.242188 167.722656 243.347656 167.953125 244.007812 168.726562 C 245.164062 170.082031 246.335938 171.761719 247.238281 173.363281 C 247.6875 174.15625 248.117188 174.84375 248.195312 174.890625 C 248.398438 175.015625 248.617188 173.546875 248.871094 170.324219 Z M 248.34375 156.121094 C 247.960938 153.820312 247.441406 151.457031 246.832031 149.25 L 246.378906 147.621094 L 245.359375 146.890625 C 243.195312 145.34375 242.25 142.769531 242.523438 139.148438 C 242.609375 138.054688 242.253906 137.304688 239.78125 133.335938 C 235.960938 127.207031 231.304688 122.082031 225.152344 117.230469 C 223.152344 115.652344 216.042969 111.398438 213.523438 110.273438 C 203.039062 105.589844 191.71875 103.882812 180.617188 105.308594 C 178.277344 105.609375 175.378906 106.148438 175.027344 106.347656 C 174.6875 106.539062 174.78125 106.539062 177.09375 106.359375 C 187.753906 105.519531 197.558594 107.265625 207.871094 111.835938 C 210.386719 112.949219 216.972656 116.882812 218.871094 118.402344 C 225.464844 123.6875 229.847656 128.441406 233.644531 134.429688 C 236.539062 139 238.472656 143.078125 240.214844 148.300781 C 240.339844 148.667969 240.996094 149.570312 241.855469 150.554688 C 242.644531 151.460938 244.40625 153.605469 245.769531 155.328125 C 247.132812 157.046875 248.332031 158.507812 248.4375 158.570312 C 248.71875 158.742188 248.703125 158.296875 248.34375 156.121094 Z M 129.832031 185.324219 C 128.992188 182.925781 128.183594 180.003906 127.691406 177.617188 C 127.441406 176.394531 127.207031 175.355469 127.171875 175.308594 C 127.136719 175.257812 126.691406 175.894531 126.1875 176.722656 C 125.589844 177.699219 125.007812 178.46875 124.519531 178.921875 L 123.773438 179.617188 L 124.558594 182.675781 C 125.378906 185.882812 126.339844 188.734375 126.664062 188.933594 C 126.769531 188.996094 127.050781 188.886719 127.285156 188.6875 C 127.523438 188.488281 128.28125 188.023438 128.976562 187.652344 C 129.667969 187.28125 130.261719 186.941406 130.292969 186.898438 C 130.328125 186.851562 130.117188 186.144531 129.832031 185.324219 Z M 126.554688 169.851562 C 126.46875 168.722656 126.382812 166.84375 126.367188 165.679688 C 126.355469 164.511719 126.335938 163.511719 126.324219 163.457031 C 126.289062 163.246094 125.835938 163.609375 125.339844 164.242188 C 125.058594 164.601562 124.304688 165.242188 123.664062 165.667969 L 122.5 166.441406 L 122.519531 168.191406 C 122.542969 170.386719 122.84375 174.21875 123.007812 174.40625 C 123.128906 174.542969 126.378906 172.441406 126.605469 172.082031 C 126.667969 171.980469 126.644531 170.976562 126.554688 169.851562 Z M 126.640625 159.089844 C 126.722656 158.113281 126.875 156.765625 126.980469 156.09375 C 127.085938 155.417969 127.164062 154.757812 127.148438 154.617188 C 127.132812 154.433594 126.671875 154.476562 125.457031 154.777344 C 124.539062 155 123.765625 155.222656 123.738281 155.273438 C 123.550781 155.578125 122.726562 161.664062 122.8125 162.082031 C 122.851562 162.273438 126.164062 161.351562 126.332031 161.105469 C 126.421875 160.972656 126.558594 160.066406 126.640625 159.089844 Z M 127.859375 151.351562 C 129.816406 142.011719 134.890625 131.972656 141.488281 124.394531 C 142.171875 123.609375 142.726562 122.929688 142.714844 122.886719 C 142.65625 122.640625 140.328125 124.796875 138.316406 126.964844 C 133.253906 132.421875 129.003906 139.324219 126.339844 146.417969 C 125.449219 148.796875 124.539062 151.667969 124.597656 151.921875 C 124.644531 152.136719 127.535156 152.488281 127.652344 152.296875 C 127.660156 152.289062 127.75 151.863281 127.859375 151.351562 Z M 127.859375 151.351562 " fill-opacity="1" fill-rule="nonzero"/></g></g></g><g clip-path="url(#a989fb9658)"><path fill="#eddede" d="M 187.371094 121.09375 C 187.375 121.082031 187.386719 121.070312 187.402344 121.070312 C 187.414062 121.070312 187.429688 121.082031 187.429688 121.09375 C 187.722656 121.902344 189.953125 127.972656 191.882812 130.082031 C 193.804688 132.179688 199.035156 134.265625 199.742188 134.542969 C 199.753906 134.546875 199.761719 134.558594 199.761719 134.574219 C 199.761719 134.585938 199.753906 134.597656 199.742188 134.601562 C 199.03125 134.886719 193.683594 137.050781 191.757812 139.152344 C 189.835938 141.25 187.722656 147.210938 187.433594 148.042969 C 187.429688 148.058594 187.417969 148.066406 187.402344 148.066406 C 187.386719 148.066406 187.375 148.058594 187.371094 148.042969 C 187.132812 147.210938 185.394531 141.359375 183.472656 139.257812 C 181.539062 137.148438 175.769531 134.875 175.054688 134.601562 C 175.039062 134.59375 175.035156 134.585938 175.03125 134.570312 C 175.03125 134.558594 175.039062 134.546875 175.050781 134.539062 C 175.742188 134.222656 181.242188 131.65625 183.175781 129.546875 C 185.097656 127.441406 187.097656 121.867188 187.371094 121.09375 Z M 187.371094 121.09375 " fill-opacity="1" fill-rule="evenodd"/></g><g fill="#eddede" fill-opacity="1"><g transform="translate(119.371154, 286.731855)"><g><path d="M 54.421875 -33.242188 C 53.976562 -33.511719 53.753906 -33.867188 44.324219 -24.976562 C 42.761719 -23.457031 41.0625 -21.671875 39.363281 -19.660156 C 37.757812 -18.273438 36.238281 -16.980469 34.71875 -15.773438 C 31.992188 -15.726562 28.460938 -15.503906 23.816406 -14.96875 C 23.59375 -14.925781 23.457031 -14.746094 23.457031 -14.523438 C 23.457031 -14.296875 23.679688 -14.253906 23.949219 -14.296875 C 28.105469 -14.746094 31.320312 -14.96875 33.867188 -15.058594 C 17.960938 -2.1875 8.980469 0.671875 8.175781 0.179688 C 7.507812 -0.402344 8.265625 -2.011719 8.667969 -2.546875 C 8.800781 -2.726562 8.757812 -2.992188 8.578125 -3.082031 C 8.398438 -3.21875 8.175781 -3.171875 8.042969 -2.992188 C 8 -2.90625 6.300781 -0.445312 7.640625 0.804688 C 9.027344 2.101562 19.75 -2.457031 35.164062 -15.058594 L 35.613281 -15.058594 C 29.714844 -7.597656 24.128906 1.074219 21.359375 6.613281 C 21.269531 6.792969 21.359375 7.015625 21.535156 7.105469 C 21.625 7.148438 21.671875 7.148438 21.761719 7.148438 C 21.894531 7.148438 22.027344 7.058594 22.117188 6.96875 C 25.246094 1.074219 30.742188 -7.597656 36.59375 -15.058594 C 42.226562 -14.878906 42.804688 -13.761719 42.851562 -13.671875 C 42.851562 -13.449219 43.027344 -13.269531 43.253906 -13.269531 C 43.476562 -13.269531 43.65625 -13.449219 43.65625 -13.671875 C 43.65625 -13.761719 43.65625 -13.941406 43.253906 -14.34375 C 42.671875 -14.925781 41.152344 -15.59375 37.132812 -15.726562 C 38.070312 -16.890625 38.960938 -18.007812 39.902344 -19.078125 L 40.035156 -19.214844 C 42.761719 -21.9375 45.21875 -23.503906 47.230469 -25.066406 C 49.464844 -26.765625 51.207031 -28.105469 52.8125 -29.757812 L 52.8125 -29.804688 C 55.046875 -32.707031 54.691406 -33.066406 54.421875 -33.242188 Z M 52.1875 -30.339844 C 50.625 -28.730469 48.882812 -27.390625 46.738281 -25.691406 L 44.011719 -23.546875 L 44.90625 -24.441406 C 50.402344 -29.667969 52.636719 -31.636719 53.527344 -32.214844 C 53.214844 -31.722656 52.726562 -30.964844 52.1875 -30.339844 Z M 36.015625 -15.773438 L 36.414062 -16.085938 C 36.328125 -15.996094 36.238281 -15.863281 36.148438 -15.773438 Z M 36.015625 -15.773438 "/></g></g></g><g fill="#eddede" fill-opacity="1"><g transform="translate(156.367876, 286.731855)"><g><path d="M 17.558594 -15.59375 C 17.382812 -15.773438 16.933594 -16.175781 12.601562 -13.449219 C 9.875 -11.707031 7.195312 -9.695312 5.226562 -7.863281 L 4.871094 -7.597656 C 4.871094 -7.640625 4.78125 -7.730469 4.734375 -7.820312 C 4.15625 -8.535156 2.234375 -8.800781 -0.671875 -6.65625 C -2.054688 -5.628906 -2.589844 -4.960938 -2.414062 -4.378906 C -2.367188 -4.246094 -2.1875 -3.886719 -1.519531 -3.886719 C -0.582031 -3.886719 1.160156 -4.335938 2.949219 -5.273438 C 2.769531 -4.871094 2.816406 -4.648438 2.90625 -4.421875 C 3.082031 -4.019531 3.53125 -3.796875 4.199219 -3.796875 L 4.601562 -3.84375 C 5.851562 -3.976562 9.785156 -5.183594 12.378906 -6.167969 C 12.601562 -6.253906 12.691406 -6.480469 12.601562 -6.703125 C 12.511719 -6.882812 12.421875 -7.015625 12.0625 -6.882812 C 9.605469 -5.941406 5.71875 -4.78125 4.558594 -4.648438 C 3.886719 -4.558594 3.664062 -4.691406 3.621094 -4.734375 C 3.621094 -4.734375 3.441406 -5.050781 5.183594 -6.746094 C 7.683594 -7.953125 15.863281 -12.421875 17.515625 -14.699219 C 17.871094 -15.191406 17.738281 -15.460938 17.558594 -15.59375 Z M 7.640625 -8.890625 C 11.035156 -11.660156 14.925781 -14.074219 16.53125 -14.746094 C 15.011719 -13.179688 10.8125 -10.632812 7.640625 -8.890625 Z M -1.609375 -4.648438 C -1.5625 -4.824219 -1.25 -5.226562 -0.179688 -6.03125 C 2.144531 -7.773438 3.796875 -7.730469 4.15625 -7.328125 C 4.15625 -7.28125 4.246094 -7.195312 4.066406 -6.96875 L 3.933594 -6.835938 C 1.964844 -5.40625 -0.445312 -4.648438 -1.519531 -4.648438 Z M -1.609375 -4.648438 "/></g></g></g><g fill="#eddede" fill-opacity="1"><g transform="translate(169.325669, 286.731855)"><g><path d="M 4.378906 -3.886719 L 4.734375 -3.933594 C 5.316406 -3.976562 9.070312 -4.734375 13.539062 -6.167969 C 13.761719 -6.210938 13.851562 -6.433594 13.808594 -6.65625 C 13.71875 -6.882812 13.492188 -6.96875 13.316406 -6.925781 C 8.9375 -5.539062 5.183594 -4.78125 4.648438 -4.734375 L 4.246094 -4.691406 C 4.378906 -4.871094 4.691406 -5.273438 5.585938 -6.078125 C 6.167969 -6.613281 6.835938 -7.328125 6.480469 -7.863281 C 6.121094 -8.488281 4.914062 -8.222656 3.933594 -7.863281 C 2.816406 -7.507812 1.429688 -6.835938 0.222656 -6.210938 L 2.503906 -8.222656 C 4.335938 -9.027344 17.917969 -14.746094 18.1875 -18.320312 C 18.230469 -18.722656 18.097656 -18.988281 17.785156 -19.167969 C 16.21875 -19.882812 9.25 -15.238281 2.054688 -8.890625 L 1.964844 -8.847656 C 0.445312 -7.507812 -1.074219 -6.078125 -2.589844 -4.601562 C -2.726562 -4.46875 -2.726562 -4.246094 -2.636719 -4.066406 C -2.503906 -3.933594 -2.277344 -3.886719 -2.101562 -3.976562 C -2.054688 -4.019531 1.742188 -6.300781 4.199219 -7.148438 C 5.003906 -7.417969 5.539062 -7.460938 5.765625 -7.460938 C 5.675781 -7.328125 5.496094 -7.058594 5.050781 -6.65625 C 3.621094 -5.40625 3.261719 -4.824219 3.484375 -4.335938 C 3.621094 -3.976562 4.019531 -3.886719 4.378906 -3.886719 Z M 4.46875 -9.964844 C 10.859375 -15.324219 15.996094 -18.5 17.246094 -18.5 C 17.292969 -18.5 17.382812 -18.5 17.425781 -18.453125 L 17.425781 -18.363281 C 17.246094 -16.308594 10.277344 -12.511719 4.46875 -9.964844 Z M 4.46875 -9.964844 "/></g></g></g><g fill="#eddede" fill-opacity="1"><g transform="translate(183.489872, 286.731855)"><g><path d="M 3.304688 -9.160156 C 3.394531 -9.160156 3.484375 -9.160156 3.574219 -9.25 L 3.796875 -9.429688 C 3.976562 -9.605469 4.019531 -9.832031 3.84375 -10.007812 C 3.707031 -10.144531 3.441406 -10.230469 3.261719 -10.054688 L 3.039062 -9.875 C 2.859375 -9.695312 2.859375 -9.472656 2.992188 -9.292969 C 3.082031 -9.203125 3.171875 -9.160156 3.304688 -9.160156 Z M 0.445312 -3.933594 L 0.492188 -3.933594 C 2.546875 -3.933594 8.222656 -5.136719 11.082031 -6.167969 C 11.304688 -6.253906 11.394531 -6.480469 11.304688 -6.65625 C 11.261719 -6.882812 11.035156 -6.96875 10.8125 -6.925781 C 8.085938 -5.898438 2.457031 -4.734375 0.492188 -4.734375 L 0.445312 -4.734375 C -0.179688 -4.734375 -0.445312 -4.871094 -0.492188 -5.050781 C -0.582031 -5.183594 -0.445312 -5.585938 0 -5.988281 L 0.222656 -6.210938 C 0.714844 -6.65625 0.714844 -6.65625 1.519531 -7.28125 L 1.789062 -7.507812 C 1.964844 -7.640625 1.964844 -7.863281 1.832031 -8.042969 C 1.699219 -8.222656 1.472656 -8.265625 1.296875 -8.132812 L 1.027344 -7.910156 C 0.179688 -7.28125 0.179688 -7.238281 -0.3125 -6.792969 L -0.535156 -6.566406 C -1.207031 -5.988281 -1.472656 -5.273438 -1.25 -4.734375 C -1.117188 -4.378906 -0.714844 -3.933594 0.445312 -3.933594 Z M 0.445312 -3.933594 "/></g></g></g><g fill="#eddede" fill-opacity="1"><g transform="translate(195.107197, 286.731855)"><g><path d="M 16.710938 -19.167969 C 15.371094 -20.242188 8.757812 -15.683594 3.886719 -11.035156 L 1.875 -9.070312 C -0.847656 -6.390625 -2.589844 -4.511719 -2.589844 -4.46875 C -2.726562 -4.335938 -2.726562 -4.066406 -2.589844 -3.933594 C -2.503906 -3.84375 -2.414062 -3.796875 -2.324219 -3.796875 C -2.1875 -3.796875 -2.101562 -3.84375 -2.011719 -3.933594 C -2.011719 -3.976562 -1.160156 -4.871094 0.269531 -6.34375 C 0.402344 -5.40625 0.757812 -4.734375 1.429688 -4.289062 C 1.964844 -3.886719 2.679688 -3.707031 3.621094 -3.707031 C 5.539062 -3.707031 8.355469 -4.511719 12.421875 -6.167969 C 12.601562 -6.253906 12.691406 -6.480469 12.644531 -6.703125 C 12.554688 -6.882812 12.332031 -6.96875 12.109375 -6.925781 C 8.265625 -5.363281 3.664062 -3.707031 1.875 -4.914062 C 1.386719 -5.226562 1.117188 -5.808594 1.074219 -6.566406 C 1.429688 -6.480469 1.964844 -6.433594 2.503906 -6.433594 C 4.246094 -6.433594 4.824219 -7.105469 4.960938 -7.683594 C 5.050781 -8.042969 5.003906 -8.3125 4.824219 -8.535156 C 4.648438 -8.757812 4.378906 -8.847656 4.066406 -8.847656 C 3.621094 -8.847656 2.949219 -8.667969 2.324219 -8.398438 L 2.367188 -8.445312 C 3.441406 -8.890625 13.894531 -13.226562 16.578125 -17.558594 C 17.023438 -18.320312 17.070312 -18.855469 16.710938 -19.167969 Z M 15.90625 -18.007812 C 13.941406 -14.835938 7.328125 -11.527344 3.976562 -10.007812 L 4.421875 -10.457031 C 10.054688 -15.816406 15.011719 -18.585938 16.085938 -18.585938 L 16.175781 -18.542969 C 16.128906 -18.5 16.085938 -18.320312 15.90625 -18.007812 Z M 4.199219 -8.042969 L 4.15625 -7.863281 C 4.066406 -7.371094 3.21875 -7.238281 2.503906 -7.238281 C 2.234375 -7.238281 1.964844 -7.28125 1.699219 -7.28125 C 2.503906 -7.683594 3.484375 -8.085938 4.066406 -8.085938 Z M 4.199219 -8.042969 "/></g></g></g><g fill="#eddede" fill-opacity="1"><g transform="translate(208.064991, 286.731855)"><g><path d="M -1.25 -3.886719 C -0.222656 -3.886719 1.609375 -4.558594 3.351562 -5.273438 C 3.171875 -5.003906 3.128906 -4.78125 3.171875 -4.601562 C 3.261719 -4.199219 3.621094 -3.976562 4.289062 -3.933594 C 7.507812 -3.664062 14.566406 -5.675781 15.640625 -6.167969 C 15.816406 -6.253906 15.90625 -6.433594 15.863281 -6.65625 C 15.816406 -6.882812 15.59375 -6.96875 15.371094 -6.925781 C 14.566406 -6.566406 7.417969 -4.46875 4.335938 -4.734375 C 4.15625 -4.734375 4.066406 -4.78125 3.976562 -4.78125 C 4.109375 -5.003906 4.648438 -5.628906 7.195312 -7.105469 C 7.328125 -7.148438 7.683594 -7.328125 7.460938 -7.683594 C 7.328125 -7.953125 7.148438 -7.910156 6.925781 -7.820312 L 6.480469 -7.640625 C 6.480469 -7.820312 6.390625 -8.042969 6.300781 -8.222656 C 5.628906 -9.160156 3.621094 -9.382812 0.757812 -7.597656 C -1.207031 -6.390625 -2.234375 -5.226562 -2.1875 -4.511719 C -2.144531 -4.246094 -2.011719 -4.019531 -1.789062 -3.933594 C -1.652344 -3.886719 -1.472656 -3.886719 -1.25 -3.886719 Z M -1.386719 -4.648438 C -1.25 -4.960938 -0.671875 -5.765625 1.160156 -6.925781 C 3.796875 -8.578125 5.316406 -8.222656 5.628906 -7.773438 C 5.765625 -7.550781 5.675781 -7.328125 5.453125 -7.105469 C 1.429688 -5.183594 -0.714844 -4.601562 -1.386719 -4.648438 Z M -1.386719 -4.648438 "/></g></g></g><g fill="#eddede" fill-opacity="1"><g transform="translate(224.195208, 286.731855)"><g><path d="M 0.757812 -3.886719 L 1.296875 -3.886719 C 3.886719 -3.886719 10.097656 -6.078125 10.367188 -6.167969 C 10.589844 -6.253906 10.679688 -6.480469 10.589844 -6.65625 C 10.546875 -6.882812 10.320312 -6.96875 10.097656 -6.925781 C 8.085938 -6.210938 2.546875 -4.421875 0.894531 -4.691406 C 1.25 -5.273438 3.484375 -6.746094 5.496094 -7.820312 C 5.675781 -7.953125 5.765625 -8.132812 5.675781 -8.3125 C 5.628906 -8.488281 5.453125 -8.625 5.226562 -8.578125 C 4.46875 -8.445312 3.664062 -8.398438 3.082031 -8.398438 C 2.949219 -8.980469 2.503906 -9.472656 2.1875 -9.652344 C 1.832031 -9.832031 1.609375 -9.695312 1.519531 -9.605469 C 1.160156 -9.339844 1.296875 -8.847656 1.386719 -8.488281 C 1.472656 -8.175781 1.699219 -8 1.964844 -7.863281 C 1.519531 -7.550781 0.625 -7.238281 -0.222656 -6.925781 C -0.445312 -6.835938 -0.492188 -6.613281 -0.445312 -6.433594 C -0.359375 -6.210938 -0.132812 -6.078125 0.0429688 -6.167969 C 1.160156 -6.566406 2.457031 -7.058594 2.90625 -7.640625 L 3.484375 -7.597656 C 1.609375 -6.480469 -0.0898438 -5.273438 0.0429688 -4.511719 C 0.0898438 -4.335938 0.222656 -4.019531 0.757812 -3.886719 Z M 0.757812 -3.886719 "/></g></g></g><g fill="#eddede" fill-opacity="1"><g transform="translate(235.097643, 286.731855)"><g><path d="M 3.304688 -9.160156 C 3.394531 -9.160156 3.484375 -9.160156 3.574219 -9.25 L 3.796875 -9.429688 C 3.976562 -9.605469 4.019531 -9.832031 3.84375 -10.007812 C 3.707031 -10.144531 3.441406 -10.230469 3.261719 -10.054688 L 3.039062 -9.875 C 2.859375 -9.695312 2.859375 -9.472656 2.992188 -9.292969 C 3.082031 -9.203125 3.171875 -9.160156 3.304688 -9.160156 Z M 0.445312 -3.933594 L 0.492188 -3.933594 C 2.546875 -3.933594 8.222656 -5.136719 11.082031 -6.167969 C 11.304688 -6.253906 11.394531 -6.480469 11.304688 -6.65625 C 11.261719 -6.882812 11.035156 -6.96875 10.8125 -6.925781 C 8.085938 -5.898438 2.457031 -4.734375 0.492188 -4.734375 L 0.445312 -4.734375 C -0.179688 -4.734375 -0.445312 -4.871094 -0.492188 -5.050781 C -0.582031 -5.183594 -0.445312 -5.585938 0 -5.988281 L 0.222656 -6.210938 C 0.714844 -6.65625 0.714844 -6.65625 1.519531 -7.28125 L 1.789062 -7.507812 C 1.964844 -7.640625 1.964844 -7.863281 1.832031 -8.042969 C 1.699219 -8.222656 1.472656 -8.265625 1.296875 -8.132812 L 1.027344 -7.910156 C 0.179688 -7.28125 0.179688 -7.238281 -0.3125 -6.792969 L -0.535156 -6.566406 C -1.207031 -5.988281 -1.472656 -5.273438 -1.25 -4.734375 C -1.117188 -4.378906 -0.714844 -3.933594 0.445312 -3.933594 Z M 0.445312 -3.933594 "/></g></g></g><g fill="#eddede" fill-opacity="1"><g transform="translate(135.653291, 260.503633)"><g><path d="M 3.40625 -20.953125 C 4.632812 -21.460938 5.820312 -21.71875 6.96875 -21.71875 C 7.914062 -21.71875 8.894531 -21.367188 9.90625 -20.671875 C 10.457031 -20.285156 11.078125 -19.539062 11.765625 -18.4375 C 12.222656 -17.675781 12.800781 -16.296875 13.5 -14.296875 L 16.984375 -4.421875 C 17.785156 -2.210938 18.597656 -0.457031 19.421875 0.84375 C 20.253906 2.144531 21.007812 3.125 21.6875 3.78125 C 22.375 4.4375 23.085938 4.894531 23.828125 5.15625 C 24.578125 5.425781 25.191406 5.5625 25.671875 5.5625 C 26.160156 5.5625 26.597656 5.523438 26.984375 5.453125 L 27.015625 5.734375 C 26.097656 6.035156 25.203125 6.1875 24.328125 6.1875 C 23.453125 6.1875 22.578125 5.960938 21.703125 5.515625 C 20.828125 5.078125 20.007812 4.457031 19.25 3.65625 C 17.601562 2 16.210938 -0.519531 15.078125 -3.90625 L 13.96875 -7.171875 L 6.140625 -7.171875 L 4.171875 -2.078125 C 4.078125 -1.847656 4.03125 -1.617188 4.03125 -1.390625 C 4.03125 -1.171875 4.128906 -0.929688 4.328125 -0.671875 C 4.523438 -0.410156 4.832031 -0.28125 5.25 -0.28125 L 5.484375 -0.28125 L 5.484375 0 L -0.25 0 L -0.25 -0.28125 L 0 -0.28125 C 0.457031 -0.28125 0.90625 -0.414062 1.34375 -0.6875 C 1.78125 -0.96875 2.140625 -1.382812 2.421875 -1.9375 L 9.515625 -18.890625 C 8.484375 -20.359375 7.207031 -21.09375 5.6875 -21.09375 C 5 -21.09375 4.265625 -20.953125 3.484375 -20.671875 Z M 6.453125 -8.015625 L 13.671875 -8.015625 L 11.421875 -14.671875 C 10.984375 -15.941406 10.582031 -16.941406 10.21875 -17.671875 Z M 6.453125 -8.015625 "/></g></g></g><g fill="#eddede" fill-opacity="1"><g transform="translate(154.748848, 260.503633)"><g><path d="M 11.390625 -19.984375 C 14.429688 -19.984375 16.898438 -19.0625 18.796875 -17.21875 C 20.691406 -15.382812 21.640625 -12.972656 21.640625 -9.984375 C 21.640625 -7.003906 20.691406 -4.59375 18.796875 -2.75 C 16.898438 -0.914062 14.429688 0 11.390625 0 L 1.71875 0 L 1.71875 -0.28125 L 2.078125 -0.28125 C 2.578125 -0.28125 3 -0.457031 3.34375 -0.8125 C 3.695312 -1.164062 3.882812 -1.585938 3.90625 -2.078125 L 3.90625 -18.0625 C 3.90625 -18.519531 3.71875 -18.90625 3.34375 -19.21875 C 2.976562 -19.539062 2.554688 -19.703125 2.078125 -19.703125 L 1.734375 -19.703125 L 1.71875 -19.984375 Z M 5.765625 -19.125 L 5.765625 -0.859375 L 11.390625 -0.859375 C 12.984375 -0.859375 14.394531 -1.238281 15.625 -2 C 16.851562 -2.757812 17.804688 -3.828125 18.484375 -5.203125 C 19.160156 -6.585938 19.5 -8.179688 19.5 -9.984375 C 19.5 -12.734375 18.75 -14.941406 17.25 -16.609375 C 15.757812 -18.285156 13.804688 -19.125 11.390625 -19.125 Z M 5.765625 -19.125 "/></g></g></g><g fill="#eddede" fill-opacity="1"><g transform="translate(176.55608, 260.503633)"><g><path d="M 2.078125 -0.28125 C 2.578125 -0.28125 3 -0.457031 3.34375 -0.8125 C 3.695312 -1.164062 3.882812 -1.585938 3.90625 -2.078125 L 3.90625 -17.921875 C 3.882812 -18.421875 3.695312 -18.84375 3.34375 -19.1875 C 3 -19.53125 2.578125 -19.703125 2.078125 -19.703125 L 1.71875 -19.703125 L 1.71875 -19.984375 L 7.96875 -19.984375 L 7.96875 -19.703125 L 7.59375 -19.703125 C 7.09375 -19.703125 6.664062 -19.53125 6.3125 -19.1875 C 5.96875 -18.84375 5.785156 -18.421875 5.765625 -17.921875 L 5.765625 -2.078125 C 5.765625 -1.585938 5.941406 -1.164062 6.296875 -0.8125 C 6.660156 -0.457031 7.09375 -0.28125 7.59375 -0.28125 L 7.96875 -0.28125 L 7.96875 0 L 1.71875 0 L 1.71875 -0.28125 Z M 2.078125 -0.28125 "/></g></g></g><g fill="#eddede" fill-opacity="1"><g transform="translate(184.976227, 260.503633)"><g><path d="M 16.8125 -17.4375 C 16.8125 -17.894531 16.648438 -18.289062 16.328125 -18.625 C 16.003906 -18.957031 15.625 -19.132812 15.1875 -19.15625 L 9.765625 -19.15625 L 9.765625 -2.0625 C 9.785156 -1.5625 9.96875 -1.140625 10.3125 -0.796875 C 10.664062 -0.453125 11.09375 -0.28125 11.59375 -0.28125 L 11.96875 -0.28125 L 11.96875 0 L 5.703125 0 L 5.703125 -0.28125 L 6.078125 -0.28125 C 6.578125 -0.28125 7 -0.453125 7.34375 -0.796875 C 7.695312 -1.140625 7.882812 -1.550781 7.90625 -2.03125 L 7.90625 -19.15625 L 2.484375 -19.15625 C 2.023438 -19.132812 1.640625 -18.957031 1.328125 -18.625 C 1.015625 -18.289062 0.859375 -17.894531 0.859375 -17.4375 L 0.859375 -16.953125 L 0.578125 -16.921875 L 0.578125 -20.53125 C 0.859375 -20.414062 1.347656 -20.300781 2.046875 -20.1875 C 2.753906 -20.070312 3.40625 -20.015625 4 -20.015625 L 13.640625 -20.015625 C 14.578125 -20.015625 15.351562 -20.082031 15.96875 -20.21875 C 16.59375 -20.363281 16.96875 -20.46875 17.09375 -20.53125 L 17.09375 -16.921875 L 16.8125 -16.953125 Z M 16.8125 -17.4375 "/></g></g></g><g fill="#eddede" fill-opacity="1"><g transform="translate(201.388661, 260.503633)"><g><path d="M 19.21875 -19.703125 L 18.8125 -19.703125 C 18.238281 -19.703125 17.703125 -19.539062 17.203125 -19.21875 C 16.703125 -18.90625 16.28125 -18.515625 15.9375 -18.046875 L 10.3125 -8.90625 L 10.3125 -2.078125 C 10.3125 -1.585938 10.484375 -1.164062 10.828125 -0.8125 C 11.179688 -0.457031 11.617188 -0.28125 12.140625 -0.28125 L 12.484375 -0.28125 L 12.484375 0 L 6.25 0 L 6.25 -0.28125 L 6.625 -0.28125 C 7.125 -0.28125 7.546875 -0.453125 7.890625 -0.796875 C 8.242188 -1.140625 8.429688 -1.5625 8.453125 -2.0625 L 8.453125 -8.9375 L 3 -18.046875 C 2.71875 -18.503906 2.3125 -18.894531 1.78125 -19.21875 C 1.257812 -19.539062 0.710938 -19.703125 0.140625 -19.703125 L -0.25 -19.703125 L -0.25 -19.984375 L 6.765625 -19.984375 L 6.765625 -19.703125 L 6.390625 -19.703125 C 5.972656 -19.703125 5.648438 -19.507812 5.421875 -19.125 C 5.304688 -18.914062 5.25 -18.710938 5.25 -18.515625 C 5.25 -18.316406 5.296875 -18.117188 5.390625 -17.921875 L 9.6875 -9.9375 L 14.25 -17.953125 C 14.34375 -18.140625 14.390625 -18.328125 14.390625 -18.515625 C 14.390625 -18.710938 14.320312 -18.914062 14.1875 -19.125 C 13.957031 -19.507812 13.632812 -19.703125 13.21875 -19.703125 L 12.875 -19.703125 L 12.875 -19.984375 L 19.21875 -19.984375 Z M 19.21875 -19.703125 "/></g></g></g><g fill="#eddede" fill-opacity="1"><g transform="translate(219.028487, 260.503633)"><g><path d="M 20.4375 -0.28125 L 20.671875 -0.28125 L 20.671875 0 L 14.25 0 L 14.25 -0.28125 L 14.5 -0.28125 C 14.90625 -0.28125 15.207031 -0.410156 15.40625 -0.671875 C 15.601562 -0.929688 15.703125 -1.171875 15.703125 -1.390625 C 15.703125 -1.617188 15.664062 -1.847656 15.59375 -2.078125 L 13.765625 -6.9375 L 6.046875 -6.9375 L 4.140625 -2.0625 C 4.066406 -1.832031 4.03125 -1.609375 4.03125 -1.390625 C 4.03125 -1.171875 4.128906 -0.929688 4.328125 -0.671875 C 4.523438 -0.410156 4.828125 -0.28125 5.234375 -0.28125 L 5.484375 -0.28125 L 5.484375 0 L -0.25 0 L -0.25 -0.28125 L 0 -0.28125 C 0.476562 -0.28125 0.945312 -0.429688 1.40625 -0.734375 C 1.863281 -1.046875 2.234375 -1.492188 2.515625 -2.078125 L 8.96875 -17.4375 C 9.664062 -18.976562 10.015625 -19.957031 10.015625 -20.375 L 10.28125 -20.375 L 17.9375 -2.078125 C 18.195312 -1.492188 18.554688 -1.046875 19.015625 -0.734375 C 19.472656 -0.429688 19.945312 -0.28125 20.4375 -0.28125 Z M 6.390625 -7.796875 L 13.421875 -7.796875 L 10 -16.953125 Z M 6.390625 -7.796875 "/></g></g></g><g fill="#eddede" fill-opacity="1"><g transform="translate(166.352249, 209.121783)"><g><path d="M 27.949219 -49.785156 L 20.597656 -49.785156 L 4.441406 -3.785156 C 3.710938 -1.746094 2.328125 -0.507812 0 -0.582031 L 0 0 C 3.421875 0 8.734375 0 12.300781 0 L 12.300781 -0.582031 C 9.972656 -0.507812 8.589844 -1.089844 7.859375 -3.203125 C 7.714844 -3.710938 7.496094 -4.292969 7.351562 -4.804688 C 6.914062 -6.039062 6.988281 -7.132812 7.351562 -8.371094 L 8.878906 -12.445312 C 10.480469 -17.03125 16.375 -14.554688 19.214844 -13.539062 C 25.039062 -11.644531 29.1875 -12.738281 31.734375 -18.121094 L 36.683594 -4.074219 C 37.484375 -1.601562 36.320312 -0.507812 33.84375 -0.582031 L 33.84375 0 L 48.546875 0 L 48.546875 -0.582031 C 45.925781 -0.507812 44.6875 -1.820312 43.960938 -4.074219 Z M 31.296875 -19.578125 C 28.605469 -16.667969 24.890625 -18.488281 21.542969 -19.578125 C 16.738281 -21.179688 13.101562 -20.671875 10.554688 -17.394531 L 21.324219 -47.890625 Z M 31.296875 -19.578125 "/></g></g></g></svg>