<svg xmlns="http://www.w3.org/2000/svg" xmlns:xlink="http://www.w3.org/1999/xlink" width="500" zoomAndPan="magnify" viewBox="0 0 375 374.999991" height="500" preserveAspectRatio="xMidYMid meet" version="1.0"><defs><g/><clipPath id="e20ef8d45e"><path d="M 41.96875 189.667969 L 337.925781 189.667969 L 337.925781 224.253906 L 41.96875 224.253906 Z M 41.96875 189.667969 " clip-rule="nonzero"/></clipPath></defs><g fill="#eddede" fill-opacity="1"><g transform="translate(175.288147, 257.537137)"><g><path d="M 0.171875 0 L 0.171875 -1.703125 L 5.59375 -1.703125 C 9.101562 -1.703125 11.875 -2.660156 13.90625 -4.578125 C 15.9375 -6.503906 17.800781 -9.894531 19.5 -14.75 L 57.15625 -121.09375 L 68 -121.09375 L 109.21875 -11.53125 C 110.6875 -7.800781 112.210938 -5.226562 113.796875 -3.8125 C 115.378906 -2.40625 117.472656 -1.703125 120.078125 -1.703125 L 121.765625 -1.703125 L 121.765625 0 L 72.59375 0 L 72.59375 -1.703125 L 78.015625 -1.703125 C 81.859375 -1.703125 84.625 -2.179688 86.3125 -3.140625 C 88.007812 -4.097656 88.859375 -5.820312 88.859375 -8.3125 C 88.859375 -9.21875 88.742188 -10.316406 88.515625 -11.609375 C 88.296875 -12.910156 87.90625 -14.351562 87.34375 -15.9375 L 77.171875 -44.09375 L 31.890625 -44.09375 L 22.390625 -17.46875 C 21.816406 -15.769531 21.359375 -14.269531 21.015625 -12.96875 C 20.679688 -11.675781 20.515625 -10.460938 20.515625 -9.328125 C 20.515625 -6.503906 21.671875 -4.523438 23.984375 -3.390625 C 26.304688 -2.265625 30.070312 -1.703125 35.28125 -1.703125 L 41.375 -1.703125 L 41.375 0 Z M 32.390625 -45.796875 L 76.484375 -45.796875 L 64.609375 -78.359375 C 62.691406 -83.671875 60.828125 -89.007812 59.015625 -94.375 C 57.210938 -99.75 55.742188 -104.695312 54.609375 -109.21875 C 53.023438 -104.46875 51.46875 -99.941406 49.9375 -95.640625 C 48.414062 -91.347656 46.691406 -86.429688 44.765625 -80.890625 Z M 32.390625 -45.796875 "/></g></g></g><g fill="#eddede" fill-opacity="1"><g transform="translate(74.211806, 204.895226)"><g><path d="M 0.171875 0 L 0.171875 -1.703125 L 5.59375 -1.703125 C 9.101562 -1.703125 11.875 -2.660156 13.90625 -4.578125 C 15.9375 -6.503906 17.800781 -9.894531 19.5 -14.75 L 57.15625 -121.09375 L 68 -121.09375 L 109.21875 -11.53125 C 110.6875 -7.800781 112.210938 -5.226562 113.796875 -3.8125 C 115.378906 -2.40625 117.472656 -1.703125 120.078125 -1.703125 L 121.765625 -1.703125 L 121.765625 0 L 72.59375 0 L 72.59375 -1.703125 L 78.015625 -1.703125 C 81.859375 -1.703125 84.625 -2.179688 86.3125 -3.140625 C 88.007812 -4.097656 88.859375 -5.820312 88.859375 -8.3125 C 88.859375 -9.21875 88.742188 -10.316406 88.515625 -11.609375 C 88.296875 -12.910156 87.90625 -14.351562 87.34375 -15.9375 L 77.171875 -44.09375 L 31.890625 -44.09375 L 22.390625 -17.46875 C 21.816406 -15.769531 21.359375 -14.269531 21.015625 -12.96875 C 20.679688 -11.675781 20.515625 -10.460938 20.515625 -9.328125 C 20.515625 -6.503906 21.671875 -4.523438 23.984375 -3.390625 C 26.304688 -2.265625 30.070312 -1.703125 35.28125 -1.703125 L 41.375 -1.703125 L 41.375 0 Z M 32.390625 -45.796875 L 76.484375 -45.796875 L 64.609375 -78.359375 C 62.691406 -83.671875 60.828125 -89.007812 59.015625 -94.375 C 57.210938 -99.75 55.742188 -104.695312 54.609375 -109.21875 C 53.023438 -104.46875 51.46875 -99.941406 49.9375 -95.640625 C 48.414062 -91.347656 46.691406 -86.429688 44.765625 -80.890625 Z M 32.390625 -45.796875 "/></g></g></g><g fill="#eddede" fill-opacity="1"><g transform="translate(125.012205, 234.447842)"><g><path d="M 1.042969 0 L 1.539062 0 L 1.539062 -4.855469 L 0.351562 -4.730469 L 0.351562 -4.300781 L 1.042969 -4.300781 Z M 1.042969 0 "/></g></g></g><g fill="#eddede" fill-opacity="1"><g transform="translate(132.460116, 234.447842)"><g><path d="M 1.792969 -2.179688 C 1.488281 -2.179688 1.226562 -2.289062 1.007812 -2.511719 C 0.796875 -2.730469 0.691406 -2.992188 0.691406 -3.296875 C 0.691406 -3.59375 0.796875 -3.847656 1.015625 -4.066406 C 1.226562 -4.277344 1.488281 -4.382812 1.800781 -4.382812 C 2.097656 -4.382812 2.363281 -4.269531 2.589844 -4.050781 C 2.808594 -3.832031 2.921875 -3.578125 2.921875 -3.277344 C 2.921875 -2.980469 2.808594 -2.71875 2.582031 -2.507812 C 2.484375 -2.40625 2.363281 -2.324219 2.230469 -2.265625 C 2.089844 -2.210938 1.949219 -2.179688 1.792969 -2.179688 Z M 0.191406 -3.261719 C 0.191406 -2.796875 0.351562 -2.414062 0.683594 -2.117188 C 0.988281 -1.835938 1.375 -1.6875 1.863281 -1.671875 L 2.003906 -1.765625 L 0.535156 0 L 1.1875 0 L 3.0625 -2.265625 C 3.304688 -2.546875 3.425781 -2.886719 3.425781 -3.277344 C 3.425781 -3.71875 3.261719 -4.09375 2.949219 -4.40625 C 2.625 -4.714844 2.246094 -4.878906 1.808594 -4.878906 C 1.355469 -4.878906 0.972656 -4.722656 0.664062 -4.414062 C 0.515625 -4.265625 0.402344 -4.09375 0.316406 -3.902344 C 0.234375 -3.707031 0.191406 -3.496094 0.191406 -3.261719 Z M 0.191406 -3.261719 "/></g></g></g><g fill="#eddede" fill-opacity="1"><g transform="translate(141.496447, 234.447842)"><g><path d="M 1.792969 -2.179688 C 1.488281 -2.179688 1.226562 -2.289062 1.007812 -2.511719 C 0.796875 -2.730469 0.691406 -2.992188 0.691406 -3.296875 C 0.691406 -3.59375 0.796875 -3.847656 1.015625 -4.066406 C 1.226562 -4.277344 1.488281 -4.382812 1.800781 -4.382812 C 2.097656 -4.382812 2.363281 -4.269531 2.589844 -4.050781 C 2.808594 -3.832031 2.921875 -3.578125 2.921875 -3.277344 C 2.921875 -2.980469 2.808594 -2.71875 2.582031 -2.507812 C 2.484375 -2.40625 2.363281 -2.324219 2.230469 -2.265625 C 2.089844 -2.210938 1.949219 -2.179688 1.792969 -2.179688 Z M 0.191406 -3.261719 C 0.191406 -2.796875 0.351562 -2.414062 0.683594 -2.117188 C 0.988281 -1.835938 1.375 -1.6875 1.863281 -1.671875 L 2.003906 -1.765625 L 0.535156 0 L 1.1875 0 L 3.0625 -2.265625 C 3.304688 -2.546875 3.425781 -2.886719 3.425781 -3.277344 C 3.425781 -3.71875 3.261719 -4.09375 2.949219 -4.40625 C 2.625 -4.714844 2.246094 -4.878906 1.808594 -4.878906 C 1.355469 -4.878906 0.972656 -4.722656 0.664062 -4.414062 C 0.515625 -4.265625 0.402344 -4.09375 0.316406 -3.902344 C 0.234375 -3.707031 0.191406 -3.496094 0.191406 -3.261719 Z M 0.191406 -3.261719 "/></g></g></g><g fill="#eddede" fill-opacity="1"><g transform="translate(150.532778, 234.447842)"><g><path d="M 1.792969 -2.179688 C 1.488281 -2.179688 1.226562 -2.289062 1.007812 -2.511719 C 0.796875 -2.730469 0.691406 -2.992188 0.691406 -3.296875 C 0.691406 -3.59375 0.796875 -3.847656 1.015625 -4.066406 C 1.226562 -4.277344 1.488281 -4.382812 1.800781 -4.382812 C 2.097656 -4.382812 2.363281 -4.269531 2.589844 -4.050781 C 2.808594 -3.832031 2.921875 -3.578125 2.921875 -3.277344 C 2.921875 -2.980469 2.808594 -2.71875 2.582031 -2.507812 C 2.484375 -2.40625 2.363281 -2.324219 2.230469 -2.265625 C 2.089844 -2.210938 1.949219 -2.179688 1.792969 -2.179688 Z M 0.191406 -3.261719 C 0.191406 -2.796875 0.351562 -2.414062 0.683594 -2.117188 C 0.988281 -1.835938 1.375 -1.6875 1.863281 -1.671875 L 2.003906 -1.765625 L 0.535156 0 L 1.1875 0 L 3.0625 -2.265625 C 3.304688 -2.546875 3.425781 -2.886719 3.425781 -3.277344 C 3.425781 -3.71875 3.261719 -4.09375 2.949219 -4.40625 C 2.625 -4.714844 2.246094 -4.878906 1.808594 -4.878906 C 1.355469 -4.878906 0.972656 -4.722656 0.664062 -4.414062 C 0.515625 -4.265625 0.402344 -4.09375 0.316406 -3.902344 C 0.234375 -3.707031 0.191406 -3.496094 0.191406 -3.261719 Z M 0.191406 -3.261719 "/></g></g></g><g clip-path="url(#e20ef8d45e)"><path fill="#333333" d="M 41.96875 189.667969 L 337.703125 189.667969 L 337.703125 224.105469 L 41.96875 224.105469 Z M 41.96875 189.667969 " fill-opacity="1" fill-rule="nonzero"/></g><g fill="#eddede" fill-opacity="1"><g transform="translate(92.140882, 214.406738)"><g><path d="M 18.878906 -4.417969 C 19.550781 -5.558594 19.992188 -5.277344 20.941406 -5.058594 C 22.082031 -4.621094 23.148438 -4.210938 24.113281 -3.859375 C 24.421875 -3.742188 24.625 -3.496094 24.671875 -3.171875 C 24.917969 -1.375 25.300781 -0.425781 25.882812 -0.234375 C 25.988281 -0.191406 26.089844 -0.203125 26.175781 -0.25 C 26.265625 -0.292969 26.335938 -0.378906 26.367188 -0.46875 C 26.425781 -0.671875 26.324219 -0.890625 26.117188 -0.964844 C 25.871094 -1.054688 25.679688 -1.636719 25.53125 -2.53125 C 25.488281 -2.71875 25.5625 -2.910156 25.707031 -3.027344 C 25.839844 -3.144531 26.042969 -3.1875 26.21875 -3.128906 C 27.214844 -2.765625 28.269531 -2.542969 29.335938 -2.484375 C 29.421875 -2.484375 29.523438 -2.53125 29.597656 -2.601562 C 29.671875 -2.675781 29.699219 -2.777344 29.699219 -2.882812 C 29.699219 -2.984375 29.65625 -3.085938 29.582031 -3.144531 C 29.511719 -3.21875 29.410156 -3.261719 29.304688 -3.261719 C 28.121094 -3.347656 26.964844 -3.625 25.855469 -4.066406 C 25.53125 -4.167969 25.300781 -4.460938 25.269531 -4.796875 C 25.035156 -7.851562 25.007812 -11.960938 24.992188 -14.257812 C 24.976562 -17.460938 24.949219 -18.703125 24.800781 -19.054688 C 24.742188 -19.214844 24.597656 -19.316406 24.4375 -19.304688 C 24.261719 -19.289062 24.128906 -19.171875 24.085938 -19.011719 C 23.222656 -15.894531 22.15625 -12.839844 20.882812 -9.871094 C 20.457031 -8.90625 20.050781 -8.027344 19.625 -7.210938 C 19.433594 -6.828125 18.96875 -6.652344 18.570312 -6.800781 C 13.777344 -8.644531 8.292969 -10.617188 4.09375 -10.9375 C 2.472656 -11.054688 1.417969 -10.761719 0.964844 -10.074219 C 0.585938 -9.492188 0.65625 -8.714844 1.167969 -7.765625 C 2.777344 -4.824219 8.980469 -0.144531 13.320312 -0.144531 C 15.371094 -0.144531 17.257812 -1.945312 18.878906 -4.417969 Z M 3.378906 -10.191406 C 3.582031 -10.191406 3.800781 -10.191406 4.035156 -10.179688 C 8.027344 -9.871094 13.277344 -8.015625 17.929688 -6.230469 C 18.164062 -6.140625 18.351562 -5.9375 18.425781 -5.703125 C 18.511719 -5.453125 18.46875 -5.191406 18.339844 -4.972656 C 16.628906 -2.296875 14.929688 -0.921875 13.320312 -0.921875 C 9.578125 -0.921875 3.496094 -5.105469 1.84375 -8.128906 C 1.59375 -8.597656 1.34375 -9.242188 1.609375 -9.652344 C 1.828125 -10.003906 2.457031 -10.191406 3.378906 -10.191406 Z M 23.925781 -15.808594 C 24.027344 -16.117188 24.21875 -16.058594 24.21875 -15.71875 C 24.21875 -15.253906 24.21875 -14.753906 24.230469 -14.257812 C 24.246094 -10.660156 24.304688 -7.792969 24.4375 -5.617188 C 24.464844 -5.367188 24.347656 -5.148438 24.160156 -5 C 23.96875 -4.855469 23.71875 -4.824219 23.5 -4.914062 C 22.578125 -5.265625 21.585938 -5.644531 20.5625 -6.039062 L 19.992188 -6.257812 C 21.585938 -9.316406 22.902344 -12.519531 23.925781 -15.808594 Z M 23.925781 -15.808594 "/></g></g></g><g fill="#eddede" fill-opacity="1"><g transform="translate(122.603143, 214.406738)"><g><path d="M 13.835938 -3.347656 C 13.761719 -3.421875 13.671875 -3.453125 13.570312 -3.464844 C 13.46875 -3.464844 13.367188 -3.421875 13.292969 -3.347656 C 11.085938 -1.183594 7.867188 -0.4375 6.523438 -0.863281 C 5.382812 -1.226562 4.855469 -2.265625 4.621094 -3.363281 C 4.578125 -3.613281 4.621094 -3.847656 4.753906 -4.050781 C 6.507812 -7.035156 8.363281 -11.332031 7.722656 -12.371094 C 7.574219 -12.605469 7.3125 -12.722656 7.035156 -12.679688 C 5.410156 -12.472656 4.023438 -9.109375 3.742188 -6.113281 C 3.683594 -5.46875 3.683594 -4.839844 3.730469 -4.210938 C 3.742188 -4.007812 3.699219 -3.800781 3.582031 -3.625 C 3.496094 -3.480469 3.394531 -3.320312 3.289062 -3.171875 C 2.003906 -1.273438 1.125 -0.65625 0.761719 -0.703125 C 0.570312 -0.714844 0.410156 -0.847656 0.367188 -1.023438 C 0.21875 -1.769531 0.394531 -2.53125 0.820312 -3.144531 C 1.125 -3.507812 1.578125 -3.917969 2.019531 -3.832031 C 2.265625 -3.757812 2.472656 -3.566406 2.574219 -3.335938 C 2.617188 -3.128906 2.808594 -2.984375 3.011719 -3.011719 C 3.21875 -3.042969 3.363281 -3.230469 3.335938 -3.453125 C 3.1875 -3.976562 2.792969 -4.386719 2.265625 -4.546875 C 1.8125 -4.695312 1.082031 -4.636719 0.234375 -3.640625 C -0.234375 -3.101562 -0.703125 -1.667969 -0.351562 -0.746094 C -0.203125 -0.308594 0.191406 0 0.644531 0.0585938 C 0.6875 0.0585938 0.746094 0.0585938 0.789062 0.0585938 C 1.566406 0.0585938 2.542969 -0.773438 3.699219 -2.425781 C 3.742188 -2.484375 3.832031 -2.53125 3.917969 -2.515625 C 4.007812 -2.515625 4.078125 -2.457031 4.109375 -2.382812 C 4.429688 -1.316406 5.25 -0.484375 6.289062 -0.132812 C 8.015625 0.410156 11.523438 -0.554688 13.835938 -2.808594 C 13.980469 -2.953125 13.980469 -3.1875 13.835938 -3.347656 Z M 4.519531 -6.039062 C 4.753906 -8.714844 5.820312 -11.070312 6.726562 -11.742188 C 6.800781 -11.785156 6.902344 -11.800781 6.988281 -11.742188 C 7.0625 -11.699219 7.105469 -11.609375 7.105469 -11.523438 C 6.976562 -10.410156 6.1875 -8.410156 4.722656 -5.804688 C 4.488281 -5.425781 4.488281 -5.777344 4.519531 -6.039062 Z M 4.519531 -6.039062 "/></g></g></g><g fill="#eddede" fill-opacity="1"><g transform="translate(135.9048, 214.406738)"><g><path d="M 9.476562 -3.949219 C 9.316406 -4.09375 9.082031 -4.09375 8.933594 -3.933594 C 8.875 -3.890625 4.136719 0.9375 0.996094 -1.359375 C 0.0273438 -2.0625 0.964844 -3.890625 0.980469 -3.90625 C 1.066406 -4.09375 0.996094 -4.3125 0.804688 -4.417969 C 0.613281 -4.503906 0.394531 -4.445312 0.292969 -4.253906 C 0.234375 -4.167969 -0.949219 -1.84375 0.542969 -0.746094 C 1.226562 -0.234375 2.078125 0.0429688 2.9375 0.0273438 C 6.097656 0.0273438 9.300781 -3.230469 9.476562 -3.40625 C 9.550781 -3.480469 9.59375 -3.566406 9.59375 -3.671875 C 9.578125 -3.773438 9.550781 -3.875 9.476562 -3.949219 Z M 0.132812 -5.105469 C 0.191406 -5.105469 0.25 -5.117188 0.308594 -5.148438 C 0.65625 -5.324219 0.964844 -5.558594 1.242188 -5.835938 C 1.390625 -5.996094 1.375 -6.230469 1.226562 -6.375 C 1.066406 -6.523438 0.832031 -6.523438 0.6875 -6.359375 C 0.46875 -6.140625 0.21875 -5.964844 -0.0585938 -5.820312 C -0.203125 -5.746094 -0.292969 -5.558594 -0.25 -5.394531 C -0.203125 -5.21875 -0.0429688 -5.105469 0.132812 -5.105469 Z M 0.132812 -5.105469 "/></g></g></g><g fill="#eddede" fill-opacity="1"><g transform="translate(144.879771, 214.406738)"><g><path d="M 10.03125 -3.976562 C 9.886719 -4.125 9.636719 -4.125 9.492188 -3.964844 C 9.460938 -3.933594 5.5 0.0585938 2.867188 -0.9375 C 1.695312 -1.390625 1.199219 -2.75 1.007812 -4.09375 C 1.273438 -4.738281 1.710938 -5.804688 2.121094 -7.003906 C 2.164062 -7.152344 2.207031 -7.164062 2.382812 -7.179688 C 4.359375 -7.328125 6.316406 -7.398438 7.472656 -7.398438 C 7.691406 -7.398438 7.851562 -7.574219 7.851562 -7.78125 C 7.851562 -8 7.691406 -8.160156 7.472656 -8.160156 C 6.359375 -8.160156 4.535156 -8.074219 2.660156 -7.96875 C 2.589844 -7.957031 2.457031 -8 2.558594 -8.261719 C 3.261719 -10.265625 3.757812 -12.296875 3.453125 -12.914062 C 3.144531 -13.527344 2.734375 -13.542969 2.53125 -13.496094 C 1.449219 -13.292969 0.65625 -10.484375 0.308594 -8.1875 C 0.277344 -7.984375 0.175781 -7.808594 -0.015625 -7.792969 C -2.308594 -7.617188 -4.195312 -7.488281 -4.226562 -7.488281 C -4.445312 -7.472656 -4.605469 -7.296875 -4.59375 -7.078125 C -4.59375 -6.875 -4.417969 -6.699219 -4.195312 -6.710938 L -4.167969 -6.710938 C -4.125 -6.710938 -2.355469 -6.84375 -0.144531 -7.003906 C -0.0742188 -7.019531 0 -7.003906 0.0585938 -6.945312 C 0.117188 -6.902344 0.160156 -6.828125 0.160156 -6.757812 C -0.0585938 -3.277344 0.820312 -0.890625 2.589844 -0.21875 C 2.96875 -0.0859375 3.363281 -0.015625 3.773438 -0.015625 C 6.667969 -0.015625 9.886719 -3.277344 10.046875 -3.421875 C 10.121094 -3.496094 10.148438 -3.597656 10.148438 -3.699219 C 10.148438 -3.800781 10.105469 -3.90625 10.03125 -3.976562 Z M 1.082031 -8.21875 C 1.417969 -10.441406 2.089844 -12.195312 2.484375 -12.648438 C 2.53125 -12.679688 2.589844 -12.695312 2.648438 -12.679688 C 2.691406 -12.664062 2.734375 -12.636719 2.765625 -12.578125 C 2.9375 -12.195312 2.441406 -10.339844 1.695312 -8.128906 C 1.667969 -8 1.566406 -7.898438 1.417969 -7.882812 C 1.34375 -7.867188 1.273438 -7.867188 1.183594 -7.867188 C 1.039062 -7.867188 1.066406 -8.101562 1.082031 -8.203125 Z M 0.90625 -5.921875 C 0.761719 -5.921875 0.820312 -6.945312 0.949219 -7.09375 C 1.066406 -7.164062 1.214844 -7.179688 1.332031 -7.105469 C 1.460938 -6.988281 1.066406 -5.921875 0.90625 -5.921875 Z M 0.90625 -5.921875 "/></g></g></g><g fill="#eddede" fill-opacity="1"><g transform="translate(154.220169, 214.406738)"><g><path d="M 11.566406 -4.023438 C 11.40625 -4.167969 11.171875 -4.167969 11.027344 -4.023438 C 10.9375 -3.933594 9.023438 -2.03125 6.433594 -3.933594 C 6.289062 -4.035156 6.097656 -4.035156 5.953125 -3.90625 C 5.71875 -3.699219 5.46875 -3.453125 5.207031 -3.1875 C 5.105469 -3.070312 4.929688 -3.027344 4.78125 -3.085938 C 4.636719 -3.144531 4.535156 -3.277344 4.519531 -3.4375 C 4.519531 -3.742188 4.476562 -4.050781 4.371094 -4.34375 C 4.3125 -4.503906 4.152344 -4.605469 3.976562 -4.578125 C 3.800781 -4.5625 3.671875 -4.429688 3.640625 -4.269531 C 3.640625 -4.242188 3.171875 -1.652344 1.183594 -1.125 C 1.007812 -1.066406 0.820312 -1.113281 0.6875 -1.242188 C 0.570312 -1.375 0.234375 -1.960938 0.996094 -3.816406 C 1.066406 -4.023438 0.980469 -4.242188 0.773438 -4.3125 C 0.585938 -4.402344 0.351562 -4.300781 0.277344 -4.109375 C -0.542969 -2.089844 -0.261719 -1.15625 0.101562 -0.730469 C 0.425781 -0.378906 0.921875 -0.25 1.375 -0.394531 C 2.398438 -0.671875 3.246094 -1.375 3.730469 -2.308594 C 3.714844 -2.03125 3.671875 -1.753906 3.625 -1.460938 C 3.613281 -1.402344 3.582031 -1.332031 3.539062 -1.273438 C 1.828125 0.878906 0.277344 3.507812 0.25 5.164062 C 0.203125 5.601562 0.367188 6.039062 0.671875 6.375 C 0.804688 6.507812 0.980469 6.59375 1.167969 6.59375 C 1.332031 6.582031 1.492188 6.535156 1.625 6.449219 C 2.589844 5.804688 3.816406 2.0625 4.300781 -0.921875 C 4.3125 -0.996094 4.34375 -1.054688 4.386719 -1.113281 C 4.839844 -1.667969 5.308594 -2.195312 5.777344 -2.660156 C 6.039062 -2.9375 6.433594 -2.996094 6.769531 -2.824219 C 8.351562 -1.988281 10.28125 -2.253906 11.566406 -3.480469 C 11.640625 -3.554688 11.683594 -3.65625 11.683594 -3.757812 C 11.683594 -3.859375 11.640625 -3.949219 11.566406 -4.023438 Z M 3.21875 0.671875 C 2.894531 2.136719 2.425781 3.539062 1.8125 4.898438 C 1.476562 5.570312 1.332031 5.835938 1.183594 5.804688 C 1.054688 5.789062 1.007812 5.46875 1.023438 5.175781 C 1.039062 4.109375 1.914062 2.355469 3.085938 0.644531 C 3.160156 0.542969 3.246094 0.570312 3.21875 0.671875 Z M 3.21875 0.671875 "/></g></g></g><g fill="#eddede" fill-opacity="1"><g transform="translate(165.080759, 214.406738)"><g><path d="M 12.226562 -3.539062 C 12.078125 -3.699219 11.832031 -3.714844 11.667969 -3.566406 C 11.625 -3.523438 7.28125 0.378906 4.59375 -1.390625 C 3.523438 -2.089844 3.261719 -3.789062 3.261719 -3.800781 C 3.246094 -3.976562 3.113281 -4.109375 2.9375 -4.136719 C 2.777344 -4.152344 2.601562 -4.066406 2.53125 -3.917969 C 1.84375 -2.398438 0.628906 -0.46875 0.292969 -0.6875 C 0.261719 -0.6875 0.203125 -0.746094 0.160156 -0.847656 C -0.015625 -1.332031 0.0429688 -1.855469 0.292969 -2.308594 C 0.847656 -3.453125 1.871094 -4.269531 3.101562 -4.578125 C 3.230469 -4.605469 3.335938 -4.707031 3.378906 -4.839844 C 3.421875 -4.972656 3.378906 -5.117188 3.289062 -5.21875 C 3.1875 -5.308594 3.054688 -5.351562 2.925781 -5.324219 C 1.460938 -4.972656 0.25 -3.976562 -0.410156 -2.632812 C -0.761719 -1.972656 -0.804688 -1.183594 -0.527344 -0.496094 C -0.394531 -0.160156 -0.0742188 0.0742188 0.292969 0.0742188 L 0.308594 0.0742188 C 1.023438 0.0585938 1.914062 -0.832031 2.53125 -1.796875 C 2.601562 -1.914062 2.734375 -1.972656 2.867188 -1.960938 C 2.996094 -1.960938 3.113281 -1.886719 3.171875 -1.769531 C 3.421875 -1.359375 3.757812 -1.007812 4.167969 -0.761719 C 7.355469 1.359375 11.992188 -2.824219 12.195312 -2.996094 C 12.269531 -3.070312 12.3125 -3.171875 12.3125 -3.261719 C 12.328125 -3.363281 12.285156 -3.464844 12.226562 -3.539062 Z M 12.226562 -3.539062 "/></g></g></g><g fill="#eddede" fill-opacity="1"><g transform="translate(176.891467, 214.406738)"><g/></g></g><g fill="#eddede" fill-opacity="1"><g transform="translate(182.329071, 214.406738)"><g><path d="M 18.878906 -4.417969 C 19.550781 -5.558594 19.992188 -5.277344 20.941406 -5.058594 C 22.082031 -4.621094 23.148438 -4.210938 24.113281 -3.859375 C 24.421875 -3.742188 24.625 -3.496094 24.671875 -3.171875 C 24.917969 -1.375 25.300781 -0.425781 25.882812 -0.234375 C 25.988281 -0.191406 26.089844 -0.203125 26.175781 -0.25 C 26.265625 -0.292969 26.335938 -0.378906 26.367188 -0.46875 C 26.425781 -0.671875 26.324219 -0.890625 26.117188 -0.964844 C 25.871094 -1.054688 25.679688 -1.636719 25.53125 -2.53125 C 25.488281 -2.71875 25.5625 -2.910156 25.707031 -3.027344 C 25.839844 -3.144531 26.042969 -3.1875 26.21875 -3.128906 C 27.214844 -2.765625 28.269531 -2.542969 29.335938 -2.484375 C 29.421875 -2.484375 29.523438 -2.53125 29.597656 -2.601562 C 29.671875 -2.675781 29.699219 -2.777344 29.699219 -2.882812 C 29.699219 -2.984375 29.65625 -3.085938 29.582031 -3.144531 C 29.511719 -3.21875 29.410156 -3.261719 29.304688 -3.261719 C 28.121094 -3.347656 26.964844 -3.625 25.855469 -4.066406 C 25.53125 -4.167969 25.300781 -4.460938 25.269531 -4.796875 C 25.035156 -7.851562 25.007812 -11.960938 24.992188 -14.257812 C 24.976562 -17.460938 24.949219 -18.703125 24.800781 -19.054688 C 24.742188 -19.214844 24.597656 -19.316406 24.4375 -19.304688 C 24.261719 -19.289062 24.128906 -19.171875 24.085938 -19.011719 C 23.222656 -15.894531 22.15625 -12.839844 20.882812 -9.871094 C 20.457031 -8.90625 20.050781 -8.027344 19.625 -7.210938 C 19.433594 -6.828125 18.96875 -6.652344 18.570312 -6.800781 C 13.777344 -8.644531 8.292969 -10.617188 4.09375 -10.9375 C 2.472656 -11.054688 1.417969 -10.761719 0.964844 -10.074219 C 0.585938 -9.492188 0.65625 -8.714844 1.167969 -7.765625 C 2.777344 -4.824219 8.980469 -0.144531 13.320312 -0.144531 C 15.371094 -0.144531 17.257812 -1.945312 18.878906 -4.417969 Z M 3.378906 -10.191406 C 3.582031 -10.191406 3.800781 -10.191406 4.035156 -10.179688 C 8.027344 -9.871094 13.277344 -8.015625 17.929688 -6.230469 C 18.164062 -6.140625 18.351562 -5.9375 18.425781 -5.703125 C 18.511719 -5.453125 18.46875 -5.191406 18.339844 -4.972656 C 16.628906 -2.296875 14.929688 -0.921875 13.320312 -0.921875 C 9.578125 -0.921875 3.496094 -5.105469 1.84375 -8.128906 C 1.59375 -8.597656 1.34375 -9.242188 1.609375 -9.652344 C 1.828125 -10.003906 2.457031 -10.191406 3.378906 -10.191406 Z M 23.925781 -15.808594 C 24.027344 -16.117188 24.21875 -16.058594 24.21875 -15.71875 C 24.21875 -15.253906 24.21875 -14.753906 24.230469 -14.257812 C 24.246094 -10.660156 24.304688 -7.792969 24.4375 -5.617188 C 24.464844 -5.367188 24.347656 -5.148438 24.160156 -5 C 23.96875 -4.855469 23.71875 -4.824219 23.5 -4.914062 C 22.578125 -5.265625 21.585938 -5.644531 20.5625 -6.039062 L 19.992188 -6.257812 C 21.585938 -9.316406 22.902344 -12.519531 23.925781 -15.808594 Z M 23.925781 -15.808594 "/></g></g></g><g fill="#eddede" fill-opacity="1"><g transform="translate(212.791331, 214.406738)"><g><path d="M 13.835938 -3.347656 C 13.761719 -3.421875 13.671875 -3.453125 13.570312 -3.464844 C 13.46875 -3.464844 13.367188 -3.421875 13.292969 -3.347656 C 11.085938 -1.183594 7.867188 -0.4375 6.523438 -0.863281 C 5.382812 -1.226562 4.855469 -2.265625 4.621094 -3.363281 C 4.578125 -3.613281 4.621094 -3.847656 4.753906 -4.050781 C 6.507812 -7.035156 8.363281 -11.332031 7.722656 -12.371094 C 7.574219 -12.605469 7.3125 -12.722656 7.035156 -12.679688 C 5.410156 -12.472656 4.023438 -9.109375 3.742188 -6.113281 C 3.683594 -5.46875 3.683594 -4.839844 3.730469 -4.210938 C 3.742188 -4.007812 3.699219 -3.800781 3.582031 -3.625 C 3.496094 -3.480469 3.394531 -3.320312 3.289062 -3.171875 C 2.003906 -1.273438 1.125 -0.65625 0.761719 -0.703125 C 0.570312 -0.714844 0.410156 -0.847656 0.367188 -1.023438 C 0.21875 -1.769531 0.394531 -2.53125 0.820312 -3.144531 C 1.125 -3.507812 1.578125 -3.917969 2.019531 -3.832031 C 2.265625 -3.757812 2.472656 -3.566406 2.574219 -3.335938 C 2.617188 -3.128906 2.808594 -2.984375 3.011719 -3.011719 C 3.21875 -3.042969 3.363281 -3.230469 3.335938 -3.453125 C 3.1875 -3.976562 2.792969 -4.386719 2.265625 -4.546875 C 1.8125 -4.695312 1.082031 -4.636719 0.234375 -3.640625 C -0.234375 -3.101562 -0.703125 -1.667969 -0.351562 -0.746094 C -0.203125 -0.308594 0.191406 0 0.644531 0.0585938 C 0.6875 0.0585938 0.746094 0.0585938 0.789062 0.0585938 C 1.566406 0.0585938 2.542969 -0.773438 3.699219 -2.425781 C 3.742188 -2.484375 3.832031 -2.53125 3.917969 -2.515625 C 4.007812 -2.515625 4.078125 -2.457031 4.109375 -2.382812 C 4.429688 -1.316406 5.25 -0.484375 6.289062 -0.132812 C 8.015625 0.410156 11.523438 -0.554688 13.835938 -2.808594 C 13.980469 -2.953125 13.980469 -3.1875 13.835938 -3.347656 Z M 4.519531 -6.039062 C 4.753906 -8.714844 5.820312 -11.070312 6.726562 -11.742188 C 6.800781 -11.785156 6.902344 -11.800781 6.988281 -11.742188 C 7.0625 -11.699219 7.105469 -11.609375 7.105469 -11.523438 C 6.976562 -10.410156 6.1875 -8.410156 4.722656 -5.804688 C 4.488281 -5.425781 4.488281 -5.777344 4.519531 -6.039062 Z M 4.519531 -6.039062 "/></g></g></g><g fill="#eddede" fill-opacity="1"><g transform="translate(226.092989, 214.406738)"><g><path d="M 11.539062 -3.496094 C 11.390625 -3.65625 11.15625 -3.671875 10.996094 -3.523438 C 10.96875 -3.507812 7.957031 -0.878906 5.746094 -1.226562 C 5.089844 -1.332031 4.519531 -1.726562 4.195312 -2.308594 C 3.917969 -2.824219 3.40625 -3.144531 2.835938 -3.203125 C 2.121094 -3.246094 1.332031 -2.824219 0.496094 -1.945312 C 0.453125 -1.902344 0.378906 -1.886719 0.320312 -1.914062 C 0.261719 -1.945312 0.234375 -2.003906 0.25 -2.078125 C 0.292969 -2.355469 0.425781 -3.054688 0.484375 -3.320312 C 0.484375 -3.277344 0.585938 -3.480469 0.585938 -3.496094 C 1.828125 -5.191406 5.542969 -10.574219 4.09375 -12.296875 C 3.90625 -12.5625 3.554688 -12.679688 3.230469 -12.589844 C 2.9375 -12.503906 2.046875 -12.226562 0.671875 -7.339844 C 0.335938 -6.15625 0.0273438 -4.882812 -0.21875 -3.683594 L -0.320312 -3.554688 C -0.425781 -3.421875 -0.425781 -3.246094 -0.335938 -3.101562 C -0.554688 -2.019531 -0.703125 -1.023438 -0.773438 -0.261719 C -0.789062 -0.0859375 -0.6875 0.0742188 -0.527344 0.132812 C -0.367188 0.191406 -0.175781 0.132812 -0.0742188 -0.015625 C 1.417969 -2.179688 2.367188 -2.457031 2.792969 -2.441406 C 3.101562 -2.414062 3.378906 -2.222656 3.523438 -1.945312 C 3.964844 -1.15625 4.738281 -0.597656 5.644531 -0.46875 C 8.1875 -0.0742188 11.363281 -2.835938 11.507812 -2.953125 C 11.65625 -3.101562 11.667969 -3.335938 11.539062 -3.496094 Z M 3.453125 -11.859375 C 3.480469 -11.859375 3.496094 -11.816406 3.507812 -11.800781 C 4.210938 -11.011719 1.300781 -5.132812 0.9375 -5.367188 C 0.585938 -5.585938 2.835938 -11.859375 3.453125 -11.859375 Z M 3.453125 -11.859375 "/></g></g></g><g fill="#eddede" fill-opacity="1"><g transform="translate(237.1436, 214.406738)"><g><path d="M 9.476562 -3.949219 C 9.316406 -4.09375 9.082031 -4.09375 8.933594 -3.933594 C 8.875 -3.890625 4.136719 0.9375 0.996094 -1.359375 C 0.0273438 -2.0625 0.964844 -3.890625 0.980469 -3.90625 C 1.066406 -4.09375 0.996094 -4.3125 0.804688 -4.417969 C 0.613281 -4.503906 0.394531 -4.445312 0.292969 -4.253906 C 0.234375 -4.167969 -0.949219 -1.84375 0.542969 -0.746094 C 1.226562 -0.234375 2.078125 0.0429688 2.9375 0.0273438 C 6.097656 0.0273438 9.300781 -3.230469 9.476562 -3.40625 C 9.550781 -3.480469 9.59375 -3.566406 9.59375 -3.671875 C 9.578125 -3.773438 9.550781 -3.875 9.476562 -3.949219 Z M 0.132812 -5.105469 C 0.191406 -5.105469 0.25 -5.117188 0.308594 -5.148438 C 0.65625 -5.324219 0.964844 -5.558594 1.242188 -5.835938 C 1.390625 -5.996094 1.375 -6.230469 1.226562 -6.375 C 1.066406 -6.523438 0.832031 -6.523438 0.6875 -6.359375 C 0.46875 -6.140625 0.21875 -5.964844 -0.0585938 -5.820312 C -0.203125 -5.746094 -0.292969 -5.558594 -0.25 -5.394531 C -0.203125 -5.21875 -0.0429688 -5.105469 0.132812 -5.105469 Z M 0.132812 -5.105469 "/></g></g></g><g fill="#eddede" fill-opacity="1"><g transform="translate(246.118571, 214.406738)"><g><path d="M 12.078125 -3.464844 C 11.933594 -3.613281 11.683594 -3.625 11.523438 -3.480469 C 9.109375 -1.140625 4.269531 -0.671875 2.675781 -1.332031 C 2.441406 -1.433594 2.296875 -1.550781 2.28125 -1.636719 C 2.28125 -1.84375 2.691406 -2.382812 4.269531 -3.128906 C 4.605469 -3.21875 4.972656 -3.335938 4.988281 -3.671875 C 4.972656 -3.847656 4.871094 -4.023438 4.695312 -4.078125 C 4.210938 -4.242188 2.484375 -3.757812 0.730469 -1.988281 C 0.671875 -1.929688 0.570312 -1.914062 0.496094 -1.945312 C 0.410156 -1.988281 0.367188 -2.078125 0.378906 -2.164062 C 0.425781 -2.5 0.453125 -2.824219 0.496094 -3.144531 C 0.496094 -3.160156 0.511719 -3.160156 0.511719 -3.171875 C 1.609375 -4.929688 5.089844 -10.792969 4.09375 -12.167969 C 3.816406 -12.503906 3.363281 -12.636719 2.953125 -12.472656 C 0.761719 -11.933594 -0.0859375 -5.703125 -0.570312 -0.320312 C -0.585938 -0.144531 -0.484375 0.015625 -0.320312 0.0742188 C -0.160156 0.132812 0.015625 0.0742188 0.117188 -0.0742188 C 0.496094 -0.613281 0.921875 -1.125 1.402344 -1.578125 C 1.460938 -1.652344 1.519531 -1.636719 1.519531 -1.625 C 1.519531 -1.316406 1.683594 -0.90625 2.382812 -0.613281 C 4.183594 0.117188 9.386719 -0.335938 12.066406 -2.925781 C 12.136719 -2.996094 12.179688 -3.085938 12.179688 -3.1875 C 12.179688 -3.289062 12.136719 -3.394531 12.078125 -3.464844 Z M 3.144531 -11.726562 C 3.203125 -11.742188 3.277344 -11.757812 3.347656 -11.757812 C 3.40625 -11.757812 3.453125 -11.742188 3.464844 -11.714844 C 3.773438 -11.304688 2.996094 -9.082031 1.257812 -5.9375 C 1.214844 -5.863281 1.113281 -5.835938 1.039062 -5.863281 C 0.949219 -5.894531 0.890625 -5.980469 0.90625 -6.070312 C 1.636719 -10.339844 2.484375 -11.566406 3.144531 -11.726562 Z M 3.144531 -11.726562 "/></g></g></g><g fill="#eddede" fill-opacity="1"><g transform="translate(257.636934, 214.406738)"><g><path d="M 12.226562 -3.539062 C 12.078125 -3.699219 11.832031 -3.714844 11.667969 -3.566406 C 11.625 -3.523438 7.28125 0.378906 4.59375 -1.390625 C 3.523438 -2.089844 3.261719 -3.789062 3.261719 -3.800781 C 3.246094 -3.976562 3.113281 -4.109375 2.9375 -4.136719 C 2.777344 -4.152344 2.601562 -4.066406 2.53125 -3.917969 C 1.84375 -2.398438 0.628906 -0.46875 0.292969 -0.6875 C 0.261719 -0.6875 0.203125 -0.746094 0.160156 -0.847656 C -0.015625 -1.332031 0.0429688 -1.855469 0.292969 -2.308594 C 0.847656 -3.453125 1.871094 -4.269531 3.101562 -4.578125 C 3.230469 -4.605469 3.335938 -4.707031 3.378906 -4.839844 C 3.421875 -4.972656 3.378906 -5.117188 3.289062 -5.21875 C 3.1875 -5.308594 3.054688 -5.351562 2.925781 -5.324219 C 1.460938 -4.972656 0.25 -3.976562 -0.410156 -2.632812 C -0.761719 -1.972656 -0.804688 -1.183594 -0.527344 -0.496094 C -0.394531 -0.160156 -0.0742188 0.0742188 0.292969 0.0742188 L 0.308594 0.0742188 C 1.023438 0.0585938 1.914062 -0.832031 2.53125 -1.796875 C 2.601562 -1.914062 2.734375 -1.972656 2.867188 -1.960938 C 2.996094 -1.960938 3.113281 -1.886719 3.171875 -1.769531 C 3.421875 -1.359375 3.757812 -1.007812 4.167969 -0.761719 C 7.355469 1.359375 11.992188 -2.824219 12.195312 -2.996094 C 12.269531 -3.070312 12.3125 -3.171875 12.3125 -3.261719 C 12.328125 -3.363281 12.285156 -3.464844 12.226562 -3.539062 Z M 12.226562 -3.539062 "/></g></g></g><g fill="#eddede" fill-opacity="1"><g transform="translate(269.447642, 214.406738)"><g><path d="M 9.476562 -3.949219 C 9.316406 -4.09375 9.082031 -4.09375 8.933594 -3.933594 C 8.875 -3.890625 4.136719 0.9375 0.996094 -1.359375 C 0.0273438 -2.0625 0.964844 -3.890625 0.980469 -3.90625 C 1.066406 -4.09375 0.996094 -4.3125 0.804688 -4.417969 C 0.613281 -4.503906 0.394531 -4.445312 0.292969 -4.253906 C 0.234375 -4.167969 -0.949219 -1.84375 0.542969 -0.746094 C 1.226562 -0.234375 2.078125 0.0429688 2.9375 0.0273438 C 6.097656 0.0273438 9.300781 -3.230469 9.476562 -3.40625 C 9.550781 -3.480469 9.59375 -3.566406 9.59375 -3.671875 C 9.578125 -3.773438 9.550781 -3.875 9.476562 -3.949219 Z M 0.132812 -5.105469 C 0.191406 -5.105469 0.25 -5.117188 0.308594 -5.148438 C 0.65625 -5.324219 0.964844 -5.558594 1.242188 -5.835938 C 1.390625 -5.996094 1.375 -6.230469 1.226562 -6.375 C 1.066406 -6.523438 0.832031 -6.523438 0.6875 -6.359375 C 0.46875 -6.140625 0.21875 -5.964844 -0.0585938 -5.820312 C -0.203125 -5.746094 -0.292969 -5.558594 -0.25 -5.394531 C -0.203125 -5.21875 -0.0429688 -5.105469 0.132812 -5.105469 Z M 0.132812 -5.105469 "/></g></g></g></svg>