<svg xmlns="http://www.w3.org/2000/svg" xmlns:xlink="http://www.w3.org/1999/xlink" width="500" zoomAndPan="magnify" viewBox="0 0 375 374.999991" height="500" preserveAspectRatio="xMidYMid meet" version="1.0"><defs><g/><clipPath id="0166c90e07"><path d="M 135.253906 204 L 313.753906 204 L 313.753906 223 L 135.253906 223 Z M 135.253906 204 " clip-rule="nonzero"/></clipPath></defs><g clip-path="url(#0166c90e07)"><path fill="#eddede" d="M 135.253906 204.25 C 136.671875 205.222656 136.472656 205.773438 137.363281 206.066406 C 142.496094 207.652344 149.175781 212.226562 151.777344 213.878906 C 194.230469 240.464844 242.902344 195.65625 312.109375 215.46875 C 312.703125 215.628906 314.480469 215.242188 313.425781 213.75 C 303.785156 209.730469 293.320312 206 271.796875 205.644531 C 248.070312 205.222656 201.304688 220.007812 180.933594 219.488281 C 154.507812 218.808594 145.359375 203.179688 135.289062 204.28125 Z M 135.253906 204.25 " fill-opacity="1" fill-rule="evenodd"/></g><g fill="#eddede" fill-opacity="1"><g transform="translate(31.819913, 242.932499)"><g><path d="M 120.097656 12.769531 C 119.773438 12.769531 119.613281 12.929688 119.453125 13.417969 C 119.289062 13.738281 118.96875 13.902344 118.644531 13.902344 C 118.480469 13.902344 118.480469 13.902344 118.320312 13.738281 L 118.320312 13.902344 C 117.996094 13.902344 117.835938 13.738281 117.835938 13.578125 C 117.835938 13.417969 117.835938 13.09375 117.996094 12.929688 C 117.996094 12.929688 117.835938 12.929688 117.675781 12.769531 L 117.511719 12.769531 C 116.703125 12.929688 116.21875 13.578125 115.734375 14.386719 C 115.25 15.195312 114.601562 15.679688 113.632812 15.679688 C 101.832031 15.679688 98.921875 -17.941406 98.921875 -26.507812 C 98.921875 -28.125 98.921875 -29.742188 99.085938 -31.359375 L 99.085938 -36.046875 L 103.609375 -79.527344 C 103.609375 -84.539062 102.480469 -89.871094 97.46875 -89.871094 C 96.984375 -89.871094 96.5 -89.710938 96.015625 -89.386719 C 95.527344 -88.902344 95.207031 -88.742188 94.722656 -88.742188 C 98.4375 -95.367188 102.480469 -103.125 102.480469 -110.886719 C 102.480469 -118.644531 95.207031 -122.683594 87.609375 -122.683594 C 77.75 -122.683594 67.890625 -118.160156 59.644531 -113.148438 L 59.160156 -113.148438 C 54.796875 -115.25 51.238281 -116.703125 46.550781 -116.703125 C 26.671875 -116.703125 14.710938 -91.328125 14.710938 -72.738281 C 14.710938 -64.171875 16.648438 -57.382812 22.953125 -51.078125 L 21.011719 -37.824219 C 20.527344 -35.074219 20.527344 -32.167969 20.527344 -29.09375 C 20.527344 -16.972656 24.40625 0.160156 37.984375 0.160156 C 48.007812 0.160156 57.382812 -10.023438 62.230469 -18.425781 L 68.375 -29.09375 L 86.640625 -69.503906 C 89.226562 -75.164062 92.941406 -82.113281 98.117188 -85.992188 C 98.4375 -85.992188 98.601562 -85.667969 98.601562 -85.023438 C 98.761719 -84.699219 98.761719 -84.375 98.761719 -83.890625 L 98.761719 -78.234375 L 94.882812 -44.9375 C 95.042969 -42.1875 95.042969 -39.277344 94.722656 -36.367188 C 94.234375 -33.296875 94.074219 -30.386719 94.074219 -27.480469 C 94.074219 -26.023438 94.234375 -24.40625 94.398438 -22.953125 C 94.558594 -21.335938 94.558594 -19.71875 94.398438 -18.265625 C 95.527344 -6.949219 98.761719 18.75 112.5 18.75 C 113.308594 18.75 116.542969 18.589844 116.542969 17.296875 C 118.480469 17.296875 120.421875 15.195312 120.421875 13.253906 C 120.421875 12.929688 120.261719 12.769531 120.097656 12.769531 Z M 60.453125 -108.460938 C 62.230469 -106.519531 64.007812 -94.722656 65.464844 -93.265625 L 65.625 -93.105469 C 66.109375 -93.75 66.273438 -94.398438 66.273438 -95.042969 C 66.109375 -95.691406 66.273438 -96.335938 66.757812 -96.984375 L 66.757812 -94.558594 C 66.59375 -94.074219 66.59375 -93.589844 66.59375 -93.105469 C 67.890625 -93.914062 67.726562 -96.824219 67.726562 -98.117188 C 67.726562 -102.480469 65.789062 -106.683594 63.039062 -110.078125 C 65.789062 -113.792969 70.152344 -113.472656 74.515625 -116.21875 C 79.527344 -118.160156 84.539062 -119.9375 90.195312 -119.9375 C 95.851562 -119.9375 99.570312 -117.1875 99.570312 -111.371094 C 99.570312 -86.800781 69.34375 -60.9375 47.523438 -53.019531 C 42.511719 -51.238281 37.824219 -50.269531 33.460938 -50.269531 C 32.003906 -50.269531 28.125 -50.753906 28.125 -51.886719 L 28.125 -52.210938 L 30.550781 -61.90625 L 35.882812 -76.617188 C 38.632812 -84.375 43.964844 -91.972656 49.136719 -98.277344 C 51.886719 -101.511719 57.21875 -108.460938 60.453125 -108.460938 Z M 95.691406 -119.613281 C 95.851562 -119.613281 95.851562 -119.613281 95.851562 -119.453125 C 95.851562 -119.289062 95.851562 -119.289062 95.691406 -119.289062 C 95.527344 -119.289062 95.527344 -119.289062 95.527344 -119.453125 C 95.527344 -119.613281 95.527344 -119.613281 95.691406 -119.613281 Z M 97.46875 -118.320312 C 96.984375 -118.320312 96.175781 -118.804688 96.015625 -119.289062 C 96.5 -119.128906 96.984375 -118.804688 97.46875 -118.320312 Z M 97.953125 -117.675781 C 97.792969 -117.675781 97.792969 -117.675781 97.792969 -117.835938 Z M 101.023438 -113.308594 C 100.863281 -113.472656 100.863281 -113.792969 100.863281 -114.117188 L 101.023438 -114.117188 Z M 19.398438 -71.769531 C 19.398438 -88.578125 29.742188 -113.957031 48.332031 -113.957031 C 51.402344 -113.957031 54.472656 -112.984375 57.058594 -111.53125 C 55.605469 -109.753906 53.664062 -107.976562 51.5625 -106.519531 C 49.300781 -104.902344 47.359375 -103.289062 45.90625 -101.511719 C 37.660156 -92.941406 31.519531 -81.789062 28.285156 -70.3125 L 23.921875 -55.765625 C 20.203125 -58.675781 19.398438 -67.242188 19.398438 -71.769531 Z M 53.824219 -113.792969 C 53.988281 -113.792969 53.988281 -113.792969 53.988281 -113.632812 C 53.988281 -113.472656 53.988281 -113.472656 53.824219 -113.472656 C 53.664062 -113.472656 53.664062 -113.472656 53.664062 -113.632812 C 53.664062 -113.792969 53.664062 -113.792969 53.824219 -113.792969 Z M 55.121094 -113.148438 C 55.28125 -113.148438 56.898438 -112.339844 57.382812 -111.855469 L 54.957031 -113.148438 Z M 64.816406 -104.742188 C 64.65625 -104.742188 64.65625 -104.742188 64.65625 -104.902344 C 64.65625 -105.066406 64.65625 -105.066406 64.816406 -105.066406 C 64.980469 -105.066406 64.980469 -105.066406 64.980469 -104.902344 C 64.980469 -104.742188 64.980469 -104.742188 64.816406 -104.742188 Z M 97.46875 -97.144531 L 97.308594 -97.144531 C 97.144531 -96.015625 96.660156 -95.042969 95.851562 -93.914062 C 96.5 -96.660156 98.4375 -101.023438 99.894531 -104.582031 C 99.085938 -101.023438 97.953125 -97.144531 97.46875 -97.144531 Z M 65.140625 -104.417969 C 65.300781 -104.417969 65.300781 -104.417969 65.300781 -104.257812 C 65.300781 -104.097656 65.300781 -104.097656 65.140625 -104.097656 C 64.980469 -104.097656 64.980469 -104.097656 64.980469 -104.257812 C 64.980469 -104.417969 64.980469 -104.417969 65.140625 -104.417969 Z M 65.625 -102.804688 C 65.464844 -102.804688 65.464844 -102.804688 65.464844 -102.964844 C 65.464844 -103.125 65.464844 -103.125 65.625 -103.125 C 65.789062 -103.125 65.789062 -103.125 65.789062 -102.964844 C 65.789062 -102.804688 65.789062 -102.804688 65.625 -102.804688 Z M 65.789062 -102.316406 C 65.625 -102.316406 65.625 -102.316406 65.625 -102.480469 C 65.625 -102.640625 65.625 -102.640625 65.789062 -102.640625 C 65.949219 -102.640625 65.949219 -102.640625 65.949219 -102.480469 C 65.949219 -102.316406 65.949219 -102.316406 65.789062 -102.316406 Z M 65.949219 -101.832031 C 66.109375 -101.671875 66.273438 -101.347656 66.273438 -101.023438 C 66.109375 -101.1875 65.949219 -101.511719 65.949219 -101.832031 Z M 66.433594 -100.054688 C 66.273438 -100.054688 66.273438 -100.054688 66.273438 -100.214844 L 66.433594 -100.214844 Z M 66.59375 -99.730469 L 66.433594 -99.730469 C 66.433594 -99.894531 66.433594 -99.894531 66.59375 -99.894531 Z M 66.59375 -99.085938 C 66.433594 -99.085938 66.433594 -99.085938 66.433594 -99.246094 C 66.433594 -99.410156 66.433594 -99.410156 66.59375 -99.410156 C 66.757812 -99.410156 66.757812 -99.410156 66.757812 -99.246094 C 66.757812 -99.085938 66.757812 -99.085938 66.59375 -99.085938 Z M 66.757812 -98.4375 L 66.757812 -97.308594 L 66.59375 -98.601562 Z M 43.320312 -93.75 C 43.320312 -93.914062 43.320312 -93.914062 43.480469 -93.914062 C 43.644531 -93.914062 43.644531 -93.914062 43.644531 -93.75 C 43.644531 -93.589844 43.644531 -93.589844 43.480469 -93.589844 C 43.320312 -93.589844 43.320312 -93.589844 43.320312 -93.75 Z M 94.722656 -93.105469 C 94.722656 -93.265625 94.722656 -93.265625 94.882812 -93.265625 C 95.042969 -93.265625 95.042969 -93.265625 95.042969 -93.105469 C 95.042969 -92.941406 95.042969 -92.941406 94.882812 -92.941406 C 94.722656 -92.941406 94.722656 -92.941406 94.722656 -93.105469 Z M 66.433594 -92.78125 C 66.59375 -92.78125 66.59375 -92.78125 66.59375 -92.941406 C 66.59375 -93.105469 66.59375 -93.105469 66.433594 -93.105469 C 66.273438 -93.105469 66.273438 -93.105469 66.273438 -92.941406 C 66.273438 -92.78125 66.273438 -92.78125 66.433594 -92.78125 Z M 94.558594 -92.132812 C 94.398438 -92.132812 94.398438 -92.132812 94.398438 -92.296875 C 94.398438 -92.457031 94.398438 -92.457031 94.558594 -92.457031 C 94.722656 -92.457031 94.722656 -92.457031 94.722656 -92.296875 C 94.722656 -92.296875 94.722656 -92.132812 94.722656 -92.132812 Z M 41.703125 -91.488281 C 41.703125 -91.648438 41.703125 -91.648438 41.863281 -91.648438 C 42.027344 -91.648438 42.027344 -91.648438 42.027344 -91.488281 C 42.027344 -91.328125 42.027344 -91.328125 41.863281 -91.328125 C 41.703125 -91.328125 41.703125 -91.328125 41.703125 -91.488281 Z M 92.941406 -87.933594 C 92.941406 -88.417969 93.105469 -88.742188 93.265625 -88.902344 C 93.429688 -89.0625 93.589844 -89.386719 93.589844 -89.546875 L 93.914062 -90.035156 L 94.074219 -90.035156 C 94.074219 -89.386719 93.429688 -88.417969 92.941406 -87.933594 Z M 40.410156 -89.386719 C 40.410156 -89.546875 40.410156 -89.546875 40.570312 -89.546875 C 40.734375 -89.546875 40.734375 -89.546875 40.734375 -89.386719 C 40.734375 -89.226562 40.734375 -89.226562 40.570312 -89.226562 C 40.410156 -89.226562 40.410156 -89.226562 40.410156 -89.386719 Z M 40.570312 -89.0625 C 40.570312 -88.902344 40.570312 -88.902344 40.410156 -88.902344 C 40.25 -88.902344 40.25 -88.902344 40.25 -89.0625 C 40.25 -89.226562 40.25 -89.226562 40.410156 -89.226562 C 40.570312 -89.226562 40.570312 -89.226562 40.570312 -89.0625 Z M 39.761719 -88.417969 C 39.761719 -88.578125 39.761719 -88.578125 39.925781 -88.578125 C 40.085938 -88.578125 40.085938 -88.578125 40.085938 -88.417969 C 40.085938 -88.253906 40.085938 -88.253906 39.925781 -88.253906 C 39.761719 -88.253906 39.761719 -88.253906 39.761719 -88.417969 Z M 39.277344 -87.609375 C 39.277344 -87.769531 39.277344 -87.769531 39.441406 -87.769531 C 39.601562 -87.769531 39.601562 -87.769531 39.601562 -87.609375 C 39.601562 -87.445312 39.601562 -87.445312 39.441406 -87.445312 C 39.277344 -87.445312 39.277344 -87.445312 39.277344 -87.609375 Z M 92.621094 -87.285156 C 92.621094 -87.285156 92.457031 -87.125 92.296875 -86.640625 L 91.972656 -86.316406 L 91.8125 -86.316406 C 91.8125 -86.476562 91.8125 -86.640625 91.972656 -86.800781 C 92.132812 -86.960938 92.296875 -87.285156 92.296875 -87.445312 L 92.621094 -87.769531 L 92.78125 -87.769531 C 92.621094 -87.445312 92.621094 -87.445312 92.621094 -87.285156 Z M 100.863281 -86.316406 C 101.023438 -86.316406 101.023438 -86.316406 101.023438 -86.152344 C 101.023438 -85.992188 101.023438 -85.992188 100.863281 -85.992188 C 100.703125 -85.992188 100.703125 -85.992188 100.703125 -86.152344 C 100.703125 -86.316406 100.703125 -86.316406 100.863281 -86.316406 Z M 91.488281 -85.667969 C 91.488281 -85.992188 91.488281 -86.152344 91.648438 -86.152344 L 91.8125 -85.992188 Z M 38.148438 -85.667969 C 38.148438 -85.832031 38.148438 -85.832031 38.308594 -85.832031 C 38.46875 -85.832031 38.46875 -85.832031 38.46875 -85.667969 C 38.46875 -85.507812 38.46875 -85.507812 38.308594 -85.507812 C 38.148438 -85.507812 38.148438 -85.507812 38.148438 -85.667969 Z M 100.863281 -85.832031 L 101.023438 -85.832031 L 101.023438 -85.667969 C 100.863281 -85.667969 100.863281 -85.667969 100.863281 -85.832031 Z M 91.003906 -85.183594 L 91.003906 -85.023438 L 90.839844 -85.023438 C 90.839844 -85.183594 90.839844 -85.183594 91.003906 -85.183594 Z M 101.511719 -84.539062 C 101.347656 -84.539062 101.1875 -84.699219 101.1875 -85.023438 C 101.347656 -85.023438 101.511719 -84.859375 101.511719 -84.539062 Z M 18.75 -84.539062 C 18.589844 -84.539062 18.589844 -84.539062 18.589844 -84.699219 C 18.589844 -84.859375 18.589844 -84.859375 18.75 -84.859375 C 18.910156 -84.859375 18.910156 -84.859375 18.910156 -84.699219 C 18.910156 -84.539062 18.910156 -84.539062 18.75 -84.539062 Z M 90.839844 -84.859375 L 90.839844 -84.699219 L 90.679688 -84.699219 C 90.679688 -84.859375 90.679688 -84.859375 90.839844 -84.859375 Z M 37.660156 -84.375 C 37.660156 -84.539062 37.660156 -84.539062 37.824219 -84.539062 L 37.824219 -84.375 Z M 101.511719 -84.214844 L 101.511719 -83.730469 C 101.347656 -83.890625 101.1875 -84.054688 101.1875 -84.214844 Z M 18.589844 -83.730469 C 18.425781 -83.730469 18.425781 -83.730469 18.425781 -83.890625 C 18.425781 -84.054688 18.425781 -84.054688 18.589844 -84.054688 C 18.75 -84.054688 18.75 -84.054688 18.75 -83.890625 C 18.75 -83.730469 18.75 -83.730469 18.589844 -83.730469 Z M 90.195312 -83.730469 C 90.035156 -83.730469 90.035156 -83.730469 90.035156 -83.890625 C 90.035156 -84.054688 90.035156 -84.054688 90.195312 -84.054688 C 90.355469 -84.054688 90.355469 -84.054688 90.355469 -83.890625 C 90.355469 -83.730469 90.355469 -83.730469 90.195312 -83.730469 Z M 90.035156 -83.566406 L 89.871094 -83.566406 L 90.035156 -83.730469 Z M 101.1875 -76.132812 C 101.1875 -76.617188 101.1875 -77.265625 101.347656 -77.75 C 101.511719 -78.234375 101.511719 -78.71875 101.511719 -79.203125 L 101.511719 -80.171875 L 101.347656 -80.660156 C 101.347656 -80.820312 101.347656 -80.980469 101.511719 -81.144531 L 101.511719 -82.597656 C 101.347656 -82.757812 101.347656 -83.082031 101.347656 -83.566406 C 101.671875 -83.40625 101.832031 -82.757812 101.832031 -81.953125 L 101.832031 -80.335938 C 101.832031 -79.851562 101.832031 -78.878906 101.996094 -77.75 C 101.996094 -76.457031 101.832031 -75.484375 101.347656 -75 C 101.1875 -75.164062 101.1875 -75.324219 101.1875 -75.648438 Z M 18.589844 -83.40625 L 18.75 -83.246094 C 18.589844 -83.246094 18.589844 -83.246094 18.589844 -83.40625 Z M 37.015625 -83.246094 C 37.015625 -83.40625 37.015625 -83.40625 37.175781 -83.40625 L 37.175781 -83.246094 Z M 89.710938 -83.082031 C 89.710938 -82.921875 89.710938 -82.921875 89.546875 -82.921875 C 89.386719 -82.921875 89.386719 -82.921875 89.386719 -83.082031 C 89.386719 -83.246094 89.386719 -83.246094 89.546875 -83.246094 C 89.546875 -83.40625 89.546875 -83.40625 89.710938 -83.40625 C 89.871094 -83.40625 89.871094 -83.40625 89.871094 -83.246094 C 89.871094 -83.082031 89.871094 -83.082031 89.710938 -83.082031 Z M 18.589844 -82.921875 C 18.425781 -82.921875 18.425781 -82.921875 18.425781 -83.082031 C 18.425781 -83.246094 18.425781 -83.246094 18.589844 -83.246094 C 18.75 -83.246094 18.75 -83.246094 18.75 -83.082031 C 18.75 -82.921875 18.75 -82.921875 18.589844 -82.921875 Z M 89.546875 -83.246094 C 89.546875 -83.082031 89.546875 -83.082031 89.710938 -83.082031 C 89.710938 -83.246094 89.710938 -83.246094 89.546875 -83.246094 Z M 36.855469 -82.757812 L 36.855469 -82.921875 L 37.015625 -82.921875 Z M 89.226562 -82.4375 C 89.0625 -82.4375 89.0625 -82.4375 89.0625 -82.597656 C 89.0625 -82.757812 89.0625 -82.757812 89.226562 -82.757812 C 89.386719 -82.757812 89.386719 -82.757812 89.386719 -82.597656 C 89.386719 -82.4375 89.386719 -82.4375 89.226562 -82.4375 Z M 18.589844 -82.273438 C 18.425781 -82.273438 18.425781 -82.273438 18.425781 -82.4375 C 18.425781 -82.597656 18.425781 -82.597656 18.589844 -82.597656 C 18.75 -82.597656 18.75 -82.597656 18.75 -82.4375 C 18.75 -82.273438 18.75 -82.273438 18.589844 -82.273438 Z M 88.902344 -81.953125 C 88.902344 -81.789062 88.902344 -81.789062 88.742188 -81.789062 C 88.578125 -81.789062 88.578125 -81.789062 88.578125 -81.953125 C 88.578125 -82.113281 88.578125 -82.113281 88.742188 -82.113281 C 88.902344 -82.113281 88.902344 -82.113281 88.902344 -81.953125 Z M 18.265625 -81.144531 C 18.105469 -81.144531 18.105469 -81.144531 18.105469 -81.304688 C 18.105469 -81.464844 18.105469 -81.464844 18.265625 -81.464844 C 18.425781 -81.464844 18.425781 -81.464844 18.425781 -81.304688 C 18.425781 -81.144531 18.425781 -81.144531 18.265625 -81.144531 Z M 35.722656 -80.980469 C 35.722656 -81.144531 35.722656 -81.144531 35.882812 -81.144531 C 36.046875 -81.144531 36.046875 -81.144531 36.046875 -80.980469 C 36.046875 -80.820312 36.046875 -80.820312 35.882812 -80.820312 C 35.722656 -80.820312 35.722656 -80.820312 35.722656 -80.980469 Z M 18.265625 -80.660156 C 18.105469 -80.660156 18.105469 -80.660156 18.105469 -80.820312 C 18.105469 -80.980469 18.105469 -80.980469 18.265625 -80.980469 C 18.425781 -80.980469 18.425781 -80.980469 18.425781 -80.820312 C 18.425781 -80.660156 18.425781 -80.660156 18.265625 -80.660156 Z M 91.003906 -80.171875 C 90.839844 -80.171875 90.839844 -80.171875 90.839844 -80.335938 C 90.839844 -80.496094 90.839844 -80.496094 91.003906 -80.496094 C 91.164062 -80.496094 91.164062 -80.496094 91.164062 -80.335938 C 91.164062 -80.171875 91.164062 -80.171875 91.003906 -80.171875 Z M 87.445312 -80.171875 C 87.445312 -80.011719 87.445312 -79.851562 87.285156 -79.851562 C 87.285156 -80.011719 87.285156 -80.011719 87.445312 -80.171875 Z M 35.398438 -79.851562 C 35.398438 -80.011719 35.398438 -80.011719 35.5625 -80.011719 C 35.722656 -80.011719 35.722656 -80.011719 35.722656 -79.851562 C 35.722656 -79.6875 35.722656 -79.6875 35.5625 -79.6875 C 35.398438 -79.6875 35.398438 -79.6875 35.398438 -79.851562 Z M 18.105469 -79.527344 C 17.941406 -79.527344 17.941406 -79.527344 17.941406 -79.6875 C 17.941406 -79.851562 17.941406 -79.851562 18.105469 -79.851562 C 18.265625 -79.851562 18.265625 -79.851562 18.265625 -79.6875 C 18.265625 -79.527344 18.265625 -79.527344 18.105469 -79.527344 Z M 34.753906 -79.363281 C 34.753906 -79.527344 34.753906 -79.527344 34.914062 -79.527344 C 35.074219 -79.527344 35.074219 -79.527344 35.074219 -79.363281 C 35.074219 -79.203125 35.074219 -79.203125 34.914062 -79.203125 C 34.753906 -79.203125 34.753906 -79.203125 34.753906 -79.363281 Z M 86.960938 -79.363281 L 86.800781 -79.363281 C 86.800781 -79.527344 86.800781 -79.527344 86.960938 -79.527344 Z M 86.640625 -78.878906 C 86.476562 -78.878906 86.476562 -78.878906 86.476562 -79.042969 C 86.476562 -79.203125 86.476562 -79.203125 86.640625 -79.203125 C 86.800781 -79.203125 86.800781 -79.203125 86.800781 -79.042969 C 86.800781 -78.878906 86.800781 -78.878906 86.640625 -78.878906 Z M 34.914062 -79.042969 C 35.074219 -79.042969 35.074219 -79.042969 35.074219 -78.878906 C 35.074219 -78.71875 35.074219 -78.71875 34.914062 -78.71875 C 34.753906 -78.71875 34.753906 -78.71875 34.753906 -78.878906 C 34.753906 -79.042969 34.753906 -79.042969 34.914062 -79.042969 Z M 86.476562 -78.71875 C 86.476562 -78.558594 86.476562 -78.558594 86.316406 -78.558594 C 86.152344 -78.558594 86.152344 -78.558594 86.152344 -78.71875 C 86.152344 -78.878906 86.152344 -78.878906 86.316406 -78.878906 C 86.476562 -78.878906 86.476562 -78.878906 86.476562 -78.71875 Z M 89.710938 -77.75 C 89.546875 -77.75 89.546875 -77.75 89.546875 -77.910156 C 89.546875 -78.070312 89.546875 -78.070312 89.710938 -78.070312 C 89.871094 -78.070312 89.871094 -78.070312 89.871094 -77.910156 C 89.871094 -77.75 89.871094 -77.75 89.710938 -77.75 Z M 33.945312 -77.265625 C 33.945312 -77.425781 33.945312 -77.425781 34.105469 -77.425781 L 34.105469 -77.265625 Z M 88.902344 -76.777344 C 88.742188 -76.777344 88.742188 -76.777344 88.742188 -76.941406 C 88.742188 -77.101562 88.742188 -77.101562 88.902344 -77.101562 C 89.0625 -77.101562 89.0625 -77.101562 89.0625 -76.941406 C 89.0625 -76.777344 89.0625 -76.777344 88.902344 -76.777344 Z M 34.105469 -76.941406 C 34.269531 -76.941406 34.269531 -76.941406 34.269531 -76.777344 C 34.269531 -76.617188 34.269531 -76.617188 34.105469 -76.617188 C 33.945312 -76.617188 33.945312 -76.617188 33.945312 -76.777344 C 33.945312 -76.941406 33.945312 -76.941406 34.105469 -76.941406 Z M 17.617188 -76.777344 L 17.617188 -76.617188 C 17.457031 -76.617188 17.457031 -76.617188 17.457031 -76.777344 Z M 88.742188 -76.457031 C 88.578125 -76.457031 88.578125 -76.457031 88.578125 -76.617188 C 88.578125 -76.777344 88.578125 -76.777344 88.742188 -76.777344 C 88.902344 -76.777344 88.902344 -76.777344 88.902344 -76.617188 C 88.902344 -76.457031 88.902344 -76.457031 88.742188 -76.457031 Z M 34.105469 -76.457031 C 34.105469 -76.292969 34.105469 -76.292969 33.945312 -76.292969 C 33.78125 -76.292969 33.78125 -76.292969 33.78125 -76.457031 C 33.78125 -76.617188 33.78125 -76.617188 33.945312 -76.617188 C 34.105469 -76.617188 34.105469 -76.617188 34.105469 -76.457031 Z M 33.621094 -76.292969 L 33.78125 -76.292969 L 33.78125 -76.132812 C 33.621094 -76.132812 33.621094 -76.132812 33.621094 -76.292969 Z M 83.890625 -75.808594 C 83.730469 -75.808594 83.730469 -75.808594 83.730469 -75.972656 C 83.730469 -76.132812 83.730469 -76.132812 83.890625 -76.132812 C 84.054688 -76.132812 84.054688 -76.132812 84.054688 -75.972656 C 84.054688 -75.808594 84.054688 -75.808594 83.890625 -75.808594 Z M 88.253906 -75.484375 C 88.253906 -75.324219 88.253906 -75.324219 88.09375 -75.324219 C 87.933594 -75.324219 87.933594 -75.324219 87.933594 -75.484375 C 87.933594 -75.648438 87.933594 -75.648438 88.09375 -75.648438 C 87.933594 -75.648438 87.933594 -75.648438 87.933594 -75.808594 C 87.933594 -75.972656 87.933594 -75.972656 88.09375 -75.972656 C 88.253906 -75.972656 88.253906 -75.972656 88.253906 -75.808594 C 88.253906 -75.648438 88.253906 -75.648438 88.09375 -75.648438 C 88.253906 -75.648438 88.253906 -75.648438 88.253906 -75.484375 Z M 83.730469 -75.808594 L 83.730469 -75.648438 C 83.566406 -75.648438 83.566406 -75.648438 83.566406 -75.808594 Z M 33.296875 -75.324219 L 33.296875 -75.484375 L 33.460938 -75.484375 L 33.460938 -75.324219 Z M 87.769531 -74.839844 L 87.769531 -75.164062 L 87.933594 -75.164062 Z M 32.972656 -74.515625 C 32.972656 -74.675781 32.972656 -74.675781 33.136719 -74.675781 C 33.296875 -74.675781 33.296875 -74.675781 33.296875 -74.515625 C 33.296875 -74.355469 33.296875 -74.355469 33.136719 -74.355469 C 32.972656 -74.355469 32.972656 -74.355469 32.972656 -74.515625 Z M 84.214844 -74.515625 C 84.214844 -74.675781 84.214844 -74.675781 84.375 -74.675781 C 84.539062 -74.675781 84.539062 -74.675781 84.539062 -74.515625 C 84.539062 -74.355469 84.539062 -74.355469 84.375 -74.355469 C 84.375 -74.191406 84.375 -74.191406 84.214844 -74.191406 C 84.054688 -74.191406 84.054688 -74.191406 84.054688 -74.355469 C 84.054688 -74.515625 84.054688 -74.515625 84.214844 -74.515625 Z M 101.1875 -74.191406 C 101.1875 -74.355469 101.1875 -74.355469 101.347656 -74.675781 C 101.347656 -74.675781 101.347656 -74.515625 101.511719 -74.355469 C 101.511719 -74.191406 101.511719 -74.191406 101.347656 -74.03125 C 101.1875 -73.871094 101.1875 -73.871094 101.1875 -73.707031 Z M 84.375 -74.355469 C 84.375 -74.515625 84.375 -74.515625 84.214844 -74.515625 C 84.214844 -74.355469 84.214844 -74.355469 84.375 -74.355469 Z M 87.445312 -74.191406 C 87.285156 -74.191406 87.285156 -74.191406 87.285156 -74.355469 C 87.285156 -74.515625 87.285156 -74.515625 87.445312 -74.515625 C 87.609375 -74.515625 87.609375 -74.515625 87.609375 -74.355469 C 87.609375 -74.191406 87.609375 -74.191406 87.445312 -74.191406 Z M 62.554688 -27.800781 L 55.605469 -16.648438 C 51.402344 -10.667969 44.773438 -3.070312 37.015625 -3.070312 C 27.640625 -3.070312 25.378906 -20.042969 25.378906 -28.125 C 25.378906 -35.074219 26.1875 -41.21875 27.480469 -48.492188 C 29.902344 -47.84375 31.359375 -47.523438 33.460938 -47.523438 C 47.683594 -47.523438 64.171875 -56.414062 74.839844 -65.464844 C 75.972656 -66.917969 77.425781 -68.375 79.527344 -70.152344 C 81.464844 -71.769531 82.921875 -73.0625 84.054688 -74.191406 L 84.054688 -74.03125 Z M 32.8125 -73.871094 L 32.8125 -74.03125 L 32.972656 -73.871094 Z M 32.488281 -73.707031 L 32.652344 -73.707031 L 32.652344 -73.546875 C 32.488281 -73.546875 32.488281 -73.546875 32.488281 -73.707031 Z M 101.347656 -73.382812 C 101.347656 -72.898438 101.347656 -72.578125 101.1875 -72.253906 L 101.347656 -72.253906 C 101.511719 -72.253906 101.511719 -72.253906 101.511719 -72.089844 C 101.511719 -71.929688 101.511719 -71.929688 101.347656 -71.929688 L 101.1875 -71.929688 C 101.1875 -71.605469 101.023438 -71.28125 100.863281 -70.960938 L 100.863281 -72.578125 C 100.703125 -73.0625 100.863281 -73.222656 101.347656 -73.382812 Z M 86.640625 -72.898438 L 86.476562 -73.222656 L 86.800781 -73.222656 C 86.800781 -73.0625 86.800781 -73.0625 86.640625 -72.898438 Z M 86.316406 -72.089844 C 86.152344 -72.089844 86.152344 -72.089844 86.152344 -72.253906 C 86.152344 -72.414062 86.152344 -72.414062 86.316406 -72.414062 C 86.476562 -72.414062 86.476562 -72.414062 86.476562 -72.253906 C 86.476562 -72.089844 86.476562 -72.089844 86.316406 -72.089844 Z M 32.003906 -71.929688 C 32.003906 -71.929688 32.003906 -72.089844 32.167969 -72.253906 C 32.167969 -72.089844 32.167969 -72.089844 32.003906 -71.929688 Z M 101.1875 -72.089844 L 101.1875 -71.929688 C 101.1875 -72.089844 101.1875 -72.089844 101.1875 -72.253906 Z M 86.152344 -71.769531 L 85.992188 -71.769531 L 86.152344 -71.929688 Z M 32.167969 -71.769531 C 32.328125 -71.769531 32.328125 -71.769531 32.328125 -71.605469 C 32.328125 -71.445312 32.328125 -71.445312 32.167969 -71.445312 C 32.003906 -71.445312 32.003906 -71.445312 32.003906 -71.605469 C 32.003906 -71.769531 32.003906 -71.769531 32.167969 -71.769531 Z M 85.832031 -71.121094 C 85.667969 -71.121094 85.667969 -71.121094 85.667969 -71.28125 C 85.667969 -71.445312 85.667969 -71.445312 85.832031 -71.445312 C 85.992188 -71.445312 85.992188 -71.445312 85.992188 -71.28125 C 85.992188 -71.121094 85.992188 -71.121094 85.832031 -71.121094 Z M 85.183594 -70.636719 C 85.023438 -70.636719 85.023438 -70.636719 85.023438 -70.796875 C 85.023438 -70.960938 85.023438 -70.960938 85.183594 -70.960938 C 85.347656 -70.960938 85.347656 -70.960938 85.347656 -70.796875 C 85.347656 -70.636719 85.347656 -70.636719 85.183594 -70.636719 Z M 85.667969 -70.796875 C 85.507812 -70.796875 85.507812 -70.796875 85.507812 -70.960938 L 85.667969 -70.960938 Z M 17.457031 -70.476562 C 17.296875 -70.476562 17.296875 -70.476562 17.296875 -70.636719 C 17.296875 -70.796875 17.296875 -70.796875 17.457031 -70.796875 C 17.617188 -70.796875 17.617188 -70.796875 17.617188 -70.636719 C 17.617188 -70.476562 17.617188 -70.476562 17.457031 -70.476562 Z M 99.730469 -64.332031 C 99.894531 -64.816406 100.054688 -65.464844 100.054688 -65.949219 L 100.054688 -67.402344 C 100.214844 -67.566406 100.378906 -68.050781 100.378906 -68.695312 L 100.378906 -69.828125 C 100.539062 -69.988281 100.703125 -70.152344 100.703125 -70.3125 C 100.539062 -70.476562 100.703125 -70.476562 100.863281 -70.636719 C 100.863281 -68.535156 100.863281 -65.300781 99.730469 -63.523438 C 99.730469 -63.6875 99.730469 -63.6875 99.894531 -63.847656 L 99.894531 -64.007812 Z M 31.195312 -70.3125 L 31.359375 -70.3125 L 31.359375 -70.152344 C 31.195312 -70.152344 31.195312 -70.152344 31.195312 -70.3125 Z M 85.023438 -69.667969 L 84.859375 -69.667969 C 84.859375 -69.828125 84.859375 -69.828125 85.023438 -69.828125 Z M 31.035156 -69.667969 L 31.195312 -69.667969 L 31.195312 -69.503906 C 31.035156 -69.503906 31.035156 -69.503906 31.035156 -69.667969 Z M 31.195312 -69.34375 C 31.195312 -69.183594 31.195312 -69.183594 31.035156 -69.183594 C 30.875 -69.183594 30.875 -69.183594 30.875 -69.34375 C 30.875 -69.503906 30.875 -69.503906 31.035156 -69.503906 C 31.195312 -69.503906 31.195312 -69.503906 31.195312 -69.34375 Z M 17.296875 -69.019531 C 17.132812 -69.019531 17.132812 -69.019531 17.132812 -69.183594 C 17.132812 -69.34375 17.132812 -69.34375 17.296875 -69.34375 C 17.457031 -69.34375 17.457031 -69.34375 17.457031 -69.183594 C 17.457031 -69.019531 17.457031 -69.019531 17.296875 -69.019531 Z M 84.539062 -68.535156 C 84.539062 -68.375 84.539062 -68.375 84.375 -68.375 C 84.214844 -68.375 84.214844 -68.375 84.214844 -68.535156 C 84.214844 -68.695312 84.214844 -68.695312 84.375 -68.695312 C 84.375 -68.859375 84.375 -68.859375 84.539062 -68.859375 C 84.699219 -68.859375 84.699219 -68.859375 84.699219 -68.695312 C 84.699219 -68.535156 84.699219 -68.535156 84.539062 -68.535156 Z M 84.375 -68.695312 C 84.375 -68.535156 84.375 -68.535156 84.539062 -68.535156 C 84.539062 -68.695312 84.539062 -68.695312 84.375 -68.695312 Z M 84.054688 -68.050781 C 83.890625 -68.050781 83.890625 -68.050781 83.890625 -68.210938 C 83.890625 -68.375 83.890625 -68.375 84.054688 -68.375 C 84.214844 -68.375 84.214844 -68.375 84.214844 -68.210938 C 84.214844 -68.050781 84.214844 -68.050781 84.054688 -68.050781 Z M 83.890625 -67.890625 L 83.890625 -68.050781 L 84.054688 -67.890625 Z M 83.890625 -67.242188 C 83.730469 -67.242188 83.730469 -67.242188 83.730469 -67.402344 C 83.730469 -67.566406 83.730469 -67.566406 83.890625 -67.566406 C 84.054688 -67.566406 84.054688 -67.566406 84.054688 -67.402344 C 84.054688 -67.242188 84.054688 -67.242188 83.890625 -67.242188 Z M 30.066406 -67.242188 C 30.066406 -67.402344 30.066406 -67.402344 30.226562 -67.402344 C 30.386719 -67.402344 30.386719 -67.402344 30.386719 -67.242188 C 30.386719 -67.082031 30.386719 -67.082031 30.226562 -67.082031 C 30.066406 -67.082031 30.066406 -67.082031 30.066406 -67.242188 Z M 83.730469 -66.917969 C 83.566406 -66.917969 83.566406 -66.917969 83.566406 -67.082031 C 83.566406 -67.242188 83.566406 -67.242188 83.730469 -67.242188 C 83.890625 -67.242188 83.890625 -67.242188 83.890625 -67.082031 C 83.890625 -66.917969 83.890625 -66.917969 83.730469 -66.917969 Z M 83.40625 -66.433594 C 83.40625 -66.273438 83.40625 -66.273438 83.246094 -66.273438 C 83.40625 -66.273438 83.40625 -66.273438 83.40625 -66.109375 C 83.40625 -65.949219 83.40625 -65.949219 83.246094 -65.949219 C 83.082031 -65.949219 83.082031 -65.949219 83.082031 -66.109375 C 83.082031 -66.273438 83.082031 -66.273438 83.246094 -66.273438 C 83.082031 -66.273438 83.082031 -66.273438 83.082031 -66.433594 C 83.082031 -66.59375 83.082031 -66.59375 83.246094 -66.59375 C 83.082031 -66.59375 83.082031 -66.59375 83.082031 -66.757812 C 83.082031 -66.917969 83.082031 -66.917969 83.246094 -66.917969 C 83.40625 -66.917969 83.40625 -66.917969 83.40625 -66.757812 C 83.40625 -66.59375 83.40625 -66.59375 83.246094 -66.59375 C 83.40625 -66.59375 83.40625 -66.59375 83.40625 -66.433594 Z M 17.617188 -66.273438 C 17.617188 -66.433594 17.617188 -66.433594 17.78125 -66.433594 C 17.941406 -66.433594 17.941406 -66.433594 17.941406 -66.273438 C 17.941406 -66.109375 17.941406 -66.109375 17.78125 -66.109375 C 17.617188 -66.109375 17.617188 -66.109375 17.617188 -66.273438 Z M 30.226562 -66.273438 C 30.226562 -66.109375 30.226562 -66.109375 30.066406 -66.109375 C 29.902344 -66.109375 29.902344 -66.109375 29.902344 -66.273438 C 29.902344 -66.433594 29.902344 -66.433594 30.066406 -66.433594 C 30.226562 -66.433594 30.226562 -66.433594 30.226562 -66.273438 Z M 29.742188 -66.109375 L 29.902344 -66.109375 L 29.902344 -65.949219 C 29.742188 -65.949219 29.742188 -65.949219 29.742188 -66.109375 Z M 17.78125 -65.464844 C 17.78125 -65.625 17.78125 -65.625 17.941406 -65.625 C 18.105469 -65.625 18.105469 -65.625 18.105469 -65.464844 C 18.105469 -65.300781 18.105469 -65.300781 17.941406 -65.300781 C 17.78125 -65.300781 17.78125 -65.300781 17.78125 -65.464844 Z M 29.582031 -65.464844 L 29.742188 -65.464844 L 29.742188 -65.300781 C 29.582031 -65.300781 29.582031 -65.300781 29.582031 -65.464844 Z M 29.417969 -65.140625 C 29.417969 -65.300781 29.417969 -65.300781 29.582031 -65.300781 C 29.742188 -65.300781 29.742188 -65.300781 29.742188 -65.140625 C 29.742188 -64.980469 29.742188 -64.980469 29.582031 -64.980469 C 29.742188 -64.980469 29.742188 -64.980469 29.742188 -64.816406 C 29.742188 -64.65625 29.742188 -64.65625 29.582031 -64.65625 C 29.417969 -64.65625 29.417969 -64.65625 29.417969 -64.816406 C 29.417969 -64.980469 29.417969 -64.980469 29.582031 -64.980469 C 29.417969 -64.980469 29.417969 -64.980469 29.417969 -65.140625 Z M 82.4375 -64.816406 C 82.273438 -64.816406 82.273438 -64.816406 82.273438 -64.980469 L 82.4375 -64.980469 Z M 29.257812 -64.496094 L 29.417969 -64.496094 L 29.417969 -64.332031 C 29.257812 -64.332031 29.257812 -64.332031 29.257812 -64.496094 Z M 82.4375 -64.171875 L 82.273438 -64.007812 L 82.273438 -64.496094 L 82.4375 -64.496094 Z M 18.105469 -63.523438 C 17.941406 -63.523438 17.941406 -63.523438 17.941406 -63.6875 C 17.941406 -63.847656 17.941406 -63.847656 18.105469 -63.847656 C 18.265625 -63.847656 18.265625 -63.847656 18.265625 -63.6875 C 18.265625 -63.523438 18.265625 -63.523438 18.105469 -63.523438 Z M 82.113281 -63.523438 C 81.953125 -63.363281 81.953125 -63.363281 81.953125 -63.203125 C 81.953125 -63.203125 81.789062 -63.203125 81.789062 -63.523438 C 81.789062 -63.6875 81.953125 -63.6875 82.113281 -63.6875 Z M 81.628906 -62.714844 C 81.464844 -62.714844 81.464844 -62.714844 81.464844 -62.878906 C 81.464844 -63.039062 81.464844 -63.039062 81.628906 -63.039062 C 81.789062 -63.039062 81.789062 -63.039062 81.789062 -62.878906 C 81.789062 -62.714844 81.789062 -62.714844 81.628906 -62.714844 Z M 98.761719 -56.898438 C 98.761719 -57.382812 98.921875 -57.867188 99.085938 -58.351562 C 99.246094 -58.835938 99.410156 -59.484375 99.410156 -59.96875 L 99.246094 -60.292969 L 99.410156 -60.613281 L 99.410156 -61.261719 C 99.410156 -61.261719 99.410156 -61.421875 99.410156 -61.421875 L 99.570312 -61.421875 C 99.730469 -61.421875 99.730469 -61.421875 99.730469 -61.585938 C 99.730469 -61.746094 99.730469 -61.746094 99.570312 -61.746094 L 99.410156 -61.746094 C 99.570312 -61.746094 99.570312 -61.90625 99.570312 -61.90625 C 99.570312 -62.070312 99.570312 -62.230469 99.730469 -62.554688 L 99.730469 -63.039062 L 99.894531 -63.039062 L 99.894531 -61.90625 C 99.730469 -61.585938 99.730469 -61.261719 99.730469 -60.777344 L 99.730469 -60.453125 L 99.894531 -60.128906 C 99.894531 -59.96875 99.894531 -59.96875 99.730469 -59.808594 C 99.730469 -59.484375 99.730469 -59.320312 99.570312 -59.320312 C 99.570312 -58.835938 99.570312 -58.351562 99.410156 -57.867188 C 99.410156 -57.867188 99.410156 -57.707031 99.410156 -57.707031 L 99.246094 -57.707031 C 99.085938 -57.707031 99.085938 -57.707031 99.085938 -57.542969 C 99.085938 -57.382812 99.085938 -57.382812 99.246094 -57.382812 L 99.246094 -56.414062 C 99.085938 -56.25 99.085938 -56.089844 99.085938 -55.765625 L 99.085938 -55.121094 C 99.085938 -54.957031 98.921875 -54.796875 98.761719 -54.796875 Z M 80.980469 -61.585938 C 80.980469 -61.746094 81.144531 -62.070312 81.304688 -62.554688 C 81.464844 -62.554688 81.464844 -62.394531 81.464844 -62.230469 C 81.464844 -61.746094 81.304688 -61.585938 80.980469 -61.585938 Z M 99.410156 -62.230469 L 99.410156 -62.070312 C 99.246094 -62.070312 99.246094 -62.070312 99.246094 -62.230469 Z M 28.449219 -61.746094 C 28.449219 -61.90625 28.449219 -61.90625 28.609375 -61.90625 C 28.773438 -61.90625 28.773438 -61.90625 28.773438 -61.746094 C 28.773438 -61.585938 28.773438 -61.585938 28.609375 -61.585938 C 28.449219 -61.585938 28.449219 -61.585938 28.449219 -61.746094 Z M 28.285156 -61.261719 L 28.449219 -61.261719 L 28.449219 -61.101562 C 28.285156 -61.101562 28.285156 -61.101562 28.285156 -61.261719 Z M 80.660156 -60.777344 C 80.660156 -60.292969 80.660156 -60.128906 80.496094 -60.128906 L 80.496094 -60.613281 C 80.496094 -60.777344 80.496094 -60.777344 80.660156 -61.101562 Z M 28.609375 -60.777344 C 28.609375 -60.777344 28.449219 -60.777344 28.285156 -60.613281 L 28.285156 -60.9375 Z M 27.800781 -59.96875 C 27.640625 -59.96875 27.640625 -59.96875 27.640625 -60.128906 C 27.640625 -60.292969 27.640625 -60.292969 27.800781 -60.292969 C 27.964844 -60.292969 27.964844 -60.292969 27.964844 -60.128906 C 27.964844 -59.96875 27.964844 -59.96875 27.800781 -59.96875 Z M 27.800781 -59.160156 C 27.800781 -59.644531 27.964844 -59.808594 28.125 -59.96875 C 28.125 -59.484375 27.964844 -59.160156 27.800781 -59.160156 Z M 28.449219 -59.808594 C 28.609375 -59.808594 28.609375 -59.808594 28.609375 -59.644531 C 28.609375 -59.484375 28.609375 -59.484375 28.449219 -59.484375 C 28.285156 -59.484375 28.285156 -59.484375 28.285156 -59.644531 C 28.285156 -59.808594 28.285156 -59.808594 28.449219 -59.808594 Z M 79.851562 -59 L 79.851562 -59.160156 L 80.011719 -59.160156 Z M 27.964844 -58.835938 L 27.964844 -58.675781 C 27.800781 -58.675781 27.800781 -58.675781 27.800781 -58.835938 Z M 27.316406 -58.351562 L 27.640625 -58.351562 L 27.640625 -57.867188 Z M 79.6875 -58.027344 C 79.527344 -58.027344 79.527344 -58.027344 79.527344 -58.191406 C 79.527344 -58.351562 79.527344 -58.351562 79.6875 -58.351562 C 79.851562 -58.351562 79.851562 -58.351562 79.851562 -58.191406 C 79.851562 -58.027344 79.851562 -58.027344 79.6875 -58.027344 Z M 27.316406 -57.707031 L 27.480469 -57.707031 L 27.480469 -57.542969 C 27.316406 -57.542969 27.316406 -57.542969 27.316406 -57.707031 Z M 27.15625 -57.542969 L 27.480469 -57.21875 L 27.316406 -57.058594 L 27.316406 -57.21875 C 27.15625 -57.382812 27.15625 -57.382812 27.15625 -57.542969 Z M 79.042969 -56.898438 C 78.878906 -56.898438 78.878906 -56.898438 78.878906 -57.058594 C 78.878906 -57.21875 78.878906 -57.21875 79.042969 -57.21875 C 79.203125 -57.21875 79.203125 -57.21875 79.203125 -57.058594 C 79.203125 -56.898438 79.203125 -56.898438 79.042969 -56.898438 Z M 26.992188 -55.765625 L 26.832031 -55.765625 C 26.832031 -55.925781 26.992188 -56.25 27.15625 -56.734375 C 27.15625 -56.734375 27.15625 -56.574219 27.316406 -56.414062 C 27.316406 -56.414062 27.316406 -56.25 27.15625 -56.089844 Z M 78.878906 -56.414062 C 78.71875 -56.414062 78.71875 -56.414062 78.71875 -56.574219 C 78.71875 -56.734375 78.71875 -56.734375 78.878906 -56.734375 C 79.042969 -56.734375 79.042969 -56.734375 79.042969 -56.574219 C 79.042969 -56.414062 79.042969 -56.414062 78.878906 -56.414062 Z M 78.558594 -55.925781 L 78.394531 -55.925781 C 78.394531 -56.089844 78.394531 -56.089844 78.558594 -56.089844 Z M 78.234375 -54.632812 C 78.070312 -54.472656 78.070312 -54.632812 78.070312 -55.121094 C 78.070312 -55.441406 78.070312 -55.605469 78.234375 -55.441406 Z M 27.15625 -55.121094 C 27.15625 -54.957031 27.15625 -54.957031 26.992188 -54.957031 C 26.832031 -54.957031 26.832031 -54.957031 26.832031 -55.121094 C 26.832031 -55.28125 26.832031 -55.28125 26.992188 -55.28125 C 27.15625 -55.28125 27.15625 -55.28125 27.15625 -55.121094 Z M 26.832031 -54.796875 L 26.832031 -54.632812 C 26.671875 -54.632812 26.671875 -54.632812 26.671875 -54.796875 Z M 26.347656 -54.148438 C 26.347656 -54.3125 26.507812 -54.472656 26.671875 -54.472656 C 26.671875 -53.988281 26.671875 -53.824219 26.507812 -53.664062 L 26.507812 -53.988281 Z M 98.761719 -54.148438 C 98.921875 -54.148438 98.921875 -53.988281 98.921875 -53.824219 C 98.761719 -53.824219 98.601562 -53.988281 98.601562 -54.472656 C 98.761719 -54.3125 98.761719 -54.3125 98.761719 -54.148438 Z M 99.085938 -54.148438 C 98.921875 -54.148438 98.921875 -54.148438 98.921875 -54.3125 C 98.921875 -54.472656 98.921875 -54.472656 99.085938 -54.472656 C 99.246094 -54.472656 99.246094 -54.472656 99.246094 -54.3125 C 99.246094 -54.148438 99.246094 -54.148438 99.085938 -54.148438 Z M 77.425781 -53.179688 L 77.425781 -53.824219 C 77.585938 -53.824219 77.75 -53.824219 77.910156 -53.664062 Z M 98.601562 -53.339844 L 98.761719 -53.179688 L 98.761719 -52.695312 C 98.761719 -52.210938 98.761719 -51.726562 98.601562 -51.402344 C 98.4375 -50.917969 98.4375 -50.433594 98.601562 -49.945312 L 98.277344 -49.785156 C 98.4375 -50.753906 98.4375 -51.886719 98.4375 -52.53125 L 98.277344 -52.855469 C 98.4375 -53.019531 98.601562 -53.179688 98.601562 -53.339844 Z M 77.265625 -52.695312 C 77.101562 -52.695312 77.101562 -52.695312 77.101562 -52.855469 C 77.101562 -53.019531 77.101562 -53.019531 77.265625 -53.019531 C 77.425781 -53.019531 77.425781 -53.019531 77.425781 -52.855469 C 77.425781 -52.695312 77.425781 -52.695312 77.265625 -52.695312 Z M 77.101562 -52.53125 C 76.941406 -52.53125 76.941406 -52.53125 76.941406 -52.695312 L 77.101562 -52.695312 Z M 76.941406 -51.886719 C 76.777344 -51.886719 76.777344 -51.886719 76.777344 -52.046875 L 76.941406 -52.046875 Z M 76.617188 -50.917969 L 76.292969 -51.078125 L 76.617188 -51.402344 Z M 76.457031 -50.59375 C 76.292969 -50.59375 76.292969 -50.59375 76.292969 -50.753906 C 76.292969 -50.917969 76.292969 -50.917969 76.457031 -50.917969 C 76.617188 -50.917969 76.617188 -50.917969 76.617188 -50.753906 C 76.617188 -50.59375 76.617188 -50.59375 76.457031 -50.59375 Z M 76.132812 -50.59375 C 76.132812 -50.433594 76.132812 -50.433594 75.972656 -50.433594 C 75.808594 -50.433594 75.808594 -50.433594 75.808594 -50.59375 C 75.808594 -50.753906 75.808594 -50.753906 75.972656 -50.753906 C 76.132812 -50.753906 76.132812 -50.753906 76.132812 -50.59375 Z M 76.292969 -50.269531 C 76.132812 -50.269531 76.132812 -50.269531 76.132812 -50.433594 C 76.132812 -50.59375 76.132812 -50.59375 76.292969 -50.59375 C 76.457031 -50.59375 76.457031 -50.59375 76.457031 -50.433594 C 76.457031 -50.269531 76.457031 -50.269531 76.292969 -50.269531 Z M 76.132812 -49.785156 C 76.132812 -49.625 76.132812 -49.625 75.972656 -49.625 C 76.132812 -49.625 76.132812 -49.625 76.132812 -49.460938 C 76.132812 -49.300781 76.132812 -49.300781 75.972656 -49.300781 C 75.808594 -49.300781 75.808594 -49.300781 75.808594 -49.460938 C 75.808594 -49.625 75.808594 -49.625 75.972656 -49.625 C 75.808594 -49.625 75.808594 -49.625 75.808594 -49.785156 C 75.808594 -49.945312 75.808594 -49.945312 75.972656 -49.945312 C 75.972656 -50.109375 75.972656 -50.109375 76.132812 -50.109375 C 76.292969 -50.109375 76.292969 -50.109375 76.292969 -49.945312 C 76.292969 -49.785156 76.292969 -49.785156 76.132812 -49.785156 Z M 75.972656 -49.945312 C 75.972656 -49.785156 75.972656 -49.785156 76.132812 -49.785156 C 76.132812 -49.945312 76.132812 -49.945312 75.972656 -49.945312 Z M 97.46875 -43.964844 L 97.46875 -44.9375 L 97.628906 -44.613281 L 97.628906 -46.066406 C 97.792969 -46.066406 97.792969 -46.230469 97.792969 -46.390625 L 97.792969 -46.875 C 97.628906 -47.039062 97.628906 -47.199219 97.628906 -47.359375 L 97.792969 -47.039062 L 98.277344 -49.625 L 98.277344 -47.523438 L 98.117188 -47.359375 L 98.117188 -47.199219 L 98.277344 -47.039062 C 97.628906 -47.039062 97.792969 -42.996094 97.792969 -42.511719 L 97.308594 -42.671875 C 97.46875 -42.996094 97.46875 -43.480469 97.46875 -43.964844 Z M 25.378906 -49.136719 C 25.378906 -49.300781 25.378906 -49.460938 25.539062 -49.300781 L 25.539062 -48.816406 C 25.378906 -48.816406 25.378906 -48.976562 25.378906 -49.136719 Z M 75.484375 -49.136719 L 75.484375 -49.300781 L 75.808594 -49.300781 Z M 28.285156 -48.976562 C 27.964844 -48.976562 27.800781 -48.976562 27.640625 -49.136719 C 27.964844 -49.136719 28.125 -49.136719 28.285156 -48.976562 Z M 97.792969 -49.136719 C 97.953125 -49.136719 97.953125 -49.136719 97.953125 -48.976562 C 97.953125 -48.816406 97.953125 -48.816406 97.792969 -48.816406 C 97.628906 -48.816406 97.628906 -48.816406 97.628906 -48.976562 C 97.628906 -49.136719 97.628906 -49.136719 97.792969 -49.136719 Z M 75.484375 -48.332031 C 75.324219 -48.332031 75.324219 -48.332031 75.324219 -48.492188 C 75.324219 -48.652344 75.324219 -48.652344 75.484375 -48.652344 Z M 25.214844 -47.359375 L 25.214844 -47.683594 C 25.214844 -47.84375 25.214844 -48.167969 25.539062 -48.167969 L 25.539062 -48.007812 C 25.539062 -47.683594 25.378906 -47.523438 25.214844 -47.359375 Z M 75.324219 -47.84375 C 75.164062 -47.84375 75.164062 -47.84375 75.164062 -48.007812 L 75.324219 -48.007812 Z M 75.164062 -47.359375 L 75 -47.359375 L 75 -47.523438 L 75.164062 -47.523438 Z M 25.054688 -47.039062 C 25.054688 -47.199219 25.054688 -47.199219 25.214844 -47.199219 C 25.378906 -47.199219 25.378906 -47.199219 25.378906 -47.039062 C 25.378906 -46.875 25.378906 -46.875 25.214844 -46.875 C 25.054688 -46.875 25.054688 -46.875 25.054688 -47.039062 Z M 74.839844 -46.875 C 74.675781 -46.875 74.675781 -46.875 74.675781 -47.039062 L 74.839844 -47.039062 Z M 25.378906 -46.875 C 25.539062 -46.875 25.539062 -46.875 25.539062 -46.714844 C 25.539062 -46.550781 25.539062 -46.550781 25.378906 -46.550781 C 25.214844 -46.550781 25.214844 -46.550781 25.214844 -46.714844 C 25.214844 -46.875 25.214844 -46.875 25.378906 -46.875 Z M 74.675781 -46.550781 C 74.515625 -46.550781 74.515625 -46.550781 74.515625 -46.714844 C 74.515625 -46.875 74.515625 -46.875 74.675781 -46.875 C 74.839844 -46.875 74.839844 -46.875 74.839844 -46.714844 C 74.839844 -46.550781 74.839844 -46.550781 74.675781 -46.550781 Z M 25.054688 -46.390625 C 25.054688 -46.550781 25.054688 -46.550781 25.214844 -46.550781 L 25.214844 -46.390625 Z M 74.355469 -46.230469 C 74.191406 -46.230469 74.191406 -46.230469 74.191406 -46.390625 C 74.191406 -46.550781 74.191406 -46.550781 74.355469 -46.550781 C 74.515625 -46.550781 74.515625 -46.550781 74.515625 -46.390625 C 74.515625 -46.230469 74.515625 -46.230469 74.355469 -46.230469 Z M 25.214844 -46.066406 C 25.214844 -45.90625 25.214844 -45.90625 25.054688 -45.90625 C 24.890625 -45.90625 24.890625 -45.90625 24.890625 -46.066406 C 24.890625 -46.230469 24.890625 -46.230469 25.054688 -46.230469 C 25.214844 -46.230469 25.214844 -46.230469 25.214844 -46.066406 Z M 24.890625 -45.90625 C 24.890625 -45.742188 24.890625 -45.742188 24.730469 -45.742188 C 24.570312 -45.742188 24.570312 -45.742188 24.570312 -45.90625 C 24.570312 -46.066406 24.570312 -46.066406 24.730469 -46.066406 C 24.890625 -46.066406 24.890625 -46.066406 24.890625 -45.90625 Z M 74.355469 -45.742188 C 74.191406 -45.742188 74.191406 -45.742188 74.191406 -45.90625 C 74.191406 -46.066406 74.191406 -46.066406 74.355469 -46.066406 C 74.515625 -46.066406 74.515625 -46.066406 74.515625 -45.90625 C 74.515625 -45.742188 74.515625 -45.742188 74.355469 -45.742188 Z M 24.40625 -44.9375 C 24.40625 -45.257812 24.570312 -45.582031 25.054688 -45.742188 L 25.214844 -45.582031 C 25.699219 -45.097656 24.570312 -44.9375 24.40625 -44.9375 Z M 74.191406 -45.257812 C 74.03125 -45.257812 74.03125 -45.257812 74.03125 -45.421875 L 74.191406 -45.421875 Z M 73.871094 -44.613281 C 73.707031 -44.613281 73.707031 -44.613281 73.707031 -44.773438 C 73.707031 -44.9375 73.707031 -44.9375 73.871094 -44.9375 C 74.03125 -44.9375 74.03125 -44.9375 74.03125 -44.773438 C 74.03125 -44.613281 74.03125 -44.613281 73.871094 -44.613281 Z M 73.546875 -44.449219 C 73.382812 -44.449219 73.382812 -44.449219 73.382812 -44.613281 C 73.382812 -44.773438 73.382812 -44.773438 73.546875 -44.773438 C 73.707031 -44.773438 73.707031 -44.773438 73.707031 -44.613281 C 73.707031 -44.449219 73.707031 -44.449219 73.546875 -44.449219 Z M 24.570312 -44.128906 C 24.570312 -44.289062 24.570312 -44.289062 24.730469 -44.289062 L 24.730469 -43.964844 C 24.570312 -43.964844 24.570312 -43.964844 24.570312 -44.128906 Z M 73.382812 -44.128906 C 73.382812 -43.964844 73.382812 -43.964844 73.222656 -43.964844 C 73.0625 -43.964844 73.0625 -43.964844 73.0625 -44.128906 C 73.0625 -44.289062 73.0625 -44.289062 73.222656 -44.289062 C 73.382812 -44.289062 73.382812 -44.289062 73.382812 -44.128906 Z M 73.546875 -43.644531 L 73.382812 -43.644531 C 73.382812 -43.804688 73.382812 -43.804688 73.546875 -43.804688 Z M 73.222656 -42.835938 C 73.0625 -42.835938 73.0625 -42.835938 73.0625 -42.996094 C 73.0625 -43.15625 73.0625 -43.15625 73.222656 -43.15625 C 73.382812 -43.15625 73.382812 -43.15625 73.382812 -42.996094 C 73.382812 -42.835938 73.382812 -42.835938 73.222656 -42.835938 Z M 24.085938 -41.21875 C 24.085938 -41.378906 24.085938 -41.542969 24.246094 -41.703125 L 24.246094 -42.1875 C 24.246094 -42.351562 24.246094 -42.511719 24.40625 -42.511719 L 24.40625 -42.835938 L 24.570312 -42.835938 L 24.570312 -41.21875 Z M 97.46875 -42.511719 C 97.628906 -42.511719 97.628906 -42.511719 97.628906 -42.351562 C 97.628906 -42.1875 97.628906 -42.1875 97.46875 -42.1875 C 97.308594 -42.1875 97.308594 -42.1875 97.308594 -42.351562 C 97.308594 -42.511719 97.308594 -42.511719 97.46875 -42.511719 Z M 97.308594 -42.1875 C 97.46875 -42.027344 97.628906 -41.863281 97.628906 -41.542969 L 97.628906 -40.734375 L 97.46875 -40.085938 L 97.308594 -40.085938 Z M 72.253906 -40.734375 C 72.089844 -40.734375 72.089844 -40.734375 72.089844 -40.894531 C 72.089844 -41.054688 72.089844 -41.054688 72.253906 -41.054688 C 72.414062 -41.054688 72.414062 -41.054688 72.414062 -40.894531 C 72.414062 -40.734375 72.414062 -40.734375 72.253906 -40.734375 Z M 24.246094 -40.734375 L 24.246094 -40.25 C 24.085938 -40.25 24.085938 -40.410156 24.085938 -40.570312 C 24.085938 -40.734375 24.085938 -40.894531 24.246094 -40.734375 Z M 24.085938 -40.085938 L 24.085938 -39.925781 C 23.921875 -39.925781 23.921875 -39.925781 23.921875 -40.085938 Z M 71.769531 -39.925781 C 71.605469 -39.925781 71.605469 -39.925781 71.605469 -40.085938 L 71.769531 -40.085938 Z M 24.246094 -39.761719 C 24.246094 -39.925781 24.246094 -39.925781 24.40625 -39.925781 C 24.570312 -39.925781 24.570312 -39.925781 24.570312 -39.761719 C 24.570312 -39.601562 24.570312 -39.601562 24.40625 -39.601562 C 24.246094 -39.601562 24.246094 -39.601562 24.246094 -39.761719 Z M 97.144531 -37.175781 L 97.144531 -39.601562 C 97.144531 -39.761719 97.308594 -39.761719 97.46875 -39.761719 L 97.46875 -35.722656 L 97.628906 -35.398438 L 97.308594 -35.5625 C 97.308594 -35.398438 97.308594 -35.074219 97.46875 -34.914062 L 97.46875 -34.269531 C 97.144531 -34.269531 96.984375 -34.429688 96.984375 -34.753906 C 96.984375 -35.5625 96.984375 -36.367188 97.144531 -37.175781 Z M 23.921875 -39.117188 L 23.921875 -39.441406 L 24.246094 -39.441406 Z M 23.921875 -37.175781 L 24.085938 -36.855469 C 24.085938 -36.691406 24.085938 -36.53125 23.921875 -36.207031 C 23.761719 -35.882812 23.761719 -35.722656 23.761719 -35.5625 L 23.597656 -35.722656 L 23.597656 -37.339844 C 23.761719 -37.5 23.921875 -37.660156 23.761719 -38.148438 C 23.597656 -38.46875 23.761719 -38.632812 23.921875 -38.632812 C 24.085938 -38.632812 24.246094 -38.46875 24.246094 -38.308594 C 24.246094 -37.824219 24.085938 -37.339844 23.921875 -37.175781 Z M 71.121094 -38.46875 C 70.960938 -38.46875 70.960938 -38.46875 70.960938 -38.632812 L 71.121094 -38.632812 Z M 70.3125 -37.175781 C 70.152344 -37.175781 70.152344 -37.175781 70.152344 -37.339844 L 70.3125 -37.339844 Z M 70.3125 -36.367188 C 70.152344 -36.367188 70.152344 -36.367188 70.152344 -36.53125 C 70.152344 -36.691406 70.152344 -36.691406 70.3125 -36.691406 Z M 69.988281 -35.722656 L 69.828125 -35.722656 C 69.828125 -35.882812 69.828125 -35.882812 69.988281 -35.882812 Z M 23.761719 -33.621094 C 23.597656 -33.621094 23.4375 -33.78125 23.4375 -33.945312 C 23.4375 -34.105469 23.4375 -34.429688 23.4375 -34.589844 L 23.4375 -35.074219 C 23.277344 -35.238281 23.4375 -35.238281 23.597656 -35.398438 L 23.761719 -35.074219 Z M 69.183594 -34.589844 C 69.019531 -34.589844 69.019531 -34.589844 69.019531 -34.753906 L 69.183594 -34.753906 Z M 96.824219 -31.679688 C 96.824219 -32.003906 96.824219 -32.328125 96.984375 -32.652344 L 96.984375 -33.460938 C 96.984375 -33.78125 96.984375 -33.945312 96.824219 -34.105469 C 97.308594 -34.105469 97.46875 -33.945312 97.46875 -33.621094 C 97.46875 -33.460938 97.46875 -33.296875 97.308594 -32.8125 C 97.144531 -32.328125 97.144531 -32.167969 97.144531 -32.003906 C 97.144531 -32.003906 97.144531 -31.84375 97.308594 -31.679688 L 97.308594 -31.359375 L 97.144531 -31.195312 L 97.144531 -28.609375 L 96.984375 -28.609375 C 96.824219 -29.257812 96.824219 -29.742188 96.824219 -30.226562 Z M 23.597656 -32.972656 C 23.597656 -32.8125 23.597656 -32.8125 23.4375 -32.8125 C 23.277344 -32.8125 23.277344 -32.8125 23.277344 -32.972656 C 23.277344 -33.136719 23.277344 -33.136719 23.4375 -33.136719 C 23.4375 -33.296875 23.4375 -33.296875 23.597656 -33.296875 C 23.761719 -33.296875 23.761719 -33.296875 23.761719 -33.136719 C 23.761719 -32.972656 23.761719 -32.972656 23.597656 -32.972656 Z M 23.4375 -33.136719 C 23.4375 -32.972656 23.4375 -32.972656 23.597656 -32.972656 C 23.597656 -33.136719 23.597656 -33.136719 23.4375 -33.136719 Z M 23.597656 -32.003906 C 23.597656 -31.519531 23.597656 -31.035156 23.4375 -30.550781 C 23.4375 -30.550781 23.4375 -30.710938 23.277344 -30.875 L 23.113281 -31.035156 L 23.277344 -31.519531 C 23.277344 -31.679688 23.277344 -32.003906 23.597656 -32.328125 Z M 23.277344 -28.933594 L 23.277344 -30.226562 L 23.4375 -30.066406 C 23.597656 -29.902344 23.597656 -29.902344 23.597656 -29.582031 C 23.4375 -29.417969 23.4375 -29.417969 23.4375 -29.257812 L 23.4375 -28.933594 Z M 23.4375 -28.609375 L 23.4375 -27.964844 L 23.277344 -28.125 L 23.277344 -28.285156 C 23.277344 -28.609375 23.277344 -28.609375 23.4375 -28.609375 Z M 23.277344 -27.800781 L 23.277344 -27.15625 L 23.113281 -27.316406 L 23.113281 -27.480469 C 23.113281 -27.800781 23.113281 -27.800781 23.277344 -27.800781 Z M 96.5 -27.316406 C 96.5 -27.480469 96.5 -27.480469 96.660156 -27.480469 C 96.824219 -27.480469 96.824219 -27.480469 96.824219 -27.316406 L 96.824219 -27.640625 L 96.984375 -27.800781 C 96.984375 -27.480469 96.984375 -27.15625 97.144531 -26.992188 L 97.144531 -26.023438 L 96.824219 -26.1875 L 96.824219 -27.316406 C 96.824219 -27.15625 96.824219 -27.15625 96.660156 -27.15625 C 96.5 -27.15625 96.5 -27.15625 96.5 -27.316406 Z M 23.4375 -26.832031 L 23.597656 -26.832031 L 23.597656 -26.347656 C 23.4375 -26.1875 23.4375 -26.1875 23.4375 -26.023438 Z M 96.984375 -25.863281 L 96.984375 -25.378906 L 96.660156 -25.539062 Z M 23.113281 -23.921875 C 22.953125 -23.921875 22.953125 -23.921875 22.953125 -24.085938 C 22.953125 -24.246094 22.953125 -24.246094 23.113281 -24.246094 L 23.277344 -24.246094 C 23.113281 -24.40625 23.113281 -24.40625 23.113281 -24.570312 C 22.953125 -24.570312 22.953125 -24.570312 22.953125 -24.730469 C 22.953125 -24.890625 22.953125 -24.890625 23.113281 -24.890625 L 23.113281 -25.699219 C 23.4375 -25.699219 23.597656 -25.539062 23.597656 -25.214844 L 23.597656 -24.570312 C 23.4375 -24.246094 23.4375 -24.085938 23.4375 -23.921875 C 23.4375 -23.921875 23.277344 -24.085938 23.277344 -24.085938 C 23.277344 -23.921875 23.277344 -23.921875 23.113281 -23.921875 Z M 97.46875 -21.984375 C 97.308594 -21.984375 97.308594 -21.984375 96.984375 -22.304688 L 96.824219 -24.570312 C 96.824219 -24.890625 96.824219 -25.054688 96.984375 -25.054688 C 96.984375 -24.570312 97.144531 -24.085938 97.308594 -23.597656 C 97.46875 -23.113281 97.46875 -22.46875 97.46875 -21.984375 Z M 23.277344 -24.730469 C 23.277344 -24.890625 23.277344 -24.890625 23.113281 -24.890625 L 23.113281 -24.570312 C 23.277344 -24.570312 23.277344 -24.570312 23.277344 -24.730469 Z M 23.277344 -24.246094 C 23.277344 -24.246094 23.277344 -24.246094 23.277344 -24.085938 Z M 23.277344 -23.597656 L 23.4375 -23.597656 L 23.4375 -23.4375 C 23.277344 -23.4375 23.277344 -23.4375 23.277344 -23.597656 Z M 23.597656 -22.628906 C 23.4375 -22.628906 23.4375 -22.628906 23.4375 -22.792969 C 23.4375 -22.953125 23.4375 -22.953125 23.597656 -22.953125 Z M 23.4375 -22.144531 L 23.597656 -22.144531 L 23.597656 -21.984375 C 23.4375 -21.984375 23.4375 -21.984375 23.4375 -22.144531 Z M 97.144531 -21.335938 L 97.308594 -21.011719 L 97.308594 -20.691406 L 97.46875 -20.367188 L 97.46875 -19.882812 L 97.308594 -19.558594 L 97.308594 -19.398438 C 97.144531 -19.234375 97.144531 -19.234375 97.144531 -19.074219 L 97.144531 -19.71875 C 96.984375 -20.042969 96.984375 -20.203125 96.984375 -20.367188 L 96.824219 -20.691406 C 96.824219 -21.175781 96.984375 -21.335938 97.144531 -21.335938 Z M 23.761719 -20.691406 C 23.597656 -20.691406 23.597656 -20.691406 23.597656 -20.851562 L 23.761719 -20.851562 Z M 24.085938 -18.589844 C 23.921875 -18.589844 23.921875 -18.589844 23.921875 -18.75 C 23.921875 -18.910156 23.921875 -18.910156 24.085938 -18.910156 C 24.246094 -18.910156 24.246094 -18.910156 24.246094 -18.75 C 24.246094 -18.589844 24.246094 -18.589844 24.085938 -18.589844 Z M 97.308594 -18.589844 L 97.308594 -17.617188 C 97.144531 -17.78125 97.144531 -18.105469 97.144531 -18.265625 Z M 97.792969 -17.78125 C 97.792969 -17.617188 97.792969 -17.617188 97.628906 -17.617188 C 97.46875 -17.617188 97.46875 -17.617188 97.46875 -17.78125 C 97.46875 -17.941406 97.46875 -17.941406 97.628906 -17.941406 C 97.792969 -17.941406 97.792969 -17.941406 97.792969 -17.78125 Z M 24.246094 -17.457031 C 24.085938 -17.457031 24.085938 -17.457031 24.085938 -17.617188 L 24.246094 -17.617188 Z M 24.40625 -16.972656 C 24.570312 -16.972656 24.570312 -16.8125 24.570312 -16.648438 C 24.40625 -16.648438 24.40625 -16.8125 24.40625 -16.972656 Z M 97.792969 -15.355469 C 97.792969 -15.03125 97.792969 -14.871094 97.628906 -14.710938 L 97.46875 -14.871094 L 97.308594 -16.8125 C 97.792969 -16.8125 97.792969 -15.839844 97.792969 -15.355469 Z M 24.570312 -15.515625 C 24.570312 -15.679688 24.570312 -15.679688 24.730469 -15.679688 L 24.730469 -15.355469 C 24.570312 -15.355469 24.570312 -15.355469 24.570312 -15.515625 Z M 24.890625 -14.871094 C 24.730469 -14.871094 24.730469 -14.871094 24.730469 -15.03125 C 24.730469 -15.195312 24.730469 -15.195312 24.890625 -15.195312 C 25.054688 -15.195312 25.054688 -15.195312 25.054688 -15.03125 C 25.054688 -14.871094 25.054688 -14.871094 24.890625 -14.871094 Z M 97.628906 -14.386719 L 97.628906 -14.0625 C 97.46875 -14.0625 97.46875 -14.0625 97.46875 -14.222656 C 97.46875 -14.386719 97.46875 -14.386719 97.628906 -14.386719 Z M 97.792969 -13.738281 L 97.953125 -13.902344 C 97.792969 -13.417969 97.792969 -13.09375 97.953125 -12.929688 C 98.117188 -12.769531 98.117188 -12.445312 98.117188 -11.960938 L 98.117188 -11.636719 C 98.117188 -11.476562 98.117188 -11.316406 97.953125 -11.316406 C 97.46875 -11.800781 97.46875 -13.09375 97.46875 -13.578125 C 97.46875 -13.738281 97.628906 -13.738281 97.792969 -13.738281 Z M 25.699219 -13.253906 C 25.539062 -13.253906 25.539062 -13.253906 25.539062 -13.417969 L 25.539062 -13.09375 C 25.378906 -13.09375 25.378906 -13.253906 25.378906 -13.578125 L 25.539062 -13.417969 C 25.539062 -13.578125 25.539062 -13.578125 25.699219 -13.578125 C 25.863281 -13.578125 25.863281 -13.578125 25.863281 -13.417969 C 25.863281 -13.253906 25.863281 -13.253906 25.699219 -13.253906 Z M 25.699219 -12.609375 C 25.539062 -12.609375 25.539062 -12.609375 25.539062 -12.769531 L 25.699219 -12.769531 Z M 97.144531 -12.285156 C 96.984375 -12.285156 96.984375 -12.285156 96.984375 -12.445312 L 97.144531 -12.445312 Z M 26.023438 -11.636719 C 25.863281 -11.636719 25.863281 -11.636719 25.863281 -11.800781 C 25.863281 -11.960938 25.863281 -11.960938 26.023438 -11.960938 C 26.1875 -11.960938 26.1875 -11.960938 26.1875 -11.800781 C 26.1875 -11.636719 26.1875 -11.636719 26.023438 -11.636719 Z M 26.347656 -10.828125 C 26.1875 -10.828125 26.1875 -10.828125 26.1875 -10.992188 L 26.347656 -10.992188 Z M 97.792969 -10.992188 L 98.117188 -10.992188 L 98.117188 -10.667969 C 97.953125 -10.667969 97.792969 -10.828125 97.792969 -10.992188 Z M 26.671875 -10.507812 L 26.992188 -9.859375 C 26.832031 -10.023438 26.671875 -10.183594 26.671875 -10.507812 Z M 98.4375 -6.628906 C 98.4375 -7.113281 98.4375 -9.859375 97.953125 -10.34375 C 98.601562 -10.34375 99.894531 -2.261719 99.894531 -1.777344 C 98.921875 -1.777344 99.246094 -6.140625 98.4375 -6.628906 Z M 32.8125 -1.453125 C 32.652344 -1.453125 32.652344 -1.453125 32.652344 -1.617188 C 32.652344 -1.777344 32.652344 -1.777344 32.8125 -1.777344 C 32.972656 -1.777344 32.972656 -1.777344 32.972656 -1.617188 C 32.972656 -1.453125 32.972656 -1.453125 32.8125 -1.453125 Z M 33.136719 -1.292969 C 32.972656 -1.292969 32.972656 -1.292969 32.972656 -1.453125 C 32.972656 -1.617188 32.972656 -1.617188 33.136719 -1.617188 C 33.296875 -1.617188 33.296875 -1.617188 33.296875 -1.453125 C 33.296875 -1.292969 33.296875 -1.292969 33.136719 -1.292969 Z M 100.054688 -1.617188 C 100.214844 -1.617188 100.214844 -1.617188 100.214844 -1.453125 C 100.214844 -1.292969 100.214844 -1.292969 100.054688 -1.292969 C 99.894531 -1.292969 99.894531 -1.292969 99.894531 -1.453125 C 99.894531 -1.617188 99.894531 -1.617188 100.054688 -1.617188 Z M 33.460938 -1.292969 C 34.105469 -1.292969 35.722656 -0.808594 36.207031 -0.648438 C 35.074219 -0.648438 34.269531 -0.648438 33.460938 -1.292969 Z M 100.054688 -0.808594 L 100.054688 -1.132812 L 100.378906 -0.96875 C 100.378906 -0.484375 100.378906 0 100.378906 0.484375 C 100.214844 0 100.054688 -0.324219 100.054688 -0.808594 Z M 99.894531 0.324219 C 99.894531 0.160156 99.894531 0.160156 100.054688 0.160156 C 100.214844 0.160156 100.214844 0.160156 100.214844 0.324219 C 100.214844 0.484375 100.214844 0.484375 100.054688 0.484375 C 99.894531 0.484375 99.894531 0.484375 99.894531 0.324219 Z M 100.214844 1.132812 C 100.054688 1.132812 100.054688 1.132812 100.054688 0.96875 C 100.054688 0.808594 100.054688 0.808594 100.214844 0.808594 C 100.378906 0.808594 100.378906 0.808594 100.378906 0.96875 C 100.378906 1.132812 100.378906 1.132812 100.214844 1.132812 Z M 102.15625 5.820312 C 101.671875 5.171875 100.539062 2.746094 100.539062 2.101562 L 100.703125 1.777344 C 100.703125 1.617188 100.703125 1.453125 100.703125 1.292969 L 101.1875 2.261719 C 101.832031 3.394531 102.15625 4.363281 102.15625 5.496094 Z M 102.480469 6.304688 C 102.640625 6.789062 102.964844 7.113281 102.964844 7.597656 C 102.640625 7.273438 102.480469 6.789062 102.480469 6.304688 Z M 103.125 7.921875 C 103.933594 8.40625 104.257812 9.214844 104.257812 10.023438 C 103.773438 9.535156 103.289062 8.890625 103.125 7.921875 Z M 104.417969 10.34375 L 104.582031 10.34375 L 104.417969 10.507812 Z M 104.742188 10.828125 C 104.582031 10.828125 104.582031 10.828125 104.582031 10.667969 C 104.582031 10.507812 104.582031 10.507812 104.742188 10.507812 C 104.902344 10.507812 104.902344 10.507812 104.902344 10.667969 C 104.902344 10.828125 104.902344 10.828125 104.742188 10.828125 Z M 105.390625 11.476562 C 105.390625 11.316406 105.390625 11.316406 105.550781 11.316406 C 105.710938 11.316406 105.710938 11.316406 105.710938 11.476562 C 105.710938 11.636719 105.710938 11.636719 105.550781 11.636719 C 105.390625 11.636719 105.390625 11.636719 105.390625 11.476562 Z M 105.390625 11.800781 L 105.226562 11.800781 C 105.226562 11.636719 105.226562 11.636719 105.390625 11.636719 Z M 105.875 12.609375 L 105.550781 12.285156 C 105.550781 12.121094 105.550781 11.960938 105.710938 11.960938 C 105.710938 12.121094 105.710938 12.121094 105.875 12.121094 Z M 106.519531 13.253906 C 106.359375 13.253906 106.359375 13.253906 106.359375 13.09375 C 106.359375 12.929688 106.359375 12.929688 106.519531 12.929688 C 106.683594 12.929688 106.683594 12.929688 106.683594 13.09375 C 106.683594 13.253906 106.683594 13.253906 106.519531 13.253906 Z M 106.683594 13.578125 L 106.683594 13.417969 L 106.84375 13.578125 Z M 117.675781 14.0625 L 117.511719 14.0625 C 117.511719 13.902344 117.511719 13.902344 117.675781 13.902344 Z M 117.511719 14.546875 C 117.351562 14.546875 117.351562 14.546875 117.351562 14.386719 C 117.351562 14.222656 117.351562 14.222656 117.511719 14.222656 C 117.675781 14.222656 117.675781 14.222656 117.675781 14.386719 C 117.675781 14.546875 117.675781 14.546875 117.511719 14.546875 Z M 112.015625 18.105469 C 112.5 17.941406 112.824219 17.941406 112.984375 17.941406 L 113.148438 18.105469 Z M 113.792969 18.265625 C 113.632812 18.265625 113.632812 18.265625 113.632812 18.105469 C 113.632812 17.941406 113.632812 17.941406 113.792969 17.941406 C 113.957031 17.941406 113.957031 17.941406 113.957031 18.105469 C 113.957031 18.265625 113.957031 18.265625 113.792969 18.265625 Z M 113.792969 18.265625 "/></g></g></g><g fill="#eddede" fill-opacity="1"><g transform="translate(140.66257, 243.711081)"><g><path d="M 8.398438 0.015625 L 9.632812 0.015625 L 5.21875 -10.257812 L 5.136719 -10.257812 L 0.5625 0.015625 L 0.914062 0.015625 L 2.730469 -4.03125 L 6.648438 -4.03125 Z M 2.839844 -4.304688 L 4.71875 -8.523438 L 6.535156 -4.304688 Z M 2.839844 -4.304688 "/></g></g></g><g fill="#eddede" fill-opacity="1"><g transform="translate(157.360227, 243.711081)"><g><path d="M 4.929688 -10.066406 L 0.769531 -10.066406 L 0.769531 0.015625 L 4.175781 0.015625 C 4.65625 0.015625 10.035156 0.257812 10.035156 -5.1875 C 10.035156 -9.585938 6.792969 -10.066406 4.929688 -10.066406 Z M 4.140625 -0.242188 L 1.910156 -0.242188 L 1.910156 -9.792969 L 4.320312 -9.792969 C 6.148438 -9.792969 8.847656 -9.121094 8.847656 -5.1875 C 8.847656 -1.269531 6.339844 -0.242188 4.140625 -0.242188 Z M 4.140625 -0.242188 "/></g></g></g><g fill="#eddede" fill-opacity="1"><g transform="translate(174.619817, 243.711081)"><g><path d="M 0.929688 0.015625 L 2.070312 0.015625 L 2.070312 -10.066406 L 0.929688 -10.066406 Z M 0.929688 0.015625 "/></g></g></g><g fill="#eddede" fill-opacity="1"><g transform="translate(184.188967, 243.711081)"><g><path d="M 7.882812 -10.066406 L 0.53125 -10.066406 L 0.53125 -9.808594 L 3.628906 -9.808594 L 3.628906 0.015625 L 4.785156 0.015625 L 4.785156 -9.808594 L 7.882812 -9.808594 Z M 7.882812 -10.066406 "/></g></g></g><g fill="#eddede" fill-opacity="1"><g transform="translate(199.104497, 243.711081)"><g><path d="M 7.820312 -10.066406 L 4.769531 -4.945312 L 1.832031 -10.066406 L 0.515625 -10.066406 L 3.757812 -4.382812 L 3.757812 0.015625 L 4.914062 0.015625 L 4.914062 -4.6875 L 8.140625 -10.066406 Z M 7.820312 -10.066406 "/></g></g></g><g fill="#eddede" fill-opacity="1"><g transform="translate(214.260862, 243.711081)"><g><path d="M 8.398438 0.015625 L 9.632812 0.015625 L 5.21875 -10.257812 L 5.136719 -10.257812 L 0.5625 0.015625 L 0.914062 0.015625 L 2.730469 -4.03125 L 6.648438 -4.03125 Z M 2.839844 -4.304688 L 4.71875 -8.523438 L 6.535156 -4.304688 Z M 2.839844 -4.304688 "/></g></g></g><g fill="#eddede" fill-opacity="1"><g transform="translate(230.951667, 243.711081)"><g/></g></g><g fill="#eddede" fill-opacity="1"><g transform="translate(192.334111, 263.72288)"><g><path d="M 2.046875 -2.984375 L 0.8125 0 L 0.1875 0 L 3.828125 -8.6875 L 4.15625 -8.6875 L 7.796875 0 L 7.15625 0 L 5.90625 -2.984375 Z M 3.953125 -7.71875 C 3.941406 -7.707031 3.925781 -7.660156 3.90625 -7.578125 C 3.789062 -7.234375 3.679688 -6.9375 3.578125 -6.6875 L 2.25 -3.484375 L 5.703125 -3.484375 L 4.375 -6.6875 C 4.09375 -7.289062 3.953125 -7.632812 3.953125 -7.71875 Z M 3.953125 -7.71875 "/></g></g></g><g fill="#eddede" fill-opacity="1"><g transform="translate(206.176936, 263.72288)"><g><path d="M 3.953125 -0.40625 C 4.984375 -0.40625 5.8125 -0.679688 6.4375 -1.234375 C 7.0625 -1.796875 7.375 -2.632812 7.375 -3.75 C 7.375 -4.863281 7.019531 -5.75 6.3125 -6.40625 C 5.613281 -7.070312 4.75 -7.40625 3.71875 -7.40625 C 2.988281 -7.40625 2.425781 -7.390625 2.03125 -7.359375 L 2.03125 -0.5 C 2.507812 -0.4375 3.148438 -0.40625 3.953125 -0.40625 Z M 3.71875 -7.90625 C 4.925781 -7.90625 5.929688 -7.53125 6.734375 -6.78125 C 7.546875 -6.039062 7.953125 -5.03125 7.953125 -3.75 C 7.953125 -2.46875 7.578125 -1.503906 6.828125 -0.859375 C 6.085938 -0.222656 5.128906 0.09375 3.953125 0.09375 C 3.140625 0.09375 2.304688 0.0507812 1.453125 -0.03125 L 1.453125 -7.828125 C 2.085938 -7.878906 2.84375 -7.90625 3.71875 -7.90625 Z M 3.71875 -7.90625 "/></g></g></g><g fill="#eddede" fill-opacity="1"><g transform="translate(220.93689, 263.72288)"><g><path d="M 7.4375 0 L 7.4375 -3.953125 L 2 -3.953125 L 2 0 L 1.453125 0 L 1.453125 -7.828125 L 2 -7.828125 L 2 -4.453125 L 7.4375 -4.453125 L 7.4375 -7.828125 L 8 -7.828125 L 8 0 Z M 7.4375 0 "/></g></g></g><g fill="#eddede" fill-opacity="1"><g transform="translate(236.227809, 263.72288)"><g><path d="M 1.453125 0 L 1.453125 -7.828125 L 2 -7.828125 L 2 0 Z M 1.453125 0 "/></g></g></g><g fill="#eddede" fill-opacity="1"><g transform="translate(245.521182, 263.72288)"><g><path d="M 6.203125 -7.828125 L 2.859375 -4.046875 C 4.179688 -2.453125 5.082031 -1.441406 5.5625 -1.015625 C 6.050781 -0.585938 6.535156 -0.347656 7.015625 -0.296875 L 7.015625 0.078125 C 6.554688 0.078125 6.1875 0.015625 5.90625 -0.109375 C 5.625 -0.234375 5.375 -0.398438 5.15625 -0.609375 C 4.945312 -0.816406 4.484375 -1.328125 3.765625 -2.140625 C 3.054688 -2.960938 2.523438 -3.59375 2.171875 -4.03125 L 5.53125 -7.828125 Z M 2 -7.828125 L 2 0 L 1.453125 0 L 1.453125 -7.828125 Z M 2 -7.828125 "/></g></g></g><g fill="#eddede" fill-opacity="1"><g transform="translate(258.193452, 263.72288)"><g><path d="M 1.828125 -2.71875 L 0.71875 0 L 0.140625 0 L 3.421875 -7.875 L 3.75 -7.875 L 7.0625 0 L 6.4375 0 L 5.3125 -2.71875 Z M 3.5625 -6.984375 C 3.4375 -6.617188 3.328125 -6.316406 3.234375 -6.078125 L 2.03125 -3.1875 L 5.109375 -3.1875 L 3.921875 -6.0625 C 3.734375 -6.519531 3.613281 -6.828125 3.5625 -6.984375 Z M 3.5625 -6.984375 "/></g></g></g><g fill="#eddede" fill-opacity="1"><g transform="translate(271.239818, 263.72288)"><g><path d="M 1.453125 0 L 1.453125 -7.796875 C 2.140625 -7.847656 2.722656 -7.875 3.203125 -7.875 C 3.941406 -7.875 4.550781 -7.679688 5.03125 -7.296875 C 5.519531 -6.921875 5.765625 -6.378906 5.765625 -5.671875 C 5.765625 -5.191406 5.628906 -4.75 5.359375 -4.34375 C 5.085938 -3.945312 4.773438 -3.625 4.421875 -3.375 C 5.378906 -2.101562 5.972656 -1.34375 6.203125 -1.09375 C 6.660156 -0.625 7.160156 -0.359375 7.703125 -0.296875 L 7.6875 0.078125 C 7.238281 0.078125 6.867188 0.015625 6.578125 -0.109375 C 6.296875 -0.234375 6.015625 -0.441406 5.734375 -0.734375 C 5.460938 -1.035156 4.859375 -1.835938 3.921875 -3.140625 C 3.265625 -3.140625 2.625 -3.160156 2 -3.203125 L 2 0 Z M 3.625 -3.609375 C 3.9375 -3.609375 4.269531 -3.816406 4.625 -4.234375 C 4.988281 -4.648438 5.171875 -5.132812 5.171875 -5.6875 C 5.171875 -6.25 4.984375 -6.671875 4.609375 -6.953125 C 4.234375 -7.242188 3.742188 -7.390625 3.140625 -7.390625 C 2.816406 -7.390625 2.4375 -7.375 2 -7.34375 L 2 -3.671875 C 2.582031 -3.628906 3.125 -3.609375 3.625 -3.609375 Z M 3.625 -3.609375 "/></g></g></g><g fill="#eddede" fill-opacity="1"><g transform="translate(284.418932, 263.72288)"><g><path d="M 1.453125 0 L 1.453125 -7.828125 L 2 -7.828125 L 2 0 Z M 1.453125 0 "/></g></g></g></svg>