<svg xmlns="http://www.w3.org/2000/svg" xmlns:xlink="http://www.w3.org/1999/xlink" width="500" zoomAndPan="magnify" viewBox="0 0 375 374.999991" height="500" preserveAspectRatio="xMidYMid meet" version="1.0"><defs><g/><clipPath id="2c7addfbe1"><path d="M 33.132812 139.386719 L 129.527344 139.386719 L 129.527344 235.613281 L 33.132812 235.613281 Z M 33.132812 139.386719 " clip-rule="nonzero"/></clipPath></defs><rect x="-37.5" width="450" fill="#ffffff" y="-37.499999" height="449.999989" fill-opacity="1"/><rect x="-37.5" width="450" fill="#ffffff" y="-37.499999" height="449.999989" fill-opacity="1"/><rect x="-37.5" width="450" fill="#333333" y="-37.499999" height="449.999989" fill-opacity="1"/><g clip-path="url(#2c7addfbe1)"><path fill="#ffd700" d="M 33.132812 139.386719 L 129.574219 139.386719 L 129.574219 235.832031 L 33.132812 235.832031 Z M 33.132812 139.386719 " fill-opacity="1" fill-rule="nonzero"/></g><g fill="#ffd700" fill-opacity="1"><g transform="translate(147.071361, 197.531718)"><g><path d="M 14.90625 0 L 16.636719 0 L 9.527344 -31.90625 L 7.839844 -31.90625 L 0.730469 0 L 2.460938 0 L 4.285156 -8.386719 L 13.082031 -8.386719 Z M 4.695312 -10.074219 L 8.707031 -28.398438 L 12.671875 -10.074219 Z M 4.695312 -10.074219 "/></g></g></g><g fill="#ffd700" fill-opacity="1"><g transform="translate(164.48336, 197.531718)"><g><path d="M 12.898438 -1.457031 C 14.175781 -2.644531 14.859375 -4.375 14.859375 -6.65625 L 14.859375 -25.070312 C 14.859375 -27.347656 14.222656 -29.125 12.945312 -30.3125 C 11.761719 -31.359375 10.257812 -31.90625 8.339844 -31.90625 L 1.824219 -31.90625 L 1.824219 0 L 8.339844 0 C 10.257812 0 11.761719 -0.457031 12.898438 -1.457031 Z M 3.511719 -1.6875 L 3.511719 -30.222656 L 8.339844 -30.222656 C 9.800781 -30.222656 10.941406 -29.8125 11.804688 -29.082031 C 12.71875 -28.214844 13.171875 -26.894531 13.171875 -25.070312 L 13.171875 -6.65625 C 13.171875 -3.328125 11.53125 -1.6875 8.339844 -1.6875 Z M 3.511719 -1.6875 "/></g></g></g><g fill="#ffd700" fill-opacity="1"><g transform="translate(180.619088, 197.531718)"><g><path d="M 2.050781 0 L 3.738281 0 L 3.738281 -31.90625 L 2.050781 -31.90625 Z M 2.050781 0 "/></g></g></g><g fill="#ffd700" fill-opacity="1"><g transform="translate(186.407897, 197.531718)"><g><path d="M 14.359375 -31.90625 L 0.59375 -31.90625 L 0.59375 -30.222656 L 6.609375 -30.222656 L 6.609375 0 L 8.296875 0 L 8.296875 -30.222656 L 14.359375 -30.222656 Z M 14.359375 -31.90625 "/></g></g></g><g fill="#ffd700" fill-opacity="1"><g transform="translate(201.312933, 197.531718)"><g><path d="M 8.113281 -13.765625 L 2.234375 -31.90625 L 0.457031 -31.90625 L 7.292969 -10.894531 L 7.292969 0 L 8.980469 0 L 8.980469 -10.894531 L 15.816406 -31.90625 L 14.039062 -31.90625 Z M 8.113281 -13.765625 "/></g></g></g><g fill="#ffd700" fill-opacity="1"><g transform="translate(217.539824, 197.531718)"><g><path d="M 14.90625 0 L 16.636719 0 L 9.527344 -31.90625 L 7.839844 -31.90625 L 0.730469 0 L 2.460938 0 L 4.285156 -8.386719 L 13.082031 -8.386719 Z M 4.695312 -10.074219 L 8.707031 -28.398438 L 12.671875 -10.074219 Z M 4.695312 -10.074219 "/></g></g></g><g fill="#ffd700" fill-opacity="1"><g transform="translate(234.951822, 197.531718)"><g/></g></g><g fill="#ffd700" fill-opacity="1"><g transform="translate(242.016902, 197.531718)"><g><path d="M 14.90625 0 L 16.636719 0 L 9.527344 -31.90625 L 7.839844 -31.90625 L 0.730469 0 L 2.460938 0 L 4.285156 -8.386719 L 13.082031 -8.386719 Z M 4.695312 -10.074219 L 8.707031 -28.398438 L 12.671875 -10.074219 Z M 4.695312 -10.074219 "/></g></g></g><g fill="#ffd700" fill-opacity="1"><g transform="translate(259.4289, 197.531718)"><g><path d="M 12.898438 -1.457031 C 14.175781 -2.644531 14.859375 -4.375 14.859375 -6.65625 L 14.859375 -25.070312 C 14.859375 -27.347656 14.222656 -29.125 12.945312 -30.3125 C 11.761719 -31.359375 10.257812 -31.90625 8.339844 -31.90625 L 1.824219 -31.90625 L 1.824219 0 L 8.339844 0 C 10.257812 0 11.761719 -0.457031 12.898438 -1.457031 Z M 3.511719 -1.6875 L 3.511719 -30.222656 L 8.339844 -30.222656 C 9.800781 -30.222656 10.941406 -29.8125 11.804688 -29.082031 C 12.71875 -28.214844 13.171875 -26.894531 13.171875 -25.070312 L 13.171875 -6.65625 C 13.171875 -3.328125 11.53125 -1.6875 8.339844 -1.6875 Z M 3.511719 -1.6875 "/></g></g></g><g fill="#ffd700" fill-opacity="1"><g transform="translate(275.564629, 197.531718)"><g><path d="M 13.445312 -31.90625 L 13.445312 -17.183594 L 3.738281 -17.183594 L 3.738281 -31.90625 L 2.050781 -31.90625 L 2.050781 0 L 3.738281 0 L 3.738281 -15.496094 L 13.445312 -15.496094 L 13.445312 0 L 15.132812 0 L 15.132812 -31.90625 Z M 13.445312 -31.90625 "/></g></g></g><g fill="#ffd700" fill-opacity="1"><g transform="translate(292.74873, 197.531718)"><g><path d="M 2.050781 0 L 3.738281 0 L 3.738281 -31.90625 L 2.050781 -31.90625 Z M 2.050781 0 "/></g></g></g><g fill="#ffd700" fill-opacity="1"><g transform="translate(298.53754, 197.531718)"><g><path d="M 15.632812 -31.90625 L 13.8125 -31.90625 L 3.511719 -8.113281 L 3.511719 -31.90625 L 1.824219 -31.90625 L 1.824219 0 L 3.511719 0 L 3.511719 -4.421875 L 8.023438 -14.632812 L 13.855469 0 L 15.632812 0 L 8.980469 -16.773438 Z M 15.632812 -31.90625 "/></g></g></g><g fill="#ffd700" fill-opacity="1"><g transform="translate(314.992335, 197.531718)"><g><path d="M 14.90625 0 L 16.636719 0 L 9.527344 -31.90625 L 7.839844 -31.90625 L 0.730469 0 L 2.460938 0 L 4.285156 -8.386719 L 13.082031 -8.386719 Z M 4.695312 -10.074219 L 8.707031 -28.398438 L 12.671875 -10.074219 Z M 4.695312 -10.074219 "/></g></g></g><g fill="#ffd700" fill-opacity="1"><g transform="translate(332.404326, 197.531718)"><g><path d="M 14.90625 0 L 10.347656 -14.402344 C 11.351562 -14.675781 12.261719 -15.132812 12.992188 -15.769531 C 14.265625 -16.957031 14.90625 -18.6875 14.90625 -21.011719 L 14.90625 -25.070312 C 14.90625 -27.347656 14.265625 -29.125 12.992188 -30.3125 C 11.804688 -31.359375 10.300781 -31.90625 8.386719 -31.90625 L 1.824219 -31.90625 L 1.824219 0 L 3.511719 0 L 3.511719 -14.175781 L 8.660156 -14.175781 L 13.128906 0 Z M 11.804688 -17.003906 C 10.984375 -16.226562 9.847656 -15.863281 8.386719 -15.863281 L 3.511719 -15.863281 L 3.511719 -30.222656 L 8.386719 -30.222656 C 9.847656 -30.222656 10.984375 -29.8125 11.804688 -29.082031 C 12.71875 -28.214844 13.21875 -26.894531 13.21875 -25.070312 L 13.21875 -21.011719 C 13.21875 -19.191406 12.71875 -17.824219 11.804688 -17.003906 Z M 11.804688 -17.003906 "/></g></g></g><g fill="#ffd700" fill-opacity="1"><g transform="translate(348.585624, 197.531718)"><g><path d="M 2.050781 0 L 3.738281 0 L 3.738281 -31.90625 L 2.050781 -31.90625 Z M 2.050781 0 "/></g></g></g><g fill="#ffd700" fill-opacity="1"><g transform="translate(147.071361, 214.464028)"><g><path d="M 2.484375 0 L 1.078125 0 L 1.078125 -4.421875 L 0.0625 -4.421875 L 0.0625 -5.546875 L 2.484375 -5.546875 Z M 2.484375 0 "/></g></g></g><g fill="#ffd700" fill-opacity="1"><g transform="translate(154.538782, 214.464028)"><g><path d="M 2.140625 0.0625 C 1.441406 0.0625 0.84375 -0.09375 0.34375 -0.40625 L 0.890625 -1.390625 C 1.210938 -1.148438 1.597656 -1.03125 2.046875 -1.03125 C 2.484375 -1.03125 2.8125 -1.160156 3.03125 -1.421875 C 3.25 -1.679688 3.351562 -2.039062 3.34375 -2.5 C 3.070312 -2.101562 2.632812 -1.90625 2.03125 -1.90625 C 1.488281 -1.90625 1.050781 -2.066406 0.71875 -2.390625 C 0.394531 -2.722656 0.234375 -3.160156 0.234375 -3.703125 C 0.234375 -4.285156 0.421875 -4.75 0.796875 -5.09375 C 1.179688 -5.4375 1.6875 -5.609375 2.3125 -5.609375 C 3.0625 -5.609375 3.644531 -5.363281 4.0625 -4.875 C 4.488281 -4.382812 4.703125 -3.710938 4.703125 -2.859375 C 4.703125 -1.972656 4.46875 -1.265625 4 -0.734375 C 3.539062 -0.203125 2.921875 0.0625 2.140625 0.0625 Z M 2.34375 -2.9375 C 2.613281 -2.9375 2.820312 -3.003906 2.96875 -3.140625 C 3.125 -3.285156 3.203125 -3.476562 3.203125 -3.71875 C 3.203125 -3.9375 3.128906 -4.117188 2.984375 -4.265625 C 2.835938 -4.410156 2.632812 -4.484375 2.375 -4.484375 C 2.113281 -4.484375 1.910156 -4.414062 1.765625 -4.28125 C 1.617188 -4.144531 1.546875 -3.945312 1.546875 -3.6875 C 1.546875 -3.445312 1.613281 -3.257812 1.75 -3.125 C 1.894531 -3 2.09375 -2.9375 2.34375 -2.9375 Z M 2.34375 -2.9375 "/></g></g></g><g fill="#ffd700" fill-opacity="1"><g transform="translate(163.748892, 214.464028)"><g><path d="M 2.140625 0.0625 C 1.441406 0.0625 0.84375 -0.09375 0.34375 -0.40625 L 0.890625 -1.390625 C 1.210938 -1.148438 1.597656 -1.03125 2.046875 -1.03125 C 2.484375 -1.03125 2.8125 -1.160156 3.03125 -1.421875 C 3.25 -1.679688 3.351562 -2.039062 3.34375 -2.5 C 3.070312 -2.101562 2.632812 -1.90625 2.03125 -1.90625 C 1.488281 -1.90625 1.050781 -2.066406 0.71875 -2.390625 C 0.394531 -2.722656 0.234375 -3.160156 0.234375 -3.703125 C 0.234375 -4.285156 0.421875 -4.75 0.796875 -5.09375 C 1.179688 -5.4375 1.6875 -5.609375 2.3125 -5.609375 C 3.0625 -5.609375 3.644531 -5.363281 4.0625 -4.875 C 4.488281 -4.382812 4.703125 -3.710938 4.703125 -2.859375 C 4.703125 -1.972656 4.46875 -1.265625 4 -0.734375 C 3.539062 -0.203125 2.921875 0.0625 2.140625 0.0625 Z M 2.34375 -2.9375 C 2.613281 -2.9375 2.820312 -3.003906 2.96875 -3.140625 C 3.125 -3.285156 3.203125 -3.476562 3.203125 -3.71875 C 3.203125 -3.9375 3.128906 -4.117188 2.984375 -4.265625 C 2.835938 -4.410156 2.632812 -4.484375 2.375 -4.484375 C 2.113281 -4.484375 1.910156 -4.414062 1.765625 -4.28125 C 1.617188 -4.144531 1.546875 -3.945312 1.546875 -3.6875 C 1.546875 -3.445312 1.613281 -3.257812 1.75 -3.125 C 1.894531 -3 2.09375 -2.9375 2.34375 -2.9375 Z M 2.34375 -2.9375 "/></g></g></g><g fill="#ffd700" fill-opacity="1"><g transform="translate(172.959002, 214.464028)"><g><path d="M 2.140625 0.0625 C 1.441406 0.0625 0.84375 -0.09375 0.34375 -0.40625 L 0.890625 -1.390625 C 1.210938 -1.148438 1.597656 -1.03125 2.046875 -1.03125 C 2.484375 -1.03125 2.8125 -1.160156 3.03125 -1.421875 C 3.25 -1.679688 3.351562 -2.039062 3.34375 -2.5 C 3.070312 -2.101562 2.632812 -1.90625 2.03125 -1.90625 C 1.488281 -1.90625 1.050781 -2.066406 0.71875 -2.390625 C 0.394531 -2.722656 0.234375 -3.160156 0.234375 -3.703125 C 0.234375 -4.285156 0.421875 -4.75 0.796875 -5.09375 C 1.179688 -5.4375 1.6875 -5.609375 2.3125 -5.609375 C 3.0625 -5.609375 3.644531 -5.363281 4.0625 -4.875 C 4.488281 -4.382812 4.703125 -3.710938 4.703125 -2.859375 C 4.703125 -1.972656 4.46875 -1.265625 4 -0.734375 C 3.539062 -0.203125 2.921875 0.0625 2.140625 0.0625 Z M 2.34375 -2.9375 C 2.613281 -2.9375 2.820312 -3.003906 2.96875 -3.140625 C 3.125 -3.285156 3.203125 -3.476562 3.203125 -3.71875 C 3.203125 -3.9375 3.128906 -4.117188 2.984375 -4.265625 C 2.835938 -4.410156 2.632812 -4.484375 2.375 -4.484375 C 2.113281 -4.484375 1.910156 -4.414062 1.765625 -4.28125 C 1.617188 -4.144531 1.546875 -3.945312 1.546875 -3.6875 C 1.546875 -3.445312 1.613281 -3.257812 1.75 -3.125 C 1.894531 -3 2.09375 -2.9375 2.34375 -2.9375 Z M 2.34375 -2.9375 "/></g></g></g><g fill="#f5f5f3" fill-opacity="1"><g transform="translate(57.991248, 208.883128)"><g><path d="M 19.976562 0 L 22.300781 0 L 12.769531 -42.765625 L 10.507812 -42.765625 L 0.976562 0 L 3.300781 0 L 5.742188 -11.242188 L 17.535156 -11.242188 Z M 6.292969 -13.5 L 11.667969 -38.0625 L 16.984375 -13.5 Z M 6.292969 -13.5 "/></g></g></g><g fill="#f5f5f3" fill-opacity="1"><g transform="translate(81.329407, 208.883128)"><g><path d="M 19.976562 0 L 22.300781 0 L 12.769531 -42.765625 L 10.507812 -42.765625 L 0.976562 0 L 3.300781 0 L 5.742188 -11.242188 L 17.535156 -11.242188 Z M 6.292969 -13.5 L 11.667969 -38.0625 L 16.984375 -13.5 Z M 6.292969 -13.5 "/></g></g></g></svg>