<svg xmlns="http://www.w3.org/2000/svg" xmlns:xlink="http://www.w3.org/1999/xlink" width="500" zoomAndPan="magnify" viewBox="0 0 375 374.999991" height="500" preserveAspectRatio="xMidYMid meet" version="1.0"><defs><g/></defs><rect x="-37.5" width="450" fill="#ffffff" y="-37.499999" height="449.999989" fill-opacity="1"/><rect x="-37.5" width="450" fill="#ffffff" y="-37.499999" height="449.999989" fill-opacity="1"/><rect x="-37.5" width="450" fill="#333333" y="-37.499999" height="449.999989" fill-opacity="1"/><g fill="#ffd700" fill-opacity="1"><g transform="translate(133.122533, 186.893501)"><g><path d="M 7.421875 -0.285156 C 7.28125 -0.285156 7.136719 -0.144531 7.136719 0 C 7.136719 0.285156 7.28125 0.429688 7.421875 0.429688 L 26.40625 0.429688 C 26.691406 0.429688 26.835938 0.285156 26.835938 0 C 26.835938 -0.144531 26.691406 -0.285156 26.40625 -0.285156 C 24.125 -0.285156 22.269531 -1.140625 20.984375 -2.710938 C 19.699219 -4.425781 19.554688 -6.851562 20.269531 -9.277344 L 41.964844 -78.792969 L 63.519531 -9.277344 C 64.234375 -6.851562 64.089844 -4.425781 62.804688 -2.710938 C 61.664062 -1.140625 59.664062 -0.285156 57.382812 -0.285156 C 57.097656 -0.285156 56.953125 -0.144531 56.953125 0 C 56.953125 0.285156 57.097656 0.429688 57.382812 0.429688 L 88.5 0.429688 C 88.640625 0.429688 88.785156 0.285156 88.785156 0 C 88.785156 -0.144531 88.640625 -0.285156 88.5 -0.285156 C 83.359375 -0.285156 77.9375 -4.425781 76.367188 -9.5625 L 48.390625 -99.632812 C 48.390625 -99.632812 48.246094 -99.632812 48.246094 -99.632812 C 48.246094 -99.777344 48.246094 -99.777344 48.246094 -99.777344 C 48.105469 -99.777344 48.105469 -99.777344 48.105469 -99.777344 C 48.105469 -99.777344 47.960938 -99.777344 47.960938 -99.777344 C 47.960938 -99.777344 47.960938 -99.917969 47.960938 -99.917969 C 47.960938 -99.917969 47.960938 -99.777344 47.960938 -99.777344 C 47.960938 -99.777344 47.820312 -99.777344 47.820312 -99.777344 C 47.675781 -99.777344 47.675781 -99.777344 47.675781 -99.777344 C 47.675781 -99.777344 47.675781 -99.777344 47.675781 -99.632812 C 47.675781 -99.632812 47.675781 -99.632812 47.53125 -99.632812 L 41.539062 -80.078125 L 19.554688 -9.5625 C 17.984375 -4.425781 12.5625 -0.285156 7.421875 -0.285156 Z M 7.421875 -0.285156 "/></g></g></g><g fill="#ffd700" fill-opacity="1"><g transform="translate(130.643975, 305.796552)"><g><path d="M 116.667969 -74.660156 C 129.546875 -82.839844 132.195312 -94.441406 131.742188 -95.242188 C 131.546875 -95.585938 131.191406 -95.683594 130.847656 -95.492188 C 130.273438 -95.167969 130.054688 -90.214844 125.1875 -84.148438 C 122.304688 -80.707031 119.554688 -78.097656 116.351562 -76.289062 C 115.484375 -95.710938 113.554688 -114.082031 114.339844 -134.589844 C 115.226562 -158.921875 118.640625 -170.503906 118.316406 -171.078125 C 118.058594 -171.535156 117.75 -171.8125 117.292969 -171.554688 C 112.144531 -168.648438 100.152344 -147.691406 90.980469 -108.117188 C 81.660156 -114.46875 68.476562 -116.976562 57.957031 -111.03125 C 49.835938 -106.445312 44.113281 -95.214844 50.960938 -83.09375 C 56.902344 -72.574219 67.714844 -68.121094 79.273438 -66.355469 C 72.816406 -48.679688 63.195312 -36.605469 47.871094 -27.949219 C 34.949219 -20.648438 17.132812 -21.746094 10.800781 -32.953125 C 2.789062 -47.132812 12.441406 -65.558594 25.480469 -72.925781 C 37.027344 -79.449219 46.078125 -77.320312 50.40625 -69.65625 C 56.476562 -58.90625 49.652344 -46.152344 37.875 -39.5 C 35.929688 -38.402344 34.824219 -38.226562 34.25 -37.902344 C 33.679688 -37.582031 33.695312 -37.289062 33.953125 -36.832031 C 34.40625 -36.03125 35.105469 -36.125 39.792969 -38.773438 C 50.542969 -44.84375 58.886719 -58.914062 52.105469 -70.917969 C 47 -79.953125 34.804688 -83.921875 20.851562 -76.042969 C 8.957031 -69.324219 -2.769531 -50.027344 6.664062 -33.332031 C 14.417969 -19.609375 33.207031 -17.855469 48.988281 -26.769531 C 65.914062 -36.332031 75.859375 -51.300781 81.046875 -66.152344 C 90.34375 -64.914062 99.984375 -67.34375 108.863281 -70.851562 L 109.667969 -61.953125 L 117.898438 -66.605469 Z M 101.933594 -92.734375 C 105.484375 -86.441406 107.308594 -79.476562 108.546875 -72.484375 C 100.710938 -69.261719 90.792969 -66.527344 81.609375 -67.824219 C 86.050781 -79.988281 88.410156 -92.636719 91.957031 -105.050781 C 95.203125 -102.507812 99.347656 -97.308594 101.933594 -92.734375 Z M 107.882812 -83.269531 C 106.578125 -86.910156 104.921875 -90.648438 102.851562 -94.308594 C 100.269531 -98.882812 96.984375 -103.363281 92.457031 -106.839844 C 99.371094 -135.183594 110.125 -162.074219 115 -165.734375 L 115.355469 -165.632812 C 107.355469 -138.941406 105.378906 -110.667969 108.238281 -83.171875 Z M 56.46875 -83.492188 C 49.878906 -95.15625 55.207031 -104.953125 63.210938 -109.476562 C 72.585938 -114.773438 82.101562 -111.546875 90.546875 -106.210938 C 87.144531 -93.277344 84.328125 -80.371094 79.71875 -67.964844 C 71.125 -69.292969 62.28125 -73.199219 56.46875 -83.492188 Z M 56.46875 -83.492188 "/></g></g></g><g fill="#ffd700" fill-opacity="1"><g transform="translate(229.181341, 110.300052)"><g><path d="M 4.6875 0 L 4.234375 -1.296875 L 1.625 -1.296875 L 1.15625 0 L 0.375 0 L 2.515625 -5.875 L 3.359375 -5.875 L 5.484375 0 Z M 1.84375 -1.90625 L 4.015625 -1.90625 L 2.921875 -4.9375 Z M 1.84375 -1.90625 "/></g></g></g><g fill="#ffd700" fill-opacity="1"><g transform="translate(236.349477, 110.300052)"><g><path d="M 1.40625 -0.59375 L 2.5 -0.59375 C 3.238281 -0.59375 3.800781 -0.796875 4.1875 -1.203125 C 4.582031 -1.609375 4.78125 -2.175781 4.78125 -2.90625 C 4.78125 -3.632812 4.582031 -4.203125 4.1875 -4.609375 C 3.800781 -5.015625 3.238281 -5.21875 2.5 -5.21875 L 1.40625 -5.21875 Z M 2.5 -5.875 C 3.445312 -5.875 4.191406 -5.609375 4.734375 -5.078125 C 5.285156 -4.546875 5.5625 -3.820312 5.5625 -2.90625 C 5.5625 -1.988281 5.285156 -1.273438 4.734375 -0.765625 C 4.191406 -0.253906 3.445312 0 2.5 0 L 0.640625 0 L 0.640625 -5.875 Z M 2.5 -5.875 "/></g></g></g><g fill="#ffd700" fill-opacity="1"><g transform="translate(243.560035, 110.300052)"><g><path d="M 0.640625 0 L 0.640625 -5.875 L 1.40625 -5.875 L 1.40625 0 Z M 0.640625 0 "/></g></g></g><g fill="#ffd700" fill-opacity="1"><g transform="translate(246.910812, 110.300052)"><g><path d="M 0.375 -5.265625 L 0.375 -5.875 L 4.25 -5.875 L 4.25 -5.265625 L 2.703125 -5.265625 L 2.703125 0 L 1.921875 0 L 1.921875 -5.265625 Z M 0.375 -5.265625 "/></g></g></g><g fill="#ffd700" fill-opacity="1"><g transform="translate(252.848915, 110.300052)"><g><path d="M 2.8125 0 L 2.046875 0 L 2.046875 -2.21875 L 0.125 -5.875 L 0.96875 -5.875 L 2.421875 -2.9375 L 3.875 -5.875 L 4.71875 -5.875 L 2.8125 -2.21875 Z M 2.8125 0 "/></g></g></g><g fill="#ffd700" fill-opacity="1"><g transform="translate(259.007572, 110.300052)"><g><path d="M 4.6875 0 L 4.234375 -1.296875 L 1.625 -1.296875 L 1.15625 0 L 0.375 0 L 2.515625 -5.875 L 3.359375 -5.875 L 5.484375 0 Z M 1.84375 -1.90625 L 4.015625 -1.90625 L 2.921875 -4.9375 Z M 1.84375 -1.90625 "/></g></g></g><g fill="#ffd700" fill-opacity="1"><g transform="translate(229.181341, 120.196834)"><g><path d="M 4.765625 0 L 4.28125 -1.359375 L 1.546875 -1.359375 L 1.046875 0 L 0.453125 0 L 2.609375 -5.859375 L 3.21875 -5.859375 L 5.359375 0 Z M 1.71875 -1.84375 L 4.09375 -1.84375 L 2.90625 -5.109375 Z M 1.71875 -1.84375 "/></g></g></g><g fill="#ffd700" fill-opacity="1"><g transform="translate(236.298585, 120.196834)"><g><path d="M 1.234375 -0.453125 L 2.4375 -0.453125 C 3.21875 -0.453125 3.8125 -0.664062 4.21875 -1.09375 C 4.632812 -1.519531 4.84375 -2.117188 4.84375 -2.890625 C 4.84375 -3.660156 4.632812 -4.257812 4.21875 -4.6875 C 3.8125 -5.113281 3.21875 -5.328125 2.4375 -5.328125 L 1.234375 -5.328125 Z M 2.4375 -5.859375 C 3.382812 -5.859375 4.125 -5.59375 4.65625 -5.0625 C 5.1875 -4.539062 5.453125 -3.816406 5.453125 -2.890625 C 5.453125 -1.960938 5.1875 -1.25 4.65625 -0.75 C 4.125 -0.25 3.382812 0 2.4375 0 L 0.640625 0 L 0.640625 -5.859375 Z M 2.4375 -5.859375 "/></g></g></g><g fill="#ffd700" fill-opacity="1"><g transform="translate(243.415829, 120.196834)"><g><path d="M 4.375 -5.859375 L 4.96875 -5.859375 L 4.96875 0 L 4.375 0 L 4.375 -2.703125 L 1.234375 -2.703125 L 1.234375 0 L 0.640625 0 L 0.640625 -5.859375 L 1.234375 -5.859375 L 1.234375 -3.1875 L 4.375 -3.1875 Z M 4.375 -5.859375 "/></g></g></g><g fill="#ffd700" fill-opacity="1"><g transform="translate(250.320997, 120.196834)"><g><path d="M 0.640625 0 L 0.640625 -5.859375 L 1.234375 -5.859375 L 1.234375 0 Z M 0.640625 0 "/></g></g></g><g fill="#ffd700" fill-opacity="1"><g transform="translate(253.493632, 120.196834)"><g><path d="M 1.234375 0 L 0.640625 0 L 0.640625 -5.859375 L 1.234375 -5.859375 L 1.234375 -3.109375 L 3.765625 -5.859375 L 4.546875 -5.859375 L 1.703125 -2.890625 L 4.546875 0 L 3.734375 0 L 1.234375 -2.625 Z M 1.234375 0 "/></g></g></g><g fill="#ffd700" fill-opacity="1"><g transform="translate(259.592909, 120.196834)"><g><path d="M 4.765625 0 L 4.28125 -1.359375 L 1.546875 -1.359375 L 1.046875 0 L 0.453125 0 L 2.609375 -5.859375 L 3.21875 -5.859375 L 5.359375 0 Z M 1.71875 -1.84375 L 4.09375 -1.84375 L 2.90625 -5.109375 Z M 1.71875 -1.84375 "/></g></g></g><g fill="#ffd700" fill-opacity="1"><g transform="translate(266.710152, 120.196834)"><g><path d="M 1.234375 -2.453125 L 1.234375 0 L 0.640625 0 L 0.640625 -5.859375 L 2.421875 -5.859375 C 3.078125 -5.859375 3.570312 -5.695312 3.90625 -5.375 C 4.25 -5.0625 4.421875 -4.664062 4.421875 -4.1875 C 4.421875 -3.707031 4.285156 -3.316406 4.015625 -3.015625 C 3.753906 -2.722656 3.363281 -2.546875 2.84375 -2.484375 L 4.5 0 L 3.734375 0 L 2.140625 -2.453125 Z M 1.234375 -5.375 L 1.234375 -2.9375 L 2.421875 -2.9375 C 3.359375 -2.9375 3.828125 -3.34375 3.828125 -4.15625 C 3.828125 -4.96875 3.359375 -5.375 2.421875 -5.375 Z M 1.234375 -5.375 "/></g></g></g><g fill="#ffd700" fill-opacity="1"><g transform="translate(273.131787, 120.196834)"><g><path d="M 0.640625 0 L 0.640625 -5.859375 L 1.234375 -5.859375 L 1.234375 0 Z M 0.640625 0 "/></g></g></g><g fill="#ffd700" fill-opacity="1"><g transform="translate(114.634648, 206.928518)"><g><path d="M 1.140625 0 L 1.140625 -5.34375 L 0.4375 -5.34375 L 0.4375 -6.03125 L 1.890625 -6.03125 L 1.890625 0 Z M 1.140625 0 "/></g></g></g><g fill="#ffd700" fill-opacity="1"><g transform="translate(118.664055, 206.928518)"><g><path d="M 1.4375 -4.328125 C 1.4375 -3.921875 1.550781 -3.59375 1.78125 -3.34375 C 2.007812 -3.101562 2.332031 -2.984375 2.75 -2.984375 C 3.175781 -2.984375 3.492188 -3.097656 3.703125 -3.328125 C 3.921875 -3.566406 4.03125 -3.894531 4.03125 -4.3125 C 4.03125 -4.738281 3.914062 -5.070312 3.6875 -5.3125 C 3.457031 -5.5625 3.140625 -5.6875 2.734375 -5.6875 C 2.335938 -5.6875 2.019531 -5.5625 1.78125 -5.3125 C 1.550781 -5.0625 1.4375 -4.734375 1.4375 -4.328125 Z M 2.828125 -0.65625 C 3.285156 -0.65625 3.617188 -0.828125 3.828125 -1.171875 C 4.035156 -1.523438 4.140625 -2.140625 4.140625 -3.015625 C 3.992188 -2.785156 3.785156 -2.609375 3.515625 -2.484375 C 3.253906 -2.367188 2.972656 -2.3125 2.671875 -2.3125 C 2.109375 -2.3125 1.640625 -2.488281 1.265625 -2.84375 C 0.890625 -3.195312 0.703125 -3.679688 0.703125 -4.296875 C 0.703125 -4.910156 0.878906 -5.40625 1.234375 -5.78125 C 1.585938 -6.15625 2.082031 -6.34375 2.71875 -6.34375 C 3.457031 -6.34375 3.988281 -6.085938 4.3125 -5.578125 C 4.632812 -5.066406 4.796875 -4.269531 4.796875 -3.1875 C 4.796875 -2.101562 4.644531 -1.300781 4.34375 -0.78125 C 4.050781 -0.269531 3.535156 -0.015625 2.796875 -0.015625 C 2.222656 -0.015625 1.773438 -0.160156 1.453125 -0.453125 C 1.128906 -0.753906 0.9375 -1.132812 0.875 -1.59375 L 1.578125 -1.59375 C 1.703125 -0.96875 2.117188 -0.65625 2.828125 -0.65625 Z M 2.828125 -0.65625 "/></g></g></g><g fill="#ffd700" fill-opacity="1"><g transform="translate(125.357129, 206.928518)"><g><path d="M 1.4375 -4.328125 C 1.4375 -3.921875 1.550781 -3.59375 1.78125 -3.34375 C 2.007812 -3.101562 2.332031 -2.984375 2.75 -2.984375 C 3.175781 -2.984375 3.492188 -3.097656 3.703125 -3.328125 C 3.921875 -3.566406 4.03125 -3.894531 4.03125 -4.3125 C 4.03125 -4.738281 3.914062 -5.070312 3.6875 -5.3125 C 3.457031 -5.5625 3.140625 -5.6875 2.734375 -5.6875 C 2.335938 -5.6875 2.019531 -5.5625 1.78125 -5.3125 C 1.550781 -5.0625 1.4375 -4.734375 1.4375 -4.328125 Z M 2.828125 -0.65625 C 3.285156 -0.65625 3.617188 -0.828125 3.828125 -1.171875 C 4.035156 -1.523438 4.140625 -2.140625 4.140625 -3.015625 C 3.992188 -2.785156 3.785156 -2.609375 3.515625 -2.484375 C 3.253906 -2.367188 2.972656 -2.3125 2.671875 -2.3125 C 2.109375 -2.3125 1.640625 -2.488281 1.265625 -2.84375 C 0.890625 -3.195312 0.703125 -3.679688 0.703125 -4.296875 C 0.703125 -4.910156 0.878906 -5.40625 1.234375 -5.78125 C 1.585938 -6.15625 2.082031 -6.34375 2.71875 -6.34375 C 3.457031 -6.34375 3.988281 -6.085938 4.3125 -5.578125 C 4.632812 -5.066406 4.796875 -4.269531 4.796875 -3.1875 C 4.796875 -2.101562 4.644531 -1.300781 4.34375 -0.78125 C 4.050781 -0.269531 3.535156 -0.015625 2.796875 -0.015625 C 2.222656 -0.015625 1.773438 -0.160156 1.453125 -0.453125 C 1.128906 -0.753906 0.9375 -1.132812 0.875 -1.59375 L 1.578125 -1.59375 C 1.703125 -0.96875 2.117188 -0.65625 2.828125 -0.65625 Z M 2.828125 -0.65625 "/></g></g></g><g fill="#ffd700" fill-opacity="1"><g transform="translate(132.050202, 206.928518)"><g><path d="M 1.4375 -4.328125 C 1.4375 -3.921875 1.550781 -3.59375 1.78125 -3.34375 C 2.007812 -3.101562 2.332031 -2.984375 2.75 -2.984375 C 3.175781 -2.984375 3.492188 -3.097656 3.703125 -3.328125 C 3.921875 -3.566406 4.03125 -3.894531 4.03125 -4.3125 C 4.03125 -4.738281 3.914062 -5.070312 3.6875 -5.3125 C 3.457031 -5.5625 3.140625 -5.6875 2.734375 -5.6875 C 2.335938 -5.6875 2.019531 -5.5625 1.78125 -5.3125 C 1.550781 -5.0625 1.4375 -4.734375 1.4375 -4.328125 Z M 2.828125 -0.65625 C 3.285156 -0.65625 3.617188 -0.828125 3.828125 -1.171875 C 4.035156 -1.523438 4.140625 -2.140625 4.140625 -3.015625 C 3.992188 -2.785156 3.785156 -2.609375 3.515625 -2.484375 C 3.253906 -2.367188 2.972656 -2.3125 2.671875 -2.3125 C 2.109375 -2.3125 1.640625 -2.488281 1.265625 -2.84375 C 0.890625 -3.195312 0.703125 -3.679688 0.703125 -4.296875 C 0.703125 -4.910156 0.878906 -5.40625 1.234375 -5.78125 C 1.585938 -6.15625 2.082031 -6.34375 2.71875 -6.34375 C 3.457031 -6.34375 3.988281 -6.085938 4.3125 -5.578125 C 4.632812 -5.066406 4.796875 -4.269531 4.796875 -3.1875 C 4.796875 -2.101562 4.644531 -1.300781 4.34375 -0.78125 C 4.050781 -0.269531 3.535156 -0.015625 2.796875 -0.015625 C 2.222656 -0.015625 1.773438 -0.160156 1.453125 -0.453125 C 1.128906 -0.753906 0.9375 -1.132812 0.875 -1.59375 L 1.578125 -1.59375 C 1.703125 -0.96875 2.117188 -0.65625 2.828125 -0.65625 Z M 2.828125 -0.65625 "/></g></g></g><g fill="#ffd700" fill-opacity="1"><g transform="translate(138.735897, 206.928518)"><g/></g></g></svg>