<svg xmlns="http://www.w3.org/2000/svg" xmlns:xlink="http://www.w3.org/1999/xlink" width="500" zoomAndPan="magnify" viewBox="0 0 375 374.999991" height="500" preserveAspectRatio="xMidYMid meet" version="1.0"><defs><g/><clipPath id="ebd9d2d42f"><path d="M 124 86 L 251 86 L 251 233 L 124 233 Z M 124 86 " clip-rule="nonzero"/></clipPath><clipPath id="560d0c217d"><path d="M 93 140.726562 L 219.964844 68.828125 L 282.15625 178.660156 L 155.191406 250.554688 Z M 93 140.726562 " clip-rule="nonzero"/></clipPath><clipPath id="33c940143c"><path d="M 188.105469 86.871094 L 124.703125 122.773438 L 124.09375 195.640625 L 186.894531 232.601562 L 250.300781 196.699219 L 250.90625 123.832031 L 188.105469 86.871094 " clip-rule="nonzero"/></clipPath><clipPath id="7157eae15f"><path d="M 135.832031 108.070312 L 239.332031 108.070312 L 239.332031 211.570312 L 135.832031 211.570312 Z M 135.832031 108.070312 " clip-rule="nonzero"/></clipPath></defs><g clip-path="url(#ebd9d2d42f)"><g clip-path="url(#560d0c217d)"><g clip-path="url(#33c940143c)"><path fill="#eddede" d="M 93 140.726562 L 219.707031 68.976562 L 281.898438 178.804688 L 155.191406 250.554688 Z M 93 140.726562 " fill-opacity="1" fill-rule="nonzero"/></g></g></g><g clip-path="url(#7157eae15f)"><path fill="#333333" d="M 236.574219 181.117188 L 236.574219 170.34375 C 236.574219 169.855469 236.175781 169.457031 235.683594 169.457031 L 221.082031 169.457031 C 222.046875 166.660156 222.671875 163.707031 222.90625 160.644531 L 228.445312 160.644531 C 228.84375 162.230469 230.277344 163.414062 231.984375 163.414062 C 234 163.414062 235.640625 161.773438 235.640625 159.757812 C 235.640625 157.742188 234 156.101562 231.984375 156.101562 C 230.277344 156.101562 228.839844 157.285156 228.445312 158.871094 L 222.996094 158.871094 C 223.003906 158.558594 223.007812 158.242188 223.007812 157.925781 C 223.007812 155.304688 222.722656 152.753906 222.179688 150.292969 L 229.21875 150.292969 C 229.707031 150.292969 230.105469 149.894531 230.105469 149.40625 L 230.105469 140.332031 C 231.691406 139.933594 232.871094 138.496094 232.871094 136.789062 C 232.871094 134.773438 231.234375 133.132812 229.21875 133.132812 C 227.203125 133.132812 225.5625 134.773438 225.5625 136.789062 C 225.5625 138.496094 226.742188 139.933594 228.332031 140.332031 L 228.332031 148.519531 L 221.738281 148.519531 C 218.621094 137.210938 210.023438 128.148438 198.996094 124.386719 L 198.996094 112.609375 L 208.878906 112.609375 C 209.277344 114.195312 210.710938 115.375 212.417969 115.375 C 214.433594 115.375 216.070312 113.734375 216.070312 111.71875 C 216.070312 109.707031 214.433594 108.066406 212.417969 108.066406 C 210.710938 108.066406 209.277344 109.246094 208.878906 110.832031 L 198.105469 110.832031 C 197.617188 110.832031 197.21875 111.230469 197.21875 111.71875 L 197.21875 123.832031 C 194.40625 123.039062 191.453125 122.582031 188.40625 122.511719 L 188.40625 118.960938 C 189.992188 118.5625 191.171875 117.128906 191.171875 115.417969 C 191.171875 113.402344 189.535156 111.765625 187.519531 111.765625 C 185.503906 111.765625 183.863281 113.402344 183.863281 115.417969 C 183.863281 117.128906 185.046875 118.5625 186.632812 118.960938 L 186.632812 122.515625 C 183.667969 122.59375 180.792969 123.039062 178.054688 123.804688 L 178.054688 118.1875 C 178.054688 117.699219 177.65625 117.300781 177.167969 117.300781 L 168.09375 117.300781 C 167.695312 115.710938 166.261719 114.53125 164.550781 114.53125 C 162.535156 114.53125 160.894531 116.171875 160.894531 118.1875 C 160.894531 120.203125 162.535156 121.839844 164.550781 121.839844 C 166.257812 121.839844 167.695312 120.660156 168.09375 119.074219 L 176.277344 119.074219 L 176.277344 124.351562 C 165.234375 128.078125 156.613281 137.117188 153.457031 148.410156 L 140.371094 148.410156 L 140.371094 138.527344 C 141.957031 138.128906 143.136719 136.695312 143.136719 134.988281 C 143.136719 132.972656 141.496094 131.332031 139.484375 131.332031 C 137.46875 131.332031 135.828125 132.972656 135.828125 134.988281 C 135.828125 136.695312 137.007812 138.128906 138.59375 138.527344 L 138.59375 149.296875 C 138.59375 149.789062 138.992188 150.183594 139.484375 150.183594 L 153.011719 150.183594 C 152.453125 152.679688 152.15625 155.269531 152.15625 157.925781 C 152.15625 158.285156 152.164062 158.640625 152.175781 158.996094 L 146.722656 158.996094 C 146.324219 157.410156 144.890625 156.230469 143.179688 156.230469 C 141.167969 156.230469 139.527344 157.871094 139.527344 159.886719 C 139.527344 161.902344 141.167969 163.539062 143.179688 163.539062 C 144.890625 163.539062 146.324219 162.359375 146.722656 160.773438 L 152.273438 160.773438 C 152.511719 163.75 153.117188 166.625 154.046875 169.351562 L 145.949219 169.351562 C 145.457031 169.351562 145.0625 169.746094 145.0625 170.238281 L 145.0625 179.3125 C 143.472656 179.710938 142.292969 181.144531 142.292969 182.855469 C 142.292969 184.867188 143.933594 186.507812 145.949219 186.507812 C 147.964844 186.507812 149.601562 184.867188 149.601562 182.855469 C 149.601562 181.144531 148.421875 179.710938 146.835938 179.3125 L 146.835938 171.125 L 154.710938 171.125 C 158.546875 180.648438 166.40625 188.132812 176.171875 191.464844 L 176.171875 207.035156 L 166.289062 207.035156 C 165.890625 205.449219 164.457031 204.265625 162.75 204.265625 C 160.734375 204.265625 159.09375 205.90625 159.09375 207.921875 C 159.09375 209.9375 160.734375 211.574219 162.75 211.574219 C 164.457031 211.574219 165.890625 210.398438 166.289062 208.8125 L 177.058594 208.8125 C 177.550781 208.8125 177.945312 208.410156 177.945312 207.921875 L 177.945312 192.019531 C 180.757812 192.816406 183.714844 193.273438 186.761719 193.34375 L 186.761719 200.679688 C 186.125 200.839844 185.539062 201.164062 185.0625 201.640625 C 184.375 202.328125 183.992188 203.246094 183.992188 204.222656 C 183.992188 206.238281 185.632812 207.878906 187.648438 207.878906 C 189.664062 207.878906 191.300781 206.238281 191.300781 204.222656 C 191.300781 202.515625 190.121094 201.082031 188.535156 200.683594 L 188.535156 193.339844 C 191.5 193.261719 194.371094 192.816406 197.113281 192.050781 L 197.113281 201.457031 C 197.113281 201.632812 197.164062 201.796875 197.253906 201.9375 C 197.257812 201.941406 197.261719 201.945312 197.261719 201.949219 C 197.269531 201.960938 197.277344 201.96875 197.285156 201.976562 C 197.3125 202.015625 197.339844 202.050781 197.375 202.085938 C 197.539062 202.25 197.765625 202.34375 198 202.34375 L 207.074219 202.34375 C 207.472656 203.929688 208.90625 205.109375 210.617188 205.109375 C 212.632812 205.109375 214.269531 203.472656 214.269531 201.457031 C 214.269531 199.441406 212.632812 197.800781 210.617188 197.800781 C 208.90625 197.800781 207.472656 198.980469 207.074219 200.566406 L 198.886719 200.566406 L 198.886719 191.503906 C 208.667969 188.203125 216.546875 180.738281 220.414062 171.230469 L 234.796875 171.230469 L 234.796875 181.113281 C 233.210938 181.511719 232.03125 182.949219 232.03125 184.65625 C 232.03125 186.671875 233.667969 188.308594 235.683594 188.308594 C 237.699219 188.308594 239.339844 186.671875 239.339844 184.65625 C 239.339844 182.949219 238.160156 181.515625 236.574219 181.117188 Z M 231.984375 157.878906 C 233.023438 157.878906 233.867188 158.71875 233.867188 159.757812 C 233.867188 160.792969 233.023438 161.636719 231.984375 161.636719 C 230.949219 161.636719 230.109375 160.796875 230.105469 159.765625 C 230.105469 159.761719 230.105469 159.761719 230.105469 159.757812 C 230.105469 159.757812 230.105469 159.753906 230.105469 159.753906 C 230.109375 158.71875 230.949219 157.878906 231.984375 157.878906 Z M 227.335938 136.789062 C 227.335938 135.753906 228.179688 134.910156 229.21875 134.910156 C 230.253906 134.910156 231.097656 135.753906 231.097656 136.789062 C 231.097656 137.824219 230.253906 138.667969 229.21875 138.667969 C 228.179688 138.667969 227.335938 137.824219 227.335938 136.789062 Z M 212.417969 109.839844 C 213.453125 109.839844 214.296875 110.683594 214.296875 111.71875 C 214.296875 112.757812 213.453125 113.601562 212.417969 113.601562 C 211.382812 113.601562 210.539062 112.757812 210.539062 111.71875 C 210.539062 110.683594 211.382812 109.839844 212.417969 109.839844 Z M 164.550781 120.066406 C 163.515625 120.066406 162.671875 119.222656 162.671875 118.1875 C 162.671875 117.148438 163.515625 116.304688 164.550781 116.304688 C 165.589844 116.304688 166.429688 117.148438 166.429688 118.1875 C 166.429688 119.222656 165.589844 120.066406 164.550781 120.066406 Z M 139.484375 136.867188 C 138.445312 136.867188 137.601562 136.023438 137.601562 134.988281 C 137.601562 133.949219 138.445312 133.105469 139.484375 133.105469 C 140.519531 133.105469 141.363281 133.949219 141.363281 134.988281 C 141.363281 136.023438 140.519531 136.867188 139.484375 136.867188 Z M 143.179688 161.765625 C 142.144531 161.765625 141.300781 160.921875 141.300781 159.886719 C 141.300781 158.847656 142.144531 158.007812 143.179688 158.007812 C 144.21875 158.007812 145.0625 158.847656 145.0625 159.886719 C 145.0625 160.921875 144.21875 161.765625 143.179688 161.765625 Z M 147.828125 182.855469 C 147.828125 183.890625 146.984375 184.734375 145.949219 184.734375 C 144.914062 184.734375 144.070312 183.890625 144.070312 182.855469 C 144.070312 181.816406 144.910156 180.972656 145.949219 180.972656 C 146.984375 180.972656 147.828125 181.816406 147.828125 182.855469 Z M 162.75 209.800781 C 161.710938 209.800781 160.871094 208.957031 160.871094 207.921875 C 160.871094 206.886719 161.710938 206.042969 162.75 206.042969 C 163.785156 206.042969 164.628906 206.886719 164.628906 207.921875 C 164.628906 208.957031 163.785156 209.800781 162.75 209.800781 Z M 210.617188 199.574219 C 211.652344 199.574219 212.496094 200.417969 212.496094 201.457031 C 212.496094 202.492188 211.652344 203.335938 210.617188 203.335938 C 209.578125 203.335938 208.734375 202.492188 208.734375 201.457031 C 208.734375 200.417969 209.578125 199.574219 210.617188 199.574219 Z M 185.640625 115.417969 C 185.640625 114.382812 186.484375 113.539062 187.519531 113.539062 C 188.554688 113.539062 189.398438 114.382812 189.398438 115.417969 C 189.398438 116.457031 188.554688 117.300781 187.519531 117.300781 C 186.484375 117.300781 185.640625 116.457031 185.640625 115.417969 Z M 189.527344 204.222656 C 189.527344 205.261719 188.683594 206.101562 187.648438 206.101562 C 186.609375 206.101562 185.769531 205.261719 185.769531 204.222656 C 185.769531 203.722656 185.964844 203.25 186.316406 202.894531 C 186.671875 202.539062 187.144531 202.34375 187.644531 202.34375 C 187.644531 202.34375 187.648438 202.34375 187.648438 202.34375 C 187.648438 202.34375 187.648438 202.34375 187.652344 202.34375 C 188.6875 202.34375 189.527344 203.1875 189.527344 204.222656 Z M 187.582031 191.578125 C 169.027344 191.578125 153.933594 176.480469 153.933594 157.925781 C 153.933594 139.371094 169.027344 124.277344 187.582031 124.277344 C 206.140625 124.277344 221.234375 139.371094 221.234375 157.925781 C 221.234375 176.480469 206.140625 191.578125 187.582031 191.578125 Z M 235.683594 186.535156 C 234.648438 186.535156 233.804688 185.691406 233.804688 184.65625 C 233.804688 183.621094 234.648438 182.777344 235.683594 182.777344 C 236.71875 182.777344 237.5625 183.621094 237.5625 184.65625 C 237.5625 185.691406 236.71875 186.535156 235.683594 186.535156 Z M 235.683594 186.535156 " fill-opacity="1" fill-rule="nonzero"/></g><path fill="#333333" d="M 187.613281 186.144531 L 187.582031 186.144531 C 180.429688 186.144531 173.609375 183.464844 168.371094 178.597656 C 168.371094 178.597656 168.371094 178.597656 168.371094 178.59375 C 168.316406 178.546875 168.261719 178.496094 168.210938 178.445312 C 168.183594 178.421875 168.15625 178.394531 168.125 178.375 C 168.101562 178.347656 168.078125 178.320312 168.050781 178.292969 L 167.890625 178.140625 C 167.542969 177.796875 166.980469 177.804688 166.636719 178.15625 C 166.296875 178.507812 166.300781 179.066406 166.652344 179.410156 L 166.820312 179.574219 C 166.851562 179.601562 166.878906 179.625 166.910156 179.648438 C 166.933594 179.679688 166.960938 179.707031 166.988281 179.734375 C 167.046875 179.789062 167.105469 179.839844 167.160156 179.894531 C 167.160156 179.894531 167.160156 179.894531 167.164062 179.894531 C 172.726562 185.070312 179.980469 187.921875 187.582031 187.921875 L 187.613281 187.921875 C 188.105469 187.921875 188.5 187.523438 188.5 187.035156 C 188.5 186.542969 188.105469 186.144531 187.613281 186.144531 Z M 187.613281 186.144531 " fill-opacity="1" fill-rule="nonzero"/><path fill="#333333" d="M 213.25 171.695312 C 212.824219 171.449219 212.28125 171.597656 212.039062 172.019531 C 208.445312 178.238281 202.703125 182.8125 195.867188 184.910156 C 195.863281 184.910156 195.859375 184.914062 195.851562 184.914062 L 195.660156 184.972656 C 195.621094 184.984375 195.585938 184.996094 195.554688 185.011719 C 195.519531 185.019531 195.484375 185.027344 195.445312 185.035156 L 195.234375 185.097656 C 194.761719 185.230469 194.488281 185.71875 194.621094 186.191406 C 194.730469 186.582031 195.085938 186.839844 195.472656 186.839844 C 195.554688 186.839844 195.632812 186.828125 195.714844 186.804688 L 195.9375 186.742188 C 195.976562 186.730469 196.015625 186.71875 196.050781 186.699219 C 196.089844 186.695312 196.125 186.6875 196.164062 186.675781 C 196.238281 186.652344 196.316406 186.628906 196.390625 186.605469 C 196.398438 186.605469 196.402344 186.601562 196.40625 186.601562 C 203.667969 184.371094 209.761719 179.507812 213.574219 172.90625 C 213.820312 172.484375 213.675781 171.941406 213.25 171.695312 Z M 213.25 171.695312 " fill-opacity="1" fill-rule="nonzero"/><path fill="#333333" d="M 213.558594 142.917969 C 213.3125 142.492188 212.769531 142.347656 212.34375 142.59375 C 211.921875 142.839844 211.777344 143.382812 212.023438 143.808594 C 214.496094 148.078125 215.804688 152.960938 215.804688 157.925781 C 215.804688 160.0625 215.5625 162.191406 215.089844 164.25 C 215.089844 164.253906 215.089844 164.253906 215.089844 164.253906 L 215.042969 164.464844 C 215.03125 164.503906 215.027344 164.539062 215.023438 164.574219 C 215.007812 164.609375 215 164.644531 214.988281 164.679688 L 214.9375 164.898438 C 214.816406 165.371094 215.105469 165.855469 215.582031 165.972656 C 215.652344 165.992188 215.726562 166 215.796875 166 C 216.195312 166 216.554688 165.730469 216.65625 165.328125 L 216.710938 165.105469 C 216.722656 165.066406 216.730469 165.027344 216.734375 164.988281 C 216.746094 164.953125 216.757812 164.914062 216.769531 164.875 L 216.820312 164.652344 C 216.820312 164.652344 216.820312 164.652344 216.820312 164.648438 C 216.820312 164.648438 216.820312 164.644531 216.820312 164.644531 C 217.324219 162.453125 217.578125 160.195312 217.578125 157.925781 C 217.578125 152.648438 216.1875 147.460938 213.558594 142.917969 Z M 213.558594 142.917969 " fill-opacity="1" fill-rule="nonzero"/><path fill="#333333" d="M 159.363281 157.925781 C 159.363281 155.800781 159.601562 153.683594 160.070312 151.632812 L 160.117188 151.417969 C 160.128906 151.378906 160.132812 151.34375 160.136719 151.308594 C 160.148438 151.273438 160.160156 151.238281 160.171875 151.203125 L 160.222656 150.988281 C 160.34375 150.511719 160.054688 150.03125 159.582031 149.910156 C 159.105469 149.789062 158.625 150.078125 158.503906 150.550781 L 158.445312 150.78125 C 158.4375 150.820312 158.429688 150.859375 158.425781 150.894531 C 158.410156 150.933594 158.402344 150.96875 158.390625 151.007812 L 158.339844 151.230469 C 158.339844 151.234375 158.339844 151.234375 158.339844 151.234375 L 158.339844 151.238281 C 157.839844 153.417969 157.589844 155.671875 157.589844 157.925781 C 157.589844 163.214844 158.984375 168.414062 161.625 172.964844 C 161.789062 173.246094 162.085938 173.40625 162.394531 173.40625 C 162.542969 173.40625 162.699219 173.367188 162.835938 173.285156 C 163.261719 173.039062 163.40625 172.496094 163.160156 172.074219 C 160.675781 167.792969 159.363281 162.902344 159.363281 157.925781 Z M 159.363281 157.925781 " fill-opacity="1" fill-rule="nonzero"/><path fill="#333333" d="M 161.902344 144.183594 C 162.042969 144.265625 162.195312 144.304688 162.34375 144.304688 C 162.652344 144.304688 162.949219 144.144531 163.113281 143.859375 C 166.699219 137.640625 172.433594 133.058594 179.265625 130.953125 C 179.269531 130.953125 179.269531 130.953125 179.269531 130.953125 L 179.480469 130.886719 C 179.515625 130.878906 179.550781 130.863281 179.585938 130.851562 C 179.621094 130.84375 179.65625 130.835938 179.691406 130.824219 L 179.902344 130.765625 C 180.375 130.632812 180.648438 130.140625 180.515625 129.671875 C 180.382812 129.199219 179.894531 128.925781 179.421875 129.058594 L 179.195312 129.121094 C 179.160156 129.132812 179.121094 129.144531 179.085938 129.160156 C 179.046875 129.167969 179.007812 129.175781 178.972656 129.1875 L 178.753906 129.253906 C 178.753906 129.253906 178.75 129.253906 178.746094 129.257812 C 171.484375 131.492188 165.386719 136.363281 161.578125 142.972656 C 161.332031 143.398438 161.476562 143.941406 161.902344 144.183594 Z M 161.902344 144.183594 " fill-opacity="1" fill-rule="nonzero"/><path fill="#333333" d="M 187.523438 129.707031 L 187.582031 129.707031 C 194.75 129.707031 201.578125 132.394531 206.816406 137.277344 L 206.976562 137.429688 C 207.003906 137.453125 207.035156 137.480469 207.0625 137.5 C 207.085938 137.527344 207.113281 137.554688 207.136719 137.582031 L 207.296875 137.734375 C 207.46875 137.902344 207.695312 137.988281 207.917969 137.988281 C 208.148438 137.988281 208.378906 137.898438 208.550781 137.71875 C 208.894531 137.367188 208.886719 136.804688 208.535156 136.464844 L 208.367188 136.300781 C 208.339844 136.273438 208.308594 136.25 208.277344 136.226562 C 208.253906 136.195312 208.226562 136.167969 208.199219 136.140625 L 208.03125 135.984375 C 208.03125 135.984375 208.03125 135.980469 208.027344 135.980469 C 208.027344 135.980469 208.027344 135.980469 208.027344 135.976562 C 202.457031 130.789062 195.199219 127.933594 187.578125 127.933594 L 187.523438 127.933594 C 187.03125 127.933594 186.636719 128.332031 186.636719 128.820312 C 186.636719 129.308594 187.03125 129.707031 187.523438 129.707031 Z M 187.523438 129.707031 " fill-opacity="1" fill-rule="nonzero"/><path fill="#333333" d="M 210.75 157.925781 C 210.75 162.503906 209.417969 166.929688 206.898438 170.722656 C 206.898438 170.726562 206.898438 170.726562 206.898438 170.726562 C 206.859375 170.785156 206.816406 170.847656 206.777344 170.90625 C 206.757812 170.9375 206.738281 170.96875 206.722656 171 C 206.699219 171.027344 206.675781 171.054688 206.652344 171.085938 L 206.527344 171.265625 C 206.246094 171.667969 206.34375 172.21875 206.742188 172.5 C 206.898438 172.609375 207.078125 172.664062 207.253906 172.664062 C 207.53125 172.664062 207.808594 172.53125 207.980469 172.285156 L 208.113281 172.097656 C 208.136719 172.0625 208.15625 172.03125 208.175781 171.996094 C 208.199219 171.964844 208.222656 171.9375 208.246094 171.902344 C 208.289062 171.839844 208.332031 171.773438 208.378906 171.707031 C 211.089844 167.617188 212.527344 162.855469 212.527344 157.925781 C 212.527344 155.289062 212.117188 152.691406 211.308594 150.207031 C 211.15625 149.742188 210.65625 149.484375 210.191406 149.636719 C 209.722656 149.789062 209.46875 150.289062 209.621094 150.753906 C 210.371094 153.0625 210.75 155.476562 210.75 157.925781 Z M 210.75 157.925781 " fill-opacity="1" fill-rule="nonzero"/><path fill="#333333" d="M 180.238281 181.769531 C 180.3125 181.792969 180.386719 181.816406 180.464844 181.839844 C 180.5 181.847656 180.539062 181.859375 180.578125 181.863281 C 180.613281 181.878906 180.648438 181.894531 180.6875 181.902344 L 180.90625 181.964844 C 180.90625 181.964844 180.910156 181.964844 180.910156 181.96875 C 180.914062 181.96875 180.914062 181.96875 180.914062 181.96875 C 183.078125 182.566406 185.320312 182.871094 187.582031 182.871094 C 192.902344 182.871094 197.980469 181.21875 202.265625 178.09375 C 202.660156 177.804688 202.746094 177.25 202.457031 176.855469 C 202.167969 176.457031 201.613281 176.371094 201.21875 176.660156 C 197.238281 179.5625 192.523438 181.09375 187.582031 181.09375 C 185.480469 181.09375 183.394531 180.8125 181.386719 180.257812 L 181.179688 180.199219 C 181.140625 180.1875 181.105469 180.179688 181.070312 180.175781 C 181.039062 180.160156 181.003906 180.148438 180.96875 180.136719 L 180.761719 180.074219 C 180.292969 179.929688 179.796875 180.191406 179.652344 180.660156 C 179.507812 181.128906 179.769531 181.625 180.238281 181.769531 Z M 180.238281 181.769531 " fill-opacity="1" fill-rule="nonzero"/><path fill="#333333" d="M 172.949219 178.128906 C 173.105469 178.242188 173.289062 178.296875 173.46875 178.296875 C 173.742188 178.296875 174.015625 178.167969 174.1875 177.929688 C 174.476562 177.535156 174.386719 176.980469 173.992188 176.691406 C 168.230469 172.511719 164.75 166.046875 164.4375 158.957031 C 164.4375 158.953125 164.4375 158.949219 164.4375 158.941406 L 164.429688 158.726562 C 164.429688 158.691406 164.425781 158.65625 164.417969 158.617188 C 164.421875 158.582031 164.421875 158.546875 164.421875 158.511719 L 164.417969 158.292969 C 164.410156 157.804688 164.003906 157.414062 163.515625 157.421875 C 163.027344 157.429688 162.636719 157.832031 162.644531 158.320312 L 162.648438 158.554688 C 162.648438 158.59375 162.652344 158.632812 162.660156 158.671875 C 162.65625 158.707031 162.65625 158.746094 162.65625 158.785156 C 162.660156 158.859375 162.660156 158.933594 162.664062 159.007812 C 162.664062 159.011719 162.664062 159.015625 162.664062 159.019531 C 162.992188 166.660156 166.742188 173.625 172.949219 178.128906 Z M 172.949219 178.128906 " fill-opacity="1" fill-rule="nonzero"/><path fill="#333333" d="M 179.492188 134.328125 L 179.269531 134.402344 C 179.234375 134.417969 179.195312 134.433594 179.164062 134.449219 C 179.125 134.457031 179.089844 134.46875 179.050781 134.484375 C 178.980469 134.507812 178.910156 134.535156 178.839844 134.5625 C 178.835938 134.5625 178.832031 134.5625 178.832031 134.5625 C 171.761719 137.214844 166.15625 143.082031 163.839844 150.261719 C 163.691406 150.726562 163.945312 151.226562 164.414062 151.378906 C 164.503906 151.40625 164.597656 151.421875 164.6875 151.421875 C 165.0625 151.421875 165.410156 151.183594 165.53125 150.804688 C 167.679688 144.140625 172.882812 138.691406 179.445312 136.226562 C 179.449219 136.226562 179.453125 136.226562 179.453125 136.226562 C 179.523438 136.199219 179.589844 136.175781 179.65625 136.148438 C 179.691406 136.136719 179.726562 136.121094 179.757812 136.105469 C 179.792969 136.097656 179.828125 136.089844 179.863281 136.078125 L 180.066406 136.003906 C 180.53125 135.847656 180.777344 135.339844 180.617188 134.878906 C 180.457031 134.414062 179.953125 134.167969 179.492188 134.328125 Z M 179.492188 134.328125 " fill-opacity="1" fill-rule="nonzero"/><path fill="#333333" d="M 187.53125 134.757812 L 187.582031 134.757812 C 194.6875 134.757812 201.304688 137.953125 205.730469 143.523438 C 205.730469 143.523438 205.730469 143.523438 205.734375 143.523438 L 205.867188 143.695312 C 205.890625 143.722656 205.914062 143.75 205.9375 143.777344 C 205.957031 143.808594 205.976562 143.839844 206 143.867188 L 206.128906 144.039062 C 206.304688 144.273438 206.570312 144.394531 206.839844 144.394531 C 207.027344 144.394531 207.210938 144.335938 207.371094 144.21875 C 207.765625 143.921875 207.84375 143.367188 207.550781 142.976562 C 207.503906 142.914062 207.457031 142.851562 207.40625 142.789062 C 207.382812 142.757812 207.359375 142.726562 207.332031 142.699219 C 207.3125 142.667969 207.289062 142.636719 207.265625 142.605469 L 207.125 142.429688 C 207.125 142.425781 207.121094 142.421875 207.121094 142.421875 C 202.355469 136.421875 195.234375 132.984375 187.578125 132.984375 L 187.527344 132.984375 C 187.039062 132.984375 186.640625 133.382812 186.640625 133.871094 C 186.640625 134.363281 187.039062 134.757812 187.53125 134.757812 Z M 187.53125 134.757812 " fill-opacity="1" fill-rule="nonzero"/><path fill="#333333" d="M 179.671875 139.878906 C 179.597656 139.910156 179.53125 139.941406 179.460938 139.972656 C 179.425781 139.988281 179.390625 140.007812 179.359375 140.027344 C 179.320312 140.039062 179.285156 140.054688 179.25 140.070312 C 179.179688 140.101562 179.113281 140.132812 179.042969 140.167969 C 179.042969 140.167969 179.042969 140.167969 179.039062 140.167969 C 172.261719 143.4375 167.882812 150.40625 167.882812 157.925781 L 167.882812 157.972656 C 167.882812 158.460938 168.277344 158.859375 168.769531 158.859375 C 169.257812 158.859375 169.65625 158.460938 169.65625 157.972656 L 169.65625 157.925781 C 169.65625 151.082031 173.644531 144.738281 179.8125 141.765625 C 179.875 141.738281 179.9375 141.707031 180.003906 141.675781 C 180.035156 141.660156 180.066406 141.644531 180.09375 141.628906 C 180.128906 141.617188 180.160156 141.605469 180.191406 141.589844 C 180.253906 141.5625 180.320312 141.53125 180.382812 141.503906 C 180.832031 141.308594 181.035156 140.785156 180.839844 140.335938 C 180.640625 139.886719 180.117188 139.683594 179.671875 139.878906 Z M 179.671875 139.878906 " fill-opacity="1" fill-rule="nonzero"/><path fill="#333333" d="M 207.285156 157.914062 C 207.285156 157.421875 206.886719 157.03125 206.398438 157.03125 C 205.90625 157.03125 205.511719 157.4375 205.511719 157.925781 C 205.511719 164.785156 201.515625 171.132812 195.328125 174.097656 L 195.136719 174.1875 C 195.105469 174.203125 195.074219 174.222656 195.046875 174.238281 C 195.015625 174.25 194.980469 174.261719 194.949219 174.277344 L 194.757812 174.363281 C 194.308594 174.558594 194.105469 175.082031 194.300781 175.53125 C 194.445312 175.863281 194.773438 176.0625 195.113281 176.0625 C 195.234375 176.0625 195.355469 176.039062 195.46875 175.988281 C 195.539062 175.957031 195.609375 175.925781 195.679688 175.894531 C 195.714844 175.878906 195.75 175.859375 195.78125 175.839844 C 195.816406 175.828125 195.855469 175.8125 195.890625 175.796875 L 196.085938 175.703125 C 196.089844 175.703125 196.09375 175.703125 196.097656 175.699219 C 202.894531 172.4375 207.285156 165.460938 207.285156 157.925781 Z M 207.285156 157.914062 " fill-opacity="1" fill-rule="nonzero"/><path fill="#333333" d="M 187.523438 140 C 187.527344 140 187.527344 140 187.53125 140 L 187.582031 140 C 194.445312 140 200.796875 144 203.761719 150.195312 L 203.851562 150.386719 C 203.867188 150.417969 203.882812 150.445312 203.902344 150.476562 C 203.910156 150.507812 203.925781 150.542969 203.9375 150.574219 C 203.96875 150.636719 203.996094 150.703125 204.023438 150.765625 C 204.167969 151.097656 204.496094 151.296875 204.835938 151.296875 C 204.957031 151.296875 205.074219 151.273438 205.191406 151.222656 C 205.640625 151.027344 205.84375 150.503906 205.648438 150.054688 C 205.617188 149.984375 205.589844 149.914062 205.554688 149.84375 C 205.539062 149.808594 205.523438 149.777344 205.503906 149.742188 C 205.492188 149.707031 205.476562 149.671875 205.460938 149.636719 C 205.429688 149.566406 205.394531 149.496094 205.363281 149.429688 C 205.363281 149.425781 205.363281 149.425781 205.363281 149.425781 C 202.101562 142.621094 195.125 138.226562 187.582031 138.226562 L 187.519531 138.226562 C 187.03125 138.226562 186.636719 138.628906 186.636719 139.117188 C 186.640625 139.605469 187.035156 140 187.523438 140 Z M 187.523438 140 " fill-opacity="1" fill-rule="nonzero"/><path fill="#333333" d="M 171.417969 165.6875 C 171.417969 165.683594 171.417969 165.683594 171.417969 165.6875 C 171.386719 165.621094 171.355469 165.558594 171.328125 165.496094 C 171.3125 165.464844 171.296875 165.433594 171.277344 165.402344 C 171.265625 165.371094 171.253906 165.339844 171.242188 165.304688 L 171.15625 165.113281 C 170.957031 164.664062 170.433594 164.460938 169.984375 164.660156 C 169.535156 164.855469 169.332031 165.378906 169.53125 165.828125 L 169.621094 166.035156 C 169.640625 166.070312 169.65625 166.105469 169.675781 166.136719 C 169.6875 166.175781 169.703125 166.210938 169.71875 166.246094 C 169.75 166.316406 169.785156 166.382812 169.816406 166.449219 C 169.816406 166.453125 169.816406 166.453125 169.816406 166.453125 C 173.082031 173.242188 180.054688 177.628906 187.582031 177.628906 L 187.613281 177.628906 C 188.101562 177.628906 188.5 177.230469 188.5 176.742188 C 188.5 176.25 188.101562 175.855469 187.613281 175.855469 L 187.582031 175.855469 C 180.734375 175.855469 174.386719 171.863281 171.417969 165.6875 Z M 171.417969 165.6875 " fill-opacity="1" fill-rule="nonzero"/><path fill="#333333" d="M 181.90625 169.644531 C 181.84375 169.613281 181.78125 169.585938 181.71875 169.554688 C 181.6875 169.539062 181.65625 169.523438 181.628906 169.515625 C 181.597656 169.496094 181.570312 169.476562 181.539062 169.460938 C 181.480469 169.429688 181.417969 169.398438 181.359375 169.363281 C 180.929688 169.128906 180.390625 169.289062 180.15625 169.71875 C 179.921875 170.148438 180.078125 170.6875 180.511719 170.921875 C 180.578125 170.960938 180.644531 170.996094 180.714844 171.03125 C 180.75 171.050781 180.785156 171.066406 180.820312 171.078125 C 180.851562 171.101562 180.886719 171.121094 180.921875 171.140625 C 180.992188 171.171875 181.058594 171.207031 181.128906 171.242188 C 183.148438 172.222656 185.320312 172.71875 187.582031 172.71875 C 192.855469 172.71875 197.769531 169.882812 200.40625 165.3125 C 200.648438 164.886719 200.503906 164.34375 200.082031 164.097656 C 199.65625 163.855469 199.113281 164 198.867188 164.425781 C 196.546875 168.445312 192.222656 170.945312 187.582031 170.945312 C 185.59375 170.945312 183.683594 170.507812 181.90625 169.644531 Z M 181.90625 169.644531 " fill-opacity="1" fill-rule="nonzero"/><path fill="#333333" d="M 187.539062 144.910156 L 187.582031 144.910156 C 194.390625 144.910156 200.09375 150.21875 200.570312 157 C 200.574219 157.070312 200.578125 157.136719 200.582031 157.207031 C 200.585938 157.238281 200.589844 157.273438 200.59375 157.304688 C 200.589844 157.339844 200.589844 157.371094 200.59375 157.40625 C 200.59375 157.476562 200.597656 157.542969 200.597656 157.609375 C 200.609375 158.09375 201.003906 158.476562 201.484375 158.476562 C 201.492188 158.476562 201.5 158.476562 201.507812 158.476562 C 201.996094 158.464844 202.382812 158.058594 202.371094 157.566406 C 202.371094 157.492188 202.367188 157.414062 202.367188 157.335938 C 202.363281 157.296875 202.359375 157.261719 202.355469 157.222656 C 202.355469 157.183594 202.355469 157.144531 202.355469 157.105469 C 202.351562 157.027344 202.34375 156.953125 202.339844 156.878906 C 202.339844 156.875 202.339844 156.875 202.339844 156.875 C 201.796875 149.167969 195.316406 143.132812 187.578125 143.132812 L 187.539062 143.132812 C 187.046875 143.132812 186.652344 143.53125 186.652344 144.019531 C 186.652344 144.511719 187.046875 144.910156 187.539062 144.910156 Z M 187.539062 144.910156 " fill-opacity="1" fill-rule="nonzero"/><path fill="#333333" d="M 179.847656 145.3125 C 179.785156 145.355469 179.71875 145.394531 179.652344 145.4375 C 179.621094 145.457031 179.589844 145.480469 179.5625 145.503906 C 179.527344 145.519531 179.492188 145.539062 179.460938 145.5625 C 179.394531 145.605469 179.332031 145.648438 179.269531 145.6875 C 179.269531 145.691406 179.269531 145.691406 179.269531 145.691406 C 175.210938 148.453125 172.789062 153.027344 172.789062 157.925781 C 172.789062 160.539062 173.480469 163.105469 174.785156 165.351562 C 174.949219 165.636719 175.246094 165.792969 175.554688 165.792969 C 175.703125 165.792969 175.859375 165.753906 176 165.671875 C 176.421875 165.425781 176.566406 164.882812 176.320312 164.460938 C 175.171875 162.484375 174.566406 160.226562 174.566406 157.925781 C 174.566406 153.613281 176.695312 149.589844 180.265625 147.15625 C 180.324219 147.117188 180.378906 147.082031 180.4375 147.042969 C 180.464844 147.023438 180.492188 147.003906 180.519531 146.984375 C 180.546875 146.96875 180.578125 146.953125 180.605469 146.933594 C 180.664062 146.898438 180.722656 146.863281 180.777344 146.824219 C 181.195312 146.570312 181.328125 146.023438 181.070312 145.605469 C 180.8125 145.1875 180.269531 145.058594 179.847656 145.3125 Z M 179.847656 145.3125 " fill-opacity="1" fill-rule="nonzero"/><path fill="#333333" d="M 193.964844 163.070312 C 193.921875 163.117188 193.882812 163.167969 193.839844 163.21875 C 193.820312 163.242188 193.800781 163.269531 193.78125 163.292969 C 193.757812 163.316406 193.738281 163.339844 193.714844 163.363281 C 193.671875 163.410156 193.628906 163.457031 193.585938 163.503906 C 193.253906 163.863281 193.273438 164.421875 193.628906 164.757812 C 193.800781 164.917969 194.019531 164.996094 194.234375 164.996094 C 194.472656 164.996094 194.710938 164.902344 194.882812 164.714844 C 194.9375 164.65625 194.992188 164.597656 195.042969 164.539062 C 195.070312 164.511719 195.09375 164.480469 195.113281 164.449219 C 195.144531 164.421875 195.171875 164.394531 195.195312 164.363281 C 195.246094 164.304688 195.296875 164.242188 195.34375 164.183594 C 196.769531 162.417969 197.550781 160.199219 197.550781 157.925781 C 197.550781 152.429688 193.082031 147.957031 187.574219 147.957031 L 187.546875 147.957031 C 187.058594 147.957031 186.660156 148.355469 186.660156 148.847656 C 186.660156 149.335938 187.058594 149.734375 187.546875 149.734375 L 187.582031 149.734375 C 192.101562 149.734375 195.777344 153.410156 195.777344 157.925781 C 195.777344 159.820312 195.148438 161.597656 193.964844 163.070312 Z M 193.964844 163.070312 " fill-opacity="1" fill-rule="nonzero"/><path fill="#333333" d="M 180.269531 151.15625 C 180.214844 151.210938 180.164062 151.269531 180.109375 151.328125 C 180.085938 151.359375 180.0625 151.390625 180.039062 151.421875 C 180.011719 151.449219 179.984375 151.476562 179.957031 151.507812 C 179.90625 151.566406 179.859375 151.625 179.808594 151.6875 C 178.394531 153.449219 177.613281 155.664062 177.613281 157.925781 C 177.613281 163.425781 182.085938 167.894531 187.582031 167.894531 L 187.601562 167.894531 C 188.089844 167.894531 188.480469 167.5 188.480469 167.007812 C 188.480469 166.519531 188.074219 166.121094 187.582031 166.121094 C 183.066406 166.121094 179.390625 162.445312 179.390625 157.925781 C 179.390625 156.039062 180.011719 154.265625 181.191406 152.796875 C 181.234375 152.746094 181.273438 152.699219 181.316406 152.648438 C 181.335938 152.625 181.355469 152.597656 181.371094 152.574219 C 181.394531 152.550781 181.417969 152.527344 181.441406 152.503906 C 181.484375 152.457031 181.527344 152.410156 181.570312 152.363281 C 181.902344 152.003906 181.882812 151.441406 181.523438 151.109375 C 181.164062 150.773438 180.601562 150.796875 180.269531 151.15625 Z M 180.269531 151.15625 " fill-opacity="1" fill-rule="nonzero"/><path fill="#333333" d="M 182.171875 158.707031 C 182.171875 158.75 182.175781 158.792969 182.183594 158.835938 C 182.195312 158.921875 182.210938 159.003906 182.230469 159.085938 C 182.230469 159.085938 182.230469 159.089844 182.230469 159.089844 C 182.769531 161.589844 185.023438 163.402344 187.582031 163.402344 C 190.601562 163.402344 193.058594 160.945312 193.058594 157.925781 C 193.058594 154.90625 190.601562 152.449219 187.582031 152.449219 L 187.566406 152.449219 C 187.074219 152.449219 186.6875 152.847656 186.6875 153.339844 C 186.6875 153.828125 187.09375 154.226562 187.582031 154.226562 C 189.625 154.226562 191.285156 155.886719 191.285156 157.925781 C 191.285156 159.96875 189.625 161.628906 187.582031 161.628906 C 185.851562 161.628906 184.332031 160.402344 183.964844 158.714844 C 183.953125 158.65625 183.941406 158.601562 183.933594 158.542969 C 183.925781 158.515625 183.921875 158.488281 183.914062 158.460938 C 183.914062 158.429688 183.910156 158.402344 183.90625 158.371094 C 183.902344 158.316406 183.894531 158.257812 183.890625 158.199219 C 183.855469 157.710938 183.429688 157.34375 182.941406 157.378906 C 182.453125 157.414062 182.085938 157.839844 182.121094 158.328125 C 182.128906 158.414062 182.136719 158.5 182.144531 158.582031 C 182.152344 158.625 182.160156 158.667969 182.171875 158.707031 Z M 182.171875 158.707031 " fill-opacity="1" fill-rule="nonzero"/><g fill="#eddede" fill-opacity="1"><g transform="translate(130.738913, 265.211903)"><g><path d="M 2.734375 -1.875 C 1.359375 -3.21875 0.671875 -4.910156 0.671875 -6.953125 C 0.671875 -9.003906 1.359375 -10.695312 2.734375 -12.03125 C 4.109375 -13.375 5.785156 -14.046875 7.765625 -14.046875 C 9.304688 -14.046875 10.675781 -13.632812 11.875 -12.8125 C 13.070312 -12 13.90625 -10.867188 14.375 -9.421875 L 10.359375 -9.421875 C 9.828125 -10.429688 8.984375 -10.9375 7.828125 -10.9375 C 6.671875 -10.9375 5.757812 -10.578125 5.09375 -9.859375 C 4.425781 -9.140625 4.09375 -8.171875 4.09375 -6.953125 C 4.09375 -5.742188 4.425781 -4.78125 5.09375 -4.0625 C 5.757812 -3.34375 6.648438 -2.984375 7.765625 -2.984375 C 8.566406 -2.984375 9.21875 -3.179688 9.71875 -3.578125 C 10.226562 -3.984375 10.570312 -4.519531 10.75 -5.1875 L 6.84375 -5.1875 L 6.84375 -7.75 L 14.375 -7.75 L 14.375 -5.1875 C 14.125 -3.925781 13.429688 -2.75 12.296875 -1.65625 C 11.765625 -1.132812 11.097656 -0.707031 10.296875 -0.375 C 9.503906 -0.0390625 8.660156 0.125 7.765625 0.125 C 5.785156 0.125 4.109375 -0.539062 2.734375 -1.875 Z M 2.734375 -1.875 "/></g></g></g><g fill="#eddede" fill-opacity="1"><g transform="translate(149.978135, 265.211903)"><g><path d="M 4.84375 -5.390625 L 4.84375 0 L 1.484375 0 L 1.484375 -13.84375 L 6.9375 -13.84375 C 8.539062 -13.84375 9.789062 -13.425781 10.6875 -12.59375 C 11.582031 -11.769531 12.03125 -10.773438 12.03125 -9.609375 C 12.03125 -8.804688 11.785156 -8.019531 11.296875 -7.25 C 10.804688 -6.488281 10.007812 -5.953125 8.90625 -5.640625 L 12.296875 0 L 8.359375 0 L 5.25 -5.390625 Z M 4.84375 -11.28125 L 4.84375 -7.953125 L 6.9375 -7.953125 C 7.445312 -7.953125 7.847656 -8.101562 8.140625 -8.40625 C 8.441406 -8.707031 8.59375 -9.101562 8.59375 -9.59375 C 8.59375 -10.082031 8.441406 -10.484375 8.140625 -10.796875 C 7.835938 -11.117188 7.4375 -11.28125 6.9375 -11.28125 Z M 4.84375 -11.28125 "/></g></g></g><g fill="#eddede" fill-opacity="1"><g transform="translate(167.325112, 265.211903)"><g><path d="M 10.265625 0 L 9.5 -2.328125 L 4.53125 -2.328125 L 3.765625 0 L 0.171875 0 L 4.984375 -13.875 L 9.09375 -13.875 L 13.875 0 Z M 5.390625 -4.890625 L 8.65625 -4.890625 L 7.015625 -9.8125 Z M 5.390625 -4.890625 "/></g></g></g><g fill="#eddede" fill-opacity="1"><g transform="translate(185.559076, 265.211903)"><g><path d="M 5.046875 0 L 0.140625 -13.84375 L 3.734375 -13.84375 L 7.15625 -3.296875 L 10.59375 -13.84375 L 14.171875 -13.84375 L 9.265625 0 Z M 5.046875 0 "/></g></g></g><g fill="#eddede" fill-opacity="1"><g transform="translate(204.049281, 265.211903)"><g><path d="M 1.484375 0 L 1.484375 -13.84375 L 4.84375 -13.84375 L 4.84375 0 Z M 1.484375 0 "/></g></g></g><g fill="#eddede" fill-opacity="1"><g transform="translate(214.55658, 265.211903)"><g><path d="M 0.53125 -11.28125 L 0.53125 -13.84375 L 11.453125 -13.84375 L 11.453125 -11.28125 L 7.671875 -11.28125 L 7.671875 0 L 4.296875 0 L 4.296875 -11.28125 Z M 0.53125 -11.28125 "/></g></g></g><g fill="#eddede" fill-opacity="1"><g transform="translate(230.720904, 265.211903)"><g><path d="M 8.453125 0 L 5.09375 0 L 5.09375 -4.453125 L 0.296875 -13.84375 L 4.125 -13.84375 L 6.78125 -7.59375 L 9.421875 -13.84375 L 13.25 -13.84375 L 8.453125 -4.453125 Z M 8.453125 0 "/></g></g></g><g fill="#eddede" fill-opacity="1"><g transform="translate(135.719437, 284.862638)"><g><path d="M 5.046875 0.078125 C 3.765625 0.078125 2.679688 -0.347656 1.796875 -1.203125 C 0.910156 -2.066406 0.46875 -3.160156 0.46875 -4.484375 C 0.46875 -5.804688 0.910156 -6.894531 1.796875 -7.75 C 2.679688 -8.613281 3.765625 -9.046875 5.046875 -9.046875 C 5.992188 -9.046875 6.835938 -8.8125 7.578125 -8.34375 C 8.316406 -7.882812 8.851562 -7.222656 9.1875 -6.359375 L 7.4375 -6.359375 C 6.957031 -7.265625 6.160156 -7.71875 5.046875 -7.71875 C 4.140625 -7.71875 3.398438 -7.421875 2.828125 -6.828125 C 2.265625 -6.234375 1.984375 -5.445312 1.984375 -4.46875 C 1.984375 -3.5 2.265625 -2.71875 2.828125 -2.125 C 3.398438 -1.539062 4.140625 -1.25 5.046875 -1.25 C 6.160156 -1.25 6.957031 -1.695312 7.4375 -2.59375 L 9.1875 -2.59375 C 8.851562 -1.738281 8.316406 -1.078125 7.578125 -0.609375 C 6.835938 -0.148438 5.992188 0.078125 5.046875 0.078125 Z M 5.046875 0.078125 "/></g></g></g><g fill="#eddede" fill-opacity="1"><g transform="translate(146.559783, 284.862638)"><g><path d="M 2.4375 -7.078125 L 2.4375 -5.84375 C 2.882812 -6.75 3.585938 -7.203125 4.546875 -7.203125 L 4.546875 -5.6875 L 4.171875 -5.6875 C 3.597656 -5.6875 3.164062 -5.539062 2.875 -5.25 C 2.582031 -4.957031 2.4375 -4.453125 2.4375 -3.734375 L 2.4375 0 L 0.96875 0 L 0.96875 -7.078125 Z M 2.4375 -7.078125 "/></g></g></g><g fill="#eddede" fill-opacity="1"><g transform="translate(152.397884, 284.862638)"><g><path d="M 2.921875 -0.109375 L 0.125 -7.078125 L 1.765625 -7.078125 L 3.75 -1.6875 L 5.828125 -7.078125 L 7.34375 -7.078125 L 3 3.328125 L 1.484375 3.328125 Z M 2.921875 -0.109375 "/></g></g></g><g fill="#eddede" fill-opacity="1"><g transform="translate(160.782109, 284.862638)"><g><path d="M 6.09375 -1.8125 C 6.519531 -2.257812 6.734375 -2.847656 6.734375 -3.578125 C 6.734375 -4.304688 6.519531 -4.878906 6.09375 -5.296875 C 5.675781 -5.710938 5.171875 -5.921875 4.578125 -5.921875 C 3.992188 -5.921875 3.488281 -5.707031 3.0625 -5.28125 C 2.644531 -4.851562 2.4375 -4.273438 2.4375 -3.546875 C 2.4375 -2.816406 2.644531 -2.234375 3.0625 -1.796875 C 3.488281 -1.367188 3.992188 -1.15625 4.578125 -1.15625 C 5.160156 -1.15625 5.664062 -1.375 6.09375 -1.8125 Z M 4.90625 -7.203125 C 5.851562 -7.203125 6.644531 -6.863281 7.28125 -6.1875 C 7.914062 -5.519531 8.234375 -4.644531 8.234375 -3.5625 C 8.234375 -2.488281 7.910156 -1.609375 7.265625 -0.921875 C 6.628906 -0.234375 5.84375 0.109375 4.90625 0.109375 C 4.34375 0.109375 3.847656 -0.0195312 3.421875 -0.28125 C 3.003906 -0.539062 2.675781 -0.890625 2.4375 -1.328125 L 2.4375 3.375 L 0.96875 3.375 L 0.96875 -7.078125 L 2.4375 -7.078125 L 2.4375 -5.828125 C 2.675781 -6.234375 3.003906 -6.5625 3.421875 -6.8125 C 3.847656 -7.070312 4.34375 -7.203125 4.90625 -7.203125 Z M 4.90625 -7.203125 "/></g></g></g><g fill="#eddede" fill-opacity="1"><g transform="translate(170.40082, 284.862638)"><g><path d="M 4.390625 -5.890625 L 2.671875 -5.890625 L 2.671875 -1.96875 C 2.671875 -1.695312 2.734375 -1.503906 2.859375 -1.390625 C 2.984375 -1.273438 3.195312 -1.21875 3.5 -1.21875 L 4.390625 -1.21875 L 4.390625 0 L 3.234375 0 C 1.878906 0 1.203125 -0.65625 1.203125 -1.96875 L 1.203125 -5.890625 L 0.359375 -5.890625 L 0.359375 -7.078125 L 1.203125 -7.078125 L 1.203125 -8.84375 L 2.671875 -8.84375 L 2.671875 -7.078125 L 4.390625 -7.078125 Z M 4.390625 -5.890625 "/></g></g></g><g fill="#eddede" fill-opacity="1"><g transform="translate(176.084606, 284.862638)"><g><path d="M 5.5625 -1.765625 C 6 -2.191406 6.21875 -2.785156 6.21875 -3.546875 C 6.21875 -4.304688 6.007812 -4.898438 5.59375 -5.328125 C 5.175781 -5.753906 4.671875 -5.96875 4.078125 -5.96875 C 3.484375 -5.96875 2.984375 -5.753906 2.578125 -5.328125 C 2.179688 -4.898438 1.984375 -4.300781 1.984375 -3.53125 C 1.984375 -2.769531 2.175781 -2.175781 2.5625 -1.75 C 2.957031 -1.332031 3.445312 -1.125 4.03125 -1.125 C 4.625 -1.125 5.132812 -1.335938 5.5625 -1.765625 Z M 4.046875 0.109375 C 3.015625 0.109375 2.160156 -0.222656 1.484375 -0.890625 C 0.816406 -1.566406 0.484375 -2.453125 0.484375 -3.546875 C 0.484375 -4.640625 0.828125 -5.519531 1.515625 -6.1875 C 2.210938 -6.863281 3.070312 -7.203125 4.09375 -7.203125 C 5.125 -7.203125 5.984375 -6.863281 6.671875 -6.1875 C 7.367188 -5.519531 7.71875 -4.640625 7.71875 -3.546875 C 7.71875 -2.460938 7.363281 -1.582031 6.65625 -0.90625 C 5.945312 -0.226562 5.078125 0.109375 4.046875 0.109375 Z M 4.046875 0.109375 "/></g></g></g><g fill="#eddede" fill-opacity="1"><g transform="translate(185.188957, 284.862638)"><g/></g></g><g fill="#eddede" fill-opacity="1"><g transform="translate(189.946888, 284.862638)"><g><path d="M 10.375 -8.9375 L 10.375 0 L 8.90625 0 L 8.90625 -6.125 L 6.1875 0 L 5.171875 0 L 2.4375 -6.125 L 2.4375 0 L 0.96875 0 L 0.96875 -8.9375 L 2.546875 -8.9375 L 5.6875 -1.921875 L 8.8125 -8.9375 Z M 10.375 -8.9375 "/></g></g></g><g fill="#eddede" fill-opacity="1"><g transform="translate(202.188888, 284.862638)"><g><path d="M 5.640625 -1.796875 C 6.066406 -2.234375 6.28125 -2.816406 6.28125 -3.546875 C 6.28125 -4.273438 6.066406 -4.851562 5.640625 -5.28125 C 5.210938 -5.707031 4.707031 -5.921875 4.125 -5.921875 C 3.539062 -5.921875 3.035156 -5.710938 2.609375 -5.296875 C 2.191406 -4.878906 1.984375 -4.304688 1.984375 -3.578125 C 1.984375 -2.847656 2.191406 -2.257812 2.609375 -1.8125 C 3.035156 -1.375 3.539062 -1.15625 4.125 -1.15625 C 4.707031 -1.15625 5.210938 -1.367188 5.640625 -1.796875 Z M 3.8125 0.109375 C 2.875 0.109375 2.082031 -0.234375 1.4375 -0.921875 C 0.789062 -1.609375 0.46875 -2.488281 0.46875 -3.5625 C 0.46875 -4.644531 0.785156 -5.519531 1.421875 -6.1875 C 2.066406 -6.863281 2.863281 -7.203125 3.8125 -7.203125 C 4.375 -7.203125 4.863281 -7.070312 5.28125 -6.8125 C 5.707031 -6.5625 6.039062 -6.234375 6.28125 -5.828125 L 6.28125 -7.078125 L 7.75 -7.078125 L 7.75 0 L 6.28125 0 L 6.28125 -1.328125 C 6.039062 -0.890625 5.707031 -0.539062 5.28125 -0.28125 C 4.863281 -0.0195312 4.375 0.109375 3.8125 0.109375 Z M 3.8125 0.109375 "/></g></g></g><g fill="#eddede" fill-opacity="1"><g transform="translate(211.807602, 284.862638)"><g><path d="M 2.4375 -7.078125 L 2.4375 -5.84375 C 2.882812 -6.75 3.585938 -7.203125 4.546875 -7.203125 L 4.546875 -5.6875 L 4.171875 -5.6875 C 3.597656 -5.6875 3.164062 -5.539062 2.875 -5.25 C 2.582031 -4.957031 2.4375 -4.453125 2.4375 -3.734375 L 2.4375 0 L 0.96875 0 L 0.96875 -7.078125 Z M 2.4375 -7.078125 "/></g></g></g><g fill="#eddede" fill-opacity="1"><g transform="translate(217.645704, 284.862638)"><g><path d="M 2.4375 0 L 0.96875 0 L 0.96875 -9.515625 L 2.4375 -9.515625 L 2.4375 -3.984375 L 5 -7.078125 L 7.03125 -7.078125 L 3.765625 -3.53125 L 7.03125 0 L 5.046875 0 L 2.4375 -3.046875 Z M 2.4375 0 "/></g></g></g><g fill="#eddede" fill-opacity="1"><g transform="translate(225.669869, 284.862638)"><g><path d="M 3.953125 0.109375 C 2.921875 0.109375 2.082031 -0.222656 1.4375 -0.890625 C 0.789062 -1.554688 0.46875 -2.441406 0.46875 -3.546875 C 0.46875 -4.648438 0.796875 -5.535156 1.453125 -6.203125 C 2.109375 -6.867188 2.953125 -7.203125 3.984375 -7.203125 C 5.015625 -7.203125 5.847656 -6.878906 6.484375 -6.234375 C 7.128906 -5.597656 7.453125 -4.765625 7.453125 -3.734375 C 7.453125 -3.492188 7.4375 -3.265625 7.40625 -3.046875 L 1.984375 -3.046875 C 2.015625 -2.453125 2.210938 -1.984375 2.578125 -1.640625 C 2.941406 -1.296875 3.398438 -1.125 3.953125 -1.125 C 4.742188 -1.125 5.300781 -1.453125 5.625 -2.109375 L 7.21875 -2.109375 C 7 -1.453125 6.601562 -0.914062 6.03125 -0.5 C 5.46875 -0.09375 4.773438 0.109375 3.953125 0.109375 Z M 5.921875 -4.046875 C 5.921875 -4.628906 5.726562 -5.09375 5.34375 -5.4375 C 4.96875 -5.789062 4.507812 -5.96875 3.96875 -5.96875 C 3.425781 -5.96875 2.972656 -5.789062 2.609375 -5.4375 C 2.253906 -5.09375 2.050781 -4.628906 2 -4.046875 Z M 5.921875 -4.046875 "/></g></g></g><g fill="#eddede" fill-opacity="1"><g transform="translate(234.504163, 284.862638)"><g><path d="M 4.390625 -5.890625 L 2.671875 -5.890625 L 2.671875 -1.96875 C 2.671875 -1.695312 2.734375 -1.503906 2.859375 -1.390625 C 2.984375 -1.273438 3.195312 -1.21875 3.5 -1.21875 L 4.390625 -1.21875 L 4.390625 0 L 3.234375 0 C 1.878906 0 1.203125 -0.65625 1.203125 -1.96875 L 1.203125 -5.890625 L 0.359375 -5.890625 L 0.359375 -7.078125 L 1.203125 -7.078125 L 1.203125 -8.84375 L 2.671875 -8.84375 L 2.671875 -7.078125 L 4.390625 -7.078125 Z M 4.390625 -5.890625 "/></g></g></g><g fill="#eddede" fill-opacity="1"><g transform="translate(151.170621, 301.579654)"><g><path d="M 0.96875 -8.9375 L 4.375 -8.9375 C 5.289062 -8.9375 6 -8.710938 6.5 -8.265625 C 7.007812 -7.816406 7.265625 -7.253906 7.265625 -6.578125 C 7.265625 -5.566406 6.6875 -4.90625 5.53125 -4.59375 C 6.113281 -4.5 6.582031 -4.238281 6.9375 -3.8125 C 7.289062 -3.382812 7.46875 -2.898438 7.46875 -2.359375 C 7.46875 -1.671875 7.203125 -1.101562 6.671875 -0.65625 C 6.140625 -0.21875 5.429688 0 4.546875 0 L 0.96875 0 Z M 2.4375 -7.796875 L 2.4375 -5.140625 L 4.25 -5.140625 C 4.726562 -5.140625 5.101562 -5.253906 5.375 -5.484375 C 5.644531 -5.722656 5.78125 -6.046875 5.78125 -6.453125 C 5.78125 -6.867188 5.644531 -7.195312 5.375 -7.4375 C 5.101562 -7.675781 4.726562 -7.796875 4.25 -7.796875 Z M 2.4375 -1.140625 L 4.40625 -1.140625 C 4.90625 -1.140625 5.296875 -1.265625 5.578125 -1.515625 C 5.859375 -1.765625 6 -2.109375 6 -2.546875 C 6 -2.992188 5.847656 -3.347656 5.546875 -3.609375 C 5.253906 -3.867188 4.859375 -4 4.359375 -4 L 2.4375 -4 Z M 2.4375 -1.140625 "/></g></g></g><g fill="#eddede" fill-opacity="1"><g transform="translate(160.172095, 301.579654)"><g><path d="M 5.640625 -1.796875 C 6.066406 -2.234375 6.28125 -2.816406 6.28125 -3.546875 C 6.28125 -4.273438 6.066406 -4.851562 5.640625 -5.28125 C 5.210938 -5.707031 4.707031 -5.921875 4.125 -5.921875 C 3.539062 -5.921875 3.035156 -5.710938 2.609375 -5.296875 C 2.191406 -4.878906 1.984375 -4.304688 1.984375 -3.578125 C 1.984375 -2.847656 2.191406 -2.257812 2.609375 -1.8125 C 3.035156 -1.375 3.539062 -1.15625 4.125 -1.15625 C 4.707031 -1.15625 5.210938 -1.367188 5.640625 -1.796875 Z M 3.8125 0.109375 C 2.875 0.109375 2.082031 -0.234375 1.4375 -0.921875 C 0.789062 -1.609375 0.46875 -2.488281 0.46875 -3.5625 C 0.46875 -4.644531 0.785156 -5.519531 1.421875 -6.1875 C 2.066406 -6.863281 2.863281 -7.203125 3.8125 -7.203125 C 4.375 -7.203125 4.863281 -7.070312 5.28125 -6.8125 C 5.707031 -6.5625 6.039062 -6.234375 6.28125 -5.828125 L 6.28125 -7.078125 L 7.75 -7.078125 L 7.75 0 L 6.28125 0 L 6.28125 -1.328125 C 6.039062 -0.890625 5.707031 -0.539062 5.28125 -0.28125 C 4.863281 -0.0195312 4.375 0.109375 3.8125 0.109375 Z M 3.8125 0.109375 "/></g></g></g><g fill="#eddede" fill-opacity="1"><g transform="translate(169.790806, 301.579654)"><g><path d="M 0.96875 0 L 0.96875 -9.515625 L 2.4375 -9.515625 L 2.4375 0 Z M 0.96875 0 "/></g></g></g><g fill="#eddede" fill-opacity="1"><g transform="translate(174.085802, 301.579654)"><g><path d="M 5.640625 -1.796875 C 6.066406 -2.234375 6.28125 -2.816406 6.28125 -3.546875 C 6.28125 -4.273438 6.066406 -4.851562 5.640625 -5.28125 C 5.210938 -5.707031 4.707031 -5.921875 4.125 -5.921875 C 3.539062 -5.921875 3.035156 -5.710938 2.609375 -5.296875 C 2.191406 -4.878906 1.984375 -4.304688 1.984375 -3.578125 C 1.984375 -2.847656 2.191406 -2.257812 2.609375 -1.8125 C 3.035156 -1.375 3.539062 -1.15625 4.125 -1.15625 C 4.707031 -1.15625 5.210938 -1.367188 5.640625 -1.796875 Z M 3.8125 0.109375 C 2.875 0.109375 2.082031 -0.234375 1.4375 -0.921875 C 0.789062 -1.609375 0.46875 -2.488281 0.46875 -3.5625 C 0.46875 -4.644531 0.785156 -5.519531 1.421875 -6.1875 C 2.066406 -6.863281 2.863281 -7.203125 3.8125 -7.203125 C 4.375 -7.203125 4.863281 -7.070312 5.28125 -6.8125 C 5.707031 -6.5625 6.039062 -6.234375 6.28125 -5.828125 L 6.28125 -7.078125 L 7.75 -7.078125 L 7.75 0 L 6.28125 0 L 6.28125 -1.328125 C 6.039062 -0.890625 5.707031 -0.539062 5.28125 -0.28125 C 4.863281 -0.0195312 4.375 0.109375 3.8125 0.109375 Z M 3.8125 0.109375 "/></g></g></g><g fill="#eddede" fill-opacity="1"><g transform="translate(183.704513, 301.579654)"><g><path d="M 2.4375 -7.078125 L 2.4375 -5.96875 C 2.90625 -6.789062 3.65625 -7.203125 4.6875 -7.203125 C 5.488281 -7.203125 6.148438 -6.9375 6.671875 -6.40625 C 7.191406 -5.875 7.453125 -5.128906 7.453125 -4.171875 L 7.453125 0 L 6 0 L 6 -3.953125 C 6 -4.585938 5.835938 -5.070312 5.515625 -5.40625 C 5.203125 -5.75 4.769531 -5.921875 4.21875 -5.921875 C 3.664062 -5.921875 3.226562 -5.75 2.90625 -5.40625 C 2.59375 -5.070312 2.4375 -4.585938 2.4375 -3.953125 L 2.4375 0 L 0.96875 0 L 0.96875 -7.078125 Z M 2.4375 -7.078125 "/></g></g></g><g fill="#eddede" fill-opacity="1"><g transform="translate(192.950305, 301.579654)"><g><path d="M 3.953125 0.109375 C 2.921875 0.109375 2.082031 -0.222656 1.4375 -0.890625 C 0.789062 -1.554688 0.46875 -2.4375 0.46875 -3.53125 C 0.46875 -4.632812 0.789062 -5.519531 1.4375 -6.1875 C 2.09375 -6.863281 2.929688 -7.203125 3.953125 -7.203125 C 4.804688 -7.203125 5.515625 -7 6.078125 -6.59375 C 6.640625 -6.1875 7.019531 -5.601562 7.21875 -4.84375 L 5.625 -4.84375 C 5.363281 -5.59375 4.804688 -5.96875 3.953125 -5.96875 C 3.347656 -5.96875 2.867188 -5.753906 2.515625 -5.328125 C 2.160156 -4.898438 1.984375 -4.304688 1.984375 -3.546875 C 1.984375 -2.785156 2.160156 -2.191406 2.515625 -1.765625 C 2.867188 -1.335938 3.347656 -1.125 3.953125 -1.125 C 4.796875 -1.125 5.351562 -1.492188 5.625 -2.234375 L 7.21875 -2.234375 C 7.007812 -1.515625 6.617188 -0.941406 6.046875 -0.515625 C 5.484375 -0.0976562 4.785156 0.109375 3.953125 0.109375 Z M 3.953125 0.109375 "/></g></g></g><g fill="#eddede" fill-opacity="1"><g transform="translate(201.565999, 301.579654)"><g><path d="M 2.640625 -8.953125 C 2.640625 -8.691406 2.546875 -8.472656 2.359375 -8.296875 C 2.179688 -8.117188 1.960938 -8.03125 1.703125 -8.03125 C 1.441406 -8.03125 1.21875 -8.117188 1.03125 -8.296875 C 0.851562 -8.472656 0.765625 -8.691406 0.765625 -8.953125 C 0.765625 -9.222656 0.851562 -9.445312 1.03125 -9.625 C 1.21875 -9.8125 1.441406 -9.90625 1.703125 -9.90625 C 1.960938 -9.90625 2.179688 -9.8125 2.359375 -9.625 C 2.546875 -9.445312 2.640625 -9.222656 2.640625 -8.953125 Z M 0.96875 0 L 0.96875 -7.078125 L 2.4375 -7.078125 L 2.4375 0 Z M 0.96875 0 "/></g></g></g><g fill="#eddede" fill-opacity="1"><g transform="translate(205.860996, 301.579654)"><g><path d="M 2.4375 -7.078125 L 2.4375 -5.96875 C 2.90625 -6.789062 3.65625 -7.203125 4.6875 -7.203125 C 5.488281 -7.203125 6.148438 -6.9375 6.671875 -6.40625 C 7.191406 -5.875 7.453125 -5.128906 7.453125 -4.171875 L 7.453125 0 L 6 0 L 6 -3.953125 C 6 -4.585938 5.835938 -5.070312 5.515625 -5.40625 C 5.203125 -5.75 4.769531 -5.921875 4.21875 -5.921875 C 3.664062 -5.921875 3.226562 -5.75 2.90625 -5.40625 C 2.59375 -5.070312 2.4375 -4.585938 2.4375 -3.953125 L 2.4375 0 L 0.96875 0 L 0.96875 -7.078125 Z M 2.4375 -7.078125 "/></g></g></g><g fill="#eddede" fill-opacity="1"><g transform="translate(215.106791, 301.579654)"><g><path d="M 3.8125 0.109375 C 2.875 0.109375 2.082031 -0.234375 1.4375 -0.921875 C 0.789062 -1.609375 0.46875 -2.488281 0.46875 -3.5625 C 0.46875 -4.644531 0.785156 -5.519531 1.421875 -6.1875 C 2.066406 -6.863281 2.863281 -7.203125 3.8125 -7.203125 C 4.375 -7.203125 4.863281 -7.070312 5.28125 -6.8125 C 5.707031 -6.5625 6.039062 -6.234375 6.28125 -5.828125 L 6.28125 -7.078125 L 7.75 -7.078125 L 7.75 0.109375 C 7.75 1.109375 7.441406 1.921875 6.828125 2.546875 C 6.222656 3.179688 5.410156 3.5 4.390625 3.5 C 3.367188 3.5 2.539062 3.269531 1.90625 2.8125 C 1.269531 2.363281 0.910156 1.753906 0.828125 0.984375 L 2.28125 0.984375 C 2.382812 1.359375 2.617188 1.65625 2.984375 1.875 C 3.347656 2.101562 3.804688 2.21875 4.359375 2.21875 C 4.910156 2.21875 5.367188 2.035156 5.734375 1.671875 C 6.097656 1.316406 6.28125 0.796875 6.28125 0.109375 L 6.28125 -1.328125 C 6.039062 -0.890625 5.707031 -0.539062 5.28125 -0.28125 C 4.863281 -0.0195312 4.375 0.109375 3.8125 0.109375 Z M 5.640625 -1.796875 C 6.066406 -2.234375 6.28125 -2.816406 6.28125 -3.546875 C 6.28125 -4.273438 6.066406 -4.851562 5.640625 -5.28125 C 5.210938 -5.707031 4.707031 -5.921875 4.125 -5.921875 C 3.539062 -5.921875 3.035156 -5.710938 2.609375 -5.296875 C 2.191406 -4.878906 1.984375 -4.304688 1.984375 -3.578125 C 1.984375 -2.847656 2.191406 -2.257812 2.609375 -1.8125 C 3.035156 -1.375 3.539062 -1.15625 4.125 -1.15625 C 4.707031 -1.15625 5.210938 -1.367188 5.640625 -1.796875 Z M 5.640625 -1.796875 "/></g></g></g></svg>