<svg xmlns="http://www.w3.org/2000/svg" xmlns:xlink="http://www.w3.org/1999/xlink" width="500" zoomAndPan="magnify" viewBox="0 0 375 374.999991" height="500" preserveAspectRatio="xMidYMid meet" version="1.0"><defs><g/><clipPath id="ab0422a3f1"><path d="M 56.488281 151.464844 L 318 151.464844 L 318 223.535156 L 56.488281 223.535156 Z M 56.488281 151.464844 " clip-rule="nonzero"/></clipPath><clipPath id="184441b8b2"><path d="M 56.488281 151.464844 L 318.238281 151.464844 L 318.238281 223.464844 L 56.488281 223.464844 Z M 56.488281 151.464844 " clip-rule="nonzero"/></clipPath><clipPath id="dbb69f1227"><path d="M 63.558594 158.238281 L 187.332031 158.238281 L 187.332031 216.761719 L 63.558594 216.761719 Z M 63.558594 158.238281 " clip-rule="nonzero"/></clipPath></defs><g clip-path="url(#ab0422a3f1)"><path fill="#bfe5ef" d="M 56.488281 151.464844 L 317.851562 151.464844 L 317.851562 223.222656 L 56.488281 223.222656 Z M 56.488281 151.464844 " fill-opacity="1" fill-rule="nonzero"/></g><g clip-path="url(#184441b8b2)"><path stroke-linecap="butt" transform="matrix(0.750202, 0, 0, 0.749268, 56.489269, 151.465449)" fill="none" stroke-linejoin="miter" d="M -0.00131637 -0.000808127 L 348.904932 -0.000808127 L 348.904932 96.092952 L -0.00131637 96.092952 L -0.00131637 -0.000808127 " stroke="#000000" stroke-width="6" stroke-opacity="1" stroke-miterlimit="4"/></g><g clip-path="url(#dbb69f1227)"><path fill="#333333" d="M 63.558594 158.238281 L 187.515625 158.238281 L 187.515625 216.84375 L 63.558594 216.84375 Z M 63.558594 158.238281 " fill-opacity="1" fill-rule="nonzero"/></g><g fill="#eddede" fill-opacity="1"><g transform="translate(95.36457, 196.618259)"><g><path d="M 1.234375 0 L 4.042969 0 C 8.566406 0 10.671875 -2.585938 10.671875 -6.488281 L 10.671875 -19.660156 L 8.203125 -19.660156 L 8.203125 -6.628906 C 8.203125 -4.015625 7.191406 -2.359375 4.042969 -2.359375 L 1.234375 -2.359375 Z M 1.234375 0 "/></g></g></g><g fill="#eddede" fill-opacity="1"><g transform="translate(110.976845, 196.618259)"><g><path d="M 11.796875 0.363281 C 17.78125 0.363281 21.992188 -3.847656 21.992188 -9.832031 C 21.992188 -15.8125 17.78125 -20.027344 11.796875 -20.027344 C 5.8125 -20.027344 1.628906 -15.8125 1.628906 -9.832031 C 1.628906 -3.847656 5.8125 0.363281 11.796875 0.363281 Z M 4.15625 -9.832031 C 4.15625 -14.410156 7.273438 -17.554688 11.796875 -17.554688 C 16.320312 -17.554688 19.4375 -14.410156 19.4375 -9.832031 C 19.4375 -5.253906 16.320312 -2.105469 11.796875 -2.105469 C 7.273438 -2.105469 4.15625 -5.253906 4.15625 -9.832031 Z M 4.15625 -9.832031 "/></g></g></g><g fill="#eddede" fill-opacity="1"><g transform="translate(136.697228, 196.618259)"><g><path d="M 2.863281 0 L 10.839844 0 C 14.800781 0 17.273438 -2.105469 17.273438 -5.503906 C 17.273438 -7.722656 16.179688 -9.382812 14.15625 -10.195312 C 15.757812 -11.011719 16.710938 -12.527344 16.710938 -14.4375 C 16.710938 -17.609375 14.242188 -19.660156 10.476562 -19.660156 L 2.863281 -19.660156 Z M 5.335938 -2.304688 L 5.335938 -8.902344 L 10.757812 -8.902344 C 13.3125 -8.902344 14.746094 -7.695312 14.746094 -5.617188 C 14.746094 -3.511719 13.3125 -2.304688 10.785156 -2.304688 Z M 5.335938 -11.152344 L 5.335938 -17.359375 L 10.421875 -17.359375 C 12.808594 -17.359375 14.183594 -16.234375 14.183594 -14.242188 C 14.183594 -12.273438 12.835938 -11.152344 10.421875 -11.152344 Z M 5.335938 -11.152344 "/></g></g></g><g fill="#333333" fill-opacity="1"><g transform="translate(221.739174, 196.618259)"><g><path d="M 13.820312 0 L 19.492188 0 L 19.492188 -19.660156 L 13.820312 -19.660156 L 13.820312 -12.609375 L 7.753906 -12.609375 L 7.753906 -19.660156 L 2.078125 -19.660156 L 2.078125 0 L 7.753906 0 L 7.753906 -7.386719 L 13.820312 -7.386719 Z M 13.820312 0 "/></g></g></g><g fill="#333333" fill-opacity="1"><g transform="translate(243.303137, 196.618259)"><g><path d="M 10.53125 0.421875 C 15.839844 0.421875 19.128906 -2.808594 19.128906 -8.089844 L 19.128906 -19.660156 L 13.480469 -19.660156 L 13.480469 -8.453125 C 13.480469 -6.125 12.5 -4.886719 10.53125 -4.886719 C 8.566406 -4.886719 7.582031 -6.125 7.582031 -8.453125 L 7.582031 -19.660156 L 1.910156 -19.660156 L 1.910156 -8.089844 C 1.910156 -2.808594 5.222656 0.421875 10.53125 0.421875 Z M 10.53125 0.421875 "/></g></g></g><g fill="#333333" fill-opacity="1"><g transform="translate(264.361695, 196.618259)"><g><path d="M 2.078125 0 L 12.160156 0 C 16.148438 0 18.929688 -2.246094 18.929688 -5.476562 C 18.929688 -7.554688 17.808594 -9.242188 15.953125 -10.054688 C 17.46875 -10.925781 18.339844 -12.5 18.339844 -14.378906 C 18.339844 -17.609375 15.757812 -19.660156 11.65625 -19.660156 L 2.078125 -19.660156 Z M 7.640625 -4.214844 L 7.640625 -7.894531 L 11.066406 -7.894531 C 12.414062 -7.894531 13.171875 -7.21875 13.171875 -6.066406 C 13.171875 -4.886719 12.414062 -4.214844 11.066406 -4.214844 Z M 7.640625 -11.9375 L 7.640625 -15.476562 L 10.589844 -15.476562 C 11.910156 -15.476562 12.640625 -14.832031 12.640625 -13.707031 C 12.640625 -12.554688 11.910156 -11.9375 10.589844 -11.9375 Z M 7.640625 -11.9375 "/></g></g></g></svg>