<svg width="0" height="0" class="hidden">
  <symbol xmlns="http://www.w3.org/2000/svg" version="1.1" xmlns:xlink="http://www.w3.org/1999/xlink" xmlnsSvgjs="http://svgjs.com/svgjs" x="0" y="0" xml:space="preserve" viewBox="0 0 682.667 682.667" id="block">
    <g>
      <defs>
        <clipPath id="a" clipPathUnits="userSpaceOnUse">
          <path d="M0 512h512V0H0Z" fill="#eddede" data-original="#000000"></path>
        </clipPath>
        <clipPath id="b" clipPathUnits="userSpaceOnUse">
          <path d="M0 512h512V0H0Z" fill="#eddede" data-original="#000000"></path>
        </clipPath>
        <clipPath id="c" clipPathUnits="userSpaceOnUse">
          <path d="M0 512h512V0H0Z" fill="#eddede" data-original="#000000"></path>
        </clipPath>
      </defs>
      <g clip-path="url(#a)" transform="matrix(1.33333 0 0 -1.33333 0 682.667)">
        <path d="M0 0v131.893l-120.706 54.605-120.538-52.597V0l120.538-53.603z" transform="translate(376.664 283.304)" fill="none" stroke="#eddede" stroke-width="30" stroke-linecap="round" stroke-linejoin="round" stroke-miterlimit="10" stroke-dasharray="none" stroke-opacity="" data-original="#000000"></path>
      </g>
      <path d="m0 0-120.706-57.014v-128.482" transform="matrix(1.33333 0 0 -1.33333 502.219 129.07)" fill="none" stroke="#eddede" stroke-width="30" stroke-linecap="round" stroke-linejoin="round" stroke-miterlimit="10" stroke-dasharray="none" stroke-opacity="" data-original="#000000"></path>
      <path d="m0 0-120.538 59.021" transform="matrix(1.33333 0 0 -1.33333 341.277 205.089)" fill="none" stroke="#eddede" stroke-width="30" stroke-linecap="round" stroke-linejoin="round" stroke-miterlimit="10" stroke-dasharray="none" stroke-opacity="" data-original="#000000"></path>
      <g clip-path="url(#b)" transform="matrix(1.33333 0 0 -1.33333 0 682.667)">
        <path d="M0 0v131.893l-120.538 55.61-120.706-53.602V0l120.539-53.603z" transform="translate(497.202 95.8)" fill="none" stroke="#eddede" stroke-width="30" stroke-linecap="round" stroke-linejoin="round" stroke-miterlimit="10" stroke-dasharray="none" stroke-opacity="" data-original="#000000"></path>
        <path d="m0 0-120.705-57.014v-128.482" transform="translate(497.202 227.694)" fill="none" stroke="#eddede" stroke-width="30" stroke-linecap="round" stroke-linejoin="round" stroke-miterlimit="10" stroke-dasharray="none" stroke-opacity="" data-original="#000000"></path>
      </g>
      <path d="m0 0-120.539 59.021" transform="matrix(1.33333 0 0 -1.33333 501.996 455.093)" fill="none" stroke="#eddede" stroke-width="30" stroke-linecap="round" stroke-linejoin="round" stroke-miterlimit="10" stroke-dasharray="none" stroke-opacity="" data-original="#000000"></path>
      <g clip-path="url(#c)" transform="matrix(1.33333 0 0 -1.33333 0 682.667)">
        <path d="m0 0-.084 133.9-120.455 53.603-120.705-53.602V0l120.538-53.603z" transform="translate(256.042 95.8)" fill="none" stroke="#eddede" stroke-width="30" stroke-linecap="round" stroke-linejoin="round" stroke-miterlimit="10" stroke-dasharray="none" stroke-opacity="" data-original="#000000"></path>
        <path d="m0 0-120.622-59.021v-128.482" transform="translate(255.958 229.701)" fill="none" stroke="#eddede" stroke-width="30" stroke-linecap="round" stroke-linejoin="round" stroke-miterlimit="10" stroke-dasharray="none" stroke-opacity="" data-original="#000000"></path>
        <path d="m0 0-120.538 59.021" transform="translate(135.336 170.68)" fill="none" stroke="#eddede" stroke-width="30" stroke-linecap="round" stroke-linejoin="round" stroke-miterlimit="10" stroke-dasharray="none" stroke-opacity="" data-original="#000000"></path>
      </g>
    </g>
  </symbol>
  <symbol xmlns="http://www.w3.org/2000/svg" version="1.1" xmlns:xlink="http://www.w3.org/1999/xlink" xmlnsSvgjs="http://svgjs.com/svgjs" x="0" y="0" xml:space="preserve" viewBox="0 0 511.728 511.728" id="cart">
    <g>
      <path d="M147.925 379.116c-22.357-1.142-21.936-32.588-.001-33.68 62.135.216 226.021.058 290.132.103 17.535 0 32.537-11.933 36.481-29.017l36.404-157.641c2.085-9.026-.019-18.368-5.771-25.629s-14.363-11.484-23.626-11.484c-25.791 0-244.716-.991-356.849-1.438L106.92 54.377c-4.267-15.761-18.65-26.768-34.978-26.768H15c-8.284 0-15 6.716-15 15s6.716 15 15 15h56.942a6.246 6.246 0 0 1 6.017 4.592l68.265 253.276c-12.003.436-23.183 5.318-31.661 13.92-8.908 9.04-13.692 21.006-13.471 33.695.442 25.377 21.451 46.023 46.833 46.023h21.872a52.18 52.18 0 0 0-5.076 22.501c0 28.95 23.552 52.502 52.502 52.502s52.502-23.552 52.502-52.502a52.177 52.177 0 0 0-5.077-22.501h94.716a52.185 52.185 0 0 0-5.073 22.493c0 28.95 23.553 52.502 52.502 52.502 28.95 0 52.503-23.553 52.503-52.502a52.174 52.174 0 0 0-5.464-23.285c5.936-1.999 10.216-7.598 10.216-14.207 0-8.284-6.716-15-15-15zm91.799 52.501c0 12.408-10.094 22.502-22.502 22.502s-22.502-10.094-22.502-22.502c0-12.401 10.084-22.491 22.483-22.501h.038c12.399.01 22.483 10.1 22.483 22.501zm167.07 22.494c-12.407 0-22.502-10.095-22.502-22.502 0-12.285 9.898-22.296 22.137-22.493h.731c12.24.197 22.138 10.208 22.138 22.493-.001 12.407-10.096 22.502-22.504 22.502zm74.86-302.233c.089.112.076.165.057.251l-15.339 66.425H414.43l8.845-67.023 58.149.234c.089.002.142.002.23.113zm-154.645 163.66v-66.984h53.202l-8.84 66.984zm-74.382 0-8.912-66.984h53.294v66.984zm-69.053 0h-.047c-3.656-.001-6.877-2.467-7.828-5.98l-16.442-61.004h54.193l8.912 66.984zm56.149-96.983-9.021-67.799 66.306.267v67.532zm87.286 0v-67.411l66.022.266-8.861 67.145zm-126.588-67.922 9.037 67.921h-58.287l-18.38-68.194zm237.635 164.905H401.63l8.84-66.984h48.973l-14.137 61.217a7.406 7.406 0 0 1-7.25 5.767z" fill="#eddede" data-original="#000000"></path>
    </g>
  </symbol>
  <symbol xmlns="http://www.w3.org/2000/svg" version="1.1" xmlns:xlink="http://www.w3.org/1999/xlink" xmlnsSvgjs="http://svgjs.com/svgjs" x="0" y="0" xml:space="preserve" viewBox="0 0 512 512" id="document">
    <g>
      <path d="M498.791 161.127c-17.545-17.546-46.094-17.545-63.645.004l-45.128 45.166V87.426c0-12.02-4.681-23.32-13.181-31.819L334.412 13.18C325.913 4.68 314.612 0 302.592 0H45.018c-24.813 0-45 20.187-45 45v422c0 24.813 20.187 45 45 45h300c24.813 0 45-20.187 45-45V333.631L498.79 224.767c17.587-17.586 17.591-46.052.001-63.64zM300.019 30c2.834 0 8.295-.491 13.18 4.393l42.426 42.427c4.76 4.761 4.394 9.978 4.394 13.18h-60V30zm59.999 437c0 8.271-6.728 15-15 15h-300c-8.271 0-15-6.729-15-15V45c0-8.271 6.729-15 15-15h225v75c0 8.284 6.716 15 15 15h75v116.323l-44.256 44.293-21.203 21.204a15 15 0 0 0-3.624 5.863l-21.214 63.64a14.999 14.999 0 0 0 18.974 18.974l63.64-21.213a14.988 14.988 0 0 0 5.863-3.624l1.82-1.82V467zm-33.64-154.573 21.213 21.213-8.103 8.103-31.819 10.606 10.606-31.82 8.103-8.102zm42.422-.005-21.213-21.213 72.105-72.166 21.213 21.213-72.105 72.166zm108.773-108.864-15.463 15.476-21.213-21.213 15.468-15.481c5.852-5.849 15.366-5.848 21.214 0 5.847 5.85 5.878 15.333-.006 21.218z" fill="#eddede" data-original="#000000"></path>
      <path d="M285.018 150h-210c-8.284 0-15 6.716-15 15s6.716 15 15 15h210c8.284 0 15-6.716 15-15s-6.716-15-15-15zM225.018 210h-150c-8.284 0-15 6.716-15 15s6.716 15 15 15h150c8.284 0 15-6.716 15-15s-6.716-15-15-15zM225.018 270h-150c-8.284 0-15 6.716-15 15s6.716 15 15 15h150c8.284 0 15-6.716 15-15s-6.716-15-15-15zM225.018 330h-150c-8.284 0-15 6.716-15 15s6.716 15 15 15h150c8.284 0 15-6.716 15-15s-6.716-15-15-15zM285.018 422h-90c-8.284 0-15 6.716-15 15s6.716 15 15 15h90c8.284 0 15-6.716 15-15s-6.716-15-15-15z" fill="#eddede" data-original="#000000"></path>
    </g>
  </symbol>
  <symbol xmlns="http://www.w3.org/2000/svg" version="1.1" xmlns:xlink="http://www.w3.org/1999/xlink" xmlnsSvgjs="http://svgjs.com/svgjs" x="0" y="0" xml:space="preserve" viewBox="0 0 478.306 478.306" id="laptop-mobile">
    <g>
      <path d="M86.649 65.425a2.51 2.51 0 0 1 2.513-2.506h318.124a2.51 2.51 0 0 1 2.513 2.506v215.91a2.509 2.509 0 0 1-2.513 2.505H243.98v31.649h163.306c18.839 0 34.164-15.322 34.164-34.154V65.425c0-18.832-15.324-34.155-34.164-34.155H89.163c-18.839 0-34.164 15.324-34.164 34.155v69.297h31.65V65.425zM465.888 328.441H243.98v44.96h201.792c17.97 0 32.534-14.564 32.534-32.542 0-6.86-5.559-12.418-12.418-12.418z" fill="#eddede" data-original="#020202"></path>
      <path d="M175.27 166.371H37.061C16.625 166.371 0 182.994 0 203.431v206.545c0 20.436 16.625 37.061 37.061 37.061H175.27c20.437 0 37.061-16.625 37.061-37.061V203.431c0-20.437-16.624-37.06-37.061-37.06zm-143.62 37.06a5.417 5.417 0 0 1 5.411-5.411H175.27a5.417 5.417 0 0 1 5.411 5.411v191.825H31.65V203.431zm74.513 229.463c-4.997 0-9.202-2.928-11.331-7.086-.899-1.752-1.526-3.664-1.526-5.77 0-7.103 5.755-12.858 12.858-12.858 7.101 0 12.856 5.755 12.856 12.858 0 2.105-.625 4.017-1.526 5.77-2.132 4.158-6.336 7.086-11.331 7.086z" fill="#eddede" data-original="#020202"></path>
    </g>
  </symbol>
  <symbol xmlns="http://www.w3.org/2000/svg" version="1.1" xmlns:xlink="http://www.w3.org/1999/xlink" xmlnsSvgjs="http://svgjs.com/svgjs" x="0" y="0" xml:space="preserve" viewBox="0 0 950.002 950.002" id="speedometer">
    <g>
      <path d="m949.869 741.307-.217-6.221c-.075-2.082-.152-4.17-.229-6.268l-.06-1.57-.03-.787-.008-.197-.02-1.76-.006-.082-.025-.326-.201-2.607-.813-10.467-.207-2.645-.312-3.43-.646-6.836-.669-6.799-.343-3.381-.414-3.119c-1.139-8.242-2.156-16.342-3.608-24.129-.686-3.896-1.319-7.727-2.031-11.461l-2.277-10.914c-1.402-7.098-3.163-13.727-4.647-19.855l-1.115-4.492-1.185-4.264c-.782-2.766-1.523-5.391-2.221-7.855-.71-2.461-1.336-4.771-1.99-6.889l-1.851-5.803-2.079-6.455a4.926 4.926 0 0 0-6.043-3.223l-160.613 45.771a4.924 4.924 0 0 0-3.498 5.637l.595 3.201.759 3.994c.261 1.457.466 3.053.729 4.74l.821 5.383c.141.947.308 1.912.439 2.91l.35 3.07c.447 4.184 1.115 8.67 1.413 13.48l.609 7.361c.156 2.518.234 5.098.368 7.709.348 5.213.282 10.641.382 16.115l.023 2.039-.072 1.805-.124 3.617-.098 3.619-.038 1.807-.11 2.602c-.148 3.502-.299 7.002-.448 10.49l-.111 2.613-.015.326-.003.08c.002.393-.03-3.111-.02-1.598l-.013.129-.048.516-.095 1.031-.371 4.102-.355 4.062c-.16 1.342-.319 2.678-.479 4.004-.341 2.65-.551 5.275-.973 7.832l-1.09 7.535-1.246 7.166c-.366 2.33-.856 4.574-1.292 6.746-.456 2.168-.819 4.273-1.292 6.271a10470.159 10470.159 0 0 1-1.93 8.355l-.588 2.125-.327 1.221H944.3c2.633 0 4.826-2.066 4.926-4.697l.002-.047.503-11.254.224-11.742c.112-3.982-.009-8.029-.02-12.121-.023-2.045-.044-4.102-.066-6.17zM898.791 535.129a4.927 4.927 0 0 0 2.622-6.68l-1.886-3.984a3091.82 3091.82 0 0 1-2.231-4.697l-3.396-6.916c-1.222-2.459-2.521-5.076-3.893-7.834-.695-1.434-1.378-2.617-2.093-3.963l-2.186-4.037c-1.497-2.744-3.028-5.613-4.671-8.551a30131.59 30131.59 0 0 1-5.254-9.002l-2.749-4.684-2.947-4.723-6.112-9.706c-4.377-6.45-8.734-13.196-13.597-19.761-1.194-1.653-2.395-3.312-3.598-4.976l-1.81-2.494-1.884-2.453-7.58-9.812c-2.575-3.237-5.239-6.406-7.85-9.587-1.32-1.58-2.599-3.183-3.946-4.727l-4.04-4.603c-1.343-1.523-2.68-3.043-4.011-4.554a134.141 134.141 0 0 0-4.033-4.45l-8.06-8.585c-2.65-2.81-5.394-5.451-8.005-8.091-2.63-2.626-5.186-5.205-7.796-7.6l-7.521-7.04c-2.418-2.279-4.887-4.349-7.187-6.399l-6.656-5.819-6.157-5.073-5.416-4.442c-1.676-1.367-3.279-2.552-4.692-3.657a32101.34 32101.34 0 0 1-5.177-3.973 4.925 4.925 0 0 0-6.798.776l-86.204 104.346a4.925 4.925 0 0 0 .327 6.64c.721.712 1.553 1.536 2.489 2.463.897.901 1.925 1.855 2.979 2.969l3.409 3.604 3.88 4.078 4.147 4.67c1.427 1.642 2.987 3.272 4.471 5.09l4.636 5.573c1.621 1.878 3.168 3.917 4.77 5.977 1.585 2.074 3.279 4.119 4.871 6.312l4.851 6.658a71.25 71.25 0 0 1 2.41 3.434l2.381 3.506c.798 1.168 1.601 2.342 2.404 3.52.802 1.178 1.537 2.41 2.312 3.615 1.522 2.432 3.1 4.828 4.596 7.277l4.369 7.41 1.09 1.838 1.021 1.877 2.038 3.727c2.795 4.889 5.154 9.93 7.623 14.666l3.329 7.152 1.614 3.453 1.459 3.43c.965 2.246 1.903 4.434 2.812 6.547l2.427 6.199 1.142 2.912c.352.926.788 1.928 1.022 2.699l1.574 4.6 1.413 4.016 1.574 4.697 1.395 4.184a4.927 4.927 0 0 0 6.515 3.008l149.464-60.05zM459.808 348.748l4.324.59 5.063.882 5.747.987c1.758.292 3.579.716 5.472 1.112l54.404-111.282-7.993-1.248c-1.796-.267-3.564-.574-5.325-.794l-5.218-.632-9.989-1.187-9.358-.802c-3-.23-5.861-.533-8.6-.663l-7.765-.382-6.818-.322-5.792-.093-6.222-.075a4.925 4.925 0 0 0-4.979 4.695l-4.961 103.577a4.926 4.926 0 0 0 4.25 5.121l3.76.516zM606.027 405.781c1.462 1.063 2.848 2.071 4.15 3.02l3.654 2.617c.489.336 1.296.948 1.955 1.438l1.939 1.448 3.533 2.636a4.925 4.925 0 0 0 7.065-1.25l71.03-108.196a4.923 4.923 0 0 0-1.661-6.98l-3.823-2.193-2.101-1.205-2.511-1.421-6.542-3.604c-2.336-1.273-4.823-2.627-7.443-4.056a39845.12 39845.12 0 0 1-7.86-3.939c-2.75-1.342-5.556-2.835-8.565-4.19l-9.273-4.25c-3.161-1.492-6.497-2.847-9.883-4.269-3.4-1.392-6.821-2.914-10.394-4.257l-2.736-1.036-30.642 132.998c1.694 1.064 3.29 2.192 4.862 3.21l5.246 3.479zM364.434 348.206c1.372-.181 2.719-.405 4.064-.547l3.984-.405 7.619-.791 7.142-.479 3.353-.229c1.09-.073 2.182-.166 3.118-.167l5.479-.143 4.8-.152 5.025-.033 4.408-.024a4.925 4.925 0 0 0 4.886-5.254l-6.394-97.57a4.925 4.925 0 0 0-5.53-4.571l-4.373.552-5.089.648-7.083 1.05-8.034 1.224c-1.448.204-2.781.475-4.18.739l-4.279.817-9.076 1.754-9.642 2.196-5.019 1.154c-1.692.396-3.389.88-5.11 1.325l-10.51 2.8-10.757 3.243c-1.812.561-3.643 1.09-5.463 1.689l-5.467 1.865-5.5 1.885c-1.84.626-3.683 1.255-5.501 1.972l-10.963 4.185c-3.643 1.426-7.226 3.006-10.817 4.501-1.79.763-3.585 1.499-5.354 2.282l-5.253 2.425-5.201 2.409c-1.725.798-3.443 1.584-5.113 2.451l-9.919 5.008c-3.257 1.633-6.361 3.435-9.444 5.094-3.069 1.69-6.087 3.302-8.934 5.039l-8.342 4.949c-2.702 1.576-5.208 3.278-7.664 4.816l-6.999 4.487-6.178 4.24-5.418 3.731c-1.672 1.153-3.151 2.296-4.514 3.284l-4.7 3.47a4.923 4.923 0 0 0-1.141 6.735l40.515 59.566a4.922 4.922 0 0 0 6.494 1.524l3.632-2.049c1.209-.669 2.517-1.459 3.994-2.228 1.476-.77 3.072-1.6 4.777-2.488l5.417-2.832 6.107-2.928c2.138-.996 4.307-2.137 6.646-3.132l7.189-3.155c2.443-1.125 5.031-2.108 7.649-3.158 2.632-1.02 5.268-2.174 8.029-3.149l8.374-3.018c1.403-.533 2.847-.984 4.294-1.446l4.353-1.401 4.378-1.416c1.472-.447 2.965-.847 4.448-1.275 2.979-.824 5.938-1.738 8.938-2.504l8.994-2.225c1.484-.395 2.99-.704 4.489-1.013l4.475-.942 4.429-.94c1.473-.294 2.954-.521 4.415-.784l8.648-1.501 8.399-1.16zM88.175 425.22l-3.199 4.526-3.216 4.559c-1.071 1.527-2.073 3.111-3.115 4.669-2.054 3.137-4.156 6.25-6.168 9.422l-5.887 9.585-1.46 2.386-1.386 2.425-2.754 4.822c-3.74 6.353-6.989 12.847-10.291 19.015l-4.529 9.266-2.178 4.488-1.999 4.441-3.817 8.504-3.329 8.045c-1.046 2.586-2.103 5.033-3.004 7.408l-2.527 6.752-2.212 5.93-1.734 5.084-1.741 5.168a4.924 4.924 0 0 0 2.91 6.172l37.71 14.457c2.4.92 5.103-.154 6.212-2.473l1.962-4.102 2.073-4.311 2.596-5.004c.924-1.781 1.906-3.68 2.942-5.68 1.044-1.994 2.246-4.039 3.439-6.199l3.77-6.705 4.252-7.043 2.21-3.668c.785-1.215 1.58-2.443 2.383-3.688l4.916-7.59c3.546-5.02 7.014-10.307 10.933-15.406l2.882-3.879 1.445-1.947 1.514-1.904 6.064-7.633c2.061-2.516 4.2-4.967 6.279-7.439 1.054-1.227 2.066-2.479 3.145-3.672l3.228-3.562 3.195-3.531a87.627 87.627 0 0 1 3.211-3.444l6.411-6.64c2.101-2.177 4.294-4.197 6.364-6.239 2.086-2.027 4.104-4.027 6.182-5.86l5.956-5.42c1.908-1.761 3.874-3.333 5.69-4.911l5.246-4.468c1.636-1.295 3.188-2.523 4.646-3.679a8833.53 8833.53 0 0 0 4.062-3.235c.576-.476 1.356-1.046 2.015-1.547l1.933-1.458 3.518-2.655a4.925 4.925 0 0 0 .774-7.133l-42.935-50.299a4.925 4.925 0 0 0-7.166-.355l-3.174 3.058-1.744 1.679c-.621.603-1.212 1.152-1.982 1.939l-4.764 4.808-5.392 5.47-5.557 6.019c-1.912 2.113-3.974 4.242-5.969 6.576l-6.202 7.19c-2.155 2.438-4.24 5.057-6.385 7.714-2.129 2.671-4.373 5.336-6.514 8.16-2.135 2.824-4.305 5.695-6.501 8.603a110.88 110.88 0 0 0-3.237 4.439zM10.155 601.572l-.878 4.32a37820.5 37820.5 0 0 1-1.011 4.977c-.361 1.852-.714 4.039-1.108 6.271l-1.234 7.18c-.21 1.26-.45 2.562-.649 3.875l-.542 4c-.704 5.453-1.631 11.32-2.165 17.588l-.953 9.609c-.268 3.283-.447 6.645-.678 10.053-.54 6.811-.639 13.875-.864 21.021L0 693.152l.013 2.697a220415.294 220415.294 0 0 1 .062 10.842l.017 2.717.104 2.719.441 10.84.111 2.695.034.873.048.65.096 1.299.382 5.18.379 5.139.516 5.309.516 5.24.258 2.588.32 2.529 1.255 9.871 1.449 9.412c.44 3.057 1.007 6.014 1.528 8.873l.128.682a4.927 4.927 0 0 0 4.846 4.031h13.291a4.931 4.931 0 0 0 4.923-5.221c-.045-.756-.091-1.52-.142-2.291-.166-2.756-.366-5.598-.43-8.531l-.295-9.01a40192.024 40192.024 0 0 1-.072-11.804l.053-2.385.106-4.812.107-4.865.24-5.146.241-5.188.061-1.303.03-.652.004-.082c0-.207.004.191.006.123l.012-.158.025-.314.202-2.523.807-10.117.206-2.527.291-2.521.58-5.027.575-5.002.285-2.488.369-2.471c1.012-6.57 1.872-13.033 3.132-19.221.591-3.1 1.12-6.15 1.727-9.119l1.936-8.666c1.164-5.641 2.673-10.885 3.901-15.746l.924-3.562c.318-1.143.661-2.225.977-3.297l1.81-6.059c.581-1.918 1.058-3.633 1.614-5.354l1.601-4.82 1.389-4.186a4.925 4.925 0 0 0-3.412-6.311l-33.319-8.885a4.925 4.925 0 0 0-6.103 3.775zM387.317 774.27c10.84 5.299 22.323 7.811 33.628 7.811 28.378 0 55.65-15.811 68.953-43.023 2.562-5.238 4.545-11.021 5.835-16.467l77.577-336.717 29.544-128.233 18.303-79.437c2.13-9.245-5.224-15.543-12.602-15.543-4.319 0-8.647 2.159-11.087 7.148l-37.245 76.183-54.944 112.386-153.175 313.311c-18.603 38.051-2.837 83.979 35.213 102.581zm36.472-108.434c20.759 0 37.588 16.828 37.588 37.588 0 20.758-16.829 37.588-37.588 37.588s-37.588-16.83-37.588-37.588c0-20.762 16.829-37.588 37.588-37.588z" fill="#eddede" data-original="#000000"></path>
    </g>
  </symbol>
  <symbol xmlns="http://www.w3.org/2000/svg" version="1.1" xmlns:xlink="http://www.w3.org/1999/xlink" xmlnsSvgjs="http://svgjs.com/svgjs" x="0" y="0" xml:space="preserve" viewBox="0 0 512 512" id="wrench">
    <g>
      <path d="M511.119 77.251a15.018 15.018 0 0 0-10.107-12.114c-5.361-1.816-11.323-.396-15.352 3.618l-21.211 21.226c-11.338 11.338-31.099 11.338-42.437 0-11.732-11.732-11.726-30.698 0-42.422l21.211-21.211a14.995 14.995 0 0 0 3.618-15.352A15.016 15.016 0 0 0 434.727.889c-27.993-3.955-56.323 5.449-76.348 25.444-22.646 22.661-31.582 55.972-23.306 86.953l-221.78 221.772-.015-.015c-30.864-8.188-64.365.747-86.938 23.32C6.447 378.256-3.074 406.806.881 434.725a15.018 15.018 0 0 0 10.107 12.114c5.347 1.802 11.323.396 15.352-3.618l21.211-21.226c11.338-11.338 31.099-11.338 42.437 0 11.732 11.73 11.726 30.696 0 42.422l-21.211 21.211c-4.014 4.014-5.42 9.961-3.618 15.352s6.489 9.302 12.114 10.107c27.92 3.973 56.014-5.129 76.348-25.444 22.646-22.661 31.582-55.972 23.306-86.953l221.78-221.772.015.015c31.025 8.218 64.365-.747 86.938-23.32 19.893-19.893 29.414-48.442 25.459-76.362z" fill="#eddede" data-original="#000000"></path>
      <path d="M422 332c-7.104 0-14.414 1.069-22.998 3.34l-58.138-58.131-63.653 63.646 58.129 58.133C333.069 407.586 332 414.896 332 422c0 49.629 40.371 90 90 90s90-40.371 90-90-40.371-90-90-90zm49.219 86.997-8.921 33.281a15.031 15.031 0 0 1-10.605 10.605l-33.281 8.921c-4.889 1.348-10.538.068-14.487-3.882l-24.36-24.36a14.983 14.983 0 0 1-3.882-14.487l8.921-33.281a15.031 15.031 0 0 1 10.605-10.605l33.281-8.921c5.142-1.436 10.679.088 14.487 3.882l24.36 24.36a14.983 14.983 0 0 1 3.882 14.487zM176.899 112.441c8.276-30.981-.66-64.306-23.306-86.953-33.999-33.984-93.311-33.984-127.28 0-35.083 35.098-35.083 92.197 0 127.28 22.544 22.544 55.928 31.611 86.953 23.306l57.88 58.708 63.642-63.635-57.889-58.706zM137.67 84.624l-8.921 33.281a15.031 15.031 0 0 1-10.605 10.605l-33.281 8.921c-4.889 1.348-10.538.068-14.487-3.882l-24.36-24.36a14.983 14.983 0 0 1-3.882-14.487l8.921-33.281A15.031 15.031 0 0 1 61.66 50.816l33.281-8.921c5.171-1.406 10.693.088 14.487 3.882l24.36 24.36a14.983 14.983 0 0 1 3.882 14.487z" fill="#eddede" data-original="#000000"></path>
    </g>
  </symbol>
</svg>