<svg width="0" height="0" class="hidden">
  <symbol xmlns="http://www.w3.org/2000/svg" version="1.1" xmlns:xlink="http://www.w3.org/1999/xlink" xmlnsSvgjs="http://svgjs.com/svgjs" x="0" y="0" xml:space="preserve" viewBox="0 0 512.001 512.001" id="django">
    <g>
      <path d="M271 78.054h11.394c6.282 0 11.393 5.111 11.393 11.393v76.422h30V89.447c0-22.824-18.569-41.393-41.393-41.393H241v117.815h30zM44.393 166.66h44.393V0h-30v48.053H44.393C19.915 48.054 0 67.968 0 92.446v29.821c0 24.479 19.915 44.393 44.393 44.393zM30 92.446c0-7.936 6.457-14.393 14.393-14.393h14.393v58.606H44.393c-7.936 0-14.393-6.457-14.393-14.393zM186.253 166.233h41.839V89.447c0-22.824-18.569-41.393-41.393-41.393h-26.394v30h26.394c4.446 0 8.306 2.561 10.182 6.284h-10.628c-22.579 0-40.948 18.369-40.948 40.948s18.37 40.947 40.948 40.947zm0-51.895h11.839v21.896h-11.839c-6.037 0-10.948-4.911-10.948-10.948s4.912-10.948 10.948-10.948zM376.336 166.233h11.394v.124c0 7.937-6.457 14.394-14.394 14.394h-29.393v30h29.393c24.479 0 44.394-19.915 44.394-44.394V48.054h-41.394c-22.824 0-41.393 18.569-41.393 41.393v35.394c0 22.824 18.569 41.392 41.393 41.392zm-11.393-76.786c0-6.282 5.111-11.393 11.393-11.393h11.394v58.18h-11.394c-6.282 0-11.393-5.111-11.393-11.393zM49 287.693c0-11.99 4.459-23.274 12.575-31.991H0v48.994l32.051-.031C41.396 304.654 49 297.041 49 287.693zM175 287.676c0 9.353 7.608 16.966 16.961 16.972l320.039.199v-49.145H162.394c7.813 8.392 12.606 19.631 12.606 31.974z" fill="#eddede" data-original="#000000"></path>
      <path d="M145 287.676c0-9.358-7.613-16.972-16.972-16.972l-32.056-.001c-7.913-.048-16.985 6.838-16.972 16.972 0 25.888-21.047 46.959-46.917 46.99L0 334.696V512h512V334.847l-320.058-.199C166.058 334.632 145 313.561 145 287.676zm-84.75 90.613h30v30h-30zm90.25 90.109H60.25v-30h90.25zm180.75 0h-150.5v-30h150.5zm120.5 0H361.5v-30h90.25zm-30-90.109h30v30h-30zm-120.5 0h90.25v30h-90.25zm-60.25 0h30v30h-30zm-30.25 30H120.5v-30h90.25zM470.608 48.054c-22.825 0-41.394 18.569-41.394 41.393v35.394c0 22.824 18.569 41.393 41.394 41.393 22.824 0 41.393-18.569 41.393-41.393V89.447c0-22.824-18.569-41.393-41.393-41.393zm11.393 76.786c0 6.282-5.111 11.393-11.393 11.393s-11.394-5.111-11.394-11.393V89.447c0-6.282 5.111-11.393 11.394-11.393s11.393 5.111 11.393 11.393zM76.297 210.75h15.611c24.479 0 44.393-19.915 44.393-44.394V48.418h-30v117.939c0 7.937-6.457 14.394-14.393 14.394H76.297zM106.302 0h30v30h-30z" fill="#eddede" data-original="#000000"></path>
    </g>
  </symbol>
  <symbol xmlns="http://www.w3.org/2000/svg" version="1.1" xmlns:xlink="http://www.w3.org/1999/xlink" xmlnsSvgjs="http://svgjs.com/svgjs" x="0" y="0" xml:space="preserve" viewBox="0 0 512 512" id="html">
    <g>
      <path d="M31.86 448.059 226.112 512l194.254-63.941L452.227 0H0zM371.616 75l-4.277 60H145.094l5.418 77h211.48l-12.879 180.602-123 41.101-123.004-41.101L98.906 332h60l1.215 16.492 65.992 21.903 66.004-21.899 5.39-76.496H94.41L80.61 75zm0 0" fill="#eddede" data-original="#000000"></path>
    </g>
  </symbol>
  <symbol xmlns="http://www.w3.org/2000/svg" viewBox="0 0 448 512" id="index.html">
    <path d="M224 508c-6.7 0-13.5-1.8-19.4-5.2l-61.7-36.5c-9.2-5.2-4.7-7-1.7-8 12.3-4.3 14.8-5.2 27.9-12.7 1.4-.8 3.2-.5 4.6.4l47.4 28.1c1.7 1 4.1 1 5.7 0l184.7-106.6c1.7-1 2.8-3 2.8-5V149.3c0-2.1-1.1-4-2.9-5.1L226.8 37.7c-1.7-1-4-1-5.7 0L36.6 144.3c-1.8 1-2.9 3-2.9 5.1v213.1c0 2 1.1 4 2.9 4.9l50.6 29.2c27.5 13.7 44.3-2.4 44.3-18.7V167.5c0-3 2.4-5.3 5.4-5.3h23.4c2.9 0 5.4 2.3 5.4 5.3V378c0 36.6-20 57.6-54.7 57.6-10.7 0-19.1 0-42.5-11.6l-48.4-27.9C8.1 389.2.7 376.3.7 362.4V149.3c0-13.8 7.4-26.8 19.4-33.7L204.6 9c11.7-6.6 27.2-6.6 38.8 0l184.7 106.7c12 6.9 19.4 19.8 19.4 33.7v213.1c0 13.8-7.4 26.7-19.4 33.7L243.4 502.8c-5.9 3.4-12.6 5.2-19.4 5.2zm149.1-210.1c0-39.9-27-50.5-83.7-58-57.4-7.6-63.2-11.5-63.2-24.9 0-11.1 4.9-25.9 47.4-25.9 37.9 0 51.9 8.2 57.7 33.8.5 2.4 2.7 4.2 5.2 4.2h24c1.5 0 2.9-.6 3.9-1.7s1.5-2.6 1.4-4.1c-3.7-44.1-33-64.6-92.2-64.6-52.7 0-84.1 22.2-84.1 59.5 0 40.4 31.3 51.6 81.8 56.6 60.5 5.9 65.2 14.8 65.2 26.7 0 20.6-16.6 29.4-55.5 29.4-48.9 0-59.6-12.3-63.2-36.6-.4-2.6-2.6-4.5-5.3-4.5h-23.9c-3 0-5.3 2.4-5.3 5.3 0 31.1 16.9 68.2 97.8 68.2 58.4-.1 92-23.2 92-63.4z"></path>
  </symbol>
  <symbol xmlns="http://www.w3.org/2000/svg" version="1.1" xmlns:xlink="http://www.w3.org/1999/xlink" xmlnsSvgjs="http://svgjs.com/svgjs" x="0" y="0" xml:space="preserve" viewBox="0 0 512 512" id="node">
    <g>
      <path d="M116 296c0-30.328 24.672-55 55-55h170c13.785 0 25-11.215 25-25V75c0-41.355-33.645-75-75-75h-70c-41.355 0-75 33.645-75 75v41h110c8.285 0 15 6.715 15 15s-6.715 15-15 15H75c-41.355 0-75 33.645-75 75v70c0 41.355 33.645 75 75 75h41zM221 76c-8.285 0-15-6.715-15-15s6.715-15 15-15 15 6.715 15 15-6.715 15-15 15zm0 0" fill="#eddede" data-original="#000000"></path>
      <path d="M437 146h-41v70c0 30.328-24.672 55-55 55H171c-13.785 0-25 11.215-25 25v141c0 41.355 33.645 75 75 75h70c41.355 0 75-33.645 75-75v-41H256c-8.285 0-15-6.715-15-15s6.715-15 15-15h181c41.355 0 75-33.645 75-75v-70c0-41.355-33.645-75-75-75zM291 436c8.285 0 15 6.715 15 15s-6.715 15-15 15-15-6.715-15-15 6.715-15 15-15zm0 0" fill="#eddede" data-original="#000000"></path>
    </g>
  </symbol>
  <symbol xmlns="http://www.w3.org/2000/svg" version="1.1" xmlns:xlink="http://www.w3.org/1999/xlink" xmlnsSvgjs="http://svgjs.com/svgjs" x="0" y="0" xml:space="preserve" viewBox="0 0 512 512" id="python">
    <g>
      <path d="M452.749 270.471c-4.604-5.969-9.6-11.94-14.939-17.888a305.547 305.547 0 0 0 10.458-12.792c34.016-44.106 43.674-84.117 27.194-112.66-16.479-28.544-55.954-40.185-111.164-32.779a306.094 306.094 0 0 0-17.797 2.947 306.957 306.957 0 0 0-6.531-17.418C318.78 28.369 288.959 0 256 0s-62.78 28.369-83.969 79.881a306.957 306.957 0 0 0-6.531 17.418 307.09 307.09 0 0 0-17.797-2.947c-55.204-7.405-94.684 4.235-111.164 32.779s-6.822 68.554 27.194 112.66a303.967 303.967 0 0 0 10.458 12.792c-5.34 5.948-10.335 11.918-14.939 17.888-34.016 44.106-43.674 84.117-27.194 112.66 13.241 22.934 41.321 34.955 80.484 34.955 9.579 0 19.829-.72 30.679-2.176 6.988-.938 14.15-2.174 21.446-3.679 2.295 6.884 4.748 13.529 7.364 19.889C193.22 483.631 223.041 512 256 512s62.78-28.369 83.969-79.881c2.616-6.36 5.069-13.005 7.364-19.889 7.296 1.505 14.458 2.742 21.446 3.679 10.853 1.456 21.097 2.176 30.679 2.176 39.159 0 67.245-12.022 80.484-34.955 16.481-28.543 6.823-68.553-27.193-112.659zm-57.603-148.345c27.422 0 46.804 6.961 54.335 20.004 9.854 17.068.753 45.986-24.969 79.339a273.373 273.373 0 0 1-7.72 9.537c-15.039-14.308-31.968-28.308-50.386-41.65-2.544-22.217-6.369-43.447-11.371-63.186 14.684-2.71 28.167-4.044 40.111-4.044zm-99.321 205.866c-13.485 7.785-26.794 14.769-39.816 20.979a572.13 572.13 0 0 1-39.834-20.979c-14.885-8.594-29.13-17.69-42.569-27.138A572.65 572.65 0 0 1 171.868 256c0-17.398.763-34.099 2.167-50.002a570.846 570.846 0 0 1 37.658-23.728c15.04-8.683 29.857-16.357 44.306-23.084 14.45 6.727 29.267 14.401 44.307 23.084a570.584 570.584 0 0 1 37.658 23.728c1.404 15.903 2.167 32.604 2.167 50.002 0 15.531-.61 30.504-1.738 44.854-13.438 9.448-27.683 18.544-42.568 27.138zm37.992 12.012c-2.01 12.77-4.448 24.866-7.248 36.202-11.127-3.233-22.72-7.145-34.677-11.754a611.165 611.165 0 0 0 18.933-10.479 607.935 607.935 0 0 0 22.992-13.969zm-113.711 24.447c-11.959 4.61-23.549 8.518-34.677 11.751-2.799-11.334-5.237-23.429-7.247-36.198a606.614 606.614 0 0 0 22.992 13.968 606.963 606.963 0 0 0 18.932 10.479zm-77.872-87.507c-9.5-7.87-18.401-15.888-26.614-23.981 8.323-7.937 17.291-15.787 26.831-23.484a606.98 606.98 0 0 0-.583 26.521c0 7.029.127 14.013.366 20.944zm36.778-110.036c2.017-11.953 4.413-23.283 7.128-33.926 10.659 2.979 21.767 6.595 33.228 10.856a607.532 607.532 0 0 0-22.674 12.452 607.012 607.012 0 0 0-17.682 10.618zm113.619-23.071c11.461-4.261 22.569-7.878 33.229-10.856 2.715 10.644 5.111 21.974 7.128 33.927a608.296 608.296 0 0 0-17.681-10.618 606.983 606.983 0 0 0-22.676-12.453zm76.918 85.642c9.54 7.697 18.508 15.547 26.831 23.484-8.213 8.093-17.114 16.111-26.614 23.981a607.75 607.75 0 0 0 .366-20.944c0-8.919-.2-17.766-.583-26.521zM256 30c21.699 0 44.749 27.603 61.225 74.297-19.851 5.579-40.429 12.976-61.225 22.018-20.796-9.042-41.374-16.438-61.225-22.018C211.251 57.603 234.301 30 256 30zM62.519 142.131c7.532-13.045 26.905-20.004 54.335-20.004 11.943 0 25.427 1.334 40.112 4.045-5.003 19.739-8.827 40.969-11.371 63.185-18.418 13.342-35.347 27.342-50.386 41.65a273.373 273.373 0 0 1-7.72-9.537c-25.723-33.353-34.824-62.271-24.97-79.339zm49.854 246.004c-27.422-.002-46.804-6.961-54.335-20.004-9.854-17.068-.753-45.986 24.969-79.339A281.373 281.373 0 0 1 94.8 274.531c14.869 14.618 31.746 28.957 50.198 42.649 2.429 23.266 6.243 45.521 11.342 66.177-16.189 3.211-30.984 4.779-43.967 4.778zM256 482c-22.12 0-45.641-28.69-62.173-77.041 20.186-5.868 41.088-13.595 62.173-22.987 21.085 9.392 41.987 17.119 62.173 22.987C301.641 453.31 278.12 482 256 482zm197.962-113.869c-11.096 19.22-47.908 25.221-98.303 15.226 5.1-20.656 8.913-42.911 11.342-66.177 18.453-13.692 35.33-28.031 50.198-42.649a281.815 281.815 0 0 1 11.793 14.261c25.724 33.353 34.825 62.271 24.97 79.339z" fill="#000000" data-original="#000000"></path>
      <circle cx="256" cy="256" r="46.35" fill="#000000" data-original="#000000"></circle>
    </g>
  </symbol>
</svg>