<svg xmlns="http://www.w3.org/2000/svg" xmlns:xlink="http://www.w3.org/1999/xlink" width="500" zoomAndPan="magnify" viewBox="0 0 375 374.999991" height="500" preserveAspectRatio="xMidYMid meet" version="1.0"><defs><clipPath id="1eda1eaad5"><path d="M 0 73.359375 L 170 73.359375 L 170 301.359375 L 0 301.359375 Z M 0 73.359375 " clip-rule="nonzero"/></clipPath><clipPath id="f6a9987d18"><path d="M 91 73.359375 L 375 73.359375 L 375 301.359375 L 91 301.359375 Z M 91 73.359375 " clip-rule="nonzero"/></clipPath></defs><g clip-path="url(#1eda1eaad5)"><path fill="#333333" d="M 128.921875 183.121094 L 169.871094 183.121094 L 128.917969 73.445312 L 85.066406 73.445312 L 45.097656 180.480469 L -0.0117188 301.273438 L 40.9375 301.273438 L 86.046875 180.480469 L 106.992188 124.386719 L 128.921875 183.121094 " fill-opacity="1" fill-rule="nonzero"/></g><g clip-path="url(#f6a9987d18)"><path fill="#ffd700" d="M 260.953125 73.445312 L 153.707031 73.445312 L 215.058594 237.746094 L 256.007812 237.746094 L 208.964844 111.761719 L 260.953125 111.761719 C 302.753906 111.761719 336.644531 145.609375 336.644531 187.359375 C 336.644531 229.109375 302.753906 262.957031 260.953125 262.957031 L 199.683594 262.957031 L 188.542969 233.117188 L 188.539062 233.117188 L 179.289062 208.34375 L 104.222656 208.34375 L 91.382812 246.660156 L 152.648438 246.660156 L 173.042969 301.273438 L 262.832031 301.273438 L 262.824219 301.25 C 324.949219 300.253906 375.007812 249.648438 375.007812 187.359375 C 375.007812 124.445312 323.949219 73.445312 260.953125 73.445312 " fill-opacity="1" fill-rule="nonzero"/></g></svg>