<svg width="0" height="0" class="hidden">
  <symbol xmlns="http://www.w3.org/2000/svg" id="css" viewBox="0 0 128 128">
    <path fill="#1572B6" d="M18.814 114.123l-10.054-112.771h110.48l-10.064 112.754-45.243 12.543-45.119-12.526z"></path>
    <path fill="#33A9DC" d="M64.001 117.062l36.559-10.136 8.601-96.354h-45.16v106.49z"></path>
    <path fill="#fff" d="M64.001 51.429h18.302l1.264-14.163h-19.566v-13.831h34.681999999999995l-.332 3.711-3.4 38.114h-30.95v-13.831z"></path>
    <path fill="#EBEBEB" d="M64.083 87.349l-.061.018-15.403-4.159-.985-11.031h-13.882l1.937 21.717 28.331 7.863.063-.018v-14.39z"></path>
    <path fill="#fff" d="M81.127 64.675l-1.666 18.522-15.426 4.164v14.39l28.354-7.858.208-2.337 2.406-26.881h-13.876z"></path>
    <path fill="#EBEBEB" d="M64.048 23.435v13.831000000000001h-33.407999999999994l-.277-3.108-.63-7.012-.331-3.711h34.646zM64.001 51.431v13.831000000000001h-15.209l-.277-3.108-.631-7.012-.33-3.711h16.447z"></path>
  </symbol>
  <symbol xmlns="http://www.w3.org/2000/svg" preserveAspectRatio="xMinYMin meet" id="django" viewBox="0 0 256 326">
    <g fill="#2BA977">
      <path d="M114.784 0h53.278v244.191c-27.29 5.162-47.38 7.193-69.117 7.193C33.873 251.316 0 222.245 0 166.412c0-53.795 35.93-88.708 91.608-88.708 8.64 0 15.222.68 23.176 2.717V0zm1.867 124.427c-6.24-2.038-11.382-2.717-17.965-2.717-26.947 0-42.512 16.437-42.512 45.243 0 28.046 14.88 43.532 42.17 43.532 5.896 0 10.696-.332 18.307-1.351v-84.707z"></path>
      <path d="M255.187 84.26v122.263c0 42.105-3.154 62.353-12.411 79.81-8.64 16.783-20.022 27.366-43.541 39.055l-49.438-23.297c23.519-10.93 34.901-20.588 42.17-35.327 7.61-15.072 10.01-32.529 10.01-78.445V84.261h53.21zM196.608 0h53.278v54.135h-53.278V0z"></path>
    </g>
  </symbol>
  <symbol xmlns="http://www.w3.org/2000/svg" id="docker" viewBox="0 0 128 128">
    <path fill="#3A4D54" fill-rule="evenodd" d="M20 96.9v-8.1c0-1.1.7-1.9 1.8-1.9h.3c1.1 0 1.8.9 1.8 1.9v17c0 4.1-2 7.4-5.6 9.5-1.7 1-3.5 1.5-5.4 1.5h-.8c-4.1 0-7.4-2-9.5-5.6-1-1.7-1.5-3.5-1.5-5.4v-.8c0-4.1 2-7.4 5.6-9.5 1.7-1 3.5-1.5 5.4-1.5h.8c2.7.1 5.1 1.1 7.1 2.9zm-15.1 8.5c0 3 1.5 5.2 4.1 6.7 1.1.6 2.2.9 3.4.9 2.9 0 5.1-1.4 6.6-3.9.7-1.2 1-2.4 1-3.8 0-2.6-1.2-4.6-3.3-6.1-1.3-.9-2.7-1.4-4.2-1.4-3.2 0-5.5 1.6-6.9 4.5-.5 1-.7 2.1-.7 3.1zm32.2-11.3h.5c4.4 0 7.8 2.1 9.9 6 .9 1.5 1.3 3.2 1.3 5v.8c0 4.1-2 7.4-5.6 9.5-1.7 1-3.5 1.5-5.4 1.5h-.8c-4.1 0-7.4-2-9.5-5.6-1-1.7-1.5-3.5-1.5-5.4v-.8c0-4.1 2.1-7.4 5.6-9.5 1.7-1.1 3.6-1.5 5.5-1.5zm-7.2 11.3c0 2.9 1.4 5 3.9 6.5 1.2.7 2.4 1 3.8 1 2.9 0 5-1.5 6.5-3.9.7-1.2 1-2.4 1-3.8 0-2.7-1.3-4.8-3.5-6.3-1.2-.8-2.6-1.2-4-1.2-3.2 0-5.5 1.6-6.9 4.5-.6 1.1-.8 2.2-.8 3.2zm34.8-7.2c-.6-.3-1.7-.4-2.3-.4-3.2-.1-5.5 1.7-6.9 4.5-.5 1-.7 2-.7 3.1 0 3.3 1.7 5.6 4.6 7 1.1.5 2.4.6 3.6.6 1 0 2.5-.6 3.4-1.1l.2-.1h.7999999999999999c.9.2 1.5.7 1.5 1.7v.4c0 2.3-4.3 2.9-5.9 3-5.7.4-10-2.7-11.6-8.2-.3-.9-.4-1.9-.4-2.9v-.8c0-4.1 2.1-7.4 5.6-9.5 1.7-1 3.5-1.5 5.4-1.5h.8c2 0 3.9.6 5.6 1.7l.1.1.1.1c.2.3.3.6.3 1v.4c0 1-.7 1.5-1.6 1.7h-.30000000000000004c-.5 0-1.8-.6-2.3-.8zm12.4 2.6c1.5-1.5 3-3 4.5-4.4.4-.4 2-2.1 2.6-2.1h.7999999999999999c.9.2 1.5.7 1.5 1.7v.4c0 .6-.7 1.4-1.2 1.8l-2.7 2.7-4.6 4.7c2 2 4 4 5.9 6l1.6 1.7c.2.2.5.4.6.7.2.3.3.6.3.9v.5c-.2.9-.8 1.6-1.7 1.6h-.3c-.6 0-1.3-.7-1.8-1.1-.9-.8-1.8-1.7-2.6-2.6l-2.9-2.9v4.6c0 1.1-.7 1.9-1.8 1.9h-.3c-1.1 0-1.8-.9-1.8-1.9v-26.1c0-1.1.7-1.9 1.8-1.9h.3c1.1 0 1.8.8 1.8 1.9v11.9zm47.6-6.6h.4c1.1 0 1.9.8 1.9 1.9 0 1.6-1.5 2-2.8 2-1.7 0-3.4 1-4.5 2.2-1.5 1.5-2.1 3.3-2.1 5.4v9.2c0 1.1-.7 1.9-1.8 1.9h-.3c-1.1 0-1.8-.9-1.8-1.9v-9.8c0-3.8 1.8-6.8 4.9-9 1.8-1.2 3.9-1.9 6.1-1.9zm-27.1 18.3c1.4.5 3 .4 4.4.2.7-.3 2.6-1.1 3.3-1h.2c.4.2.8.5 1 .9.5 1 .3 2-.7 2.6l-.3.2c-3.6 2.1-7.5 1.8-11.1-.2-1.7-.9-3-2.3-4-4l-.2-.4c-2.3-4-2-8.3.6-12.1.9-1.3 2.1-2.3 3.5-3.1l.5-.3c3.4-2 7.1-1.8 10.6-.1 1.9.9 3.4 2.3 4.5 4.1l.2.3c.8 1.3-.2 2.5-1.2 3.3-1.2.9-2.4 2-3.5 3-2.7 2.2-5.3 4.4-7.8 6.6zm-3.3-2.3l8.5-7.3c1-.8 2-1.7 3-2.6-.8-1-2.1-1.7-3.1-2.1-2.2-.8-4.4-.6-6.4.6-2.6 1.5-3.8 4-3.7 7 0 1.2.4 2.3 1 3.4.2.4.4.7.7 1M73.7 33.7h11.3v11.5h5.7c2.6 0 5.3-.5 7.8-1.3 1.2-.4 2.6-1 3.8-1.7-1.6-2.1-2.4-4.7-2.6-7.3-.3-3.5.4-8.1 2.8-10.8l1.2-1.4 1.4 1.1c3.6 2.9 6.5 6.8 7.1 11.4 4.3-1.3 9.3-1 13.1 1.2l1.5.9-.8 1.6c-3.2 6.2-9.9 8.2-16.4 7.8-9.8 24.3-31 35.8-56.8 35.8-13.3 0-25.5-5-32.5-16.8l-.1-.2-1-2.1c-2.4-5.2-3.1-10.9-2.6-16.6l.2-1.7h9.6v-11.4h11.3v-11.3h22.5v-11.3h13.5v22.6z" clip-rule="evenodd"></path>
    <path fill="#00AADA" d="M110.2 37.9c.8-5.9-3.6-10.5-6.4-12.7-3.1 3.6-3.6 13.2 1.3 17.2-2.8 2.4-8.5 4.7-14.5 4.7h-72.2c-.6 6.2.5 11.9 3 16.8l.8 1.5c.5.9 1.1 1.7 1.7 2.6 3 .2 5.7.3 8.2.2 4.9-.1 8.9-.7 12-1.7.5-.2.9.1 1.1.5.2.5-.1.9-.5 1.1-.4.1-.8.3-1.3.4-2.4.7-5 1.1-8.3 1.3h-.6000000000000001c-1.3.1-2.7.1-4.2.1-1.6 0-3.1 0-4.9-.1 6 6.8 15.4 10.8 27.2 10.8 25 0 46.2-11.1 55.5-35.9 6.7.7 13.1-1 16-6.7-4.5-2.6-10.5-1.8-13.9-.1z"></path>
    <path fill="#28B8EB" d="M110.2 37.9c.8-5.9-3.6-10.5-6.4-12.7-3.1 3.6-3.6 13.2 1.3 17.2-2.8 2.4-8.5 4.7-14.5 4.7h-68c-.3 9.5 3.2 16.7 9.5 21 4.9-.1 8.9-.7 12-1.7.5-.2.9.1 1.1.5.2.5-.1.9-.5 1.1-.4.1-.8.3-1.3.4-2.4.7-5.2 1.2-8.5 1.4l-.1-.1c8.5 4.4 20.8 4.3 35-1.1 15.8-6.1 30.6-17.7 40.9-30.9-.2.1-.3.2-.5.2z"></path>
    <path fill="#028BB8" d="M18.5 54.6c.4 3.3 1.4 6.4 2.9 9.3l.8 1.5c.5.9 1.1 1.7 1.7 2.6 3 .2 5.7.3 8.2.2 4.9-.1 8.9-.7 12-1.7.5-.2.9.1 1.1.5.2.5-.1.9-.5 1.1-.4.1-.8.3-1.3.4-2.4.7-5.2 1.2-8.5 1.4h-.4c-1.3.1-2.7.1-4.1.1-1.6 0-3.2 0-4.9-.1 6 6.8 15.5 10.8 27.3 10.8 21.4 0 40-8.1 50.8-26h-85.1v-.1z"></path>
    <path fill="#019BC6" d="M23.3 54.6c1.3 5.8 4.3 10.4 8.8 13.5 4.9-.1 8.9-.7 12-1.7.5-.2.9.1 1.1.5.2.5-.1.9-.5 1.1-.4.1-.8.3-1.3.4-2.4.7-5.2 1.2-8.6 1.4 8.5 4.4 20.8 4.3 34.9-1.1 8.5-3.3 16.8-8.2 24.2-14.1h-70.6z"></path>
    <path fill="#00ACD3" fill-rule="evenodd" d="M28.2 35.5h9.8v9.8h-9.8v-9.8zm.8.9h.8v8.1h-.8v-8.1zm1.5 0h.8v8.1h-.8v-8.1zm1.5 0h.8v8.1h-.8v-8.1zm1.4 0h.8v8.1h-.8v-8.1zm1.5 0h.8v8.1h-.8v-8.1zm1.5 0h.8v8.1h-.8v-8.1zM39.5 24.3h9.8v9.7h-9.8v-9.7zm.8.8h.8v8.1h-.8v-8.1zm1.5 0h.8v8.1h-.8v-8.1zm1.4 0h.8v8.1h-.8v-8.1zm1.5 0h.8v8.1h-.8v-8.1zm1.5 0h.8v8.1h-.8v-8.1zm1.5 0h.8v8.1h-.8v-8.1z" clip-rule="evenodd"></path>
    <path fill="#23C2EE" fill-rule="evenodd" d="M39.5 35.5h9.8v9.8h-9.8v-9.8zm.8.9h.8v8.1h-.8v-8.1zm1.5 0h.8v8.1h-.8v-8.1zm1.4 0h.8v8.1h-.8v-8.1zm1.5 0h.8v8.1h-.8v-8.1zm1.5 0h.8v8.1h-.8v-8.1zm1.5 0h.8v8.1h-.8v-8.1z" clip-rule="evenodd"></path>
    <path fill="#00ACD3" fill-rule="evenodd" d="M50.8 35.5h9.8v9.8h-9.8v-9.8zm.8.9h.8v8.1h-.8v-8.1zm1.4 0h.8v8.1h-.8v-8.1zm1.5 0h.8v8.1h-.8v-8.1zm1.5 0h.8v8.1h-.8v-8.1zm1.5 0h.8v8.1h-.8v-8.1zm1.4 0h.8v8.1h-.8v-8.1z" clip-rule="evenodd"></path>
    <path fill="#23C2EE" fill-rule="evenodd" d="M50.8 24.3h9.8v9.7h-9.8v-9.7zm.8.8h.8v8.1h-.8v-8.1zm1.4 0h.8v8.1h-.8v-8.1zm1.5 0h.8v8.1h-.8v-8.1zm1.5 0h.8v8.1h-.8v-8.1zm1.5 0h.8v8.1h-.8v-8.1zm1.4 0h.8v8.1h-.8v-8.1zM62 35.5h9.8v9.8h-9.8v-9.8zm.9.9h.8v8.1h-.8v-8.1zm1.4 0h.8v8.1h-.8v-8.1zm1.5 0h.8v8.1h-.8v-8.1zm1.5 0h.8v8.1h-.8v-8.1zm1.4 0h.8v8.1h-.8v-8.1zm1.5 0h.8v8.1h-.8v-8.1z" clip-rule="evenodd"></path>
    <path fill="#00ACD3" fill-rule="evenodd" d="M62 24.3h9.8v9.7h-9.8v-9.7zm.9.8h.8v8.1h-.8v-8.1zm1.4 0h.8v8.1h-.8v-8.1zm1.5 0h.8v8.1h-.8v-8.1zm1.5 0h.8v8.1h-.8v-8.1zm1.4 0h.8v8.1h-.8v-8.1zm1.5 0h.8v8.1h-.8v-8.1z" clip-rule="evenodd"></path>
    <path fill="#23C2EE" fill-rule="evenodd" d="M62 13h9.8v9.8h-9.8v-9.8zm.9.8h.8v8.2h-.8v-8.2zm1.4 0h.8v8.2h-.8v-8.2zm1.5 0h.8v8.2h-.8v-8.2zm1.5 0h.8v8.2h-.8v-8.2zm1.4 0h.8v8.2h-.8v-8.2zm1.5 0h.8v8.2h-.8v-8.2z" clip-rule="evenodd"></path>
    <path fill="#00ACD3" fill-rule="evenodd" d="M73.3 35.5h9.8v9.8h-9.8v-9.8zm.8.9h.8v8.1h-.8v-8.1zm1.5 0h.8v8.1h-.8v-8.1zm1.5 0h.8v8.1h-.8v-8.1zm1.4 0h.8v8.1h-.8v-8.1zm1.5 0h.8v8.1h-.8v-8.1zm1.5 0h.8v8.1h-.8v-8.1z" clip-rule="evenodd"></path>
    <path fill="#D4EEF1" fill-rule="evenodd" d="M48.6 61.2c1.5 0 2.7 1.2 2.7 2.7 0 1.5-1.2 2.7-2.7 2.7-1.5 0-2.7-1.2-2.7-2.7.1-1.5 1.3-2.7 2.7-2.7" clip-rule="evenodd"></path>
    <path fill="#3A4D54" fill-rule="evenodd" d="M48.6 61.9c.2 0 .5 0 .7.1-.2.1-.4.4-.4.7 0 .4.4.8.8.8.3 0 .6-.2.7-.4.1.2.1.5.1.7 0 1.1-.9 1.9-1.9 1.9-1.1 0-1.9-.9-1.9-1.9 0-1 .9-1.9 1.9-1.9M1 55.6h125.3c-2.7-.7-8.6-1.6-7.7-5.2-5 5.7-16.9 4-20 1.2-3.4 4.9-23 3-24.3-.8-4.2 5-17.3 5-21.5 0-1.4 3.8-21 5.7-24.3.8-3 2.8-15 4.5-20-1.2 1.1 3.5-4.8 4.5-7.5 5.2" clip-rule="evenodd"></path>
    <path fill="#BFDBE0" d="M55.8 80.6c-6.7-3.2-10.3-7.5-12.4-12.2-2.5.7-5.5 1.2-8.9 1.4-1.3.1-2.7.1-4.1.1-1.7 0-3.4 0-5.2-.1 6.1 6.1 13.7 10.8 27.6 10.9 1-.1 2-.1 3-.1z"></path>
    <path fill="#D4EEF1" d="M45.9 72.7c-.9-1.3-1.8-2.8-2.5-4.3-2.5.7-5.5 1.2-8.9 1.4 2.4 1.3 5.8 2.5 11.4 2.9z"></path>
  </symbol>
  <symbol xmlns="http://www.w3.org/2000/svg" id="mongodb" viewBox="0 0 128 128">
    <path fill="#94795D" fill-rule="evenodd" d="M87.259 100.139c.169-.325.331-.612.469-.909.087-.19.221-.228.41-.223 1.133.032 2.266.067 3.4.078.963.01 1.928-.008 2.892-.019 1.086-.013 2.172-.07 3.257-.039 1.445.042 2.853.325 4.16.968 1.561.769 2.742 1.94 3.547 3.483.514.985.812 2.03.931 3.14.172 1.608.059 3.179-.451 4.717-.632 1.906-1.832 3.365-3.499 4.458-1.283.841-2.69 1.338-4.198 1.622-1.596.301-3.197.204-4.798.209-1.756.007-3.511-.031-5.267-.051-.307-.003-.351-.061-.27-.354l.075-.27c.171-.538.263-.562.809-.652.378-.061.77-.203 1.087-.413.184-.122.26-.44.332-.685.062-.214.065-.449.067-.675.025-3.425.051-6.849.065-10.272.003-.865-.017-1.732-.065-2.596-.034-.605-.357-1.019-1.077-1.162-.56-.111-1.124-.197-1.687-.296l-.189-.059zm16.076 8.293c-.076-.682-.113-1.37-.235-2.042-.292-1.613-.998-3.018-2.238-4.119-2.005-1.779-4.419-2.053-6.949-1.841-.576.048-.7.245-.709.837-.014.84-.028 1.68-.029 2.52-.004 2.664-.004 5.328 0 7.992.001.758.009 1.516.031 2.272.024.774.305 1.429 1.063 1.729 1.195.473 2.452.529 3.706.336 2.003-.307 3.404-1.474 4.344-3.223.744-1.388.954-2.903 1.016-4.461zM108.204 117.503c-.024-.415.146-.758.356-1.073.057-.085.253-.081.388-.108l1.146-.227c.405-.086.618-.358.675-.755.038-.262.074-.527.077-.792.025-2.097.049-4.194.059-6.291.01-2.1.002-4.2.002-6.3l-.009-.401c-.041-.675-.367-1.025-1.037-1.124l-1.453-.221c-.179-.024-.244-.11-.179-.269.112-.271.219-.552.377-.796.059-.09.258-.125.392-.122.694.01 1.388.062 2.082.061l6.041-.036c1.164-.001 2.288.202 3.332.759 1.149.612 1.792 1.559 1.976 2.849.192 1.355-.219 2.497-1.209 3.404-.407.374-.934.618-1.406.922l-.154.096c.438.161.855.3 1.261.466 1.188.487 2.133 1.248 2.633 2.463.395.959.395 1.959.161 2.953-.364 1.556-1.389 2.591-2.722 3.374-1.251.735-2.605 1.163-4.047 1.235-1.33.067-2.666.042-3.999.057l-.772.004c-1.284-.029-2.569-.062-3.854-.096l-.117-.032zm5.537-6.089h.013c0 .658-.009 1.316.003 1.974.008.426-.007.864.085 1.274.138.613.418 1.166 1.106 1.342.929.239 1.878.287 2.818.124 1.177-.205 2.116-.795 2.631-1.916.382-.833.439-1.716.308-2.618-.174-1.188-.805-2.05-1.854-2.615-.688-.371-1.422-.598-2.204-.628-.876-.033-1.753-.035-2.629-.062-.246-.007-.28.118-.279.32.005.934.002 1.869.002 2.805zm1.865-4.475c.479-.024 1.021-.031 1.56-.085 1.032-.103 1.759-.622 2.138-1.609.193-.501.185-1.017.19-1.538.015-1.357-.777-2.469-2.066-2.929-.995-.355-2.021-.361-3.053-.333-.418.011-.605.194-.611.615l-.062 5.489c-.003.218.091.312.303.319l1.601.071z" clip-rule="evenodd"></path>
    <path fill="#50382B" fill-rule="evenodd" d="M10.543 116.448l-.073.944c-.68 0-1.307-.005-1.934.002-1.181.012-2.362.031-3.544.048l-.114.007c-.169-.02-.476-.02-.484-.07-.05-.281-.034-.576-.021-.867.001-.033.116-.075.183-.091l.919-.205c.573-.149.775-.396.802-.988.031-.667.062-1.335.065-2.002.009-1.642-.001-3.282.006-4.924.001-.384-.132-.67-.49-.826-.426-.188-.854-.372-1.285-.546-.204-.082-.469-.127-.445-.401.024-.279.281-.352.523-.407 1.002-.229 2.005-.452 3.004-.696.322-.079.63-.212 1.015-.346.02.208.057.406.053.604l-.059.941c-.001.106.054.248.133.307.048.037.209-.03.289-.092.854-.65 1.758-1.211 2.789-1.538 1.597-.507 2.968-.037 3.928 1.34.338.485.339.485.808.146.805-.585 1.647-1.101 2.589-1.441 2.068-.747 4.055.201 4.774 2.284.262.756.362 1.537.36 2.335l-.019 5.298c-.001.437.144.686.56.822.467.153.951.258 1.477.396l-.122.911c-.598 0-1.148-.004-1.698.001-1.344.012-2.688.019-4.031.05-.234.006-.295-.052-.307-.271-.039-.701-.045-.7.615-.858l.222-.057c.645-.176.86-.374.865-1.028.015-1.878.054-3.761-.041-5.635-.099-1.944-1.642-2.979-3.526-2.481-.615.162-1.172.446-1.69.814-.175.125-.208.269-.194.488.053.828.086 1.657.093 2.486.012 1.451-.006 2.902 0 4.354.002.588.203.813.784.949l.863.199.16.036c.012.276.023.552.01.828-.008.173-.142.188-.292.185-.839-.021-1.679-.049-2.518-.047-1.021.002-2.041.031-3.061.049h-.24c0-.293-.014-.573.01-.852.005-.067.123-.161.204-.182l1.006-.213c.427-.105.631-.324.655-.758.114-2.01.196-4.021.007-6.03-.037-.39-.164-.786-.326-1.145-.515-1.138-1.674-1.613-3.011-1.271-.635.162-1.208.453-1.75.82-.256.174-.378.404-.378.695 0 2.005.007 4.01.013 6.014l.011.773c.012.539.241.823.776.939.344.078.692.131 1.082.203z" clip-rule="evenodd"></path>
    <path fill="#4F382B" fill-rule="evenodd" d="M71.001 105.285c.155.754.152 1.432-.402 1.946-.55.511-1.246.339-1.925.225.063.358.133.662.167.97.247 2.289-.738 3.988-2.861 4.959-.802.366-1.653.502-2.522.572-.432.034-.81.364-.851.719-.042.36.184.73.636.838.533.127 1.089.163 1.636.226 1.174.134 2.361.195 3.521.405 1.754.316 2.733 1.847 2.424 3.609-.275 1.568-1.183 2.709-2.449 3.584-2.133 1.478-4.473 1.91-6.965 1.156-1.425-.432-2.43-1.369-2.777-2.885-.174-.759.011-1.446.582-1.961.679-.61 1.418-1.154 2.129-1.73l.23-.231-.264-.185c-.725-.344-1.305-.815-1.53-1.633-.077-.277.003-.459.238-.601.4-.241.798-.486 1.193-.735.186-.116.37-.236.543-.37.236-.18.215-.314-.067-.418-.656-.242-1.239-.593-1.691-1.133-.755-.901-.969-1.974-.907-3.107.097-1.77 1.058-2.936 2.62-3.686 1.857-.891 3.72-.947 5.613-.135.7.3 1.438.364 2.189.312.561-.04 1.051-.252 1.49-.711zm-6.843 12.681c-1.394-.012-1.831.16-2.649.993-.916.934-.911 2.229.003 3.167.694.711 1.56 1.044 2.523 1.144 1.125.116 2.233.069 3.255-.494 1.09-.603 1.632-1.723 1.387-2.851-.203-.931-.889-1.357-1.724-1.602-.95-.278-1.932-.331-2.795-.357zm-2.738-8.908c.051.387.072.779.158 1.158.223.982.65 1.845 1.627 2.282 1.147.515 2.612.294 3.114-1.316.344-1.103.302-2.198-.113-3.274-.185-.48-.483-.886-.91-1.184-.996-.695-2.793-.787-3.525.749-.238.499-.331 1.03-.351 1.585z" clip-rule="evenodd"></path>
    <path fill="#4F372B" fill-rule="evenodd" d="M47.35 105.038c.037.171.111.365.113.56.003.371-.037.742-.058 1.113v.322l.314-.24c.86-.708 1.784-1.311 2.86-1.636 1.942-.585 3.882.478 4.515 2.456.24.752.335 1.525.344 2.311.02 1.746.032 3.492.05 5.238.006.627.078.739.671.92.336.103.683.175 1.03.229.191.03.273.105.263.292l.002.172c-.007.723-.057.756-.758.754-1.678-.003-3.355.007-5.033.021-.5.004-.501.019-.551-.475l-.01-.284c.031-.426.041-.422.46-.484.282-.042.562-.107.837-.179.283-.073.419-.282.457-.562.019-.142.044-.284.043-.426-.024-1.908.007-3.818-.097-5.723-.084-1.541-1.26-2.459-2.807-2.354-.759.053-1.445.306-2.071.743-.413.289-.496.706-.494 1.155.008 1.784.025 3.568.044 5.353.004.391.015.782.052 1.17.039.424.188.595.604.687.398.088.804.139 1.229.21l.036.328c.014.765-.066.822-.809.819-1.735-.007-3.47.004-5.204.023-.273.004-.389-.082-.382-.348l-.004-.114c-.045-.689-.025-.715.627-.827l.308-.062c.706-.159.887-.347.897-1.064.033-2.271.045-4.541.068-6.812.003-.326-.12-.579-.424-.714-.426-.188-.856-.367-1.287-.544-.238-.098-.51-.16-.519-.489-.006-.232.242-.437.581-.506.681-.138 1.368-.253 2.041-.422.67-.167 1.328-.391 2.062-.611z" clip-rule="evenodd"></path>
    <path fill="#4F382B" fill-rule="evenodd" d="M84.865 110.97c-.032 2.121-.583 3.836-2.083 5.123-1.9 1.633-4.864 2.188-7.287.967-1.034-.521-1.794-1.32-2.289-2.357-.759-1.595-.949-3.272-.553-4.99.392-1.699 1.421-2.93 2.961-3.727 1.584-.819 3.252-1.139 5.011-.709 2.225.543 3.824 2.357 4.142 4.667.057.405.079.815.098 1.026zm-2.577 1.149l-.086-.01c0-.2.011-.4-.002-.6-.073-1.246-.353-2.433-1.075-3.476-.685-.988-1.618-1.571-2.832-1.656-1.359-.096-2.501.664-2.902 2.052-.602 2.084-.398 4.115.66 6.024.461.832 1.144 1.446 2.059 1.769 1.793.631 3.383-.186 3.85-2.022.172-.678.222-1.387.328-2.081z" clip-rule="evenodd"></path>
    <path fill="#4F372B" fill-rule="evenodd" d="M40.819 111.134c-.037 1.522-.396 2.929-1.336 4.152-1.007 1.31-2.391 2.01-3.965 2.305-1.861.348-3.609.032-5.104-1.217-.71-.594-1.195-1.355-1.515-2.221-.525-1.42-.656-2.875-.333-4.358.345-1.587 1.241-2.8 2.63-3.614 1.606-.939 3.339-1.358 5.19-.936 2.38.544 3.754 2.095 4.262 4.443.102.474.116.964.171 1.446zm-2.606 1.004l-.069-.01v-.286c-.039-1.396-.312-2.726-1.145-3.886-.617-.861-1.443-1.401-2.502-1.552-1.726-.246-2.854.778-3.228 2.169-.488 1.817-.335 3.612.42 5.335.471 1.074 1.215 1.911 2.358 2.317 1.782.633 3.396-.205 3.847-2.034.166-.669.216-1.367.319-2.053z" clip-rule="evenodd"></path>
    <path fill="#439934" fill-rule="evenodd" d="M82.362 33.544c1.227 3.547 2.109 7.168 2.4 10.92.36 4.656.196 9.28-.786 13.859l-.126.366c-.308.001-.622-.038-.923.009-2.543.4-5.083.814-7.624 1.226-2.627.426-5.256.835-7.878 1.289-.929.16-2.079-.031-2.454 1.253l-.18.061.127-7.678-.129-18.526 1.224-.21c2.001-.327 4.002-.66 6.006-.979 2.39-.379 4.782-.749 7.174-1.119 1.056-.162 2.113-.313 3.169-.471z" clip-rule="evenodd"></path>
    <path fill="#45A538" fill-rule="evenodd" d="M62.265 84.911c-1.291-1.11-2.627-2.171-3.864-3.339-6.658-6.28-11.529-13.673-13.928-22.586-.661-2.452-1.101-4.945-1.243-7.479-.1-1.774-.243-3.563-.117-5.328.333-4.693 1.012-9.341 2.388-13.862l.076-.105c.134.178.326.336.394.537 1.344 3.956 2.677 7.916 4.004 11.879 4.169 12.451 8.333 24.905 12.509 37.354.082.243.293.442.445.661l-.664 2.268z" clip-rule="evenodd"></path>
    <path fill="#46A037" fill-rule="evenodd" d="M82.362 33.544c-1.057.157-2.114.309-3.169.471-2.392.37-4.784.74-7.174 1.119-2.003.318-4.004.651-6.006.979l-1.224.21-.01-.798c-.041-.656-.109-1.312-.118-1.968l-.137-12.554c-.032-2.619-.08-5.238-.133-7.856-.033-1.627-.068-3.255-.141-4.88-.04-.873-.181-1.742-.237-2.615-.033-.502.011-1.008.022-1.512.624 1.209 1.235 2.427 1.876 3.627 1.013 1.897 2.628 3.295 4.083 4.82 5.746 6.031 9.825 13.039 12.368 20.957z" clip-rule="evenodd"></path>
    <path fill="#409433" fill-rule="evenodd" d="M64.792 62.527l.18-.061c.375-1.284 1.525-1.093 2.454-1.253 2.622-.454 5.251-.863 7.878-1.289 2.541-.411 5.081-.825 7.624-1.226.301-.047.615-.008.923-.009-.475 1.696-.849 3.429-1.452 5.078-.685 1.87-1.513 3.696-2.392 5.486-1.314 2.675-2.951 5.171-4.853 7.458-1.466 1.762-3.1 3.393-4.737 5.002-.906.889-1.972 1.614-2.966 2.414l-.258-.176-.927-.792-.959-2.104c-.661-2.462-1.007-4.968-1.065-7.516l.018-.428.131-1.854c.043-.633.101-1.265.128-1.898.096-2.276.182-4.554.273-6.832z" clip-rule="evenodd"></path>
    <path fill="#4FAA41" fill-rule="evenodd" d="M64.792 62.527c-.09 2.278-.176 4.557-.273 6.835-.027.634-.084 1.266-.128 1.898l-.584.221c-1.298-3.821-2.597-7.602-3.867-11.392-2.101-6.271-4.176-12.551-6.274-18.824-1.693-5.062-3.401-10.121-5.118-15.176-.081-.236-.311-.422-.471-.631l3.74-6.877c.129.223.298.432.379.672 1.73 5.12 3.457 10.241 5.169 15.367 2.228 6.67 4.441 13.343 6.667 20.014.089.266.235.512.375.811l.512-.596c-.043 2.56-.085 5.118-.127 7.678z" clip-rule="evenodd"></path>
    <path fill="#4AA73C" fill-rule="evenodd" d="M48.076 25.458c.161.209.391.395.471.631 1.717 5.055 3.425 10.113 5.118 15.176 2.098 6.273 4.173 12.553 6.274 18.824 1.27 3.79 2.569 7.57 3.867 11.392l.584-.221-.131 1.854-.119.427c-.203 2.029-.374 4.062-.622 6.087-.124 1.015-.389 2.011-.59 3.015-.151-.219-.363-.418-.445-.661-4.177-12.449-8.34-24.903-12.509-37.354-1.327-3.963-2.661-7.923-4.004-11.879-.068-.201-.26-.359-.394-.537l2.5-6.754z" clip-rule="evenodd"></path>
    <path fill="#57AE47" fill-rule="evenodd" d="M64.918 54.849l-.512.596c-.14-.299-.286-.545-.375-.811-2.226-6.671-4.439-13.344-6.667-20.014-1.712-5.126-3.439-10.247-5.169-15.367-.081-.24-.25-.449-.379-.672l4.625-6.084c.146.194.354.367.429.586 1.284 3.76 2.556 7.523 3.822 11.289 1.182 3.518 2.346 7.04 3.542 10.552.08.235.359.401.545.601l.01.798.129 18.526z" clip-rule="evenodd"></path>
    <path fill="#60B24F" fill-rule="evenodd" d="M64.779 35.525c-.187-.199-.465-.365-.545-.601-1.195-3.512-2.36-7.034-3.542-10.552-1.266-3.766-2.538-7.529-3.822-11.289-.075-.219-.283-.392-.429-.586 1.504-1.473 2.961-2.999 4.526-4.404 1.391-1.248 2.509-2.586 2.561-4.559l.11-.393.396.998c-.01.504-.055 1.01-.022 1.512.057.873.198 1.742.237 2.615.073 1.625.108 3.253.141 4.88.053 2.618.101 5.237.133 7.856l.137 12.554c.01.657.079 1.313.119 1.969z" clip-rule="evenodd"></path>
    <path fill="#A9AA88" fill-rule="evenodd" d="M62.929 82.642c.201-1.004.466-2 .59-3.015.248-2.024.419-4.058.622-6.087l.051-.008.05.009c.058 2.548.404 5.054 1.065 7.516-.135.178-.324.335-.396.535-.555 1.566-1.079 3.145-1.637 4.71-.076.214-.29.381-.439.568l-.571-1.96.665-2.268z" clip-rule="evenodd"></path>
    <path fill="#B6B598" fill-rule="evenodd" d="M62.835 86.871c.149-.188.363-.354.439-.568.558-1.565 1.082-3.144 1.637-4.71.071-.2.261-.357.396-.535l.959 2.104c-.189.268-.451.511-.556.81l-1.836 5.392c-.076.217-.333.369-.507.552l-.532-3.045z" clip-rule="evenodd"></path>
    <path fill="#C2C1A7" fill-rule="evenodd" d="M63.367 89.915c.173-.183.431-.335.507-.552l1.836-5.392c.104-.299.367-.542.556-.81l.928.791c-.448.443-.697.955-.547 1.602l-.282.923c-.128.158-.314.296-.377.477-.641 1.836-1.252 3.682-1.898 5.517-.082.232-.309.415-.468.621l-.255-3.177z" clip-rule="evenodd"></path>
    <path fill="#CECDB7" fill-rule="evenodd" d="M63.621 93.091c.16-.206.387-.389.468-.621.646-1.835 1.258-3.681 1.898-5.517.063-.181.249-.318.377-.477l-.389 4.236c-.104.12-.254.225-.304.364l-1.294 3.708c-.091.253-.265.479-.401.716-.121-.158-.337-.311-.347-.475-.038-.642-.011-1.289-.008-1.934z" clip-rule="evenodd"></path>
    <path fill="#DBDAC7" fill-rule="evenodd" d="M63.977 95.501c.136-.237.31-.463.401-.716l1.294-3.708c.05-.14.201-.244.304-.364l.01 2.78-.931 2.387-1.078-.379z" clip-rule="evenodd"></path>
    <path fill="#EBE9DC" fill-rule="evenodd" d="M65.055 95.88l.931-2.387.192 2.824-1.123-.437z" clip-rule="evenodd"></path>
    <path fill="#CECDB7" fill-rule="evenodd" d="M66.646 85.554c-.149-.646.099-1.158.547-1.602l.258.176-.805 1.426z" clip-rule="evenodd"></path>
    <path fill="#4FAA41" fill-rule="evenodd" d="M64.242 73.542l-.05-.009-.051.008.119-.427-.018.428z" clip-rule="evenodd"></path>
  </symbol>
  <symbol xmlns="http://www.w3.org/2000/svg" preserveAspectRatio="xMinYMin meet" id="nodejs" viewBox="0 0 256 282">
    <g fill="#8CC84B">
      <path d="M116.504 3.58c6.962-3.985 16.03-4.003 22.986 0 34.995 19.774 70.001 39.517 104.99 59.303 6.581 3.707 10.983 11.031 10.916 18.614v118.968c.049 7.897-4.788 15.396-11.731 19.019-34.88 19.665-69.742 39.354-104.616 59.019-7.106 4.063-16.356 3.75-23.24-.646-10.457-6.062-20.932-12.094-31.39-18.15-2.137-1.274-4.546-2.288-6.055-4.36 1.334-1.798 3.719-2.022 5.657-2.807 4.365-1.388 8.374-3.616 12.384-5.778 1.014-.694 2.252-.428 3.224.193 8.942 5.127 17.805 10.403 26.777 15.481 1.914 1.105 3.852-.362 5.488-1.274 34.228-19.345 68.498-38.617 102.72-57.968 1.268-.61 1.969-1.956 1.866-3.345.024-39.245.006-78.497.012-117.742.145-1.576-.767-3.025-2.192-3.67-34.759-19.575-69.5-39.18-104.253-58.76a3.621 3.621 0 0 0-4.094-.006C91.2 39.257 56.465 58.88 21.712 78.454c-1.42.646-2.373 2.071-2.204 3.653.006 39.245 0 78.497 0 117.748a3.329 3.329 0 0 0 1.89 3.303c9.274 5.259 18.56 10.481 27.84 15.722 5.228 2.814 11.647 4.486 17.407 2.33 5.083-1.823 8.646-7.01 8.549-12.407.048-39.016-.024-78.038.036-117.048-.127-1.732 1.516-3.163 3.2-3 4.456-.03 8.918-.06 13.374.012 1.86-.042 3.14 1.823 2.91 3.568-.018 39.263.048 78.527-.03 117.79.012 10.464-4.287 21.85-13.966 26.97-11.924 6.177-26.662 4.867-38.442-1.056-10.198-5.09-19.93-11.097-29.947-16.55C5.368 215.886.555 208.357.604 200.466V81.497c-.073-7.74 4.504-15.197 11.29-18.85C46.768 42.966 81.636 23.27 116.504 3.58z"></path>
      <path d="M146.928 85.99c15.21-.979 31.493-.58 45.18 6.913 10.597 5.742 16.472 17.793 16.659 29.566-.296 1.588-1.956 2.464-3.472 2.355-4.413-.006-8.827.06-13.24-.03-1.872.072-2.96-1.654-3.195-3.309-1.268-5.633-4.34-11.212-9.642-13.929-8.139-4.075-17.576-3.87-26.451-3.785-6.479.344-13.446.905-18.935 4.715-4.214 2.886-5.494 8.712-3.99 13.404 1.418 3.369 5.307 4.456 8.489 5.458 18.33 4.794 37.754 4.317 55.734 10.626 7.444 2.572 14.726 7.572 17.274 15.366 3.333 10.446 1.872 22.932-5.56 31.318-6.027 6.901-14.805 10.657-23.56 12.697-11.647 2.597-23.734 2.663-35.562 1.51-11.122-1.268-22.696-4.19-31.282-11.768-7.342-6.375-10.928-16.308-10.572-25.895.085-1.619 1.697-2.748 3.248-2.615 4.444-.036 8.888-.048 13.332.006 1.775-.127 3.091 1.407 3.182 3.08.82 5.367 2.837 11 7.517 14.182 9.032 5.827 20.365 5.428 30.707 5.591 8.568-.38 18.186-.495 25.178-6.158 3.689-3.23 4.782-8.634 3.785-13.283-1.08-3.925-5.186-5.754-8.712-6.95-18.095-5.724-37.736-3.647-55.656-10.12-7.275-2.571-14.31-7.432-17.105-14.906-3.9-10.578-2.113-23.662 6.098-31.765 8.006-8.06 19.563-11.164 30.551-12.275z"></path>
    </g>
  </symbol>
  <symbol xmlns="http://www.w3.org/2000/svg" enable-background="new 0 0 24 24" id="python" viewBox="0 0 24 24">
    <path fill="#F2BB30" d="M20.699,17.748c1.666,0,2.282-1.162,2.86-2.904c0.6-1.795,0.574-3.52,0-5.818c-0.413-1.655-1.194-2.904-2.86-2.904h-2.148v2.54c0,1.972-1.672,3.633-3.579,3.633H9.252c-1.564,0-2.86,1.339-2.86,2.908v5.454c0,1.553,1.35,2.464,2.86,2.908c1.811,0.53,3.552,0.626,5.721,0c1.441-0.418,2.861-1.26,2.861-2.908v-2.181h-5.717v-0.729H20.699L20.699,17.748z"></path>
    <path fill="#35668F" d="M3.444,17.749H5.41v-2.614c0-1.892,1.634-3.557,3.579-3.557h5.721c1.591,0,2.86-1.312,2.86-2.909V3.209c0-1.554-1.307-2.717-2.86-2.979c-1.918-0.316-4.002-0.3-5.721,0.006l0.001-0.001C6.568,0.663,6.129,1.558,6.129,3.213v2.18h5.727v0.73H3.98c-1.667,0-3.124,1.002-3.578,2.905c-0.525,2.18-0.547,3.54,0,5.818C0.808,16.538,1.779,17.749,3.444,17.749L3.444,17.749z"></path>
    <path fill="#D3A32A" d="M12,12.295H9.252c-1.564,0-2.86,1.339-2.86,2.908v5.454c0,1.553,1.35,2.464,2.86,2.908c0.912,0.267,1.807,0.424,2.748,0.434V12.295L12,12.295z"></path>
    <path fill="#2E597C" d="M11.827,0c-0.994,0-1.964,0.081-2.839,0.236l0.001-0.001C6.568,0.663,6.129,1.558,6.129,3.213v2.18h5.727v0.73H3.98c-1.667,0-3.124,1.002-3.578,2.905c-0.26,1.081-0.397,1.961-0.402,2.85v0.101c0.005,0.872,0.136,1.761,0.402,2.867c0.406,1.692,1.377,2.903,3.042,2.903H5.41v-2.614c0-1.892,1.634-3.557,3.579-3.557H12V0.001C11.942,0,11.885,0,11.827,0L11.827,0z"></path>
    <polygon fill="#FFF" points="18.231 7.357 18.232 7.357 18.232 7.353"></polygon>
    <path fill="#FFF" d="M15.332 19.929c.594 0 1.077.488 1.077 1.088 0 .606-.482 1.093-1.077 1.093-.59 0-1.077-.493-1.077-1.093C14.261 20.411 14.744 19.929 15.332 19.929zM8.63 3.936c-.594 0-1.076-.488-1.076-1.088C7.56 2.243 8.036 1.756 8.63 1.756c.59 0 1.077.493 1.077 1.093C9.707 3.448 9.225 3.936 8.63 3.936L8.63 3.936z"></path>
    <path fill="#DEDEDE" d="M8.63 1.756c-.594 0-1.071.487-1.076 1.093 0 .6.482 1.088 1.076 1.088l0 0V1.756L8.63 1.756 8.63 1.756zM15.332 19.929c-.594 0-1.071.487-1.076 1.093 0 .6.482 1.088 1.076 1.088l0 0V19.929L15.332 19.929 15.332 19.929z"></path>
  </symbol>
  <symbol id="react" xmlns="http://www.w3.org/2000/svg" version="1.1" xmlns:xlink="http://www.w3.org/1999/xlink" xmlnsSvgjs="http://svgjs.com/svgjs" viewBox="0 0 288 288">
    <defs id="SvgjsDefs1012"></defs>
    <g id="SvgjsG1013"><svg xmlns="http://www.w3.org/2000/svg" viewBox="0 0 24 24" width="288" height="288">
        <path fill="#6563ff" d="M19.108 12.376q-.176-.201-.371-.403.136-.144.264-.287c1.605-1.804 2.283-3.614 1.655-4.701-.602-1.043-2.393-1.354-4.636-.918q-.331.065-.659.146-.063-.216-.133-.43C14.467 3.49 13.238 1.999 11.982 2c-1.204 0-2.368 1.397-3.111 3.558q-.11.32-.203.644-.219-.054-.44-.1c-2.366-.485-4.271-.165-4.898.924-.601 1.043.027 2.75 1.528 4.472q.224.255.46.5c-.186.19-.361.381-.525.571-1.465 1.698-2.057 3.376-1.457 4.415.62 1.074 2.498 1.425 4.785.975q.278-.055.553-.124.1.351.221.697C9.635 20.649 10.792 22 11.992 22c1.24 0 2.482-1.453 3.235-3.659.06-.174.115-.355.169-.541q.355.088.715.156c2.203.417 3.952.09 4.551-.95.619-1.075-.02-2.877-1.554-4.63ZM4.07 7.452c.386-.67 1.943-.932 3.986-.512q.196.04.399.09a20.464 20.464 0 0 0-.422 2.678A20.887 20.887 0 0 0 5.93 11.4q-.219-.227-.427-.465C4.216 9.461 3.708 8.081 4.07 7.452Zm3.887 5.728c-.51-.387-.985-.783-1.416-1.181.43-.396.905-.79 1.415-1.176q-.028.589-.027 1.179 0 .59.028 1.178Zm0 3.94a7.237 7.237 0 0 1-2.64.094 1.766 1.766 0 0 1-1.241-.657c-.365-.63.111-1.978 1.364-3.43q.236-.273.488-.532a20.49 20.49 0 0 0 2.107 1.7 20.802 20.802 0 0 0 .426 2.712q-.25.063-.505.114Zm7.1-8.039q-.503-.317-1.018-.613-.508-.292-1.027-.563c.593-.249 1.176-.462 1.739-.635a18.218 18.218 0 0 1 .306 1.811ZM9.68 5.835c.636-1.85 1.578-2.98 2.304-2.98.773-.001 1.777 1.218 2.434 3.197q.064.194.12.39a20.478 20.478 0 0 0-2.526.97 20.061 20.061 0 0 0-2.52-.981q.087-.3.188-.596Zm-.4 1.424a18.307 18.307 0 0 1 1.73.642q-1.052.542-2.048 1.181c.08-.638.187-1.249.318-1.823Zm-.317 7.66q.497.319 1.009.613.522.3 1.057.576a18.196 18.196 0 0 1-1.744.665 19.144 19.144 0 0 1-.322-1.853Zm5.456 3.146a7.236 7.236 0 0 1-1.238 2.333 1.766 1.766 0 0 1-1.188.748c-.729 0-1.658-1.085-2.29-2.896q-.112-.321-.206-.648a20.109 20.109 0 0 0 2.53-1.01 20.8 20.8 0 0 0 2.547.979q-.072.249-.155.494Zm.362-1.324c-.569-.176-1.16-.393-1.762-.646q.509-.267 1.025-.565.53-.306 1.032-.627a18.152 18.152 0 0 1-.295 1.838Zm.447-4.743q0 .911-.057 1.82c-.493.334-1.013.66-1.554.972-.54.311-1.073.597-1.597.856q-.827-.396-1.622-.854-.79-.455-1.544-.969-.07-.91-.07-1.822 0-.911.068-1.821a24.168 24.168 0 0 1 3.158-1.823q.816.397 1.603.851.79.454 1.55.959.065.914.065 1.831Zm.956-5.093c1.922-.373 3.37-.122 3.733.507.387.67-.167 2.148-1.554 3.706q-.115.129-.238.259a20.061 20.061 0 0 0-2.144-1.688 20.04 20.04 0 0 0-.405-2.649q.31-.076.608-.135Zm-.13 3.885a18.164 18.164 0 0 1 1.462 1.188 18.12 18.12 0 0 1-1.457 1.208q.023-.594.023-1.188 0-.604-.028-1.208Zm3.869 5.789c-.364.631-1.768.894-3.653.538q-.324-.061-.664-.146a20.069 20.069 0 0 0 .387-2.682 19.94 19.94 0 0 0 2.137-1.715q.177.183.336.364a7.234 7.234 0 0 1 1.403 2.238 1.766 1.766 0 0 1 .054 1.403Zm-8.819-6.141a1.786 1.786 0 1 0 2.44.654 1.786 1.786 0 0 0-2.44-.654Z"></path>
      </svg></g>
  </symbol>
  <symbol xmlns="http://www.w3.org/2000/svg" id="redis" viewBox="0 0 128 128">
    <path fill="#636466" d="M21.4 97.6c0 1.8-1.5 3.5-3.5 3.5-1.5 0-2.8.4-4 1.3-1.3.8-2.2 1.9-3 3.2-1.6 2.1-2.4 4.6-2.7 5.5v12.5c0 1.9-1.6 3.5-3.6 3.5-1.9 0-3.5-1.6-3.5-3.5v-26c0-1.9 1.6-3.4 3.5-3.4 2 0 3.6 1.5 3.6 3.4v.5c.4-.5.9-1 1.4-1.3 2.2-1.4 5-2.6 8.3-2.6 2 0 3.5 1.5 3.5 3.4zM19.5 110.6c.1-9 7-16.5 16.1-16.5 8.6 0 15.3 6.4 15.9 15.3v.3c0 .1 0 .5-.1.6-.2 1.6-1.6 2.6-3.4 2.6h-21c.3 1.5 1.1 3.2 2.2 4.3 1.4 1.6 4 2.8 6.3 3 2.4.2 5.2-.4 6.8-1.6 1.4-1.4 4.1-1.3 4.9-.2.9.9 1.5 2.9 0 4.3-3.2 3-7.1 4.3-11.8 4.3-8.9 0-15.9-7.5-15.9-16.4zm7.1-3.2h18.6c-.7-2.6-4-6.5-9.7-7-5.6.2-8.3 4.3-8.9 7zM84.9 123.5c0 1.9-1.6 3.6-3.6 3.6-1.8 0-3.2-1.3-3.5-2.8-2.5 1.7-5.7 2.8-9 2.8-8.9 0-16-7.5-16-16.4 0-9 7.1-16.5 16-16.5 3.2 0 6.4 1.1 8.8 2.8v-12.5c0-1.9 1.6-3.6 3.6-3.6s3.6 1.6 3.6 3.6v26.200000000000003l.1 12.8zm-16-22.2c-2.4 0-4.5 1-6.2 2.7-1.6 1.6-2.6 4-2.6 6.6 0 2.5 1 4.9 2.6 6.5 1.6 1.7 3.8 2.7 6.2 2.7 2.4 0 4.5-1 6.2-2.7 1.6-1.6 2.6-4 2.6-6.5 0-2.6-1-5-2.6-6.6-1.6-1.7-3.7-2.7-6.2-2.7zM97.5 85.9c0 2-1.5 3.6-3.6 3.6-2 0-3.6-1.6-3.6-3.6v-1.4c0-2 1.6-3.6 3.6-3.6s3.6 1.6 3.6 3.6v1.4zm0 11.9v25.7c0 2-1.5 3.6-3.6 3.6-2 0-3.6-1.6-3.6-3.6v-25.7c0-2.1 1.6-3.6 3.6-3.6 2.1 0 3.6 1.5 3.6 3.6zM102 117.6c1.2-1.6 3.5-1.8 4.9-.5 1.7 1.4 4.7 3 7.2 2.9 1.8 0 3.4-.6 4.5-1.3.9-.8 1.2-1.4 1.2-2 0-.3-.1-.5-.2-.7-.1-.2-.3-.5-.9-.8-.9-.7-2.9-1.4-5.3-1.8h-.1c-2-.4-4-.9-5.7-1.7-1.8-.9-3.4-2-4.5-3.8-.7-1.2-1.1-2.6-1.1-4.1 0-3 1.7-5.6 3.9-7.2 2.3-1.6 5.1-2.4 8.1-2.4 4.5 0 7.8 2.2 9.9 3.6 1.6 1.1 2 3.2 1.1 4.9-1.1 1.6-3.2 2-4.9.9-2.1-1.4-4-2.4-6.1-2.4-1.6 0-3.1.5-4 1.2-.9.6-1.1 1.2-1.1 1.5 0 .3 0 .3.1.5.1.1.3.4.7.7.9.6 2.6 1.2 4.8 1.6l.1.1h.1c2.2.4 4.2 1 6.1 1.9 1.8.8 3.6 2 4.7 3.9.8 1.3 1.3 2.8 1.3 4.3 0 3.2-1.8 5.9-4.1 7.6-2.4 1.6-5.3 2.6-8.6 2.6-5.1-.1-9.1-2.4-11.7-4.5-1.4-1.3-1.6-3.5-.4-5z"></path>
    <path fill="#A41E11" d="M106.9 62.7c-5 2.6-30.7 13.2-36.2 16-5.5 2.9-8.5 2.8-12.8.8-4.4-2.1-31.7-13.1-36.7-15.5-2.5-1.2-3.8-2.2-3.8-3.1v-9.4s35.6-7.8 41.4-9.8c5.8-2.1 7.8-2.1 12.6-.3 4.9 1.8 34.2 7.1 39 8.8v9.3c.1.9-1 1.9-3.5 3.2z"></path>
    <path fill="#D82C20" d="M106.9 53.3c-5 2.6-30.7 13.2-36.2 16-5.5 2.9-8.5 2.8-12.8.8-4.4-2.1-31.7-13.1-36.7-15.5-4.9-2.4-5-4-.2-5.9 4.8-1.9 32.1-12.6 37.8-14.6 5.8-2.1 7.8-2.1 12.6-.3 4.9 1.8 30.5 12 35.3 13.7 5 1.8 5.2 3.2.2 5.8z"></path>
    <path fill="#A41E11" d="M106.9 47.4c-5 2.6-30.7 13.2-36.2 16-5.5 2.9-8.5 2.8-12.8.8-4.4-2.1-31.7-13.2-36.7-15.5-2.5-1.2-3.8-2.2-3.8-3.1v-9.4s35.6-7.8 41.4-9.8c5.8-2.1 7.8-2.1 12.6-.3 4.9 1.8 34.2 7.1 39 8.8v9.3c.1.9-1 1.9-3.5 3.2z"></path>
    <path fill="#D82C20" d="M106.9 38c-5 2.6-30.7 13.2-36.2 16-5.5 2.9-8.5 2.8-12.8.8-4.3-2.1-31.7-13.1-36.6-15.5-4.9-2.4-5-4-.2-5.9 4.8-1.9 32.1-12.6 37.8-14.6 5.8-2.1 7.8-2.1 12.6-.3 4.9 1.8 30.5 12 35.3 13.7 4.9 1.7 5.1 3.2.1 5.8z"></path>
    <path fill="#A41E11" d="M106.9 31.5c-5 2.6-30.7 13.2-36.2 16-5.5 2.9-8.5 2.8-12.8.8-4.3-2.1-31.7-13.1-36.6-15.5-2.5-1.2-3.8-2.2-3.8-3.1v-9.4s35.6-7.8 41.4-9.8c5.8-2.1 7.8-2.1 12.6-.3 4.9 1.8 34.2 7.1 39 8.8v9.3c0 .8-1.1 1.9-3.6 3.2z"></path>
    <path fill="#D82C20" d="M106.9 22.1c-5 2.6-30.7 13.2-36.2 16-5.5 2.9-8.5 2.8-12.8.8-4.3-2.1-31.7-13.1-36.6-15.5s-5-4-.2-5.9c4.8-1.9 32.1-12.6 37.8-14.6 5.8-2.1 7.8-2.1 12.6-.3 4.9 1.8 30.5 12 35.3 13.7 4.9 1.7 5.1 3.2.1 5.8z"></path>
    <path fill="#fff" d="M76.2 13l-8.1.8-1.8 4.4-2.9-4.9-9.3-.8 6.9-2.5-2-3.8 6.5 2.5 6.1-2-1.7 4zM65.8 34.1l-15-6.3 21.6-3.3z"></path>
    <ellipse cx="45" cy="19.9" fill="#fff" rx="11.5" ry="4.5"></ellipse>
    <path fill="#7A0C00" d="M85.7 14.2l12.8 5-12.8 5.1z"></path>
    <path fill="#AD2115" d="M71.6 19.8l14.1-5.6v10.1l-1.3.5z"></path>
  </symbol>
</svg>