<svg width="0" height="0" class="hidden">
  <symbol xmlns="http://www.w3.org/2000/svg" version="1.1" xmlns:xlink="http://www.w3.org/1999/xlink" xmlnsSvgjs="http://svgjs.com/svgjs" x="0" y="0" xml:space="preserve" viewBox="0 0 512 512" id="facebook">
    <g>
      <path d="M437 0H75C33.648 0 0 33.648 0 75v362c0 41.352 33.648 75 75 75h151V331h-60v-90h60v-61c0-49.629 40.371-90 90-90h91v90h-91v61h91l-15 90h-76v181h121c41.352 0 75-33.648 75-75V75c0-41.352-33.648-75-75-75zm0 0" fill="#ffffff" data-original="#000000"></path>
    </g>
  </symbol>
  <symbol xmlns="http://www.w3.org/2000/svg" version="1.1" xmlns:xlink="http://www.w3.org/1999/xlink" xmlnsSvgjs="http://svgjs.com/svgjs" x="0" y="0" xml:space="preserve" viewBox="0 0 438.536 438.536" id="github">
    <g>
      <path d="M158.173 352.599c-3.049.568-4.381 1.999-3.999 4.281.38 2.283 2.093 3.046 5.138 2.283 3.049-.76 4.38-2.095 3.997-3.997-.378-2.092-2.091-2.95-5.136-2.567zM141.898 354.885c-3.046 0-4.568 1.041-4.568 3.139 0 2.474 1.619 3.518 4.853 3.138 3.046 0 4.57-1.047 4.57-3.138 0-2.471-1.619-3.522-4.855-3.139zM119.629 354.022c-.76 2.095.478 3.519 3.711 4.284 2.855 1.137 4.664.568 5.424-1.714.572-2.091-.666-3.61-3.711-4.568-2.856-.759-4.663-.102-5.424 1.998z" fill="#ffffff" data-original="#000000"></path>
      <path d="M414.41 24.123C398.326 8.042 378.964 0 356.309 0H82.225C59.577 0 40.208 8.042 24.123 24.123 8.042 40.207 0 59.576 0 82.225v274.088c0 22.65 8.042 42.017 24.123 58.098 16.084 16.084 35.454 24.126 58.102 24.126h63.953c4.184 0 7.327-.144 9.42-.424 2.092-.288 4.184-1.526 6.279-3.717 2.096-2.187 3.14-5.376 3.14-9.562 0-.568-.05-7.046-.144-19.417-.097-12.375-.144-22.176-.144-29.41l-6.567 1.143c-4.187.76-9.469 1.095-15.846.999-6.374-.096-12.99-.76-19.841-1.998-6.855-1.239-13.229-4.093-19.13-8.562-5.898-4.477-10.085-10.328-12.56-17.559l-2.856-6.571c-1.903-4.373-4.899-9.229-8.992-14.554-4.093-5.332-8.232-8.949-12.419-10.852l-1.999-1.428c-1.331-.951-2.568-2.098-3.711-3.429-1.141-1.335-1.997-2.669-2.568-3.997-.571-1.335-.097-2.43 1.427-3.289 1.524-.855 4.281-1.279 8.28-1.279l5.708.855c3.808.76 8.516 3.042 14.134 6.851 5.614 3.806 10.229 8.754 13.846 14.843 4.38 7.806 9.657 13.75 15.846 17.843 6.184 4.097 12.419 6.143 18.699 6.143s11.704-.476 16.274-1.424c4.565-.954 8.848-2.385 12.847-4.288 1.713-12.751 6.377-22.559 13.988-29.41-10.848-1.143-20.602-2.854-29.265-5.14-8.658-2.286-17.605-5.995-26.835-11.136-9.234-5.14-16.894-11.512-22.985-19.13-6.09-7.618-11.088-17.61-14.987-29.978-3.901-12.375-5.852-26.652-5.852-42.829 0-23.029 7.521-42.637 22.557-58.814-7.044-17.32-6.379-36.732 1.997-58.242 5.52-1.714 13.706-.428 24.554 3.855 10.85 4.286 18.794 7.951 23.84 10.992 5.046 3.042 9.089 5.614 12.135 7.71 17.705-4.949 35.976-7.423 54.818-7.423 18.841 0 37.115 2.474 54.821 7.423l10.849-6.852c7.426-4.57 16.18-8.757 26.269-12.562 10.088-3.806 17.795-4.854 23.127-3.14 8.562 21.51 9.328 40.922 2.279 58.241 15.036 16.179 22.559 35.786 22.559 58.815 0 16.18-1.951 30.505-5.852 42.969-3.898 12.467-8.939 22.463-15.13 29.981-6.184 7.519-13.894 13.843-23.124 18.986-9.232 5.137-18.178 8.853-26.84 11.132-8.661 2.286-18.414 4.004-29.263 5.147 9.891 8.562 14.839 22.072 14.839 40.538v68.238c0 3.237.472 5.852 1.424 7.851.958 1.998 2.478 3.374 4.571 4.141 2.102.76 3.949 1.235 5.571 1.424 1.622.191 3.949.287 6.995.287h63.953c22.648 0 42.018-8.042 58.095-24.126 16.084-16.084 24.126-35.454 24.126-58.102V82.225c-.002-22.649-8.044-42.021-24.125-58.102z" fill="#ffffff" data-original="#000000"></path>
      <path d="M86.793 319.195c-1.331.948-1.141 2.471.572 4.565 1.906 1.902 3.427 2.189 4.57.855 1.331-.948 1.141-2.471-.575-4.569-1.902-1.71-3.424-1.997-4.567-.851zM77.374 312.057c-.57 1.335.096 2.478 1.999 3.426 1.521.955 2.762.767 3.711-.568.57-1.335-.096-2.478-1.999-3.433-1.903-.572-3.14-.38-3.711.575zM95.646 330.331c-1.715.948-1.715 2.666 0 5.137 1.713 2.478 3.328 3.142 4.853 1.998 1.714-1.334 1.714-3.142 0-5.427-1.521-2.468-3.14-3.046-4.853-1.708zM105.641 343.174c-1.714 1.526-1.336 3.327 1.142 5.428 2.281 2.279 4.185 2.566 5.708.849 1.524-1.519 1.143-3.326-1.142-5.42-2.281-2.28-4.185-2.568-5.708-.857z" fill="#ffffff" data-original="#000000"></path>
    </g>
  </symbol>
  <symbol xmlns="http://www.w3.org/2000/svg" version="1.1" xmlns:xlink="http://www.w3.org/1999/xlink" xmlnsSvgjs="http://svgjs.com/svgjs" x="0" y="0" xml:space="preserve" viewBox="0 0 511 511.9" id="instagram">
    <g>
      <path d="M510.95 150.5c-1.2-27.2-5.598-45.898-11.9-62.102-6.5-17.199-16.5-32.597-29.6-45.398-12.802-13-28.302-23.102-45.302-29.5-16.296-6.3-34.898-10.7-62.097-11.898C334.648.3 325.949 0 256.449 0s-78.199.3-105.5 1.5c-27.199 1.2-45.898 5.602-62.097 11.898-17.204 6.5-32.602 16.5-45.403 29.602-13 12.8-23.097 28.3-29.5 45.3-6.3 16.302-10.699 34.9-11.898 62.098C.75 177.801.449 186.5.449 256s.301 78.2 1.5 105.5c1.2 27.2 5.602 45.898 11.903 62.102 6.5 17.199 16.597 32.597 29.597 45.398 12.801 13 28.301 23.102 45.301 29.5 16.3 6.3 34.898 10.7 62.102 11.898 27.296 1.204 36 1.5 105.5 1.5s78.199-.296 105.5-1.5c27.199-1.199 45.898-5.597 62.097-11.898a130.934 130.934 0 0 0 74.903-74.898c6.296-16.301 10.699-34.903 11.898-62.102 1.2-27.3 1.5-36 1.5-105.5s-.102-78.2-1.3-105.5zm-46.098 209c-1.102 25-5.301 38.5-8.801 47.5-8.602 22.3-26.301 40-48.602 48.602-9 3.5-22.597 7.699-47.5 8.796-27 1.204-35.097 1.5-103.398 1.5s-76.5-.296-103.403-1.5c-25-1.097-38.5-5.296-47.5-8.796C94.551 451.5 84.45 445 76.25 436.5c-8.5-8.3-15-18.3-19.102-29.398-3.5-9-7.699-22.602-8.796-47.5-1.204-27-1.5-35.102-1.5-103.403s.296-76.5 1.5-103.398c1.097-25 5.296-38.5 8.796-47.5C61.25 94.199 67.75 84.1 76.352 75.898c8.296-8.5 18.296-15 29.398-19.097 9-3.5 22.602-7.7 47.5-8.801 27-1.2 35.102-1.5 103.398-1.5 68.403 0 76.5.3 103.403 1.5 25 1.102 38.5 5.3 47.5 8.8 11.097 4.098 21.199 10.598 29.398 19.098 8.5 8.301 15 18.301 19.102 29.403 3.5 9 7.699 22.597 8.8 47.5 1.2 27 1.5 35.097 1.5 103.398s-.3 76.301-1.5 103.301zm0 0" fill="#ffffff" data-original="#000000"></path>
      <path d="M256.45 124.5c-72.598 0-131.5 58.898-131.5 131.5s58.902 131.5 131.5 131.5c72.6 0 131.5-58.898 131.5-131.5s-58.9-131.5-131.5-131.5zm0 216.8c-47.098 0-85.302-38.198-85.302-85.3s38.204-85.3 85.301-85.3c47.102 0 85.301 38.198 85.301 85.3s-38.2 85.3-85.3 85.3zM423.852 119.3c0 16.954-13.747 30.7-30.704 30.7-16.953 0-30.699-13.746-30.699-30.7 0-16.956 13.746-30.698 30.7-30.698 16.956 0 30.703 13.742 30.703 30.699zm0 0" fill="#ffffff" data-original="#000000"></path>
    </g>
  </symbol>
  <symbol xmlns="http://www.w3.org/2000/svg" version="1.1" xmlns:xlink="http://www.w3.org/1999/xlink" xmlnsSvgjs="http://svgjs.com/svgjs" x="0" y="0" xml:space="preserve" viewBox="0 0 176 176" id="linkedin">
    <g>
      <path d="M152 0H24A24 24 0 0 0 0 24v128a24 24 0 0 0 24 24h128a24 24 0 0 0 24-24V24a24 24 0 0 0-24-24zM60 139.28a3.71 3.71 0 0 1-3.71 3.72H40.48a3.71 3.71 0 0 1-3.72-3.72V73a3.72 3.72 0 0 1 3.72-3.72h15.81A3.72 3.72 0 0 1 60 73zM48.38 63a15 15 0 1 1 15-15 15 15 0 0 1-15 15zm94.26 76.54a3.41 3.41 0 0 1-3.42 3.42h-17a3.41 3.41 0 0 1-3.42-3.42v-31.05c0-4.64 1.36-20.32-12.13-20.32-10.45 0-12.58 10.73-13 15.55v35.86A3.42 3.42 0 0 1 90.3 143H73.88a3.41 3.41 0 0 1-3.41-3.42V72.71a3.41 3.41 0 0 1 3.41-3.42H90.3a3.42 3.42 0 0 1 3.42 3.42v5.78c3.88-5.83 9.63-10.31 21.9-10.31 27.18 0 27 25.38 27 39.32z" fill="#ffffff" data-original="#000000"></path>
    </g>
  </symbol>
  <symbol xmlns="http://www.w3.org/2000/svg" version="1.1" xmlns:xlink="http://www.w3.org/1999/xlink" xmlnsSvgjs="http://svgjs.com/svgjs" x="0" y="0" xml:space="preserve" viewBox="0 0 438.536 438.536" id="twitter">
    <g>
      <path d="M414.41 24.123C398.333 8.042 378.963 0 356.315 0H82.228C59.58 0 40.21 8.042 24.126 24.123 8.045 40.207.003 59.576.003 82.225v274.084c0 22.647 8.042 42.018 24.123 58.102 16.084 16.084 35.454 24.126 58.102 24.126h274.084c22.648 0 42.018-8.042 58.095-24.126 16.084-16.084 24.126-35.454 24.126-58.102V82.225c-.001-22.649-8.043-42.021-24.123-58.102zm-78.939 144.612c.191 1.713.288 4.278.288 7.71 0 15.989-2.334 32.025-6.995 48.104-4.661 16.087-11.8 31.504-21.416 46.254-9.606 14.749-21.074 27.791-34.396 39.115-13.325 11.32-29.311 20.365-47.968 27.117-18.648 6.762-38.637 10.143-59.953 10.143-33.116 0-63.76-8.952-91.931-26.836 4.568.568 9.329.855 14.275.855 27.6 0 52.439-8.565 74.519-25.7-12.941-.185-24.506-4.179-34.688-11.991-10.185-7.803-17.273-17.699-21.271-29.691 4.947.76 8.658 1.137 11.132 1.137 4.187 0 9.042-.76 14.56-2.279-13.894-2.669-25.598-9.562-35.115-20.697-9.519-11.136-14.277-23.84-14.277-38.114v-.571c10.085 4.755 19.602 7.229 28.549 7.422-17.321-11.613-25.981-28.265-25.981-49.963 0-10.66 2.758-20.747 8.278-30.264 15.035 18.464 33.311 33.213 54.816 44.252 21.507 11.038 44.54 17.227 69.092 18.558-.95-3.616-1.427-8.186-1.427-13.704 0-16.562 5.853-30.692 17.56-42.399 11.703-11.706 25.837-17.561 42.394-17.561 17.515 0 32.079 6.283 43.688 18.846 13.134-2.474 25.892-7.33 38.26-14.56-4.757 14.652-13.613 25.788-26.55 33.402 12.368-1.716 23.88-4.95 34.537-9.708-7.993 12.181-17.989 22.554-29.98 31.123z" fill="#ffffff" data-original="#000000"></path>
    </g>
  </symbol>
</svg>